<svg xmlns="http://www.w3.org/2000/svg" width="1919.673" height="206" viewBox="0 0 1919.673 206">
  <g id="gallery" transform="translate(851.777)">
    <rect id="Rectangle_704" data-name="Rectangle 704" width="1919.673" height="206" transform="translate(-851.777)" fill="none"/>
    <g id="Group_3135" data-name="Group 3135" transform="translate(0 0)">
      <g id="Group_3134" data-name="Group 3134">
        <path id="Path_2830" data-name="Path 2830" d="M150.479,43.45H62.325L122.716,8.583a4.028,4.028,0,0,1,5.5,1.473l13.627,23.6a4.023,4.023,0,0,0,6.969-4.023L135.18,6.032a12.085,12.085,0,0,0-16.488-4.418L46.317,43.4c-.027.016-.051.034-.077.05H12.071A12.084,12.084,0,0,0,0,55.521V193.929A12.084,12.084,0,0,0,12.071,206H150.479a12.084,12.084,0,0,0,12.071-12.071V55.521A12.085,12.085,0,0,0,150.479,43.45ZM154.5,193.929a4.028,4.028,0,0,1-4.023,4.023H12.071a4.028,4.028,0,0,1-4.023-4.023V55.52A4.028,4.028,0,0,1,12.071,51.5H150.479A4.028,4.028,0,0,1,154.5,55.52V193.929Z" transform="translate(0 0)" fill="rgba(0,155,219,0.05)"/>
      </g>
    </g>
    <g id="Group_3137" data-name="Group 3137" transform="translate(173.103 82.711)">
      <g id="Group_3136" data-name="Group 3136">
        <path id="Path_2831" data-name="Path 2831" d="M437.105,206.753a4.021,4.021,0,1,0,1.179,2.845A4.054,4.054,0,0,0,437.105,206.753Z" transform="translate(-430.237 -205.574)" fill="rgba(0,155,219,0.05)"/>
      </g>
    </g>
    <g id="Group_3139" data-name="Group 3139" transform="translate(168.056 95.052)">
      <g id="Group_3138" data-name="Group 3138">
        <path id="Path_2832" data-name="Path 2832" d="M454.022,267.091l-16.647-28.834a4.023,4.023,0,1,0-6.969,4.023l16.647,28.834a4.028,4.028,0,0,1-1.473,5.5l-25.875,14.939a4.023,4.023,0,1,0,4.023,6.969L449.6,283.579A12.084,12.084,0,0,0,454.022,267.091Z" transform="translate(-417.693 -236.245)" fill="rgba(0,155,219,0.05)"/>
      </g>
    </g>
    <g id="Group_3141" data-name="Group 3141" transform="translate(98.978 62.762)">
      <g id="Group_3140" data-name="Group 3140">
        <path id="Path_2833" data-name="Path 2833" d="M252.873,157.171a4.02,4.02,0,1,0,1.179,2.845A4.052,4.052,0,0,0,252.873,157.171Z" transform="translate(-246.005 -155.992)" fill="rgba(0,155,219,0.05)"/>
      </g>
    </g>
    <g id="Group_3143" data-name="Group 3143" transform="translate(19.313 62.762)">
      <g id="Group_3142" data-name="Group 3142">
        <path id="Path_2834" data-name="Path 2834" d="M167.9,155.992H152.209a4.023,4.023,0,0,0,0,8.047h11.668V221.4L131.935,189.46a4.023,4.023,0,0,0-5.69,0L104.93,210.776a4.024,4.024,0,0,0,5.69,5.69L129.09,198l34.759,34.759.029.026v19.776H61.739l29.209-29.209,21.7,21.7a4.024,4.024,0,0,0,5.69-5.69L93.793,214.812a4.023,4.023,0,0,0-5.69,0L56.048,246.867V164.039h53.915a4.023,4.023,0,0,0,0-8.047H52.024A4.024,4.024,0,0,0,48,160.015V256.58a4.024,4.024,0,0,0,4.023,4.023H167.9a4.024,4.024,0,0,0,4.023-4.023V160.015A4.024,4.024,0,0,0,167.9,155.992Z" transform="translate(-48.001 -155.992)" fill="rgba(0,155,219,0.05)"/>
      </g>
    </g>
    <g id="Group_3145" data-name="Group 3145" transform="translate(45.734 80.063)">
      <g id="Group_3144" data-name="Group 3144">
        <path id="Path_2835" data-name="Path 2835" d="M126.544,198.992a12.875,12.875,0,1,0,12.875,12.875A12.89,12.89,0,0,0,126.544,198.992Zm0,17.7a4.828,4.828,0,1,1,4.828-4.828A4.834,4.834,0,0,1,126.544,216.7Z" transform="translate(-113.669 -198.992)" fill="rgba(0,155,219,0.05)"/>
      </g>
    </g>
  </g>
</svg>
