<svg xmlns="http://www.w3.org/2000/svg" width="1920" height="370" viewBox="0 0 1920 370">
  <g id="opinions-bg" transform="translate(0 -2914)">
    <rect id="Rectangle_626" data-name="Rectangle 626" width="1920" height="370" transform="translate(0 2914)" fill="none"/>
    <path id="opinios" d="M1.728,67.9c0,29.259,17.317,45.381,37.022,45.381A31.473,31.473,0,0,0,70.4,81.638c0-17.914-11.942-30.453-28.662-30.453-2.986,0-7.165.6-7.763.6C35.764,32.674,53.081,8.789,72.188-3.75L50.095-21.664C22.627-1.959,1.728,31.48,1.728,67.9Zm95.54,0c0,29.259,17.317,45.381,37.022,45.381,17.914,0,32.245-14.331,32.245-31.648,0-17.914-12.54-30.453-29.259-30.453-2.986,0-7.165.6-7.763.6C131.9,32.674,148.62,8.789,167.728-3.75L145.635-21.664C118.167-1.959,97.268,31.48,97.268,67.9Z" transform="translate(875.272 2935.664)" fill="#009bdb" opacity="0.05"/>
  </g>
</svg>
