<svg xmlns="http://www.w3.org/2000/svg" width="1920" height="206" viewBox="0 0 1920 206">
  <g id="group" transform="translate(857)">
    <rect id="Rectangle_631" data-name="Rectangle 631" width="1920" height="206" transform="translate(-857)" fill="none"/>
    <path id="Path_2880" data-name="Path 2880" d="M206,106.323V79.662A16.511,16.511,0,0,0,194.162,63.75l-21.387-6.416V52.287a23.233,23.233,0,0,0,9.968-19.058V23.258a23.258,23.258,0,0,0-46.516,0v9.968a23.224,23.224,0,0,0,9.968,19.058v5.047l-18.849,5.656a38.4,38.4,0,0,0-50.64-.581l-16.9-5.071V52.287a23.233,23.233,0,0,0,9.968-19.058V23.258a23.258,23.258,0,0,0-46.516,0v9.968a23.224,23.224,0,0,0,9.968,19.058v5.047L11.838,63.747A16.517,16.517,0,0,0,0,79.662v26.66H6.645V79.662a9.9,9.9,0,0,1,7.1-9.546L35.143,63.7c1.934,2.511,5.675,6.077,11.373,6.077s9.439-3.566,11.373-6.077l13.626,4.087a38.35,38.35,0,0,0-8.081,19.3A23.227,23.227,0,0,0,23.258,103v9.968a23.224,23.224,0,0,0,9.968,19.058v5.047l-21.387,6.416A16.517,16.517,0,0,0,0,159.4v29.983H39.871a3.329,3.329,0,0,1,3.323,3.323V206H162.806V192.71a3.329,3.329,0,0,1,3.323-3.323H206V159.4a16.511,16.511,0,0,0-11.838-15.912l-21.387-6.416v-5.047a23.233,23.233,0,0,0,9.968-19.058V103a23.238,23.238,0,0,0-39.871-16.248V83.606a17.867,17.867,0,0,0-9.131-15.592L148.111,63.7c1.934,2.508,5.675,6.074,11.373,6.074s9.439-3.566,11.373-6.077l21.4,6.42a9.9,9.9,0,0,1,7.1,9.546v26.66ZM46.516,6.645A16.632,16.632,0,0,1,63.129,23.258H47.892a8.076,8.076,0,0,1-5.672-2.349L39.871,18.56l-2.349,2.349a8.076,8.076,0,0,1-5.672,2.349H29.9A16.632,16.632,0,0,1,46.516,6.645ZM29.9,33.226V29.9H31.85a14.551,14.551,0,0,0,8.021-2.382A14.551,14.551,0,0,0,47.892,29.9H63.129v3.323a16.613,16.613,0,1,1-33.226,0Zm16.613,29.9c-3.532,0-5.821-2.967-6.645-4.236V55.507a23.059,23.059,0,0,0,13.29,0V58.89C52.337,60.165,50.048,63.129,46.516,63.129Zm91.33,58.317a23.359,23.359,0,0,0,8.347,10.583v5.047l-21.384,6.416a16.313,16.313,0,0,0-2.057.784l-3.139-.724v-6.546a26.72,26.72,0,0,0,8.068-10.9A16.546,16.546,0,0,0,137.847,121.446ZM103,142.871a26.4,26.4,0,0,0,9.968-1.957v3.618L103,152.008l-9.968-7.476v-3.618A26.4,26.4,0,0,0,103,142.871Zm-14.048,6.908,8.1,6.077-8.332,5-2.107-10.536ZM99.329,176.1h7.343l2.584,23.258H96.744Zm7.92-6.645h-8.5L96.84,163.73l6.16-3.694,6.157,3.694Zm1.7-13.6,8.1-6.077,2.339.539-2.107,10.536Zm24.687-39.506a9.964,9.964,0,0,1-4.2,2.685,26.942,26.942,0,0,0,.143-2.745v-15.9a10.032,10.032,0,0,1,6.595,8.261A9.911,9.911,0,0,1,133.635,116.35Zm-10.7-.06a19.935,19.935,0,1,1-39.871,0V99.677h11.28a42.73,42.73,0,0,0,20.586-5.26l2.628,5.26h5.376Zm-46.373,2.745a9.824,9.824,0,0,1-.143-18.641v15.9A26.944,26.944,0,0,0,76.562,119.035Zm1.757,7.073a26.662,26.662,0,0,0,8.068,10.9v6.546l-3.139.724a17.193,17.193,0,0,0-2.054-.784l-21.387-6.416v-5.047a23.38,23.38,0,0,0,8.347-10.583A16.546,16.546,0,0,0,78.319,126.109Zm-31.8-39.722A16.632,16.632,0,0,1,63.129,103H61.182a8.076,8.076,0,0,1-5.672-2.349L53.161,98.3l-2.349,2.349A8.076,8.076,0,0,1,45.14,103H29.9A16.632,16.632,0,0,1,46.516,86.387ZM29.9,112.968v-3.323H45.14a14.551,14.551,0,0,0,8.021-2.382,14.551,14.551,0,0,0,8.021,2.382h1.947v3.323a16.613,16.613,0,1,1-33.226,0Zm16.613,23.258a23.118,23.118,0,0,0,6.645-.98v3.386c-.824,1.275-3.113,4.239-6.645,4.239s-5.821-2.967-6.645-4.236v-3.386A23.229,23.229,0,0,0,46.516,136.226Zm-6.645,46.516H26.581V159.484H19.935v23.258H6.645V159.4a9.9,9.9,0,0,1,7.1-9.546l21.394-6.42c1.934,2.511,5.675,6.077,11.373,6.077s9.439-3.566,11.373-6.077l12.6,3.782-9.267,2.137A23.155,23.155,0,0,0,43.194,172.02V176.1h6.645V172.02a16.542,16.542,0,0,1,12.878-16.188l17.418-4.02,3.916,19.59L91,167.232l1.966,5.9-2.91,26.222H73.1V172.774H66.452v26.581H49.839V192.71A9.981,9.981,0,0,0,39.871,182.742Zm152.38-32.884a9.9,9.9,0,0,1,7.1,9.546v23.338h-13.29V159.484h-6.645v23.258h-13.29a9.981,9.981,0,0,0-9.968,9.968v6.645H139.548V172.774H132.9v26.581H115.942l-2.914-26.222,1.966-5.9,6.952,4.169,3.916-19.59,17.421,4.02a16.542,16.542,0,0,1,12.878,16.188V176.1h6.645V172.02a23.155,23.155,0,0,0-18.028-22.663l-9.267-2.137,12.6-3.782c1.934,2.511,5.675,6.077,11.373,6.077s9.439-3.566,11.373-6.077Zm-26.122-11.223c-.824,1.272-3.113,4.236-6.645,4.236s-5.831-2.977-6.645-4.236v-3.389a23.022,23.022,0,0,0,13.29,0Zm-6.645-9.054a16.632,16.632,0,0,1-16.613-16.613v-3.323h1.947a14.551,14.551,0,0,0,8.021-2.382,14.551,14.551,0,0,0,8.021,2.382H176.1v3.323A16.632,16.632,0,0,1,159.484,129.581Zm0-43.194A16.632,16.632,0,0,1,176.1,103H160.86a8.076,8.076,0,0,1-5.672-2.349L152.839,98.3l-2.349,2.349A8.076,8.076,0,0,1,144.818,103h-1.947A16.632,16.632,0,0,1,159.484,86.387Zm-23.258,10.25a17.455,17.455,0,0,0-10.539-3.6h-4.02l-4.087-8.173-3.131,2.086a36.123,36.123,0,0,1-20.1,6.087H80.313a17.455,17.455,0,0,0-10.539,3.6V91.723a31.919,31.919,0,0,1,54.487-22.57l3.525,3.525.745.25A11.241,11.241,0,0,1,136.226,83.6ZM159.484,6.645A16.632,16.632,0,0,1,176.1,23.258H174.15a8.076,8.076,0,0,1-5.672-2.349l-2.349-2.349-2.349,2.349a8.076,8.076,0,0,1-5.672,2.349H142.871A16.632,16.632,0,0,1,159.484,6.645ZM142.871,33.226V29.9h15.237a14.551,14.551,0,0,0,8.021-2.382A14.551,14.551,0,0,0,174.15,29.9H176.1v3.323a16.613,16.613,0,1,1-33.226,0Zm16.613,29.9c-3.538,0-5.831-2.977-6.645-4.236V55.5a23.022,23.022,0,0,0,13.29,0V58.89C165.3,60.165,163.016,63.129,159.484,63.129Zm0,0" fill="rgba(0,155,219,0.05)"/>
    <path id="Path_2881" data-name="Path 2881" d="M184,0h6.645V6.645H184Zm0,0" transform="translate(-107.581)" fill="rgba(0,155,219,0.05)"/>
    <path id="Path_2882" data-name="Path 2882" d="M184,32h6.645V68.548H184Zm0,0" transform="translate(-107.581 -18.71)" fill="rgba(0,155,219,0.05)"/>
    <path id="Path_2883" data-name="Path 2883" d="M296,0h6.645V6.645H296Zm0,0" transform="translate(-173.065)" fill="rgba(0,155,219,0.05)"/>
    <path id="Path_2884" data-name="Path 2884" d="M296,32h6.645V68.548H296Zm0,0" transform="translate(-173.065 -18.71)" fill="rgba(0,155,219,0.05)"/>
    <path id="Path_2885" data-name="Path 2885" d="M216,32h6.645V55.258H216Zm0,0" transform="translate(-126.29 -18.71)" fill="rgba(0,155,219,0.05)"/>
    <path id="Path_2886" data-name="Path 2886" d="M216,104h6.645v6.645H216Zm0,0" transform="translate(-126.29 -60.806)" fill="rgba(0,155,219,0.05)"/>
    <path id="Path_2887" data-name="Path 2887" d="M264,32h6.645V55.258H264Zm0,0" transform="translate(-154.355 -18.71)" fill="rgba(0,155,219,0.05)"/>
    <path id="Path_2888" data-name="Path 2888" d="M264,104h6.645v6.645H264Zm0,0" transform="translate(-154.355 -60.806)" fill="rgba(0,155,219,0.05)"/>
  </g>
</svg>
