<svg xmlns="http://www.w3.org/2000/svg" xmlns:xlink="http://www.w3.org/1999/xlink" width="24" height="24" viewBox="0 0 24 24">
  <defs>
    <clipPath id="clip-path">
      <rect id="Rectangle_429" data-name="Rectangle 429" width="24" height="24" transform="translate(-1195 2631)" fill="#bcbcbc"/>
    </clipPath>
  </defs>
  <g id="adobe-xd" transform="translate(0.974 10)">
    <g id="Mask_Group_18" data-name="Mask Group 18" transform="translate(1194.026 -2641)" clip-path="url(#clip-path)">
      <g id="computer-graphic" transform="translate(-1195 2623)">
        <g id="Group_3494" data-name="Group 3494" transform="translate(0 8)">
          <g id="Group_3493" data-name="Group 3493">
            <path id="Path_3763" data-name="Path 3763" d="M22.875,8H1.125A1.144,1.144,0,0,0,0,9.161V26.194a.381.381,0,0,0,.375.387H8.918l-.6,3.1H7.5a.381.381,0,0,0-.375.387v1.161h-.75V32h11.25v-.774h-.75V30.065a.381.381,0,0,0-.375-.387h-.818l-.6-3.1h8.543A.381.381,0,0,0,24,26.194V9.161A1.144,1.144,0,0,0,22.875,8Zm-7.5,22.452h.75v.774H7.875v-.774h7.5Zm-6.293-.774.6-3.1h4.636l.6,3.1ZM23.25,25.806H.75V22.323h22.5ZM18,11.484H15a.381.381,0,0,0-.375.387v3.484h.75v-3.1h2.25v1.548h-1.5v.774h1.5v1.935h-1.5v.774h1.5v1.935h-1.5V20h1.5v1.548h-2.25v-3.1h-.75v3.1h-1.5V19.613c0-1.58,1.859-1.927,1.937-1.941a.368.368,0,0,0,.131-.05.394.394,0,0,0,.129-.531l-3.375-5.806a.4.4,0,0,0-.1-.1.382.382,0,0,0-.542.1L7.929,17.091a.394.394,0,0,0-.048.134.386.386,0,0,0,.307.447c.079.014,1.938.361,1.938,1.941v1.935h-1.5v-3.1h-.75v3.1H7.5V14.581h.375v.774h.75V14.194a.393.393,0,0,0-.03-.153L7.47,11.331a.381.381,0,0,0-.2-.2.371.371,0,0,0-.492.2l-1.125,2.71a.393.393,0,0,0-.03.153v7.355h-3V10.71h18.75V21.548h-3V11.871A.381.381,0,0,0,18,11.484Zm-7.125,8.9V20h1.5v.387Zm1.5.774v.387h-1.5v-.387Zm-1.527-1.935A2.849,2.849,0,0,0,8.83,17.045l2.42-4.163v3.247H12V12.882l2.42,4.163A2.844,2.844,0,0,0,12.4,19.226Zm-4.28-5.419.557-1.342.557,1.342Zm.182.774v6.968H6.375V14.581Zm16.5,6.968H22.125V10.323a.381.381,0,0,0-.375-.387H2.25a.381.381,0,0,0-.375.387V21.548H.75V9.161a.381.381,0,0,1,.375-.387h21.75a.381.381,0,0,1,.375.387Z" transform="translate(0 -8)" fill="#bcbcbc"/>
          </g>
        </g>
        <g id="Group_3496" data-name="Group 3496" transform="translate(10.875 22.71)">
          <g id="Group_3495" data-name="Group 3495">
            <path id="Path_3764" data-name="Path 3764" d="M233.125,312a1.162,1.162,0,1,0,1.125,1.161A1.144,1.144,0,0,0,233.125,312Zm0,1.548a.387.387,0,1,1,.375-.387A.381.381,0,0,1,233.125,313.548Z" transform="translate(-232 -312)" fill="#bcbcbc"/>
          </g>
        </g>
      </g>
    </g>
  </g>
</svg>
