<svg xmlns="http://www.w3.org/2000/svg" width="1921" height="206" viewBox="0 0 1921 206">
  <g id="advertise" transform="translate(0 -244)">
    <rect id="Rectangle_894" data-name="Rectangle 894" width="1921" height="206" transform="translate(0 244)" fill="none"/>
    <path id="Union_4" data-name="Union 4" d="M-10331.247,209.632l-41.916-44.575a29.028,29.028,0,0,1-33.416-13.272,29.009,29.009,0,0,1,10.606-39.584l21.351-12.327,55.955-71.105-1.312-2.267a14.505,14.505,0,0,1,5.3-19.792,14.506,14.506,0,0,1,19.792,5.3l22.237,38.517,19.885-4.069a3.626,3.626,0,0,1,3.865,1.737l10.864,18.823a3.611,3.611,0,0,1-.429,4.212l-13.464,15.188,22.239,38.521a14.5,14.5,0,0,1-5.3,19.792,14.506,14.506,0,0,1-19.792-5.3l-1.312-2.27-83.229,11.992,25.521,26.394,4.968,1.335a8.637,8.637,0,0,1,5.276,4.088,8.646,8.646,0,0,1,.83,6.6,8.746,8.746,0,0,1-2.5,4.093,1.077,1.077,0,0,1-.085.074l-20.929,18.15a3.57,3.57,0,0,1-.562.4,3.618,3.618,0,0,1-1.808.482A3.62,3.62,0,0,1-10331.247,209.632Zm-34.923-47.716,37.82,40.215,18.245-15.825a1.453,1.453,0,0,0,.392-.662,1.445,1.445,0,0,0-.135-1.1,1.437,1.437,0,0,0-.875-.681l-5.916-1.584a3.613,3.613,0,0,1-1.666-.983l-29.183-30.173-4.77,2.754Zm-26.183-43.441a21.758,21.758,0,0,0-7.953,29.689,21.754,21.754,0,0,0,29.687,7.953l18.822-10.866-21.733-37.643Zm24.511-15.5,22.9,39.668,84.948-12.24-54.775-94.874Zm119.336,32.832a7.255,7.255,0,0,0,9.9,2.654,7.255,7.255,0,0,0,2.651-9.9l-32.6-56.464-9.056-15.684a.011.011,0,0,0,0,0l-23.542-40.775a7.253,7.253,0,0,0-9.9-2.651,7.254,7.254,0,0,0-2.652,9.9l1.812,3.136h0l61.575,106.653h0Zm-20.32-78.664,13.084,22.664,10.134-11.424-8.258-14.3ZM-10395,128.372l6.275-3.623,7.243,12.548-6.274,3.621Zm12.549-7.244,6.274-3.623,7.243,12.548-6.273,3.621Zm161.526-35.3.121-7.244,21.118.355-.121,7.244ZM-10239,50.852l18.822-10.867,3.621,6.274-18.82,10.867Zm-17.656-26.841,10.25-18.468,6.332,3.515-10.247,18.468Z" transform="translate(11265.456 239.229)" fill="rgba(0,155,219,0.05)"/>
  </g>
</svg>
