<svg xmlns="http://www.w3.org/2000/svg" xmlns:xlink="http://www.w3.org/1999/xlink" width="875.031" height="708.467" viewBox="0 0 875.031 708.467">
  <defs>
    <linearGradient id="linear-gradient" x1="0.739" y1="0.919" x2="0.15" y2="-0.114" gradientUnits="objectBoundingBox">
      <stop offset="0" stop-color="#0da5e3"/>
      <stop offset="0.012" stop-color="#009bdb"/>
      <stop offset="1" stop-color="#0063b0"/>
    </linearGradient>
    <linearGradient id="linear-gradient-2" x1="0.956" y1="0.89" x2="0.031" y2="0.248" gradientUnits="objectBoundingBox">
      <stop offset="0" stop-color="#009bdb"/>
      <stop offset="1" stop-color="#0063b0"/>
    </linearGradient>
    <linearGradient id="linear-gradient-3" x1="0.168" y1="0.15" x2="0.927" y2="0.95" gradientUnits="objectBoundingBox">
      <stop offset="0" stop-color="#ff6e3a"/>
      <stop offset="0.983" stop-color="#ffb846"/>
    </linearGradient>
    <linearGradient id="linear-gradient-4" x1="1" y1="0.5" x2="0" y2="0.5" gradientUnits="objectBoundingBox">
      <stop offset="0" stop-color="#fff"/>
      <stop offset="1" stop-color="#fff" stop-opacity="0"/>
    </linearGradient>
    <linearGradient id="linear-gradient-5" x1="0.5" y1="0.185" x2="0.5" y2="0.991" xlink:href="#linear-gradient-4"/>
    <linearGradient id="linear-gradient-6" x1="0.173" y1="0.149" x2="0.599" y2="0.901" gradientUnits="objectBoundingBox">
      <stop offset="0" stop-color="#002e7f"/>
      <stop offset="0.647" stop-color="#0063b0"/>
      <stop offset="1" stop-color="#009bdb"/>
    </linearGradient>
    <linearGradient id="linear-gradient-7" x1="1" y1="0.5" x2="0" y2="0.5" gradientUnits="objectBoundingBox">
      <stop offset="0" stop-color="#363990"/>
      <stop offset="0.647" stop-color="#6d45a1"/>
    </linearGradient>
  </defs>
  <g id="slider" transform="translate(0 -9.982)">
    <path id="Path_970" data-name="Path 970" d="M496.056,107.176C437.765,79.5,369.883,66.591,308.133,85.313c-75.222,22.807-129.1,87.279-177.91,148.89-34.558,43.62-69.476,88.47-87.854,141s-17.6,115,15.775,159.531c24.545,32.751,62.78,51.609,96.869,74.257,58.693,39,108.258,91.962,171.62,122.8a287.851,287.851,0,0,0,195.647,19.77c59.666-15.328,112.45-49.355,166.549-78.824,49.49-26.958,101.766-51.06,142.239-90.277,40.061-38.814,66.594-92.341,69-148.068S879.528,321.5,836.534,285.961a218.532,218.532,0,0,0-66.054-37.024C748.054,241.033,554.394,134.876,496.056,107.176Z" transform="translate(-25.21 -41.921)" fill="#009bdb" opacity="0.116"/>
    <g id="Group_2391" data-name="Group 2391" transform="translate(648.991 55.807)">
      <path id="Path_971" data-name="Path 971" d="M96.672,182.265c-1.9-.638-12.315-14.033-16.458-18.722a14.35,14.35,0,0,1-2.951-4.342,5.059,5.059,0,0,1,.6-5c1.43-1.652,3.449-3.137,7.206-2.08,6.539,1.84,8.21,4.624,10.472,8.8C103.029,174.744,96.672,182.265,96.672,182.265Z" transform="translate(52.938 -66.912)" fill="#0063b0"/>
      <path id="Path_972" data-name="Path 972" d="M130.984,184.066c-6.435.973-13.26,1.828-19.254-.7-2.327-.981-4.652-2.813-4.816-5.332a5.618,5.618,0,0,1,3.376-5.081,13.44,13.44,0,0,1,6.333-.967c8.13.267,18.528,4.279,25.467,8.524C142.09,180.507,134.825,183.485,130.984,184.066Z" transform="translate(-51.204 -45.917)" fill="#4a49ca"/>
      <path id="Path_973" data-name="Path 973" d="M135.632,137.808c3-.9,6.421-2.266,7.259-5.283s-1.668-6.213-4.689-7.071-6.288.006-9.119,1.367c-11.979,5.76-13.468,15.728-13.468,15.728S132.291,138.809,135.632,137.808Z" transform="translate(-69.934 -94.629)" fill="#0063b0"/>
      <path id="Path_974" data-name="Path 974" d="M134.257,122.983c2.507-.337,5.14-.853,7.027-2.537a4.14,4.14,0,0,0,1.552-3.212c-.137-2.056-.84-4.063-5.8-4.526-15.691-1.458-21.8,7.861-21.8,7.861S129.816,123.58,134.257,122.983Z" transform="translate(-68.952 -107.685)" fill="#0063b0"/>
      <path id="Path_975" data-name="Path 975" d="M159.232,135.872a24.507,24.507,0,0,1-13.67-12.634,15.173,15.173,0,0,1-1.548-6.829,6.748,6.748,0,0,1,3.494-5.758c2.6-1.222,5.848,0,7.732,2.166s2.672,5.071,3.178,7.9C159.093,124.486,159.232,135.872,159.232,135.872Z" transform="translate(-143.996 -110.166)" fill="#0063b0"/>
      <path id="Path_976" data-name="Path 976" d="M109.76,378.453q27.11-13.107,54.224-26.211c9.633-4.656,19.483-9.468,26.911-17.168,15.966-16.556,16.97-43.577,7.5-64.536s-27.488-36.805-46.365-49.945-39.216-24.341-56.457-39.565c-10.814-9.546-20.866-22.077-20.537-36.5a29.567,29.567,0,0,1,35.8-28.229" transform="translate(-48.541 -104.455)" fill="none" stroke="#0b43a4" stroke-linecap="round" stroke-linejoin="round" stroke-width="1"/>
      <path id="Path_977" data-name="Path 977" d="M138.217,114.565c.565,13.276,13.935,24.99,18.039,37.5" transform="translate(-129.233 -105.593)" fill="none" stroke="#0b43a4" stroke-linecap="round" stroke-linejoin="round" stroke-width="1"/>
      <path id="Path_978" data-name="Path 978" d="M142.193,129.014c-3.936,2.362-8.318,4-11.958,6.794-7.689,5.911-11.548,17.92-5.36,27.77" transform="translate(-81.69 -90.571)" fill="none" stroke="#0b43a4" stroke-linecap="round" stroke-linejoin="round" stroke-width="1"/>
      <path id="Path_979" data-name="Path 979" d="M143.357,173.109c-15.548,6.29-34.2,8.165-50.524,4.285" transform="translate(-23.767 -44.728)" fill="none" stroke="#0b43a4" stroke-linecap="round" stroke-linejoin="round" stroke-width="1"/>
      <path id="Path_980" data-name="Path 980" d="M78.611,213.178c10.743-15.732,10.133-38.337-1.442-53.465" transform="translate(65.263 -58.655)" fill="none" stroke="#0b43a4" stroke-linecap="round" stroke-linejoin="round" stroke-width="1"/>
    </g>
    <path id="Path_981" data-name="Path 981" d="M420.193,96.333C357.352,81.682,288.277,83.5,231.919,114.925,163.265,153.2,124.328,227.654,89.729,298.234,65.235,348.2,40.649,399.453,33.862,454.687S41.115,570.8,83.192,607.216C114.138,634,155.508,644.3,193.633,659.184c65.642,25.626,125.334,66.843,193.8,83.5A287.851,287.851,0,0,0,582.814,720.41C637.858,692.746,682.2,648.276,728.8,607.979c42.627-36.863,88.586-71.531,119.795-118.453,30.892-46.445,45.439-104.389,35.945-159.354S840.462,224.231,790.9,198.646a218.51,218.51,0,0,0-72.414-22.134C694.891,173.556,483.088,111,420.193,96.333Z" transform="translate(-14.226 -77.503)" fill="#e1efff" opacity="0.224"/>
    <g id="Group_2392" data-name="Group 2392" transform="translate(297.437 52.803)">
      <path id="Path_982" data-name="Path 982" d="M245.162,213.979H231.607a3.226,3.226,0,0,1-3.227-3.227V179.312a3.226,3.226,0,0,1,3.227-3.227h13.555c.383-1.656.828-3.31,1.32-4.922l-11.742-6.778a3.227,3.227,0,0,1-1.179-4.408l15.722-27.229a3.223,3.223,0,0,1,4.406-1.181l11.756,6.788q1.75-1.842,3.592-3.59l0-.006L262.252,123a3.227,3.227,0,0,1,1.181-4.408l27.231-15.722a3.225,3.225,0,0,1,4.406,1.181l6.786,11.75c1.611-.492,3.253-.936,4.911-1.32h0V100.92A3.227,3.227,0,0,1,310,97.693H341.44a3.226,3.226,0,0,1,3.227,3.227v13.566h0c1.658.383,3.3.83,4.912,1.32l6.786-11.75a3.225,3.225,0,0,1,4.406-1.181L388,118.6A3.226,3.226,0,0,1,389.184,123L382.4,134.762l0,0q1.842,1.747,3.59,3.59l11.759-6.788a3.226,3.226,0,0,1,4.408,1.181l15.722,27.229a3.229,3.229,0,0,1-1.181,4.408l-11.742,6.78c.49,1.609.934,3.263,1.318,4.92h13.56a3.226,3.226,0,0,1,3.225,3.227v31.441a3.226,3.226,0,0,1-3.225,3.227h-13.56c-.383,1.658-.828,3.3-1.32,4.914l0,.006,11.746,6.78a3.229,3.229,0,0,1,1.181,4.408l-15.722,27.229a3.228,3.228,0,0,1-4.408,1.183l-11.757-6.788q-1.75,1.842-3.592,3.592l0,0,6.788,11.757A3.226,3.226,0,0,1,388,271.469l-27.231,15.722a3.223,3.223,0,0,1-4.406-1.181l-6.784-11.748c-1.613.492-3.255.936-4.914,1.322h0v13.562a3.226,3.226,0,0,1-3.227,3.227H310a3.227,3.227,0,0,1-3.227-3.227V275.583h0c-1.658-.383-3.3-.83-4.913-1.322L295.07,286.01a3.223,3.223,0,0,1-4.406,1.181l-27.231-15.722a3.227,3.227,0,0,1-1.181-4.408l6.788-11.754,0,0q-1.845-1.75-3.594-3.592L253.688,258.5a3.226,3.226,0,0,1-4.406-1.183l-15.722-27.229a3.227,3.227,0,0,1,1.179-4.408l11.744-6.78,0-.006C245.99,217.28,245.546,215.638,245.162,213.979Zm71.5,26.163c32.2,6.478,60.645-21.973,54.169-54.169a46.272,46.272,0,0,0-36.167-36.088c-32.114-6.37-60.459,21.975-54.091,54.089A46.277,46.277,0,0,0,316.664,240.142Z" transform="translate(-228.38 -97.693)" fill="#0063b0"/>
    </g>
    <g id="Group_2393" data-name="Group 2393" transform="translate(400.985 453.969)" opacity="0.503">
      <path id="Path_983" data-name="Path 983" d="M194.394,410.663H180.839a3.226,3.226,0,0,1-3.227-3.227V375.993a3.226,3.226,0,0,1,3.227-3.225h13.555c.383-1.656.828-3.312,1.32-4.922l-11.74-6.778a3.226,3.226,0,0,1-1.181-4.408l15.722-27.229a3.223,3.223,0,0,1,4.406-1.181l11.756,6.788q1.75-1.842,3.592-3.592l0,0-6.788-11.759a3.225,3.225,0,0,1,1.181-4.406L239.9,299.558a3.223,3.223,0,0,1,4.406,1.181l6.786,11.75c1.611-.491,3.253-.936,4.911-1.32h0V297.6a3.227,3.227,0,0,1,3.227-3.227h31.443A3.226,3.226,0,0,1,293.9,297.6v13.566h0c1.658.384,3.3.828,4.911,1.32l6.786-11.75A3.223,3.223,0,0,1,310,299.558l27.231,15.722a3.224,3.224,0,0,1,1.181,4.406l-6.788,11.759,0,0q1.842,1.75,3.59,3.592l11.759-6.788a3.226,3.226,0,0,1,4.408,1.181l15.722,27.229a3.229,3.229,0,0,1-1.181,4.408l-11.742,6.78c.489,1.609.934,3.264,1.318,4.92h13.56a3.225,3.225,0,0,1,3.225,3.225v31.443a3.226,3.226,0,0,1-3.225,3.227H355.5c-.383,1.658-.828,3.3-1.32,4.914l0,0,11.746,6.782a3.229,3.229,0,0,1,1.181,4.408L351.388,454a3.226,3.226,0,0,1-4.408,1.181l-11.756-6.786q-1.75,1.842-3.592,3.592l0,0,6.788,11.757a3.226,3.226,0,0,1-1.181,4.408L310,483.874a3.225,3.225,0,0,1-4.406-1.181l-6.784-11.748c-1.611.492-3.255.936-4.914,1.322h0v13.562a3.227,3.227,0,0,1-3.227,3.227H259.228A3.229,3.229,0,0,1,256,485.829V472.267h0c-1.658-.385-3.3-.83-4.914-1.322L244.3,482.693a3.225,3.225,0,0,1-4.406,1.181l-27.231-15.721a3.227,3.227,0,0,1-1.181-4.408l6.788-11.754,0,0q-1.842-1.75-3.594-3.592l-11.754,6.786A3.223,3.223,0,0,1,198.514,454L182.793,426.77a3.226,3.226,0,0,1,1.181-4.408l11.742-6.78,0-.006C195.222,413.964,194.778,412.322,194.394,410.663Zm71.5,26.163c32.2,6.476,60.645-21.973,54.169-54.169a46.277,46.277,0,0,0-36.167-36.09c-32.114-6.368-60.459,21.977-54.091,54.091A46.28,46.28,0,0,0,265.9,436.826Z" transform="translate(-177.612 -294.377)" fill="#c7e1f9"/>
    </g>
    <g id="Group_2394" data-name="Group 2394" transform="translate(230.4 56.447)">
      <path id="Path_984" data-name="Path 984" d="M329.52,139.651h-4.683a1.116,1.116,0,0,1-1.116-1.116V127.674a1.114,1.114,0,0,1,1.116-1.114h4.683c.133-.573.286-1.144.455-1.7l-4.055-2.341a1.112,1.112,0,0,1-.408-1.522l5.43-9.407a1.115,1.115,0,0,1,1.524-.408l4.061,2.344q.606-.633,1.24-1.24l0,0-2.346-4.061a1.116,1.116,0,0,1,.408-1.522l9.407-5.432a1.116,1.116,0,0,1,1.524.408l2.344,4.059c.557-.169,1.124-.322,1.7-.455h0v-4.687a1.114,1.114,0,0,1,1.116-1.114h10.861a1.114,1.114,0,0,1,1.116,1.114v4.687h0c.573.133,1.14.286,1.7.455l2.344-4.059a1.114,1.114,0,0,1,1.522-.408l9.407,5.432a1.112,1.112,0,0,1,.408,1.522l-2.344,4.063h0q.636.606,1.242,1.242l4.061-2.346a1.112,1.112,0,0,1,1.521.408L389.183,121a1.114,1.114,0,0,1-.408,1.522l-4.057,2.341c.169.557.324,1.128.457,1.7h4.683a1.112,1.112,0,0,1,1.114,1.114v10.861a1.114,1.114,0,0,1-1.114,1.116h-4.683c-.133.573-.288,1.14-.457,1.7v0l4.057,2.342a1.116,1.116,0,0,1,.408,1.524l-5.432,9.407a1.114,1.114,0,0,1-1.521.408l-4.061-2.346q-.606.636-1.242,1.242h0l2.344,4.061a1.114,1.114,0,0,1-.408,1.524l-9.407,5.43a1.112,1.112,0,0,1-1.522-.408l-2.344-4.057c-.557.169-1.124.322-1.7.455h0v4.685a1.116,1.116,0,0,1-1.116,1.116H351.917a1.116,1.116,0,0,1-1.116-1.116V160.93c-.573-.133-1.14-.286-1.7-.455l-2.344,4.057a1.114,1.114,0,0,1-1.524.408l-9.407-5.43a1.118,1.118,0,0,1-.408-1.524l2.346-4.061h0q-.636-.606-1.24-1.242l-4.061,2.346a1.116,1.116,0,0,1-1.524-.408l-5.43-9.407a1.114,1.114,0,0,1,.408-1.524l4.057-2.342,0,0C329.805,140.791,329.652,140.224,329.52,139.651Zm24.7,9.038a15.9,15.9,0,1,0-12.466-12.495A15.9,15.9,0,0,0,354.22,148.689Z" transform="translate(-323.721 -99.48)" fill="#0063b0"/>
    </g>
    <g id="Group_2397" data-name="Group 2397" transform="translate(746.885 302.726)">
      <g id="Group_2395" data-name="Group 2395" transform="translate(5.607)">
        <path id="Path_985" data-name="Path 985" d="M84.324,339.446c11.192-9.892,22.518-19.936,30.788-32.375,7.2-10.833,11.854-23.136,18.139-34.527,4.067-7.371,8.87-14.473,11.226-22.558s1.791-17.653-3.953-23.811c-5.99-6.421-16.295-7.406-24.429-4.1s-14.353,10.147-19.1,17.533A83.581,83.581,0,0,0,84.719,272.1c-1.591,10.447-1.185,21.123-2.809,31.566a105.625,105.625,0,0,1-8.905,27.986c-3.739,8.085-13.211,22.5-15.626,30.786C64.072,365.79,79.551,343.664,84.324,339.446Z" transform="translate(-57.38 -220.226)" fill="#00ad9f"/>
        <path id="Path_986" data-name="Path 986" d="M129.983,228.382c-10.645,4.659-14.877,17.351-17.1,28.755-2.527,12.98-1.968,27.034-7.918,38.843-11.21,22.244-25.8,47.567-36.646,55.132" transform="translate(-63.9 -211.746)" fill="none" stroke="#00ad9f" stroke-linecap="round" stroke-linejoin="round" stroke-width="1"/>
      </g>
      <g id="Group_2396" data-name="Group 2396" transform="translate(0 85.812)">
        <path id="Path_987" data-name="Path 987" d="M133.222,265.274c9.291-3.669,21.694-5.177,27.652,2.841,4.985,6.713,2.4,16.227-1.04,23.846-2.909,6.433-6.6,12.974-12.736,16.47-4.187,2.388-9.1,3.106-13.886,3.675a332.753,332.753,0,0,1-40.259,2.329c-15.589-.045-34.472,6.323-47.371,16.044C62.134,299.712,101.958,277.62,133.222,265.274Z" transform="translate(-45.582 -262.298)" fill="#0063b0"/>
        <path id="Path_988" data-name="Path 988" d="M150.842,273.563c-11.826.5-23.756,1.334-35.1,4.691-11.606,3.431-56.249,23.919-63.227,32.638" transform="translate(-46.904 -250.586)" fill="none" stroke="#002e7f" stroke-linecap="round" stroke-linejoin="round" stroke-width="1"/>
      </g>
    </g>
    <g id="Group_2398" data-name="Group 2398" transform="translate(0 283.919)">
      <path id="Path_989" data-name="Path 989" d="M533.658,383.157c-11.151-18.359-5.456-41.97-9.338-63.094A69.724,69.724,0,0,0,499.374,278.5c-8.114-6.445-19.511-11.051-28.684-6.217-7.855,4.14-8.852-7.814-9.1-12.756-.7-14.01,1.534-26.687-10.777-36.346-10-7.849-26.35-13.254-39.178-11.989a15.812,15.812,0,0,0-10.168,4.659c-4,4.367-4.293,11.171-2.278,16.739,5.807,16.036,22.714,27.129,31.714,41.362,4.114,6.5,7.69,14.357,5.371,22.159-1.189,4-5.256,6.914-5.666,10.914-.63,6.174,6.276,11.63,11.145,13.961a58.671,58.671,0,0,0,19.817,5.485c13.195,1.236,17.182,6.292,14.541,19.617-1.978,9.986.485,16.421,7.734,23.395A155.215,155.215,0,0,0,507.71,388.3c6.927,4.436,14.257,8.359,20.4,13.831s11.1,12.88,11.505,21.1c3.967-6.166,5.2-14.408,4.279-21.684S537.464,389.423,533.658,383.157Z" transform="translate(-397.97 -211.005)" fill="#52d2bc"/>
      <path id="Path_990" data-name="Path 990" d="M519.136,404.558c-1.069-5.23-1.77-9.758-4.289-14.677-2.5-4.881-5.615-9.413-8.432-14.11-7.747-12.909-12.175-27.668-16.295-42.051-3.865-13.5-13.88-27.413-23.374-37.609-7.343-7.889-16.3-14.129-23.766-21.9a81.4,81.4,0,0,1-13.425-18.638c-1.934-3.69-3.6-7.565-6.211-10.814-3.1-3.857-7.328-6.6-11.012-9.9a47.2,47.2,0,0,1-11.671-16.1" transform="translate(-378.416 -202.947)" fill="none" stroke="#00ad9f" stroke-linecap="round" stroke-linejoin="round" stroke-width="1"/>
    </g>
    <g id="Group_2399" data-name="Group 2399" transform="translate(4.956 432.205)">
      <path id="Path_991" data-name="Path 991" d="M398.926,300.033a89.679,89.679,0,0,0,9.648,4.712,115.82,115.82,0,0,0,40.324,8.934c20.152.755,40.874-3.692,60.21,2.06a59.326,59.326,0,0,1,23.762,13.768c.673.326,1.346.694,2.019,1.081,1.611-13.645-32.41-31.431-42.751-36.061a123.252,123.252,0,0,0-59.864-10.443c-8.934.714-18.092,2.468-25.455,7.547A27.241,27.241,0,0,0,398.926,300.033Z" transform="translate(-395.641 -283.707)" fill="#5275a0" opacity="0.2"/>
      <path id="Path_992" data-name="Path 992" d="M435.557,288.08c-8.93.712-18.088,2.466-25.461,7.547s-12.564,14.157-10.843,22.946c2,10.239,12.589,16.9,22.944,18.159s20.7-1.591,30.921-3.694a220.424,220.424,0,0,1,68.9-3.149c5.721.64,11.151,1.776,16.162,4.7,1.609-13.653-32.426-31.433-42.767-36.065A123.3,123.3,0,0,0,435.557,288.08Z" transform="translate(-398.922 -279.549)" fill="#3ebdf2"/>
      <path id="Path_993" data-name="Path 993" d="M519.892,317.836c-16.9-14.851-60.267-24.931-90.938-21.683-9.242.979-18.561,3.737-25.663,9.729" transform="translate(-389.492 -271.401)" fill="none" stroke="#0b43a4" stroke-linecap="round" stroke-linejoin="round" stroke-width="1"/>
    </g>
    <g id="Group_2400" data-name="Group 2400" transform="translate(49.512 514.603)">
      <path id="Path_994" data-name="Path 994" d="M441.326,327.92a3.341,3.341,0,0,0-3.031,1.5,2.466,2.466,0,0,0,.251,2.676c4.838,5.421,14.486,1.53,14.486,1.53S450.215,327.9,441.326,327.92Z" transform="translate(-438.017 -320.139)" fill="#0063b0"/>
      <path id="Path_995" data-name="Path 995" d="M431.855,325.723c6.066-6.5,10.229,8.232,7.577,14.894C439.432,340.616,426.633,331.315,431.855,325.723Z" transform="translate(-410.109 -324.105)" fill="#0063b0"/>
      <path id="Path_996" data-name="Path 996" d="M440.106,336.9c-1.674-.547-3.806-.243-4.74,1.25a3.776,3.776,0,0,0,.1,3.751,8.426,8.426,0,0,0,3.59,3.082,13.135,13.135,0,0,0,12.609-1.293S442.848,337.8,440.106,336.9Z" transform="translate(-430.309 -311.066)" fill="#0063b0"/>
      <path id="Path_997" data-name="Path 997" d="M420.3,362.173a3.429,3.429,0,0,0-3.162,1.717,3.006,3.006,0,0,0,.055,2.335,6.821,6.821,0,0,0,1.356,1.964,7.312,7.312,0,0,0,4.418,2.268c4.291.594,8.481-2.119,8.481-2.119S423.453,362.12,420.3,362.173Z" transform="translate(-373.411 -284.528)" fill="#0063b0"/>
      <path id="Path_998" data-name="Path 998" d="M416.929,357.915a9.818,9.818,0,0,1-4.687-9.14,5.2,5.2,0,0,1,.877-2.566c1.216-1.664,3.669-2.017,5.615-1.332a12.689,12.689,0,0,1,4.869,3.708c2.521,2.76,4.449,7.687,6.447,10.847C430.05,359.432,423.205,361.643,416.929,357.915Z" transform="translate(-362.378 -302.852)" fill="#0063b0"/>
      <path id="Path_999" data-name="Path 999" d="M382.771,329.891c7.7-.137,14.953,4.2,20,10.015s8.22,13,11.067,20.152,5.489,14.473,9.7,20.917c4.108,6.282,10.233,11.875,17.69,12.719,9.076,1.028,17.5-5.232,22.922-12.581s8.911-16,14.506-23.224c2.568-3.316,5.819-6.445,9.931-7.279,5.478-1.114,10.816,2.074,15.5,5.123" transform="translate(-376.402 -318.093)" fill="none" stroke="#0b43a4" stroke-linecap="round" stroke-linejoin="round" stroke-width="1"/>
      <path id="Path_1000" data-name="Path 1000" d="M429.046,338.558a44.054,44.054,0,0,0,24.037,2.864" transform="translate(-419.771 -309.079)" fill="none" stroke="#0b43a4" stroke-linecap="round" stroke-linejoin="round" stroke-width="1"/>
      <path id="Path_1001" data-name="Path 1001" d="M430.972,327.276a35.154,35.154,0,0,1,4.226,7.959,13.562,13.562,0,0,1-.891,9.4" transform="translate(-406.296 -320.808)" fill="none" stroke="#0b43a4" stroke-linecap="round" stroke-linejoin="round" stroke-width="1"/>
      <path id="Path_1002" data-name="Path 1002" d="M411.461,367.77a15.047,15.047,0,0,0,11.041,1.173c3.647-1.036,7.365-4.457,9.278-7.732" transform="translate(-362.6 -285.528)" fill="none" stroke="#0b43a4" stroke-linecap="round" stroke-linejoin="round" stroke-width="1"/>
      <path id="Path_1003" data-name="Path 1003" d="M405.659,348.51a151.837,151.837,0,0,1,17.7,11.334c2.7,2.027,6.772,6.478,6.914,8.995" transform="translate(-349.264 -298.732)" fill="none" stroke="#0b43a4" stroke-linecap="round" stroke-linejoin="round" stroke-width="1"/>
    </g>
    <path id="Path_1004" data-name="Path 1004" d="M99.32,584.327,722.9,585.614a15.065,15.065,0,0,0,15.1-15.032l.853-413.108a15.064,15.064,0,0,0-15.032-15.1l-623.577-1.287a15.067,15.067,0,0,0-15.1,15.034l-.853,413.106A15.065,15.065,0,0,0,99.32,584.327Z" transform="translate(47.17 0.228)" fill="#5275a0" opacity="0.2"/>
    <path id="Path_1005" data-name="Path 1005" d="M90.916,562.573v.039a15.062,15.062,0,0,0,15.032,15.053l399.016.816,224.545.471a15.078,15.078,0,0,0,15.114-15.032l.836-413.11a15.074,15.074,0,0,0-15.032-15.1l-623.561-1.283a15.074,15.074,0,0,0-15.114,15.03l-.041,16.093Z" transform="translate(27.032 -6.696)" fill="#fff"/>
    <path id="Path_1006" data-name="Path 1006" d="M107.533,136.193l620.909,1.281A16.4,16.4,0,0,1,744.8,153.905l-.029,14.259-653.7-1.35.031-14.259A16.4,16.4,0,0,1,107.533,136.193Z" transform="translate(27.37 -4.864)" fill="#009bdb"/>
    <path id="Rectangle_359" data-name="Rectangle 359" d="M2.618,0H81.232A2.617,2.617,0,0,1,83.85,2.617V9.65a2.617,2.617,0,0,1-2.617,2.617H2.617A2.617,2.617,0,0,1,0,9.65V2.618A2.618,2.618,0,0,1,2.618,0Z" transform="matrix(-1, -0.002, 0.002, -1, 755.146, 544.469)" fill="#fff"/>
    <rect id="Rectangle_360" data-name="Rectangle 360" width="203.003" height="60.249" rx="3.109" transform="translate(559.469 392.364)" fill="#d1ebff"/>
    <rect id="Rectangle_361" data-name="Rectangle 361" width="203.003" height="60.249" rx="3.109" transform="translate(547.488 376.313)" fill="#d1ebff" opacity="0.342"/>
    <path id="Path_1007" data-name="Path 1007" d="M432.776,250.318h0a46.383,46.383,0,0,0,46.382-46.384h0a46.381,46.381,0,0,0-46.382-46.382h0a46.381,46.381,0,0,0-46.382,46.382h0A46.383,46.383,0,0,0,432.776,250.318Z" transform="translate(-309.337 17.343)" fill="#00d5cf"/>
    <path id="Path_1008" data-name="Path 1008" d="M103.47,146.871a5.283,5.283,0,1,0,5.295-5.272A5.283,5.283,0,0,0,103.47,146.871Z" transform="translate(632.85 0.756)" fill="#fff"/>
    <path id="Path_1009" data-name="Path 1009" d="M114.435,146.847a5.283,5.283,0,1,0,5.295-5.27A5.284,5.284,0,0,0,114.435,146.847Z" transform="translate(599.52 0.733)" fill="#fff"/>
    <path id="Path_1010" data-name="Path 1010" d="M125.4,146.827a5.284,5.284,0,1,0,5.295-5.273A5.284,5.284,0,0,0,125.4,146.827Z" transform="translate(566.191 0.71)" fill="#fff"/>
    <rect id="Rectangle_362" data-name="Rectangle 362" width="243.584" height="57.222" rx="3.109" transform="translate(569.36 430.73)" fill="#5275a0" opacity="0.2"/>
    <rect id="Rectangle_363" data-name="Rectangle 363" width="243.584" height="57.222" rx="3.109" transform="translate(573.44 424.779)" fill="url(#linear-gradient)"/>
    <rect id="Rectangle_364" data-name="Rectangle 364" width="243.584" height="133.709" rx="3.109" transform="translate(184.503 349.164)" fill="#d1ebff" opacity="0.342"/>
    <rect id="Rectangle_365" data-name="Rectangle 365" width="243.584" height="147.29" rx="3.109" transform="translate(163.644 348.85)" fill="#0063b0"/>
    <rect id="Rectangle_366" data-name="Rectangle 366" width="64.505" height="10.312" rx="2.2" transform="translate(746.885 249.732) rotate(-179.882)" fill="#009bdb"/>
    <rect id="Rectangle_367" data-name="Rectangle 367" width="40.682" height="10.312" rx="2.2" transform="matrix(-1, -0.002, 0.002, -1, 746.885, 341.804)" fill="url(#linear-gradient-2)"/>
    <path id="Rectangle_368" data-name="Rectangle 368" d="M2.2,0H133.754a2.2,2.2,0,0,1,2.2,2.2V8.112a2.2,2.2,0,0,1-2.2,2.2H2.2A2.2,2.2,0,0,1,0,8.112V2.2A2.2,2.2,0,0,1,2.2,0Z" transform="matrix(-1, -0.002, 0.002, -1, 746.885, 267.871)" fill="#009bdb"/>
    <g id="Group_2401" data-name="Group 2401" transform="translate(573.524 281.679)">
      <rect id="Rectangle_369" data-name="Rectangle 369" width="173.357" height="3.757" rx="0.802" transform="matrix(-1, -0.002, 0.002, -1, 173.366, 12.368)" fill="#dfe3e5"/>
      <rect id="Rectangle_370" data-name="Rectangle 370" width="173.357" height="3.757" rx="0.802" transform="matrix(-1, -0.002, 0.002, -1, 173.366, 4.115)" fill="#dfe3e5"/>
      <rect id="Rectangle_371" data-name="Rectangle 371" width="173.357" height="3.757" rx="0.802" transform="matrix(-1, -0.002, 0.002, -1, 173.361, 20.621)" fill="#dfe3e5"/>
      <rect id="Rectangle_372" data-name="Rectangle 372" width="173.357" height="3.757" rx="0.802" transform="matrix(-1, -0.002, 0.002, -1, 173.356, 28.874)" fill="#dfe3e5"/>
      <rect id="Rectangle_373" data-name="Rectangle 373" width="133.74" height="3.757" rx="0.802" transform="matrix(-1, -0.002, 0.002, -1, 173.352, 37.086)" fill="#dfe3e5"/>
    </g>
    <g id="Group_2402" data-name="Group 2402" transform="translate(412.675 519.265)">
      <rect id="Rectangle_374" data-name="Rectangle 374" width="112.463" height="3.757" rx="0.802" transform="matrix(-1, -0.002, 0.002, -1, 112.481, 12.243)" fill="#dfe3e5"/>
      <rect id="Rectangle_375" data-name="Rectangle 375" width="112.463" height="3.758" rx="0.802" transform="translate(112.487 3.99) rotate(-179.882)" fill="#dfe3e5"/>
      <rect id="Rectangle_376" data-name="Rectangle 376" width="112.463" height="3.758" rx="0.802" transform="matrix(-1, -0.002, 0.002, -1, 112.472, 20.496)" fill="#dfe3e5"/>
      <rect id="Rectangle_377" data-name="Rectangle 377" width="112.463" height="3.757" rx="0.802" transform="translate(112.462 28.749) rotate(-179.882)" fill="#dfe3e5"/>
      <rect id="Rectangle_378" data-name="Rectangle 378" width="86.762" height="3.757" rx="0.802" transform="translate(112.453 36.961) rotate(-179.882)" fill="#dfe3e5"/>
    </g>
    <g id="Group_2403" data-name="Group 2403" transform="translate(287.056 519.323)">
      <rect id="Rectangle_379" data-name="Rectangle 379" width="112.463" height="3.757" rx="0.802" transform="translate(112.481 12.243) rotate(-179.882)" fill="#dfe3e5"/>
      <rect id="Rectangle_380" data-name="Rectangle 380" width="112.463" height="3.757" rx="0.802" transform="translate(112.487 3.99) rotate(-179.882)" fill="#dfe3e5"/>
      <rect id="Rectangle_381" data-name="Rectangle 381" width="112.463" height="3.757" rx="0.802" transform="matrix(-1, -0.002, 0.002, -1, 112.472, 20.496)" fill="#dfe3e5"/>
      <rect id="Rectangle_382" data-name="Rectangle 382" width="112.463" height="3.757" rx="0.802" transform="matrix(-1, -0.002, 0.002, -1, 112.463, 28.749)" fill="#dfe3e5"/>
      <rect id="Rectangle_383" data-name="Rectangle 383" width="86.762" height="3.758" rx="0.802" transform="matrix(-1, -0.002, 0.002, -1, 112.453, 36.961)" fill="#dfe3e5"/>
    </g>
    <g id="Group_2404" data-name="Group 2404" transform="translate(161.436 519.323)">
      <rect id="Rectangle_384" data-name="Rectangle 384" width="112.463" height="3.757" rx="0.802" transform="translate(112.481 12.243) rotate(-179.882)" fill="#dfe3e5"/>
      <rect id="Rectangle_385" data-name="Rectangle 385" width="112.463" height="3.757" rx="0.802" transform="translate(112.487 3.99) rotate(-179.882)" fill="#dfe3e5"/>
      <rect id="Rectangle_386" data-name="Rectangle 386" width="112.463" height="3.757" rx="0.802" transform="matrix(-1, -0.002, 0.002, -1, 112.472, 20.496)" fill="#dfe3e5"/>
      <rect id="Rectangle_387" data-name="Rectangle 387" width="112.463" height="3.757" rx="0.802" transform="matrix(-1, -0.002, 0.002, -1, 112.463, 28.749)" fill="#dfe3e5"/>
      <rect id="Rectangle_388" data-name="Rectangle 388" width="86.762" height="3.758" rx="0.802" transform="matrix(-1, -0.002, 0.002, -1, 112.453, 36.961)" fill="#dfe3e5"/>
    </g>
    <g id="Group_2405" data-name="Group 2405" transform="translate(550.43 549.863)">
      <path id="Rectangle_389" data-name="Rectangle 389" d="M.8,0H37.468a.8.8,0,0,1,.8.8V2.956a.8.8,0,0,1-.8.8H.8a.8.8,0,0,1-.8-.8V.8A.8.8,0,0,1,.8,0Z" transform="matrix(-1, -0.002, 0.002, -1, 196.446, 3.836)" fill="#dfe3e5"/>
      <path id="Rectangle_390" data-name="Rectangle 390" d="M.8,0H37.468a.8.8,0,0,1,.8.8V2.956a.8.8,0,0,1-.8.8H.8a.8.8,0,0,1-.8-.8V.8A.8.8,0,0,1,.8,0Z" transform="matrix(-1, -0.002, 0.002, -1, 143.721, 3.836)" fill="#dfe3e5"/>
      <path id="Rectangle_391" data-name="Rectangle 391" d="M.8,0H37.468a.8.8,0,0,1,.8.8V2.956a.8.8,0,0,1-.8.8H.8a.8.8,0,0,1-.8-.8V.8A.8.8,0,0,1,.8,0Z" transform="matrix(-1, -0.002, 0.002, -1, 90.995, 3.836)" fill="#dfe3e5"/>
      <rect id="Rectangle_392" data-name="Rectangle 392" width="38.27" height="3.757" rx="0.802" transform="matrix(-1, -0.002, 0.002, -1, 38.27, 3.836)" fill="#dfe3e5"/>
    </g>
    <g id="Group_2407" data-name="Group 2407" transform="translate(588.214 427.329)">
      <path id="Path_1011" data-name="Path 1011" d="M88.247,308.825h185.7a9.758,9.758,0,0,0,9.758-9.758h0a9.757,9.757,0,0,0-9.758-9.758H88.247a9.757,9.757,0,0,0-9.758,9.758h0A9.758,9.758,0,0,0,88.247,308.825Z" transform="translate(-74.076 -273.005)" fill="#fff"/>
      <ellipse id="Ellipse_3" data-name="Ellipse 3" cx="21.649" cy="21.649" rx="21.649" ry="21.649" transform="translate(9.993 52.123) rotate(-103.344)" fill="#fff"/>
      <line id="Line_1" data-name="Line 1" y2="9.033" transform="translate(198.222 21.582)" fill="none" stroke="#a8a8a8" stroke-miterlimit="10" stroke-width="1"/>
      <g id="Group_2406" data-name="Group 2406" transform="translate(17.7 17.957)">
        <path id="Path_1012" data-name="Path 1012" d="M164.387,297.149a7.028,7.028,0,1,0,7.029-7.029A7.029,7.029,0,0,0,164.387,297.149Z" transform="translate(-161.721 -290.12)" fill="none" stroke="#002e7f" stroke-miterlimit="10" stroke-width="1"/>
        <line id="Line_2" data-name="Line 2" y1="4.161" x2="4.779" transform="translate(0 12.048)" fill="none" stroke="#002e7f" stroke-linecap="round" stroke-linejoin="round" stroke-width="1"/>
      </g>
    </g>
    <g id="Group_2409" data-name="Group 2409" transform="translate(247.926 202.38)">
      <path id="Path_1013" data-name="Path 1013" d="M217.191,362.678v.018a6.366,6.366,0,0,0,6.133,6.56l162.77.355,91.6.206a6.368,6.368,0,0,0,6.164-6.551l.343-180.031a6.37,6.37,0,0,0-6.133-6.576L223.7,176.1a6.37,6.37,0,0,0-6.166,6.551l-.016,7.012Z" transform="translate(-217.191 -165.758)" fill="#5275a0" opacity="0.2"/>
      <path id="Path_1014" data-name="Path 1014" d="M213.018,357.609v.018a6.364,6.364,0,0,0,6.131,6.56l162.77.355,91.6.206a6.368,6.368,0,0,0,6.166-6.551l.341-180.031a6.373,6.373,0,0,0-6.131-6.578l-254.368-.559a6.368,6.368,0,0,0-6.166,6.551l-.016,7.012Z" transform="translate(-204.505 -171.028)" fill="url(#linear-gradient-3)"/>
      <path id="Path_1015" data-name="Path 1015" d="M222.018,337.571H452.311V181.559" transform="translate(-195.148 -160.08)" fill="none" stroke="#d6451e" stroke-miterlimit="10" stroke-width="1" opacity="0.224"/>
      <path id="Path_1016" data-name="Path 1016" d="M450.193,283.338l-58.5-61.105-15.049,24.182-22.21-55.48-15.649,46.2-19-30.18-26.454,55.8-49.182-56.17-22.131,46.681v74.408H450.193Z" transform="translate(-193.03 -150.331)" opacity="0.241" fill="url(#linear-gradient-4)"/>
      <path id="Path_1017" data-name="Path 1017" d="M450.193,262.154l-64.831,28.553-48.2-97.992-26.321,69.439-43.221-45.22-45.6,49.337v59.553H450.193Z" transform="translate(-193.03 -148.481)" opacity="0.241" fill="url(#linear-gradient-5)"/>
      <line id="Line_3" data-name="Line 3" x1="33.161" transform="translate(30.744 18.898)" fill="none" stroke="#f9d938" stroke-miterlimit="10" stroke-width="1"/>
      <line id="Line_4" data-name="Line 4" x1="33.161" transform="translate(30.744 24.362)" fill="none" stroke="#f9d938" stroke-miterlimit="10" stroke-width="1"/>
      <line id="Line_5" data-name="Line 5" x1="33.161" transform="translate(30.744 29.827)" fill="none" stroke="#f9d938" stroke-miterlimit="10" stroke-width="1"/>
      <line id="Line_6" data-name="Line 6" x1="15.028" transform="translate(70.363 18.898)" fill="none" stroke="#f9d938" stroke-miterlimit="10" stroke-width="1"/>
      <line id="Line_7" data-name="Line 7" x1="15.028" transform="translate(70.363 24.362)" fill="none" stroke="#f9d938" stroke-miterlimit="10" stroke-width="1"/>
      <line id="Line_8" data-name="Line 8" x1="15.028" transform="translate(70.363 29.827)" fill="none" stroke="#f9d938" stroke-miterlimit="10" stroke-width="1"/>
      <path id="Path_1018" data-name="Path 1018" d="M447.2,243.173c-9.085,4.514-14.732,13.8-19.005,23s-7.81,19.012-14.6,26.552-18.043,12.27-27.252,8.018c-8.128-3.751-12.026-12.925-14.951-21.386a445.334,445.334,0,0,1-18.979-75.893c-.606-3.828-1.191-7.751-3.027-11.163s-5.222-6.27-9.1-6.329c-4.548-.069-8.24,3.533-11.122,7.053-19.275,23.536-27.654,54.087-44.02,79.732-3.208,5.028-7.439,10.3-13.368,10.93-4.736.5-9.193-2.152-13.074-4.911a129.052,129.052,0,0,1-29.993-29.862" transform="translate(-203.704 -155.491)" fill="none" stroke="#d6451e" stroke-miterlimit="10" stroke-width="1" opacity="0.224"/>
      <g id="Group_2408" data-name="Group 2408" transform="translate(23.238 66.095)">
        <path id="Path_1019" data-name="Path 1019" d="M227.848,214.537a1.774,1.774,0,1,0,1.774-1.777A1.774,1.774,0,0,0,227.848,214.537Z" transform="translate(-9.363 -193.737)" fill="#fff"/>
        <path id="Path_1020" data-name="Path 1020" d="M241.46,235.339a1.776,1.776,0,1,0,1.776-1.774A1.777,1.777,0,0,0,241.46,235.339Z" transform="translate(-50.741 -172.107)" fill="#fff"/>
        <circle id="Ellipse_4" data-name="Ellipse 4" cx="1.775" cy="1.775" r="1.775" transform="translate(127.422)" fill="#fff"/>
        <path id="Path_1021" data-name="Path 1021" d="M270.185,214.953a1.775,1.775,0,1,0,1.776-1.775A1.777,1.777,0,0,0,270.185,214.953Z" transform="translate(-138.055 -193.302)" fill="#fff"/>
        <path id="Path_1022" data-name="Path 1022" d="M334.966,217.945a1.775,1.775,0,1,0,1.776-1.774A1.775,1.775,0,0,0,334.966,217.945Z" transform="translate(-334.966 -190.19)" fill="#fff"/>
        <path id="Path_1023" data-name="Path 1023" d="M328.839,224.945a1.775,1.775,0,1,0,1.774-1.774A1.774,1.774,0,0,0,328.839,224.945Z" transform="translate(-316.342 -182.913)" fill="#fff"/>
        <path id="Path_1024" data-name="Path 1024" d="M267.552,224.49a1.776,1.776,0,1,0,1.774-1.775A1.776,1.776,0,0,0,267.552,224.49Z" transform="translate(-130.051 -183.387)" fill="#fff"/>
        <path id="Path_1025" data-name="Path 1025" d="M300.386,216.694a1.775,1.775,0,1,0,1.775-1.774A1.773,1.773,0,0,0,300.386,216.694Z" transform="translate(-229.853 -191.492)" fill="#fff"/>
      </g>
    </g>
    <circle id="Ellipse_5" data-name="Ellipse 5" cx="37.02" cy="37.02" r="37.02" transform="translate(445.309 419.289)" fill="#d1ebff"/>
    <circle id="Ellipse_6" data-name="Ellipse 6" cx="15.947" cy="15.947" r="15.947" transform="translate(466.381 440.362)" fill="#fff"/>
    <path id="Path_1026" data-name="Path 1026" d="M264.884,275.708,279.5,316.127,232.589,305.1Z" transform="translate(204.026 140.182)" fill="#fff"/>
    <g id="Group_2411" data-name="Group 2411" transform="translate(147.586 272.935)" opacity="0.2">
      <path id="Path_1027" data-name="Path 1027" d="M395.1,231.627c.163,3.627-.461,7.428-2.6,10.361a13.968,13.968,0,0,1-9.845,5.307,17.372,17.372,0,0,1-15.579-27.9c3.826-4.948,12.234-8.544,18.492-6.457C391.935,215.063,394.84,225.779,395.1,231.627Z" transform="translate(-326.245 -198.641)" fill="#5275a0"/>
      <path id="Path_1028" data-name="Path 1028" d="M324.966,227.924c3.18-3.951,7.247-7.345,12.071-8.907a6.5,6.5,0,0,1,3.6-.339,5.535,5.535,0,0,1,2.925,2.186c2.344,3.164,2.478,7.6,1.022,11.259a21.194,21.194,0,0,1-7.492,8.926,112.255,112.255,0,0,1-10.125,6.062,8.72,8.72,0,0,1-3.826,1.5,7.252,7.252,0,0,1-3.687-1.108,7.53,7.53,0,0,1-3.235-2.817,3.175,3.175,0,0,1,.5-3.843,17.152,17.152,0,0,0,2.519-4.059A60.245,60.245,0,0,1,324.966,227.924Z" transform="translate(-179.281 -192.183)" fill="#5275a0"/>
      <path id="Path_1029" data-name="Path 1029" d="M335.068,496.912a2.741,2.741,0,0,0,2.1,1.085c3.1.1,6.419-4.393,7.857-6.657a49.911,49.911,0,0,0,4.471-10.047q4.185-11.644,8.369-23.291c10.408-28.965,21.6-57.759,30.444-87.248q4.433-15.086,8.585-30.252c8.86,8.673,15.53,20.664,21.318,31.547,18.316,34.435,21.316,73.574,30.3,111,.681,2.837,1.5,12.593,4.083,14.453,9.986,7.182,8.548-18.075,8.642-22.065a484.338,484.338,0,0,0-4.661-79.087,501.056,501.056,0,0,0-12.925-62.833c-4.983-18.086-10.578-36.628-19.505-53.21-4.122-7.655-33.152,9.315-41.484,12.252-5.86,2.064-14.249,3.033-18.426,8.059-4.412,5.309-4.257,15.607-5.546,22.269q-5.611,28.982-10.592,58.079c-5.389,31.3-6.967,62.99-13.272,94.181-.979,4.84-2.034,9.754-1.613,14.673C333.383,491.7,333.63,495.158,335.068,496.912Z" transform="translate(-330.489 -130.02)" fill="#5275a0"/>
      <path id="Path_1030" data-name="Path 1030" d="M335.557,305.9c-.734,2.672-.971,3.282-1.705,5.954,8.685,8.032,17.162,23.721,21.322,31.553,18.316,34.429,21.314,73.57,30.309,111,.673,2.835,1.489,12.585,4.079,14.441,3.936,2.835,6.078.632,7.282-3.325-1.2-3.671-1.754-9.117-2.223-11.116-8.995-37.428-11.993-76.568-30.309-111C358.519,332.511,344.409,314.565,335.557,305.9Z" transform="translate(-267.444 -101.368)" fill="#5275a0" opacity="0.222"/>
      <path id="Path_1031" data-name="Path 1031" d="M351.94,489.8c.163,1.9.408,5.344,1.836,7.118a2.811,2.811,0,0,0,2.1,1.081c2.06.061,4.2-1.876,5.833-3.835a26.719,26.719,0,0,1-.632-4.365c-.428-4.916.632-9.831,1.611-14.665,6.3-31.186,7.873-62.882,13.278-94.171q4.956-29.1,10.586-58.089c1.285-6.67,1.142-16.949,5.548-22.273,4.181-5.017,12.564-6,18.418-8.057,5.67-2,20.927-10.5,31.39-13.319-6.445-4.671-32.7,10.545-40.528,13.319-5.854,2.06-14.257,3.039-18.418,8.057-4.426,5.323-4.263,15.6-5.548,22.273q-5.63,28.973-10.606,58.089c-5.385,31.288-6.955,62.984-13.258,94.171C352.572,479.968,351.511,484.884,351.94,489.8Z" transform="translate(-349.201 -130.015)" fill="#5275a0" opacity="0.222"/>
      <path id="Path_1032" data-name="Path 1032" d="M348.469,294.579c.082,3.977.265,7.934.571,11.912q.428,6.3,1.2,12.544a243.954,243.954,0,0,0,7.689,37.448q19.764-4.834,39.549-9.688c5.242-1.285,10.463-2.57,15.705-3.855.265-.061.591-.143.959-.224,3.834-.959,12.707-3.2,12.707-3.2s-9.586-44.4-13.319-62.128c-2.244-10.688-4.977-21.661-11.667-30.309-5.833-7.526-20.519-18.031-30.86-14.624-7.669,2.529-13.564,13.584-16.929,22.334-.857,2.2-1.53,4.263-2.04,6-.693,2.346-1.264,4.712-1.734,7.118A125.4,125.4,0,0,0,348.469,294.579Z" transform="translate(-327.169 -178.411)" fill="#5275a0"/>
      <g id="Group_2410" data-name="Group 2410" transform="translate(3.569 68.944)" opacity="0.61">
        <path id="Path_1033" data-name="Path 1033" d="M365.419,271.3c-.991,2.242-1.915,4.769-1.116,7.084.734,2.129,2.735,3.52,4.638,4.726a191.208,191.208,0,0,0,58.311,24.549c1.63-1.921,1.289-4.944-.11-7.037s-3.622-3.471-5.789-4.759a346.971,346.971,0,0,0-35.247-18.292c5.768-10.653,7.967-20.029,13.735-30.682,1.634-3.015-9.38-10.508-13.672-6.121A104.052,104.052,0,0,0,365.419,271.3Z" transform="translate(-364 -239.422)" fill="#5275a0"/>
        <path id="Path_1034" data-name="Path 1034" d="M364.489,282.933c.082,3.977.265,7.934.571,11.912A189.587,189.587,0,0,0,409.116,311.2c1.632-1.917,1.285-4.936-.1-7.037-1.407-2.081-3.631-3.467-5.793-4.752a347.386,347.386,0,0,0-35.245-18.3c-7.059-5.662,1.063-18.726,6.835-29.373,1.407-2.611.243-9.87-4.714-8.605-.857,2.2-1.53,4.263-2.04,6C364.815,260.048,364.244,271.552,364.489,282.933Z" transform="translate(-346.759 -235.708)" fill="#5275a0"/>
        <path id="Path_1035" data-name="Path 1035" d="M374.885,271.336c2.276.765,4.583,1.289,5.507,3.447.993,2.323.414,6.329-.4,8.613a8.986,8.986,0,0,1-5.173,5.509c-2.733.875-5.336-1.032-7.6-2.535a105.637,105.637,0,0,1-8.683-6.988,8.226,8.226,0,0,1-2.578-2.9,6.861,6.861,0,0,1-.226-3.631,7.148,7.148,0,0,1,1.438-3.79,3,3,0,0,1,3.567-.812,16.233,16.233,0,0,0,4.422.9A57.027,57.027,0,0,1,374.885,271.336Z" transform="translate(-299.441 -209.742)" fill="#5275a0"/>
        <path id="Path_1036" data-name="Path 1036" d="M375.86,273.052c2.474.912,4.12-1.265,5.238,1.157,2.125,4.6,1.361,10,.526,12.566-.848,2.6-2.864,5.281-5.468,6.109-2.929.93-5.78-1.279-8.25-3.021a122.511,122.511,0,0,1-9.521-8.071,9.708,9.708,0,0,1-2.843-3.331,8.1,8.1,0,0,1-.32-4.1,7.975,7.975,0,0,1,1.471-4.247,3.079,3.079,0,0,1,3.835-.842,17.308,17.308,0,0,0,4.791,1.114A60.874,60.874,0,0,1,375.86,273.052Z" transform="translate(-299.994 -208.745)" fill="#5275a0"/>
      </g>
      <path id="Path_1037" data-name="Path 1037" d="M373.626,249a8.283,8.283,0,0,0,2.592.308,6.337,6.337,0,0,0,2.829-.959l23.513-13.839,5.752-3.386c1.114-.655,3.361-2.625,4.783-2.454a1.074,1.074,0,0,1,.622.381l7.408,8.018a1.18,1.18,0,0,1-.106,1.7q-11.81,9.962-23.935,19.548c-6.4,5.062-13.937,13.737-22.675,13.88-8.318.135-15.966-4.875-23.038-8.63-6.872-3.651-14.414-6.1-19.85-11.963-2.55-2.751-7.624-10.529-4.681-14.386,1.832-2.4,6-1.752,8.548-1.34a54.673,54.673,0,0,1,10.661,2.784c5.207,1.3,10.4,3.9,15.428,5.784l7.714,2.892C370.647,247.884,372.111,248.594,373.626,249Z" transform="translate(-275.92 -181.671)" fill="#5275a0"/>
      <path id="Path_1038" data-name="Path 1038" d="M369.361,243.724a4.583,4.583,0,0,1,1.324.655,11.667,11.667,0,0,0,1.793.691,13.076,13.076,0,0,0,3.677.534c1.832.006,6.433-.565,6.415-2.337-.01-.936,0-1.872,0-2.809v-9.976L369.361,226.9v8.165C369.361,237.944,369.481,240.85,369.361,243.724Z" transform="translate(-325.595 -183.497)" fill="#5275a0"/>
      <path id="Path_1039" data-name="Path 1039" d="M367.169,278.215c-.991,2.242-1.915,4.769-1.116,7.084.734,2.129,2.735,3.52,4.638,4.726A191.211,191.211,0,0,0,429,314.574c1.63-1.921,1.289-4.944-.11-7.037s-3.622-3.471-5.788-4.759a347.016,347.016,0,0,0-35.247-18.292l17.3-31.957a39.556,39.556,0,0,0,4.083-9.407c1.591-6.623-.871-12.026-7.361-7.4a104.535,104.535,0,0,0-34.715,42.492Z" transform="translate(-365.75 -176.121)" fill="#5275a0"/>
      <path id="Path_1040" data-name="Path 1040" d="M375.26,272.293c2.276.765,4.583,1.291,5.507,3.447.993,2.323.414,6.329-.4,8.613a8.981,8.981,0,0,1-5.173,5.509c-2.733.875-5.336-1.032-7.6-2.533a106.552,106.552,0,0,1-8.683-6.988,8.251,8.251,0,0,1-2.578-2.9,6.861,6.861,0,0,1-.226-3.631,7.135,7.135,0,0,1,1.438-3.788,3,3,0,0,1,3.567-.814,16.23,16.23,0,0,0,4.422.9A57.012,57.012,0,0,1,375.26,272.293Z" transform="translate(-297.012 -139.801)" fill="#5275a0"/>
      <path id="Path_1041" data-name="Path 1041" d="M329.447,382.063a8.832,8.832,0,0,1-7.685-3.592q-.15,6.318-.3,12.632a9.466,9.466,0,0,0,.377,3.6c.861,2.225,3.141,2.931,5.14,3.272,9.8,1.662,19.754.7,29.618-.261a3.02,3.02,0,0,0,1.5-.424c1-.7,1.189-2.48.683-3.747a6.691,6.691,0,0,0-2.5-2.837c-4.43-3.217-9.437-4.938-14.033-7.745-1.783-1.089-3.943-3.626-5.988-3.747-1.175-.069-2.078.861-3.061,1.489A8.517,8.517,0,0,1,329.447,382.063Z" transform="translate(-204.35 -25.916)" fill="#5275a0"/>
      <path id="Path_1042" data-name="Path 1042" d="M385.565,382.063a8.834,8.834,0,0,1-7.685-3.592l-.3,12.632a9.468,9.468,0,0,0,.377,3.6c.863,2.225,3.141,2.931,5.14,3.272,9.8,1.662,19.756.7,29.618-.261a3.033,3.033,0,0,0,1.505-.424c1-.7,1.187-2.48.681-3.747a6.69,6.69,0,0,0-2.5-2.837c-4.43-3.217-9.437-4.938-14.031-7.745-1.785-1.089-3.945-3.626-5.99-3.747-1.175-.069-2.078.861-3.062,1.489A8.507,8.507,0,0,1,385.565,382.063Z" transform="translate(-374.929 -25.916)" fill="#5275a0"/>
      <path id="Path_1043" data-name="Path 1043" d="M367.3,237.163a17.762,17.762,0,0,0,16.99,8.811,14.392,14.392,0,0,0,9.117-4.406,15.209,15.209,0,0,1-5.221,1.509,17.371,17.371,0,0,1-15.563-27.9,12.889,12.889,0,0,1,1.428-1.571,17.113,17.113,0,0,0-6.751,23.558Z" transform="translate(-327.889 -197.318)" fill="#5275a0"/>
      <path id="Path_1044" data-name="Path 1044" d="M409.754,214.55c.712,4.467-2.354,8.964-6.347,10.751a13.829,13.829,0,0,1-12.815-1.259c1.146,4.275-3.151,9.005-7.516,8.271a8.439,8.439,0,0,1-2.107,11.32c2.1.861,2.415,4.143.738,5.676a4.751,4.751,0,0,1-6.2-.3,7.211,7.211,0,0,1-1.93-6.268,11.7,11.7,0,0,1-1.858-23.048,11.378,11.378,0,0,1,18.355-11c-.308-.251,2.725-1.819,2.961-1.936a10.3,10.3,0,0,1,4-1.122,13.56,13.56,0,0,1,7.532,2.015,11.17,11.17,0,0,1,4.724,5.236A7.789,7.789,0,0,1,409.754,214.55Z" transform="translate(-339.333 -205.62)" fill="#5275a0"/>
      <ellipse id="Ellipse_7" data-name="Ellipse 7" cx="3.262" cy="3.769" rx="3.262" ry="3.769" transform="translate(39.458 34.503)" fill="#5275a0"/>
      <path id="Path_1045" data-name="Path 1045" d="M370.625,250.876c.479,2.382.5,4.834.893,7.233a11.223,11.223,0,0,0,3,6.5c1.777,1.66,4.675,2.29,6.686.926,1.9-1.289,2.458-3.826,2.517-6.119.053-2.007-1.675-10.28-1.675-10.28s-4.471,1.21-5.611,1.458A17.44,17.44,0,0,1,370.625,250.876Z" transform="translate(-329.327 -160.378)" fill="#5275a0"/>
    </g>
    <g id="Group_2413" data-name="Group 2413" transform="translate(157.409 272.207)">
      <path id="Path_1046" data-name="Path 1046" d="M390.284,231.27c.161,3.626-.463,7.428-2.6,10.361a13.979,13.979,0,0,1-9.845,5.307,17.373,17.373,0,0,1-15.579-27.9c3.826-4.948,12.234-8.544,18.491-6.458C387.119,214.7,390.023,225.42,390.284,231.27Z" transform="translate(-321.428 -198.284)" fill="#efbc92"/>
      <path id="Path_1047" data-name="Path 1047" d="M320.15,227.565c3.18-3.951,7.247-7.343,12.071-8.907a6.5,6.5,0,0,1,3.6-.337,5.535,5.535,0,0,1,2.925,2.186c2.344,3.161,2.478,7.6,1.022,11.257a21.182,21.182,0,0,1-7.492,8.926,111.51,111.51,0,0,1-10.125,6.064,8.715,8.715,0,0,1-3.826,1.5,7.22,7.22,0,0,1-3.688-1.108,7.518,7.518,0,0,1-3.235-2.817,3.173,3.173,0,0,1,.5-3.841,17.19,17.19,0,0,0,2.519-4.059A60.39,60.39,0,0,1,320.15,227.565Z" transform="translate(-174.465 -191.826)" fill="#efbc92"/>
      <path id="Path_1048" data-name="Path 1048" d="M330.251,496.556a2.749,2.749,0,0,0,2.1,1.083c3.1.1,6.419-4.393,7.857-6.655a49.9,49.9,0,0,0,4.471-10.047q4.185-11.647,8.369-23.293c10.408-28.963,21.6-57.759,30.444-87.248q4.433-15.083,8.585-30.25c8.86,8.673,15.53,20.662,21.318,31.547,18.316,34.435,21.316,73.574,30.305,111,.681,2.837,1.5,12.593,4.081,14.451,9.986,7.182,8.548-18.075,8.642-22.063a484.334,484.334,0,0,0-4.661-79.087,501.028,501.028,0,0,0-12.925-62.833c-4.983-18.086-10.577-36.628-19.505-53.21-4.122-7.657-33.152,9.315-41.484,12.25-5.86,2.066-14.249,3.033-18.426,8.061-4.412,5.307-4.257,15.608-5.546,22.267q-5.611,28.985-10.592,58.081c-5.389,31.3-6.967,62.988-13.272,94.181-.979,4.84-2.033,9.752-1.613,14.673C328.567,491.344,328.814,494.8,330.251,496.556Z" transform="translate(-325.673 -129.664)" fill="url(#linear-gradient-6)"/>
      <path id="Path_1049" data-name="Path 1049" d="M330.741,305.539c-.734,2.672-.971,3.282-1.705,5.954,8.685,8.03,17.162,23.721,21.322,31.553,18.316,34.429,21.314,73.57,30.309,111,.673,2.835,1.489,12.585,4.079,14.441,3.936,2.835,6.078.632,7.282-3.325-1.2-3.671-1.754-9.117-2.223-11.116-8.995-37.428-11.993-76.568-30.309-111C353.7,332.154,339.593,314.208,330.741,305.539Z" transform="translate(-262.628 -101.011)" opacity="0.222" fill="url(#linear-gradient-7)"/>
      <path id="Path_1050" data-name="Path 1050" d="M347.124,489.442c.163,1.9.408,5.344,1.836,7.118a2.811,2.811,0,0,0,2.1,1.081c2.06.061,4.2-1.877,5.833-3.835a26.744,26.744,0,0,1-.632-4.365c-.428-4.915.632-9.831,1.611-14.665,6.3-31.186,7.873-62.882,13.278-94.17q4.956-29.1,10.586-58.089c1.285-6.67,1.142-16.949,5.548-22.273,4.181-5.018,12.564-6,18.418-8.057,5.67-2,20.927-10.5,31.39-13.319-6.445-4.671-32.7,10.545-40.528,13.319-5.854,2.06-14.257,3.039-18.418,8.057-4.426,5.323-4.263,15.6-5.548,22.273q-5.629,28.973-10.606,58.089c-5.385,31.288-6.955,62.984-13.258,94.17C347.756,479.611,346.7,484.526,347.124,489.442Z" transform="translate(-344.385 -129.658)" opacity="0.222" fill="url(#linear-gradient-7)"/>
      <path id="Path_1051" data-name="Path 1051" d="M343.653,294.222c.082,3.977.265,7.934.571,11.912q.429,6.3,1.2,12.544a243.953,243.953,0,0,0,7.689,37.448q19.764-4.834,39.549-9.688c5.242-1.285,10.463-2.57,15.705-3.855.265-.061.592-.143.959-.224,3.835-.959,12.707-3.2,12.707-3.2s-9.586-44.4-13.319-62.128c-2.244-10.688-4.977-21.661-11.667-30.309-5.833-7.526-20.519-18.031-30.86-14.624-7.669,2.529-13.564,13.584-16.929,22.334-.857,2.2-1.53,4.263-2.04,6-.693,2.346-1.265,4.712-1.734,7.118A125.377,125.377,0,0,0,343.653,294.222Z" transform="translate(-322.353 -178.054)" fill="#3d76c9"/>
      <g id="Group_2412" data-name="Group 2412" transform="translate(3.569 68.942)" opacity="0.61">
        <path id="Path_1052" data-name="Path 1052" d="M360.6,270.942c-.991,2.24-1.915,4.767-1.116,7.084.734,2.129,2.735,3.518,4.638,4.724A191.215,191.215,0,0,0,422.437,307.3c1.63-1.921,1.289-4.944-.11-7.039s-3.622-3.469-5.788-4.756a346.558,346.558,0,0,0-35.247-18.294c5.768-10.651,7.967-20.029,13.735-30.68,1.634-3.017-9.38-10.508-13.672-6.123A104.124,104.124,0,0,0,360.6,270.942Z" transform="translate(-359.184 -239.064)" fill="#325ab2"/>
        <path id="Path_1053" data-name="Path 1053" d="M359.673,282.576c.082,3.977.265,7.934.571,11.912A189.574,189.574,0,0,0,404.3,310.846c1.632-1.917,1.285-4.936-.1-7.037-1.407-2.08-3.631-3.467-5.793-4.752a347.446,347.446,0,0,0-35.245-18.3c-7.059-5.662,1.063-18.726,6.835-29.373,1.407-2.611.243-9.87-4.714-8.605-.857,2.2-1.53,4.263-2.04,6C360,259.691,359.428,271.2,359.673,282.576Z" transform="translate(-341.943 -235.35)" fill="#325ab2"/>
        <path id="Path_1054" data-name="Path 1054" d="M370.069,270.977c2.276.765,4.583,1.291,5.507,3.449.993,2.323.414,6.327-.4,8.611A8.981,8.981,0,0,1,370,288.547c-2.731.877-5.336-1.032-7.594-2.533a106.228,106.228,0,0,1-8.685-6.988,8.217,8.217,0,0,1-2.578-2.9,6.86,6.86,0,0,1-.226-3.631,7.135,7.135,0,0,1,1.438-3.788,3,3,0,0,1,3.569-.814,16.127,16.127,0,0,0,4.42.9A57.22,57.22,0,0,1,370.069,270.977Z" transform="translate(-294.625 -209.384)" fill="#325ab2"/>
        <path id="Path_1055" data-name="Path 1055" d="M371.043,272.695c2.474.91,4.12-1.266,5.24,1.155,2.123,4.6,1.358,10,.524,12.566-.848,2.6-2.864,5.283-5.468,6.109-2.929.93-5.78-1.277-8.25-3.021a122.022,122.022,0,0,1-9.521-8.071,9.706,9.706,0,0,1-2.843-3.329,8.111,8.111,0,0,1-.32-4.1,7.97,7.97,0,0,1,1.471-4.245,3.079,3.079,0,0,1,3.835-.842,17.249,17.249,0,0,0,4.791,1.112A61.067,61.067,0,0,1,371.043,272.695Z" transform="translate(-295.177 -208.387)" fill="#325ab2"/>
      </g>
      <path id="Path_1056" data-name="Path 1056" d="M368.811,248.639a8.344,8.344,0,0,0,2.592.308,6.35,6.35,0,0,0,2.829-.961l23.513-13.839,5.752-3.384c1.114-.657,3.362-2.625,4.783-2.454a1.061,1.061,0,0,1,.622.379l7.408,8.02a1.18,1.18,0,0,1-.106,1.7q-11.809,9.962-23.935,19.548c-6.4,5.06-13.937,13.735-22.675,13.878-8.318.135-15.966-4.875-23.038-8.63-6.872-3.649-14.414-6.1-19.85-11.96-2.55-2.752-7.624-10.529-4.681-14.386,1.832-2.4,6-1.754,8.548-1.34a54.516,54.516,0,0,1,10.661,2.782c5.207,1.3,10.4,3.9,15.428,5.786q3.858,1.447,7.714,2.892C365.831,247.525,367.3,248.235,368.811,248.639Z" transform="translate(-271.104 -181.314)" fill="#3d76c9"/>
      <path id="Path_1057" data-name="Path 1057" d="M364.545,243.368a4.531,4.531,0,0,1,1.324.655,11.642,11.642,0,0,0,1.793.689,13.151,13.151,0,0,0,3.677.536c1.832.006,6.433-.565,6.415-2.337-.01-.936,0-1.874,0-2.811v-9.976l-13.209-3.584v8.165C364.545,237.586,364.665,240.494,364.545,243.368Z" transform="translate(-320.779 -183.141)" fill="#efbc92"/>
      <path id="Path_1058" data-name="Path 1058" d="M362.353,277.858c-.991,2.24-1.915,4.767-1.116,7.084.734,2.129,2.735,3.518,4.638,4.724a191.216,191.216,0,0,0,58.311,24.551c1.63-1.921,1.289-4.944-.11-7.039s-3.622-3.469-5.789-4.756a346.565,346.565,0,0,0-35.247-18.294l17.3-31.955a39.565,39.565,0,0,0,4.083-9.409c1.591-6.621-.871-12.024-7.361-7.4a104.491,104.491,0,0,0-34.715,42.492Z" transform="translate(-360.934 -175.764)" fill="#3d76c9"/>
      <path id="Path_1059" data-name="Path 1059" d="M370.444,271.937c2.276.763,4.583,1.289,5.507,3.447.993,2.323.414,6.329-.4,8.613a8.991,8.991,0,0,1-5.173,5.509c-2.731.875-5.336-1.032-7.594-2.535a105.369,105.369,0,0,1-8.685-6.988,8.227,8.227,0,0,1-2.578-2.9,6.86,6.86,0,0,1-.226-3.631,7.149,7.149,0,0,1,1.438-3.79,3,3,0,0,1,3.569-.812,16.281,16.281,0,0,0,4.42.9A57.009,57.009,0,0,1,370.444,271.937Z" transform="translate(-292.196 -139.445)" fill="#efbc92"/>
      <path id="Path_1060" data-name="Path 1060" d="M324.631,381.7a8.83,8.83,0,0,1-7.685-3.59q-.15,6.315-.3,12.632a9.469,9.469,0,0,0,.377,3.6c.861,2.225,3.141,2.931,5.14,3.27,9.8,1.662,19.756.7,29.618-.261a3.053,3.053,0,0,0,1.505-.422c1-.7,1.187-2.48.681-3.747a6.708,6.708,0,0,0-2.5-2.839c-4.43-3.217-9.437-4.936-14.031-7.743-1.785-1.091-3.945-3.628-5.991-3.749-1.175-.069-2.078.863-3.062,1.491A8.509,8.509,0,0,1,324.631,381.7Z" transform="translate(-199.534 -25.559)" fill="#321c61"/>
      <path id="Path_1061" data-name="Path 1061" d="M380.749,381.7a8.832,8.832,0,0,1-7.685-3.59l-.3,12.632a9.467,9.467,0,0,0,.377,3.6c.863,2.225,3.141,2.931,5.14,3.27,9.8,1.662,19.756.7,29.618-.261a3.053,3.053,0,0,0,1.505-.422c1-.7,1.187-2.48.681-3.747a6.71,6.71,0,0,0-2.5-2.839c-4.43-3.217-9.437-4.936-14.031-7.743-1.783-1.091-3.945-3.628-5.99-3.749-1.175-.069-2.078.863-3.059,1.491A8.518,8.518,0,0,1,380.749,381.7Z" transform="translate(-370.113 -25.559)" fill="#321c61"/>
      <path id="Path_1062" data-name="Path 1062" d="M362.485,236.806a17.762,17.762,0,0,0,16.99,8.811,14.392,14.392,0,0,0,9.117-4.406,15.206,15.206,0,0,1-5.221,1.509,17.371,17.371,0,0,1-15.563-27.9,12.894,12.894,0,0,1,1.428-1.571,17.114,17.114,0,0,0-6.751,23.558Z" transform="translate(-323.074 -196.961)" fill="#f2b283"/>
      <path id="Path_1063" data-name="Path 1063" d="M404.938,214.193c.712,4.465-2.354,8.964-6.347,10.751a13.84,13.84,0,0,1-12.815-1.258c1.146,4.275-3.149,9-7.514,8.271a8.441,8.441,0,0,1-2.107,11.318c2.1.863,2.413,4.143.736,5.676a4.748,4.748,0,0,1-6.2-.3,7.211,7.211,0,0,1-1.93-6.268,11.7,11.7,0,0,1-1.858-23.048,11.379,11.379,0,0,1,18.355-11.006c-.308-.251,2.725-1.819,2.962-1.934a10.3,10.3,0,0,1,4-1.122,13.555,13.555,0,0,1,7.535,2.015,11.166,11.166,0,0,1,4.722,5.236A7.793,7.793,0,0,1,404.938,214.193Z" transform="translate(-334.517 -205.263)" fill="#5b1d1a"/>
      <ellipse id="Ellipse_8" data-name="Ellipse 8" cx="3.262" cy="3.769" rx="3.262" ry="3.769" transform="translate(39.458 34.502)" fill="#efbc92"/>
      <path id="Path_1064" data-name="Path 1064" d="M365.809,250.517c.479,2.382.5,4.836.893,7.235a11.228,11.228,0,0,0,3,6.5c1.777,1.66,4.675,2.289,6.688.924,1.9-1.287,2.456-3.826,2.515-6.117.053-2.007-1.675-10.28-1.675-10.28s-4.471,1.21-5.611,1.458A17.387,17.387,0,0,1,365.809,250.517Z" transform="translate(-324.511 -160.021)" fill="#325ab2"/>
    </g>
    <g id="Group_2414" data-name="Group 2414" transform="translate(95.56 193.4)">
      <path id="Path_1065" data-name="Path 1065" d="M400.271,199.93H396.39a.924.924,0,0,1-.924-.924V190a.925.925,0,0,1,.924-.926h3.884c.108-.473.237-.946.377-1.407l-3.363-1.942a.924.924,0,0,1-.339-1.263l4.5-7.8a.926.926,0,0,1,1.263-.339l3.367,1.946q.5-.529,1.028-1.028v0l-1.944-3.367a.924.924,0,0,1,.339-1.262l7.8-4.5a.924.924,0,0,1,1.262.339l1.942,3.365c.461-.141.932-.267,1.407-.377h0v-3.886a.924.924,0,0,1,.924-.924h9.007a.925.925,0,0,1,.924.924v3.886h0q.713.165,1.407.377l1.942-3.365a.924.924,0,0,1,1.262-.339l7.8,4.5a.924.924,0,0,1,.339,1.262l-1.946,3.367,0,0q.526.5,1.028,1.028l3.367-1.946a.926.926,0,0,1,1.263.339l4.5,7.8a.924.924,0,0,1-.339,1.263l-3.363,1.942c.141.461.267.934.377,1.407H450.3a.925.925,0,0,1,.924.926v9.005a.924.924,0,0,1-.924.924h-3.884q-.165.713-.377,1.407h0l3.363,1.944a.922.922,0,0,1,.339,1.261l-4.5,7.8a.924.924,0,0,1-1.263.339l-3.365-1.944c-.335.351-.679.693-1.03,1.028v0l1.944,3.367a.922.922,0,0,1-.339,1.26l-7.8,4.5a.924.924,0,0,1-1.262-.339l-1.942-3.365c-.463.141-.932.269-1.407.379h0v3.883a.925.925,0,0,1-.924.924H418.84a.924.924,0,0,1-.924-.924v-3.883h0c-.475-.11-.946-.239-1.407-.379l-1.942,3.365a.924.924,0,0,1-1.262.339l-7.8-4.5a.922.922,0,0,1-.339-1.26l1.944-3.367v0q-.529-.5-1.03-1.028l-3.365,1.944a.924.924,0,0,1-1.263-.339l-4.5-7.8a.922.922,0,0,1,.339-1.261l3.363-1.942v0C400.51,200.875,400.382,200.406,400.271,199.93Zm20.48,7.492a13.179,13.179,0,1,0-10.337-10.357A13.181,13.181,0,0,0,420.752,207.422Z" transform="translate(-395.466 -166.625)" fill="#00ad9f"/>
    </g>
  </g>
</svg>
