<svg xmlns="http://www.w3.org/2000/svg" id="web-programming" width="136.012" height="120" viewBox="0 0 136.012 120">
    <defs>
        <style>
            .cls-1{fill:#009bdb}
        </style>
    </defs>
    <path id="Path_2800" d="M131.773 210.226a2.237 2.237 0 0 1-1.454-.536l-14.53-12.373a2.246 2.246 0 0 1 0-3.42l14.53-12.373a2.245 2.245 0 1 1 2.911 3.418l-12.522 10.664 12.522 10.663a2.246 2.246 0 0 1-1.457 3.956zm0 0" class="cls-1" data-name="Path 2800" transform="translate(-78.11 -122.931)"/>
    <path id="Path_2801" d="M251.954 210.226a2.247 2.247 0 0 1-1.457-3.956l12.522-10.663-12.519-10.664a2.245 2.245 0 0 1 2.911-3.418l14.53 12.373a2.246 2.246 0 0 1 0 3.42l-14.53 12.373a2.237 2.237 0 0 1-1.457.535zm0 0" class="cls-1" data-name="Path 2801" transform="translate(-169.606 -122.931)"/>
    <path id="Path_2802" d="M191.2 200.512a2.283 2.283 0 0 1-.466-.049A2.246 2.246 0 0 1 189 197.8l9.056-43a2.245 2.245 0 1 1 4.394.926l-9.056 43a2.246 2.246 0 0 1-2.194 1.786zm0 0" class="cls-1" data-name="Path 2802" transform="translate(-128.341 -103.937)"/>
    <path id="Path_2803" d="M120.935 120H15.077A15.094 15.094 0 0 1 0 104.923V15.077A15.1 15.1 0 0 1 15.077 0h105.858a15.1 15.1 0 0 1 15.077 15.077v89.846A15.094 15.094 0 0 1 120.935 120zM15.077 4.491A10.6 10.6 0 0 0 4.491 15.077v89.846a10.6 10.6 0 0 0 10.586 10.586h105.858a10.6 10.6 0 0 0 10.586-10.586V15.077a10.6 10.6 0 0 0-10.586-10.586zm0 0" class="cls-1" data-name="Path 2803"/>
    <path id="Path_2804" d="M133.766 102.581H2.245a2.245 2.245 0 0 1 0-4.491h131.521a2.245 2.245 0 1 1 0 4.491zm0 0" class="cls-1" data-name="Path 2804" transform="translate(0 -66.624)"/>
    <path id="Path_2805" d="M104.555 48.5a7.106 7.106 0 1 1 7.106-7.106 7.116 7.116 0 0 1-7.106 7.106zm0-9.721a2.615 2.615 0 1 0 2.615 2.621 2.619 2.619 0 0 0-2.615-2.62zm0 0" class="cls-1" data-name="Path 2805" transform="translate(-66.189 -23.29)"/>
    <path id="Path_2806" d="M36.493 48.286A7.106 7.106 0 1 1 43.6 41.18a7.114 7.114 0 0 1-7.107 7.106zm0-9.721a2.615 2.615 0 1 0 2.615 2.615 2.619 2.619 0 0 0-2.615-2.615zm0 0" class="cls-1" data-name="Path 2806" transform="translate(-19.96 -23.144)"/>
    <path id="Path_2807" d="M172.62 48.715a7.105 7.105 0 1 1 7.106-7.106 7.114 7.114 0 0 1-7.106 7.106zm0-9.721a2.615 2.615 0 1 0 2.615 2.615 2.617 2.617 0 0 0-2.615-2.615zm0 0" class="cls-1" data-name="Path 2807" transform="translate(-112.421 -23.436)"/>
</svg>
