<svg xmlns="http://www.w3.org/2000/svg" width="744.266" height="606.153" viewBox="0 0 744.266 606.153">
    <defs>
        <style>
            .cls-1,.cls-2{fill:#009bdb;opacity:.081}.cls-2{fill:#e1efff}.cls-3{fill:#812d65}.cls-4{fill:#95d7bd}.cls-5{fill:#7ea1f4}.cls-6{fill:#e2af4c}.cls-7{fill:#eac689}.cls-25,.cls-8{fill:#1f2f6e}.cls-9{fill:#cd6e95}.cls-10{fill:#5665c7}.cls-11{fill:url(#linear-gradient)}.cls-12{fill:#202c43}.cls-13{fill:#9de4bd}.cls-14{fill:#d0d5dd}.cls-15{fill:#0063b0}.cls-16{fill:#fffffd}.cls-17{fill:#e5bb91}.cls-18{fill:#d88773}.cls-19{fill:#025ca2}.cls-20{fill:#e7bc90}.cls-21{fill:#d47541}.cls-22{fill:#0c112c}.cls-23{opacity:.22}.cls-24{fill:#edede6}.cls-25{font-size:46px;font-family:SegoeUI,Segoe UI}.cls-26{fill:#99bcf8}.cls-27{fill:#8e8585}.cls-28{fill:#b6aead}
        </style>
        <linearGradient id="linear-gradient" x2="1" y1=".5" y2=".5" gradientUnits="objectBoundingBox">
            <stop offset=".003" stop-color="#aef6bf"/>
            <stop offset="1" stop-color="#8ed3bb"/>
        </linearGradient>
    </defs>
    <g id="contact" transform="translate(-302 -523.181)">
        <g id="Group_3955" data-name="Group 3955" transform="translate(-16.734 149.999)">
            <path id="Path_4507" d="M428.8 102.746C378.926 79.067 320.848 68.022 268.015 84.04c-64.358 19.514-110.453 74.674-152.215 127.388-29.567 37.32-59.443 75.693-75.166 120.636s-15.056 98.39 13.5 136.492c21 28.021 53.714 44.156 82.879 63.533 50.217 33.366 92.624 78.681 146.835 105.063a246.28 246.28 0 0 0 167.392 16.915c51.049-13.114 96.21-42.228 142.5-67.441 42.343-23.065 87.069-43.686 121.7-77.239 34.275-33.209 56.977-79.005 59.036-126.685s-17.575-96.585-54.359-126.992a186.972 186.972 0 0 0-56.515-31.677c-19.202-6.761-184.89-97.587-234.802-121.287z" class="cls-1" data-name="Path 4507" transform="translate(288.388 317.727)"/>
            <path id="Path_4508" d="M364.164 95.055C310.4 82.52 251.3 84.077 203.081 110.962c-58.74 32.748-92.053 96.449-121.655 156.838-20.957 42.753-41.992 86.6-47.8 133.859S39.832 501 75.833 532.158c26.476 22.916 61.872 31.727 94.491 44.463 56.162 21.925 107.234 57.19 165.814 71.442A246.28 246.28 0 0 0 503.3 629c47.095-23.669 85.033-61.717 124.9-96.194 36.47-31.539 75.792-61.2 102.494-101.346 26.431-39.737 38.877-89.314 30.753-136.34s-37.709-90.642-80.117-112.532a186.954 186.954 0 0 0-61.956-18.938c-20.184-2.524-201.398-56.05-255.21-68.595z" class="cls-2" data-name="Path 4508" transform="translate(297.514 285.697)"/>
        </g>
        <g id="Group_3944" data-name="Group 3944" transform="translate(0 -541.609)">
            <path id="Path_8" d="M370.8 307.376l-34.093 34.093h2.623l-34.093-34.093V310q17.048-17.045 34.093-34.093h-2.623L370.8 310a1.855 1.855 0 0 0 2.621-2.623q-17.045-17.048-34.091-34.092a1.882 1.882 0 0 0-2.623 0q-17.048 17.042-34.093 34.092a1.884 1.884 0 0 0 0 2.623q17.048 17.045 34.093 34.091a1.882 1.882 0 0 0 2.623 0q17.048-17.045 34.092-34.091a1.855 1.855 0 0 0-2.622-2.624z" class="cls-3" data-name="Path 8" transform="translate(7.917 1148.705)"/>
            <path id="Path_9" d="M677.553 185.988q27.624 27.624 55.245 55.248v-2.623q-27.621 27.624-55.245 55.247h2.621l-55.245-55.247v2.623l55.245-55.248a1.855 1.855 0 0 0-2.621-2.623q-27.626 27.624-55.249 55.248a1.886 1.886 0 0 0 0 2.623l55.249 55.247a1.881 1.881 0 0 0 2.621 0l55.249-55.247a1.884 1.884 0 0 0 0-2.623q-27.627-27.624-55.249-55.248a1.855 1.855 0 0 0-2.621 2.623z" class="cls-4" data-name="Path 9" transform="translate(292.368 1068.685)"/>
            <path id="Path_10" d="M472.03 142.069v63.073a1.873 1.873 0 0 0 2.791 1.6l56.848-31.537a1.87 1.87 0 0 0 0-3.2l-56.848-31.537c-2.088-1.158-3.961 2.045-1.873 3.2l56.848 31.537V172l-56.848 31.537 2.793 1.6v-63.068a1.857 1.857 0 0 0-3.711 0z" class="cls-5" data-name="Path 10" transform="translate(159.131 1030.779)"/>
            <path id="Path_11" d="M650.592 123.608l-17.03 30.751 36.232-.026z" class="cls-3" data-name="Path 11" transform="translate(302.857 1016)"/>
            <path id="Path_12" d="M429.581 171.044c-7.829-1.291-16.044 5.24-16.522 13.162s6.926 15.4 14.852 14.975S442.4 190.5 441 182.685s-10.469-13.272-18.021-10.834" class="cls-4" data-name="Path 12" transform="translate(106.64 1058.062)"/>
            <path id="Path_13" d="M362.52 172.451a5.665 5.665 0 1 0-.669 11.244 5.6 5.6 0 1 0-1.969-10.921" class="cls-6" data-name="Path 13" transform="translate(55.811 1059.401)"/>
            <path id="Path_14" d="M565.378 137.905a8.331 8.331 0 1 0-.981 16.536 8.23 8.23 0 1 0-2.9-16.063" class="cls-7" data-name="Path 14" transform="translate(233.538 1028.636)"/>
            <path id="Path_15" d="M340.108 236.01a8.332 8.332 0 1 0-.983 16.537 8.23 8.23 0 1 0-2.9-16.063" class="cls-8" data-name="Path 15" transform="translate(33.1 1115.927)"/>
            <path id="Rectangle_7" d="M0 0h30.014v30.014H0z" class="cls-9" data-name="Rectangle 7" transform="rotate(21.25 -3205.51 2137.302)"/>
            <path id="Rectangle_8" d="M0 0h30.015v30.014H0z" class="cls-10" data-name="Rectangle 8" transform="rotate(21.25 -2768.205 2921.375)"/>
            <path id="Rectangle_9" d="M0 0h15.006v15.007H0z" class="cls-10" data-name="Rectangle 9" transform="rotate(-23.709 3370.974 -460.865)"/>
            <g id="Group_24" data-name="Group 24" transform="translate(394.871 1331.42)">
                <path id="Path_17" d="M443.165 449.354c-14.043-.962-44.6-8.546-58.951-15.946-3.462-1.784-5.067-3.772-7.8-6.544s-4.031-7.38-1.888-10.63c3.78-5.734 13.4-2.512 18.924-6.6 5.543-4.1 3.634-13.406-1.534-17.972s-12.257-6.078-18.611-8.761c-6.117-2.583-12.042-6.76-14.392-12.971s.348-14.549 6.722-16.413c3.906-1.143 8.275.24 12.089-1.183 6.6-2.462 7.544-12.164 3.583-17.989s-10.86-8.759-17.271-11.681-13.153-6.584-16.048-13.007.792-15.929 7.837-16c6.5-.062 12.314 7.487 18.293 4.944 6.548-2.784 3.67-12.5.591-18.915a79.253 79.253 0 0 1-7.771-33.3c-.083-7.61 1.707-16.409 8.44-19.956 8.819-4.645 19.79 3.642 22.405 13.261s-.127 19.754-1.289 29.654c-.6 5.116-.716 10.56 1.665 15.129s7.988 7.814 12.8 5.96c5.28-2.033 6.92-8.5 8.54-13.916s5.482-11.62 11.093-10.895c4.7.608 7.261 5.809 8.186 10.452a42.56 42.56 0 0 1-9.077 35.244c-3.007 3.562-6.669 6.718-8.566 10.974s-1.242 10.2 2.9 12.336c5.136 2.653 11.089-2.309 13.495-7.567s3.424-11.5 7.79-15.3c7.245-6.3 19.763-1.011 23.293 7.916s.352 19.166-4.592 27.394-11.605 15.388-15.923 23.961c-1.737 3.449-2.982 7.882-.626 10.94 3.008 3.9 9.613 2.254 12.8-1.5s4.329-8.81 6.748-13.106 7.319-8.105 11.96-6.446c4.273 1.529 5.843 6.7 6.4 11.206 4.018 32.506-16.793 61.4-42.212 77.218" class="cls-11" data-name="Path 17" transform="translate(-346.993 -225.108)"/>
                <g id="Group_17" data-name="Group 17" transform="translate(32.657 32.231)">
                    <path id="Path_18" d="M364.276 242.38c.928 9.626 3.8 19.293 6.066 28.677 2.128 8.787 4.379 17.548 6.816 26.255 4.687 16.726 10.108 33.3 15.953 49.654 5.5 15.4 11.59 30.59 18.053 45.613 7.077 16.451 13.727 33.8 22.632 49.357.267.465 1.089.153.89-.376-6.18-16.3-14.693-31.877-21.623-47.885-6.711-15.5-13.049-31.153-18.839-47.018-5.741-15.719-10.762-31.637-15.252-47.755-2.413-8.666-4.74-17.356-6.894-26.092-2.483-10.067-4.076-20.663-7.359-30.49-.076-.229-.469-.208-.444.059z" class="cls-12" data-name="Path 18" transform="translate(-364.274 -242.164)"/>
                </g>
                <g id="Group_18" data-name="Group 18" transform="translate(68.398 112.226)">
                    <path id="Path_19" d="M384.2 326.018c10.063-13.931 20.358-27.551 31.763-40.426.537-.609-.355-1.5-.9-.894a360.053 360.053 0 0 0-31.788 40.783c-.382.582.525 1.085.92.537z" class="cls-12" data-name="Path 19" transform="translate(-383.187 -284.494)"/>
                </g>
                <g id="Group_19" data-name="Group 19" transform="translate(30.628 142.694)">
                    <path id="Path_20" d="M402.724 313.016c-3.744-3.472-8.649-3.148-13.434-3.7-9.007-1.032-17.131-4.207-25-8.6a.737.737 0 0 0-.743 1.272 58.427 58.427 0 0 0 18.359 7.612c6.47 1.489 14.668.31 20.232 4.169.448.312.981-.386.584-.756z" class="cls-12" data-name="Path 20" transform="translate(-363.201 -300.616)"/>
                </g>
                <g id="Group_20" data-name="Group 20" transform="translate(49.031 196.147)">
                    <path id="Path_21" d="M415.179 340.237c-12.882-5.718-27.572-10.2-41.669-11.333a.587.587 0 0 0-.155 1.149c14.141 3.135 27.761 6.221 41.5 10.947.44.151.756-.571.323-.763z" class="cls-12" data-name="Path 21" transform="translate(-372.939 -328.902)"/>
                </g>
                <g id="Group_21" data-name="Group 21" transform="translate(89.843 162.886)">
                    <path id="Path_22" d="M395.469 354.433c9.33-16.685 21.473-29.422 35.456-42.18.455-.414-.149-1.219-.669-.864-15.1 10.324-27.29 26.468-35.658 42.535-.3.575.554 1.079.871.508z" class="cls-12" data-name="Path 22" transform="translate(-394.535 -311.301)"/>
                </g>
                <g id="Group_22" data-name="Group 22" transform="translate(22.495 83.603)">
                    <path id="Path_23" d="M383.43 279.543c-7.068-4.719-15.443-8.725-23.874-10.186-.658-.113-.949.835-.28 1.017 8.383 2.275 16.375 5.169 23.726 9.9.461.3.877-.429.427-.729z" class="cls-12" data-name="Path 23" transform="translate(-358.897 -269.348)"/>
                </g>
                <g id="Group_23" data-name="Group 23" transform="translate(46.506 76.062)">
                    <path id="Path_24" d="M372.07 283.729a105.269 105.269 0 0 0 22.758-17.45c.516-.522-.24-1.219-.788-.786-7.457 5.919-14.011 12.809-22.286 17.7a.313.313 0 0 0 .316.541z" class="cls-12" data-name="Path 24" transform="translate(-371.603 -265.357)"/>
                </g>
            </g>
            <g id="Group_28" data-name="Group 28" transform="translate(858.643 1429.129)">
                <path id="Path_25" d="M680.859 276.812c-21.175 2.75-36.274 16.415-50.871 32a93.873 93.873 0 0 0-24.943 57.636c-.195 3.046-.149 6.389 1.771 8.763 3.043 3.766 8.9 3.1 13.548 1.737 31.82-9.371 57.695-36.664 65.36-68.939 2.534-10.685 2.716-23.244-4.864-31.193" class="cls-13" data-name="Path 25" transform="translate(-581.227 -276.812)"/>
                <g id="Group_25" data-name="Group 25" transform="translate(0 30.589)">
                    <path id="Path_26" d="M678.317 293.1c-14.831 17.548-29.3 35.388-43.812 53.2-14.011 17.2-28.793 34-41.974 51.84-.5.677.608 1.525 1.166.9 14.976-16.823 28.57-35.038 42.731-52.549 14.211-17.573 28.439-35.121 42.331-52.948.242-.312-.18-.756-.442-.444z" class="cls-12" data-name="Path 26" transform="translate(-592.405 -292.999)"/>
                </g>
                <g id="Group_26" data-name="Group 26" transform="translate(60.446 44.006)">
                    <path id="Path_27" d="M625.827 300.555c-.422 5.407-2.02 11.482-1.209 16.864.085.563.911.472 1.051 0 1.551-5.2.782-11.477 1.109-16.864.038-.612-.9-.6-.951 0z" class="cls-12" data-name="Path 27" transform="translate(-624.391 -300.098)"/>
                </g>
                <g id="Group_27" data-name="Group 27" transform="translate(48.141 68.001)">
                    <path id="Path_28" d="M618.538 322.5c6.678-1.841 13.166-5.068 19.521-7.809 1.232-.529.168-2.321-1.053-1.8-6.289 2.682-13.007 5.123-18.877 8.646a.53.53 0 0 0 .408.964z" class="cls-12" data-name="Path 28" transform="translate(-617.88 -312.796)"/>
                </g>
            </g>
            <g id="Group_59" data-name="Group 59" transform="translate(436.757 1264.799)">
                <path id="Path_29" d="M613.1 286.007s21.9 3.577 20.167 12.457-6.083 91.662-6.083 91.662h-50.453z" class="cls-14" data-name="Path 29" transform="translate(-184.466 -104.301)"/>
                <g id="Group_57" data-name="Group 57" transform="translate(200.278)">
                    <path id="Path_30" d="M513.638 313.279s21.81-60.785 59.745-58.241h42.5s31.057 4.575 47.883 28.581l-13.256 48.022-.546 91.773-104.115-.714-.128-90.488z" class="cls-15" data-name="Path 30" transform="translate(-440.882 -131.925)"/>
                    <path id="Path_31" d="M551.02 255.29s-13.041 43.085 5.269 94.315c0 0 37.23-79.775 50.816-87.74-.005-.001-17.243-9.678-56.085-6.575z" class="cls-16" data-name="Path 31" transform="translate(-411.626 -132.178)"/>
                    <g id="Group_31" data-name="Group 31" transform="translate(18.11 111.233)">
                        <g id="Group_29" data-name="Group 29" transform="translate(4.859)">
                            <path id="Path_32" d="M505.74 286.435s-.469-13.158-.474-14.194 9.373-6.828 7.364-7.6-7.773 2.007-7.773 2.007.367-15.638-2-14.769-1.837 9.281-1.837 9.281-1.215-13.415-3.2-12.386-.225 11.836-.225 11.836-1.994-9.738-4.071-10.741-.123 10.927-.123 10.927-3.156-9.583-4.522-9.861-1.591 37.021-1.591 37.021z" class="cls-17" data-name="Path 32" transform="translate(-487.292 -248.715)"/>
                        </g>
                        <g id="Group_30" data-name="Group 30" transform="translate(13.648 15.241)">
                            <path id="Path_33" d="M498.716 256.822c.055.189-2.122.663-4.018 2.483-1.933 1.782-2.538 3.927-2.723 3.859-.074-.017-.034-.582.291-1.427a8.251 8.251 0 0 1 5.006-4.711c.864-.274 1.428-.28 1.444-.204z" class="cls-18" data-name="Path 33" transform="translate(-491.943 -256.78)"/>
                        </g>
                        <path id="Path_34" d="M543.408 298.348s-19.79 40.666-25.58 42.851-8.75-78.537-8.75-78.537l-22.046 2.51s-15.377 127.14 33.2 117.99a29.98 29.98 0 0 0 15.353-8.281c9.029-8.884 29.4-31.085 50.073-68.368z" class="cls-15" data-name="Path 34" transform="translate(-484.721 -236.306)"/>
                    </g>
                    <g id="Group_32" data-name="Group 32" transform="translate(100.339 124.09)">
                        <path id="Path_35" d="M535.785 330.164c-.049.076-.841-.287-2.054-1.319a15.86 15.86 0 0 1-4.031-5.482 16.344 16.344 0 0 1-1.066-10.326 17.368 17.368 0 0 1 7.518-10.738l-.438.824c-.14-3.462-.291-7.183-.236-11.046a61.847 61.847 0 0 1 2.209-16.766 35.9 35.9 0 0 1 6.329-12.336 25.376 25.376 0 0 1 7.032-6.146c1.941-1.073 3.126-1.389 3.165-1.295.07.147-1.005.7-2.759 1.926a28.78 28.78 0 0 0-6.355 6.35 36.7 36.7 0 0 0-5.7 11.989 64.367 64.367 0 0 0-1.99 16.3c-.053 3.8.072 7.493.17 10.953l.017.544-.455.282a16.009 16.009 0 0 0-6.941 9.53 15.609 15.609 0 0 0 .6 9.492 17.7 17.7 0 0 0 3.383 5.484c1.017 1.135 1.68 1.674 1.602 1.78z" class="cls-19" data-name="Path 35" transform="translate(-528.234 -255.519)"/>
                    </g>
                    <g id="Group_45" data-name="Group 45" transform="translate(84.738)">
                        <path id="Path_36" d="M561.022 196.005a20.415 20.415 0 0 1 31.578 13.079c1.6 8.519-2.137 18.1 2.207 25.6 3.88 6.7 13.472 10.1 14.156 17.815.448 5.065-3.405 9.608-3.668 14.685-.482 9.315 10.927 16.36 9.763 25.616-.507 4.023-3.458 7.431-7.007 9.394s-7.642 2.685-11.675 3.112c-5.233.554-10.944.539-15.207-2.542-3.955-2.857-5.815-7.74-7.332-12.378a255.765 255.765 0 0 1-12.187-94.708" class="cls-8" data-name="Path 36" transform="translate(-483.459 -187.506)"/>
                        <path id="Path_37" d="M598.154 197.317c-5.121-5.5-9.993-6.259-15.08-6.559s-10.067 1.482-14.738 3.519-9.294 4.371-14.311 5.289c-3.857.707-7.922.565-11.556 2.041a16.893 16.893 0 0 0-9.058 9.889 29.193 29.193 0 0 0-1.238 13.618c.559 4.789 1.871 9.613 1.039 14.36-1 5.72-4.919 10.4-8.2 15.2s-6.132 10.615-4.605 16.22c1.54 5.667 7.247 9.736 7.9 15.574.469 4.178-1.814 8.2-1.956 12.4-.2 5.964 4.123 11.439 9.547 13.935s11.7 2.451 17.567 1.37a54.914 54.914 0 0 0 40.935-34.738c4.428-12.318 4.226-25.8 2.978-38.829s-3.494-26.041-2.952-39.122" class="cls-8" data-name="Path 37" transform="translate(-519.974 -189.08)"/>
                        <path id="Path_38" d="M590.271 227.777l-2.047 57.595c-10.741 6.847-23.074 7.78-37.756 0v-56.739z" class="cls-20" data-name="Path 38" transform="translate(-492.849 -156.112)"/>
                        <path id="Path_39" d="M534.446 199.031s-.312 53.411 1.247 66.52c1.935 16.3 15.515 26.485 28.415 26.226 15.851-.317 33.831-5.817 38.616-21.54s-1.128-71.207-1.128-71.207z" class="cls-20" data-name="Path 39" transform="translate(-507.129 -181.689)"/>
                        <path id="Path_40" d="M606.6 247.868a114.827 114.827 0 0 0-.726-21.918c-.42-3.165.017-9.182-1.9-11.737-2.617-3.5-7.141-4.966-11.456-5.7-10.486-1.793-21.217-.463-31.858-.255s-21.215 1.663-30.03-4.3l60.5-10.471 17.739 5.588 3.823 41.533z" class="cls-8" data-name="Path 40" transform="translate(-510.5 -186.62)"/>
                        <g id="Group_34" data-name="Group 34" transform="translate(96.101 52.054)">
                            <path id="Path_42" d="M570.832 217.775s16.6-3.814 17.074 12.871-17.074 16.209-17.074 16.209z" class="cls-20" data-name="Path 42" transform="translate(-570.832 -217.399)"/>
                            <g id="Group_33" data-name="Group 33" transform="translate(4.003 8.206)">
                                <path id="Path_43" d="M575.835 221.793a6.4 6.4 0 0 1 4.146 7.293c-.491 2.693-3.048 5.928-6.03 5.446a1.4 1.4 0 0 1-.614-2.326c1.253-1.255 2.848-1.489 3.447-3.42.625-2.005-.5-3.987-1.9-5.365a.98.98 0 0 1 .949-1.627z" class="cls-18" data-name="Path 43" transform="translate(-572.95 -221.742)"/>
                            </g>
                        </g>
                        <path id="Path_44" d="M601.365 199.9c-3.294.059-5.475 3.266-7.633 5.758a25.226 25.226 0 0 1-20.878 8.468c-3.037-.263-6.011-1.083-9.058-1.3s-6.318.253-8.632 2.239c-3.258 2.789-3.929 7.92-7.476 10.331-2.617 1.778-8.493 6.8-11.571 6.059a10.126 10.126 0 0 1-6.883-7.143c-.246-1.338 2.453-26.355 2.453-26.355l16.7-1.1z" class="cls-8" data-name="Path 44" transform="translate(-511.757 -183.627)"/>
                        <g id="Group_35" data-name="Group 35" transform="translate(55.496 96.753)">
                            <path id="Path_45" d="M581.53 241.325a35.658 35.658 0 0 1-31.5 14.086c-.892-.072-.922-1.438 0-1.408a40.361 40.361 0 0 0 31.213-12.9c.142-.147.416.051.291.221z" class="cls-18" data-name="Path 45" transform="translate(-549.345 -241.053)"/>
                        </g>
                        <g id="Group_36" data-name="Group 36" transform="translate(47.075 55.991)">
                            <path id="Path_46" d="M550.148 219.861a15.913 15.913 0 0 1-.178 8.733 32.175 32.175 0 0 1-1.9 3.783c-2.245 4.679-1.319 6.915 1.752 10.6.684.82-.467 2.009-1.189 1.189-2.2-2.483-4.4-5.622-3.56-9.131.352-1.47 1.353-2.614 2.073-3.9a15.282 15.282 0 0 0 1.99-10.989c-.121-.656.86-.945 1.013-.28z" class="cls-22" data-name="Path 46" transform="translate(-544.889 -219.483)"/>
                        </g>
                        <g id="Group_37" data-name="Group 37" transform="translate(53.912 84.276)">
                            <path id="Path_47" d="M560.382 235.478c-1.765 2.1-3.617 4.517-6.446 5.134-2.045.444-4.518 0-5.384-2.1-.236-.571.506-.966.958-.735 1.984 1.009 3.621 1.6 5.8.569a13.423 13.423 0 0 0 4.243-3.7c.491-.578 1.315.255.833.832z" class="cls-22" data-name="Path 47" transform="translate(-548.507 -234.451)"/>
                        </g>
                        <g id="Group_38" data-name="Group 38" transform="translate(36.724 55.596)">
                            <path id="Path_48" d="M540.569 221.67a1.2 1.2 0 0 1 0-2.4 1.2 1.2 0 0 1 0 2.4z" class="cls-22" data-name="Path 48" transform="translate(-539.412 -219.274)"/>
                        </g>
                        <g id="Group_39" data-name="Group 39" transform="translate(67.265 55.691)">
                            <path id="Path_49" d="M556.73 221.718a1.2 1.2 0 0 1 0-2.394 1.2 1.2 0 0 1 0 2.394z" class="cls-22" data-name="Path 49" transform="translate(-555.573 -219.324)"/>
                        </g>
                        <g id="Group_40" class="cls-23" data-name="Group 40" transform="translate(65.326 65.736)">
                            <path id="Path_50" d="M554.564 230.085c-.308 3.2 3.449 6.181 8.408 6.227s8.774-2.855 8.529-6.06c-.244-3.22-4.006-5.562-8.415-5.611s-8.216 2.229-8.522 5.444z" class="cls-18" data-name="Path 50" transform="translate(-554.547 -224.64)"/>
                        </g>
                        <g id="Group_41" class="cls-23" data-name="Group 41" transform="translate(29.456 65.54)">
                            <path id="Path_51" d="M535.6 229.981a5.277 5.277 0 0 0 1.461 4.288 6.723 6.723 0 0 0 9.315.125 5.272 5.272 0 0 0 1.572-4.248 6.217 6.217 0 0 0-12.348-.164z" class="cls-18" data-name="Path 51" transform="translate(-535.566 -224.536)"/>
                        </g>
                        <g id="Group_42" data-name="Group 42" transform="translate(75.102 24.231)">
                            <path id="Path_52" d="M561.685 202.677a7.393 7.393 0 0 0-.643 1.465 22.92 22.92 0 0 0-1.049 4.235A25.028 25.028 0 0 0 562 222.5a19.823 19.823 0 0 0 4.634 6.452 12.389 12.389 0 0 0 5.762 2.974 9.786 9.786 0 0 0 4.375-.055 6.7 6.7 0 0 0 1.124-.387c.248-.115.374-.183.367-.2-.021-.049-.546.176-1.542.367a10.231 10.231 0 0 1-4.235-.125 12.289 12.289 0 0 1-5.485-2.974 19.872 19.872 0 0 1-4.464-6.3 25.707 25.707 0 0 1-2.13-13.824 42.292 42.292 0 0 1 1.279-5.751z" class="cls-8" data-name="Path 52" transform="translate(-559.72 -202.677)"/>
                        </g>
                        <g id="Group_43" data-name="Group 43" transform="translate(5.484)">
                            <path id="Path_53" d="M523.038 267.366a1.473 1.473 0 0 0 .319-.145c.206-.108.522-.255.909-.488a15.081 15.081 0 0 0 3.073-2.5 16.373 16.373 0 0 0 3.33-5.306 15.531 15.531 0 0 0 .871-8.234c-.529-3.086-2.117-6.146-3.844-9.3a51.2 51.2 0 0 1-2.461-4.987 24.747 24.747 0 0 1-.219-18.023 17.422 17.422 0 0 1 3.411-5.632 11.255 11.255 0 0 1 5.728-3.4c4.488-1.053 9.209-.009 13.578-1.366a16.791 16.791 0 0 0 5.692-3.277 54.669 54.669 0 0 0 4.479-4.373 56.065 56.065 0 0 1 4.207-4.135 23.94 23.94 0 0 1 4.573-3.1 25.047 25.047 0 0 1 9.487-2.769 24.369 24.369 0 0 1 8.147.7 25.429 25.429 0 0 1 5.775 2.268 25.9 25.9 0 0 1 3.307 2.13c.365.263.624.491.809.629a1.7 1.7 0 0 0 .287.2 1.443 1.443 0 0 0-.248-.248c-.176-.153-.421-.4-.777-.677a23.179 23.179 0 0 0-3.271-2.233 24.951 24.951 0 0 0-5.8-2.381 24.336 24.336 0 0 0-8.266-.8 25.312 25.312 0 0 0-9.676 2.75 24.2 24.2 0 0 0-4.683 3.135 55.656 55.656 0 0 0-4.263 4.154 54.68 54.68 0 0 1-4.447 4.316 16.233 16.233 0 0 1-5.5 3.158c-4.176 1.31-8.867.27-13.546 1.346a11.842 11.842 0 0 0-6.019 3.577 17.925 17.925 0 0 0-3.519 5.82 25.327 25.327 0 0 0-1.319 12.665 24.994 24.994 0 0 0 1.6 5.758 50.643 50.643 0 0 0 2.512 5.025c1.746 3.145 3.32 6.14 3.863 9.141a15.263 15.263 0 0 1-.773 8.043 16.386 16.386 0 0 1-3.192 5.269 17.645 17.645 0 0 1-4.134 3.29z" class="cls-8" data-name="Path 53" transform="translate(-522.881 -189.854)"/>
                        </g>
                        <g id="Group_44" data-name="Group 44" transform="translate(0 69.945)">
                            <path id="Path_54" d="M525.607 226.869a2.562 2.562 0 0 0-.554.317 8.268 8.268 0 0 0-1.395 1.192 10.33 10.33 0 0 0-2.691 6.108 9.59 9.59 0 0 0 .7 4.63 42.284 42.284 0 0 0 2.708 4.585 6.616 6.616 0 0 1 1.039 5.363c-.537 1.892-1.916 3.526-3.126 5.316a12.414 12.414 0 0 0-2.249 5.953 14.51 14.51 0 0 0 .7 5.89 16.4 16.4 0 0 0 5.919 7.95 22.307 22.307 0 0 0 5.945 3.12 17.911 17.911 0 0 0 1.748.529 2.625 2.625 0 0 0 .625.121c.011-.049-.831-.284-2.294-.862a23.872 23.872 0 0 1-5.773-3.237 16.18 16.18 0 0 1-5.658-7.788 14.044 14.044 0 0 1-.639-5.667 11.873 11.873 0 0 1 2.164-5.683c1.181-1.761 2.606-3.424 3.192-5.49a5.965 5.965 0 0 0 .051-3.1 9.854 9.854 0 0 0-1.177-2.691 44.4 44.4 0 0 1-2.729-4.505 9.263 9.263 0 0 1-.726-4.4 10.374 10.374 0 0 1 2.447-5.991 19.023 19.023 0 0 1 1.773-1.66z" class="cls-8" data-name="Path 54" transform="translate(-519.979 -226.867)"/>
                        </g>
                        <path id="Path_55" d="M581.711 234.183a7.035 7.035 0 0 1-6.3 1.786 12.728 12.728 0 0 1-5.957-3.148c-7.391-6.461-9.536-17.106-9.419-26.922a9.78 9.78 0 0 1 1.113-5.238 7.384 7.384 0 0 1 5.8-2.946c4.794-.331 9.494 2.287 12.433 6.089a24.613 24.613 0 0 1 4.6 13.444 73.428 73.428 0 0 1-.9 14.366" class="cls-8" data-name="Path 55" transform="translate(-484.34 -182.886)"/>
                    </g>
                    <g id="Group_46" data-name="Group 46" transform="translate(143.361 216.809)">
                        <path id="Path_56" d="M553.1 377.883c-.533.009-1.336-16.388-1.791-36.628s-.4-36.662.138-36.673 1.336 16.384 1.791 36.629.393 36.658-.138 36.672z" class="cls-19" data-name="Path 56" transform="translate(-551 -304.582)"/>
                    </g>
                    <path id="Path_57" d="M601.345 263.665s12.743 2.508 16.564 23.615a62.356 62.356 0 0 1 .393 18.607l-4.322 35.721-43.1-24.879s-.217-51.223 30.465-53.064z" class="cls-15" data-name="Path 57" transform="translate(-389.948 -124.18)"/>
                    <g id="Group_47" data-name="Group 47" transform="translate(111.076 227.363)">
                        <path id="Path_58" d="M572.6 324.805s-11.6-4.267-12.554-4.681-2.44-11.337-3.963-9.812-1.317 7.916-1.317 7.916-14.147-6.673-14.313-4.158 7.742 5.443 7.742 5.443-12.758-4.328-12.62-2.1 10.728 5.006 10.728 5.006-9.71-2.126-11.469-.635 9.94 4.543 9.94 4.543-10.04-1-10.849.136 33.746 14.893 33.746 14.893z" class="cls-17" data-name="Path 58" transform="translate(-533.916 -310.167)"/>
                    </g>
                    <path id="Path_59" d="M554.076 360.921s39.358 10.2 39.751 8.317c.37-1.8 2.069-16.178 3.925-37.733l.694-17.433s-7.775-62.939 33.952-43.094c0 0 7.088 18.28 2.8 55.69-1.092 17.962-5.182 61.544-15.723 71.707 0 0-2.929 3.687-10.851 2.627-7.553-1.007-60.573-24.17-60.573-24.17z" class="cls-15" data-name="Path 59" transform="translate(-410.262 -121.117)"/>
                    <g id="Group_49" data-name="Group 49" transform="translate(143.813 140.008)">
                        <path id="Path_60" d="M551.239 363.737a12.9 12.9 0 0 1 2.912.346c1.882.31 4.632.807 8.126 1.463 6.988 1.315 16.949 3.277 28.883 5.688l-1.007.792c.161-5.824.333-12.162.518-18.875.1-3.356.2-6.809.31-10.333q.074-2.656.153-5.369c.079-1.816.2-3.636.34-5.467.882-11.135 2.1-21.674 3.19-31.264.6-4.777.964-9.36 1.842-13.64a39.914 39.914 0 0 1 4-11.431 24.121 24.121 0 0 1 6.487-7.647 19.939 19.939 0 0 1 6.722-3.458 14.956 14.956 0 0 1 4.73-.586 4.514 4.514 0 0 1 1.638.249c.009.225-2.324-.215-6.146 1.054a20.138 20.138 0 0 0-6.272 3.585 23.539 23.539 0 0 0-5.953 7.448 39.413 39.413 0 0 0-3.634 11.089c-.784 4.148-1.1 8.725-1.644 13.527-1 9.594-2.158 20.143-3.035 31.215-.14 1.818-.257 3.623-.338 5.4q-.085 2.69-.166 5.323-.187 5.292-.361 10.341c-.251 6.718-.49 13.062-.709 18.888l-.036 1-.971-.212c-11.9-2.574-21.812-4.77-28.741-6.367-3.466-.8-6.183-1.446-8.032-1.916a12.412 12.412 0 0 1-2.806-.843z" class="cls-19" data-name="Path 60" transform="translate(-551.239 -263.942)"/>
                    </g>
                    <g id="Group_50" data-name="Group 50" transform="translate(138.218 255.544)">
                        <path id="Path_61" d="M618.64 344.065c.091.045-.293 1.139-1.75 2.58a14.02 14.02 0 0 1-7.737 3.538c-3.64.539-7.99-.178-12.471-1.468-4.5-1.26-9.381-2.852-14.4-4.808a152.655 152.655 0 0 1-24.7-12.2c-6.017-3.689-9.43-6.421-9.3-6.612.168-.249 3.84 2.075 9.982 5.433a204.415 204.415 0 0 0 24.714 11.572 195.689 195.689 0 0 0 14.2 4.9c4.39 1.366 8.44 2.152 11.815 1.824a14.452 14.452 0 0 0 7.408-2.75c1.505-1.168 2.105-2.099 2.239-2.009z" class="cls-19" data-name="Path 61" transform="translate(-548.278 -325.079)"/>
                    </g>
                    <path id="Path_62" d="M551.688 346.22s31.625-26.984 30.576-29.609a17.788 17.788 0 0 0-3.94-5.252s5.734 1.837 6.937-2.364S602.5 258.48 602.5 258.48s-26.237 26.48-50.812 87.74z" class="cls-19" data-name="Path 62" transform="translate(-407.026 -128.793)"/>
                    <path id="Path_63" d="M556.681 255s-20.929 34.33-15.56 43.174l4.671 3.678s-6.45 2.717-5.552 3.594 14.973 35.3 20.854 43.251c0 .003-12.274-65.187-4.413-93.697z" class="cls-19" data-name="Path 63" transform="translate(-417.288 -131.889)"/>
                    <path id="Path_64" d="M550.469 264.1v-11.139l38.2-1.277 1.606 12.416s-4.5 9.557-13.465 10.947-26.341-10.947-26.341-10.947z" class="cls-16" data-name="Path 64" transform="translate(-408.111 -134.84)"/>
                    <g id="Group_52" data-name="Group 52" transform="translate(141.798 117.012)">
                        <path id="Path_65" d="M589.556 260.152c.1.034-.078.934-1.005 2.27a10.807 10.807 0 0 1-5.551 3.934 11.391 11.391 0 0 1-4.811.454 10.235 10.235 0 0 1-5.134-2.264 11.854 11.854 0 0 1-3.56-5.048 11.065 11.065 0 0 1-.393-6.658l.081-.333a.963.963 0 0 1 1.888.37l-.008.055c-.663 4.318-2.7 8.4-5.908 10.749a10.485 10.485 0 0 1-9.876 1.716 8.248 8.248 0 0 1-4.776-4.787c-.525-1.555-.289-2.47-.193-2.459.163-.015.2.862.879 2.164a7.972 7.972 0 0 0 4.549 3.8 9.259 9.259 0 0 0 8.345-1.85c2.672-2.065 4.464-5.667 5.07-9.636l1.878.427-.064.272a10.1 10.1 0 0 0 3.233 9.851 8.758 8.758 0 0 0 4.227 2.041 10.334 10.334 0 0 0 4.2-.183 11.15 11.15 0 0 0 5.348-3.1c1.025-1.085 1.436-1.856 1.581-1.785z" class="cls-24" data-name="Path 65" transform="translate(-550.172 -251.773)"/>
                    </g>
                    <g id="Group_53" data-name="Group 53" transform="translate(143.999 125.341)">
                        <path id="Path_66" d="M566.772 256.181c.276.074-.867 5.17-2.629 13.408s-4.082 19.642-6.2 32.315-3.617 24.217-4.619 32.585-1.578 13.555-1.861 13.535c-.134-.009-.157-1.321-.089-3.683s.261-5.775.59-9.989c.658-8.423 1.958-20.035 4.074-32.765s4.662-24.129 6.775-32.31c1.052-4.091 1.975-7.383 2.682-9.64s1.149-3.488 1.277-3.456z" class="cls-24" data-name="Path 66" transform="translate(-551.337 -256.181)"/>
                    </g>
                    <path id="Path_67" d="M596.552 232.007c0 9.283-6.75 16.808-15.078 16.808s-15.074-7.526-15.074-16.808 6.75-16.808 15.078-16.808 15.074 7.525 15.074 16.808z" class="cls-15" data-name="Path 67" transform="translate(-393.94 -167.304)"/>
                    <path id="Path_69" d="M590.648 235.975s4.609-50.786-30.928-42.839c0 0 22.677 2.855 21.213 50.542s-.214.9-.214.9z" class="cls-15" data-name="Path 69" transform="translate(-399.88 -187.686)"/>
                    <g id="Group_54" data-name="Group 54" transform="translate(153.728 65.116)">
                        <path id="Path_70" d="M557.2 249.465c13.775-2.888 27.209-12.573 35.5-23.77.616-.83-.762-1.9-1.438-1.109-9.795 11.424-20.512 18.172-34.369 23.76a.581.581 0 0 0 .308 1.119z" class="cls-15" data-name="Path 70" transform="translate(-556.486 -224.311)"/>
                    </g>
                    <g id="Group_55" data-name="Group 55" transform="translate(186.927 12.261)">
                        <path id="Path_71" d="M598.727 280.833a.766.766 0 0 1-.265-.042c-.17-.043-.429-.089-.758-.2a8.323 8.323 0 0 1-2.61-1.506 9.739 9.739 0 0 1-2.748-3.889 8.78 8.78 0 0 1-.123-6.282c1.663-4.619 7.619-7.213 9.1-13.3a14.4 14.4 0 0 0-.448-9.264 14.664 14.664 0 0 0-6.6-7.417c-1.533-.82-3.2-1.374-4.8-2.071a10.753 10.753 0 0 1-4.294-2.939 8.012 8.012 0 0 1-1.614-4.766c-.089-1.642.07-3.218.106-4.745a64.694 64.694 0 0 0-1.561-16.148 26.946 26.946 0 0 0-2.062-5.862 14.742 14.742 0 0 0-2.7-3.806 12.413 12.413 0 0 0-3.292-2.251.78.78 0 0 1 .255.076c.164.062.414.151.729.289a10.4 10.4 0 0 1 2.481 1.7 14.583 14.583 0 0 1 2.848 3.823 26.7 26.7 0 0 1 2.185 5.919 63.478 63.478 0 0 1 1.712 16.273c-.028 1.548-.178 3.118-.083 4.694a7.4 7.4 0 0 0 1.489 4.405 10.15 10.15 0 0 0 4.057 2.746c1.568.682 3.247 1.236 4.851 2.092a15.25 15.25 0 0 1 6.883 7.752 14.955 14.955 0 0 1 .433 9.659 15.124 15.124 0 0 1-1.9 4.146 22.972 22.972 0 0 1-2.768 3.267c-1.924 1.935-3.73 3.763-4.571 5.9a8.431 8.431 0 0 0 .036 5.985 9.209 9.209 0 0 0 6.042 5.762z" class="cls-8" data-name="Path 71" transform="translate(-574.053 -196.343)"/>
                    </g>
                    <g id="Group_56" data-name="Group 56" transform="translate(0 .147)">
                        <path id="Path_72" d="M505.552 250.76a30.414 30.414 0 1 1 30.414-30.414 30.122 30.122 0 0 1-5.473 17.35l6.363 12.14-14.8-3.95a30.258 30.258 0 0 1-16.504 4.874zm0-58.938a28.524 28.524 0 1 0 15.832 52.247l6.628-4.435-4.358 4.723 9.53 2.544-4.615-8.806.576-.3-.641-.563a28.483 28.483 0 0 0-22.953-45.4z" class="cls-8" data-name="Path 72" transform="translate(-475.138 -189.932)"/>
                        <text id="_" class="cls-25" data-name="?" transform="translate(20.153 45.217)">
                            <tspan x="0" y="0">?</tspan>
                        </text>
                    </g>
                </g>
                <path id="Path_73" d="M369.158 341.1h460.563s-17.307 44.34-221.755 45.3c-205.701.972-238.808-45.3-238.808-45.3z" class="cls-26" data-name="Path 73" transform="translate(-369.158 -55.278)"/>
                <g id="Group_58" data-name="Group 58" transform="translate(71.102 159.829)">
                    <path id="Path_74" d="M484.114 344.425V341.1h77.436v4.283z" class="cls-27" data-name="Path 74" transform="translate(-337.976 -215.106)"/>
                    <path id="Path_75" d="M406.783 274.43l18.66 106.407h154.088L562.469 274.43z" class="cls-28" data-name="Path 75" transform="translate(-406.783 -274.43)"/>
                    <path id="Path_76" d="M441.145 310.167l6.483 60.412h35.122l-11.887-60.412h-26.477" class="cls-27" data-name="Path 76" transform="translate(-376.208 -242.633)"/>
                    <path id="Rectangle_10" d="M0 0h75.847v3.322H0z" class="cls-27" data-name="Rectangle 10" transform="translate(51.04 125.997)"/>
                    <path id="Rectangle_11" d="M0 0h55.403v2.122H0z" class="cls-27" data-name="Rectangle 11" transform="translate(46.805 8.011)"/>
                </g>
            </g>
            <path id="Path_77" d="M321.379 206.351a7.637 7.637 0 1 0-.9 15.158 7.544 7.544 0 1 0-2.659-14.723" class="cls-7" data-name="Path 77" transform="translate(17.155 1089.543)"/>
        </g>
    </g>
</svg>
