<svg xmlns="http://www.w3.org/2000/svg" width="32" height="32" viewBox="0 0 32 32">
  <g id="dark-mode" transform="translate(-2 -133)">
    <g id="moon">
      <path id="moon-2" data-name="moon" d="M9.53,19.383a9.245,9.245,0,0,0,8.493-5.461,7.14,7.14,0,0,1-3.061.616,7.552,7.552,0,0,1-7.47-7.615A7.914,7.914,0,0,1,11.521.115,13.928,13.928,0,0,0,9.53,0,9.6,9.6,0,0,0,.023,9.692,9.6,9.6,0,0,0,9.53,19.383Zm0,0" transform="translate(8.977 139)"/>
      <rect id="Rectangle_655" data-name="Rectangle 655" width="32" height="32" transform="translate(2 133)" fill="none"/>
    </g>
  </g>
</svg>
