<svg xmlns="http://www.w3.org/2000/svg" id="f-ogo_RGB_HEX-58" width="32" height="32" viewBox="0 0 32 32">
    <defs>
        <style>
            .cls-1{fill:#4267b2}.cls-2{fill:#fff}
        </style>
    </defs>
    <path id="Path_3219" d="M30.234 0H1.766A1.766 1.766 0 0 0 0 1.766v28.468A1.766 1.766 0 0 0 1.766 32H17.1V19.625h-4.162v-4.844H17.1v-3.564c0-4.132 2.527-6.383 6.212-6.383a35.422 35.422 0 0 1 3.719.188v4.32H24.5c-2.008 0-2.4.949-2.4 2.35v3.084h4.8l-.623 4.844h-4.2V32h8.166A1.766 1.766 0 0 0 32 30.234V1.766A1.766 1.766 0 0 0 30.234 0z" class="cls-1" data-name="Path 3219"/>
    <path id="f" d="M32.581 35.927V23.552h4.177l.623-4.844h-4.8v-3.085c0-1.4.392-2.35 2.4-2.35h2.566V8.948a35.421 35.421 0 0 0-3.724-.188c-3.691 0-6.207 2.251-6.207 6.383v3.564H23.45v4.844h4.166v12.376z" class="cls-2" transform="translate(-10.512 -3.927)"/>
</svg>
