<svg xmlns="http://www.w3.org/2000/svg" xmlns:xlink="http://www.w3.org/1999/xlink" width="24" height="24" viewBox="0 0 24 24">
  <defs>
    <clipPath id="clip-path">
      <path id="Path_11882" data-name="Path 11882" d="M80.5,103.374a.552.552,0,0,0-.627-.45.526.526,0,0,0-.3.15l-2.836,2.836-2.223-4.241a.542.542,0,0,0-.736-.232.63.63,0,0,0-.232.232l-1.214,2.318-3.055-5.7a.54.54,0,0,0-.736-.218.567.567,0,0,0-.286.4l-2.959,18.9,7.9,4.432a1.658,1.658,0,0,0,1.6,0l7.964-4.432Z" transform="translate(-65.3 -98.001)"/>
    </clipPath>
    <linearGradient id="linear-gradient" x1="0.537" y1="0.247" x2="0.462" y2="0.269" gradientUnits="objectBoundingBox">
      <stop offset="0" stop-color="#a52714"/>
      <stop offset="0.4" stop-color="#a52714" stop-opacity="0.502"/>
      <stop offset="0.8" stop-color="#a52714" stop-opacity="0"/>
    </linearGradient>
    <linearGradient id="linear-gradient-2" x1="0.474" y1="0.308" x2="0.455" y2="0.326" gradientUnits="objectBoundingBox">
      <stop offset="0" stop-color="#a52714" stop-opacity="0.8"/>
      <stop offset="0.5" stop-color="#a52714" stop-opacity="0.212"/>
      <stop offset="1" stop-color="#a52714" stop-opacity="0"/>
    </linearGradient>
    <linearGradient id="linear-gradient-3" x1="-5.175" y1="7.275" x2="-4.783" y2="7.56" gradientUnits="objectBoundingBox">
      <stop offset="0" stop-color="#fff" stop-opacity="0.102"/>
      <stop offset="1" stop-color="#fff" stop-opacity="0"/>
    </linearGradient>
  </defs>
  <g id="firebase-active" transform="translate(-33 -91)">
    <rect id="XMLID_21_" width="24" height="24" transform="translate(33 91)" fill="none"/>
    <g id="Group_5270" data-name="Group 5270" transform="translate(37 91)">
      <g id="Group_5269" data-name="Group 5269" clip-path="url(#clip-path)">
        <path id="Path_11874" data-name="Path 11874" d="M65.3,117.394l2.959-18.9a.535.535,0,0,1,.627-.45.567.567,0,0,1,.4.286l3.055,5.7,1.214-2.318a.542.542,0,0,1,.736-.232.63.63,0,0,1,.232.232l8.236,15.682Z" transform="translate(-65.3 -98.031)" fill="#ffa000"/>
        <path id="Path_11875" data-name="Path 11875" d="M47.755,91.227,33.3,90v26.182l4.364-5.727Z" transform="translate(-37.664 -91.091)" opacity="0.12" fill="url(#linear-gradient)"/>
        <path id="Path_11876" data-name="Path 11876" d="M75.514,147.914,72.336,141.9,65.3,155.277Z" transform="translate(-65.3 -135.914)" fill="#f57c00"/>
        <path id="Path_11877" data-name="Path 11877" d="M33.3,90H59.482v26.182H33.3Z" transform="translate(-37.664 -91.091)" opacity="0.2" fill="url(#linear-gradient-2)"/>
        <path id="Path_11878" data-name="Path 11878" d="M82.755,148.42l-2.264-14a.552.552,0,0,0-.627-.45.526.526,0,0,0-.3.15L65.3,148.42l7.9,4.432a1.658,1.658,0,0,0,1.6,0Z" transform="translate(-65.3 -129.056)" fill="#ffca28"/>
        <path id="Path_11879" data-name="Path 11879" d="M80.418,103.374a.552.552,0,0,0-.627-.45.526.526,0,0,0-.3.15l-2.836,2.836-2.223-4.241a.542.542,0,0,0-.736-.232.63.63,0,0,0-.232.232l-1.214,2.318-3.055-5.7a.54.54,0,0,0-.736-.218.567.567,0,0,0-.286.4l-2.959,18.9H65.2l.014.014.082.041,11.359-11.373,2.836-2.836a.543.543,0,0,1,.777,0,.488.488,0,0,1,.15.3l2.236,13.868.027-.014ZM65.241,117.337,68.173,98.6a.535.535,0,0,1,.627-.45.567.567,0,0,1,.4.286l3.055,5.7,1.214-2.318a.542.542,0,0,1,.736-.232.63.63,0,0,1,.232.232l2.182,4.145Z" transform="translate(-65.214 -98.001)" fill="rgba(255,255,255,0.2)"/>
        <path id="Path_11880" data-name="Path 11880" d="M74.791,243.518a1.658,1.658,0,0,1-1.6,0L65.314,239.1l-.014.123,7.9,4.432a1.658,1.658,0,0,0,1.6,0l7.964-4.432-.014-.123Z" transform="translate(-65.3 -219.859)" fill="#a52714" opacity="0.2"/>
        <path id="Path_11881" data-name="Path 11881" d="M80.5,103.374a.552.552,0,0,0-.627-.45.526.526,0,0,0-.3.15l-2.836,2.836-2.223-4.241a.542.542,0,0,0-.736-.232.63.63,0,0,0-.232.232l-1.214,2.318-3.055-5.7a.54.54,0,0,0-.736-.218.567.567,0,0,0-.286.4l-2.959,18.9,7.9,4.432a1.658,1.658,0,0,0,1.6,0l7.964-4.432Z" transform="translate(-65.3 -98.001)" fill="url(#linear-gradient-3)"/>
      </g>
    </g>
  </g>
</svg>
