<svg xmlns="http://www.w3.org/2000/svg" width="24" height="24" viewBox="0 0 24 24">
  <g id="google" transform="translate(-0.436)">
    <rect id="Rectangle_885" data-name="Rectangle 885" width="24" height="24" transform="translate(0.436)" fill="none"/>
    <g id="Group_5274" data-name="Group 5274" transform="translate(2.784 4.598)">
      <g id="Group_5273" data-name="Group 5273">
        <path id="Path_11919" data-name="Path 11919" d="M55.884,100.529H53.44a.479.479,0,1,0,0,.958h1.905a1.964,1.964,0,1,1-.516-1.868.479.479,0,1,0,.677-.678,2.922,2.922,0,1,0,.856,2.066A.479.479,0,0,0,55.884,100.529Z" transform="translate(-50.518 -98.086)" fill="#bcbcbc"/>
      </g>
    </g>
    <g id="Group_5276" data-name="Group 5276" transform="translate(15.554 3.074)">
      <g id="Group_5275" data-name="Group 5275">
        <path id="Path_11920" data-name="Path 11920" d="M325.828,65.584a2.884,2.884,0,1,0,2.884,2.884A2.887,2.887,0,0,0,325.828,65.584Zm0,4.809a1.925,1.925,0,1,1,1.925-1.925A1.928,1.928,0,0,1,325.828,70.393Z" transform="translate(-322.944 -65.584)" fill="#bcbcbc"/>
      </g>
    </g>
    <g id="Group_5278" data-name="Group 5278" transform="translate(0.436)">
      <g id="Group_5277" data-name="Group 5277">
        <path id="Path_11921" data-name="Path 11921" d="M18.437,0a5.958,5.958,0,0,0-5.005,2.729H2.749A2.316,2.316,0,0,0,.436,5.042V21.687A2.316,2.316,0,0,0,2.749,24H19.394a2.316,2.316,0,0,0,2.313-2.313V11.314a11.9,11.9,0,0,1,.944-1.144A5.958,5.958,0,0,0,18.437,0ZM1.394,5.042A1.356,1.356,0,0,1,2.749,3.688h10.18a5.97,5.97,0,0,0,.186,4.954L1.394,20.519Zm1.3,18A1.355,1.355,0,0,1,1.408,21.87L13.632,9.482a6.046,6.046,0,0,0,.592.688q.288.306.548.628ZM15.352,11.574a17.3,17.3,0,0,1,2.379,5.358L13.847,13.1ZM4.036,23.042l7.093-7.188,7.284,7.188Zm16.713-1.355A1.356,1.356,0,0,1,19.732,23L11.8,15.171l1.372-1.39,7.575,7.474Zm0-1.778h0L18.89,18.075a.484.484,0,0,0,.021-.085,17.75,17.75,0,0,1,1.838-5.16v7.079ZM21.964,9.5l-.021.023a16.371,16.371,0,0,0-3.505,6.355,16.372,16.372,0,0,0-3.505-6.355L14.911,9.5a5,5,0,1,1,7.053,0Z" transform="translate(-0.436)" fill="#bcbcbc"/>
      </g>
    </g>
  </g>
</svg>
