<svg xmlns="http://www.w3.org/2000/svg" width="24" height="24" viewBox="0 0 24 24">
  <g id="google-active" transform="translate(-0.447)">
    <rect id="Rectangle_884" data-name="Rectangle 884" width="24" height="24" transform="translate(0.447)" fill="none"/>
    <path id="Path_11911" data-name="Path 11911" d="M236.767,192.759v10.2l-3.206-.593-1.414-1.7-5.956-6.621,5.057-3.593c2.533,3.343,2.613,2.528,2.613,2.528a1.759,1.759,0,0,1,2.856-.263Z" transform="translate(-215.162 -181.53)" fill="#ccc"/>
    <path id="Path_11912" data-name="Path 11912" d="M51.2,223.1l10.515,13.533c-.061.006-.123.009-.186.009H44.336Z" transform="translate(-41.832 -212.647)" fill="#518ef8"/>
    <path id="Path_11913" data-name="Path 11913" d="M16.085,66.722.447,79.884V62.547a1.91,1.91,0,0,1,1.91-1.91h11.4c-.49.842,1.326,1.382,1.326,2.426A9.111,9.111,0,0,0,16.085,66.722Z" transform="translate(0 -57.795)" fill="#28b446"/>
    <path id="Path_11914" data-name="Path 11914" d="M237.836,288.8v.659a1.91,1.91,0,0,1-1.725,1.9l-8.8-8.683,2.13-2.158,4.916,4.85.271.268Z" transform="translate(-216.232 -267.372)" fill="#f2f2f2"/>
    <path id="Path_11915" data-name="Path 11915" d="M15.544,185.388l-2.333,2.364-2.13,2.158L2.5,198.6H2.357a1.911,1.911,0,0,1-1.91-1.91l13.324-13.5c.25.427,1.965-.005,2.314.341l.641.824C17.039,184.688,15.275,185.034,15.544,185.388Z" transform="translate(0 -174.603)" fill="#ffd837"/>
    <path id="Path_11916" data-name="Path 11916" d="M45.009,103.985a3.044,3.044,0,1,1,2.152-5.2l-.706.706a2.045,2.045,0,1,0,.538,1.945H45.009v-1h3.044v.5A3.047,3.047,0,0,1,45.009,103.985Z" transform="translate(-39.572 -93.308)" fill="#fff"/>
    <path id="Path_11917" data-name="Path 11917" d="M268.835,2.842A5.708,5.708,0,1,1,277.8,9.751a13.041,13.041,0,0,0-1.169,1.442,18.52,18.52,0,0,0-2.856,6.97,18.343,18.343,0,0,0-3.154-7.377,13.008,13.008,0,0,0-.872-1.034h0a5.709,5.709,0,0,1-.912-6.909Z" transform="translate(-255.073)" fill="#f14336"/>
    <path id="Path_11918" data-name="Path 11918" d="M328.049,56.947a3.037,3.037,0,1,1-3.037,3.037A3.037,3.037,0,0,1,328.049,56.947Z" transform="translate(-309.351 -54.278)" fill="#7e2d25"/>
  </g>
</svg>
