<svg xmlns="http://www.w3.org/2000/svg" id="instagram" width="32" height="32" viewBox="0 0 32 32">
    <defs>
        <style>
            .cls-1{fill:url(#linear-gradient)}.cls-2{fill:url(#linear-gradient-2)}.cls-3{fill:url(#linear-gradient-3)}
        </style>
        <linearGradient id="linear-gradient" x1=".065" x2=".969" y1=".086" y2=".949" gradientUnits="objectBoundingBox">
            <stop offset="0" stop-color="#ffc107"/>
            <stop offset=".493" stop-color="#f44336"/>
            <stop offset=".99" stop-color="#9c27b0"/>
            <stop offset="1" stop-color="#9c27b0"/>
        </linearGradient>
        <linearGradient id="linear-gradient-2" x1=".103" x2=".932" y1=".044" y2=".964" gradientUnits="objectBoundingBox">
            <stop offset="0" stop-color="#ffc107"/>
            <stop offset=".507" stop-color="#f44336"/>
            <stop offset=".966" stop-color="#9c27b0"/>
            <stop offset="1" stop-color="#9c27b0"/>
        </linearGradient>
        <linearGradient id="linear-gradient-3" x1="-12.08" x2="-12.058" y1="15.925" y2="15.947" gradientUnits="objectBoundingBox">
            <stop offset="0" stop-color="#ffc107"/>
            <stop offset=".507" stop-color="#f44336"/>
            <stop offset=".99" stop-color="#9c27b0"/>
        </linearGradient>
    </defs>
    <path id="Path_3221" d="M22 0H10A10 10 0 0 0 0 10v12a10 10 0 0 0 10 10h12a10 10 0 0 0 10-10V10A10 10 0 0 0 22 0zm7 22a7.008 7.008 0 0 1-7 7H10a7.008 7.008 0 0 1-7-7V10a7.008 7.008 0 0 1 7-7h12a7.008 7.008 0 0 1 7 7z" class="cls-1" data-name="Path 3221"/>
    <path id="Path_3222" d="M136 128a8 8 0 1 0 8 8 8 8 0 0 0-8-8zm0 13a5 5 0 1 1 5-5 5.007 5.007 0 0 1-5 5z" class="cls-2" data-name="Path 3222" transform="translate(-120 -120)"/>
    <circle id="Ellipse_70" cx="1.066" cy="1.066" r="1.066" class="cls-3" data-name="Ellipse 70" transform="translate(23.534 6.334)"/>
</svg>
