<svg xmlns="http://www.w3.org/2000/svg" xmlns:xlink="http://www.w3.org/1999/xlink" width="24" height="24" viewBox="0 0 24 24">
  <defs>
    <clipPath id="clip-path">
      <rect id="Rectangle_426" data-name="Rectangle 426" width="24" height="24" transform="translate(-1121 2377)" fill="#bcbcbc"/>
    </clipPath>
  </defs>
  <g id="java" transform="translate(1121 -2377)" clip-path="url(#clip-path)">
    <g id="java-2" data-name="java" transform="translate(-1121 2377)">
      <path id="XMLID_8_" d="M11.881,4.447A8.181,8.181,0,0,0,8.842,7.574c-1.17,2.552,2.394,5.335,2.546,5.452a.2.2,0,0,0,.295-.247,11.32,11.32,0,0,1-1.244-4.292c.017-.621.886-1.325,1.805-2.07A10.43,10.43,0,0,0,14.6,4.055,3.8,3.8,0,0,0,14.448.083.2.2,0,0,0,14.1.238a4.186,4.186,0,0,1-.47,2.644A5.729,5.729,0,0,1,11.881,4.447Z" fill="#bcbcbc"/>
      <path id="XMLID_9_" d="M16.553,5.326a.2.2,0,0,0-.188-.341c-.188.072-4.613,1.777-4.613,3.838a3.926,3.926,0,0,0,1.05,2.719,2.067,2.067,0,0,1,.373.559,2.8,2.8,0,0,1-.329,1.562.2.2,0,0,0,.288.249c.076-.053,1.859-1.314,1.54-2.833a3.746,3.746,0,0,0-.653-1.372c-.388-.577-.668-.993-.243-1.763A14.977,14.977,0,0,1,16.553,5.326Z" fill="#bcbcbc"/>
      <path id="XMLID_10_" d="M5.035,13.98a.7.7,0,0,0,.1.652c.48.666,2.179,1.033,4.784,1.033h0c.353,0,.726-.007,1.108-.021,4.166-.149,5.711-1.447,5.775-1.5a.2.2,0,0,0-.181-.339,28.666,28.666,0,0,1-6.107.543,13.432,13.432,0,0,1-3.474-.266,4.873,4.873,0,0,1,2.015-.725.2.2,0,0,0-.038-.39C8.411,12.965,5.355,13.014,5.035,13.98Z" fill="#bcbcbc"/>
      <path id="XMLID_11_" d="M18.976,12.643a4.108,4.108,0,0,0-1.708.449.2.2,0,0,0,.093.37c.018,0,1.833.015,2,1.052.146.894-1.717,2.344-2.447,2.827a.2.2,0,0,0,.108.361.192.192,0,0,0,.041,0c.173-.037,4.238-.933,3.808-3.3A1.832,1.832,0,0,0,18.976,12.643Z" fill="#bcbcbc"/>
      <path id="XMLID_12_" d="M16.188,17.051a.2.2,0,0,0-.08-.2l-.975-.683a.2.2,0,0,0-.163-.029,19.146,19.146,0,0,1-2.509.435,17.413,17.413,0,0,1-1.9.1,6.955,6.955,0,0,1-2.587-.3c-.019-.036-.013-.052-.009-.061a.5.5,0,0,1,.251-.189A.2.2,0,0,0,8.1,15.75c-.978.236-1.456.566-1.421.981.062.735,1.765,1.113,3.2,1.212.207.014.431.021.665.021h0a27.957,27.957,0,0,0,5.494-.759A.2.2,0,0,0,16.188,17.051Z" fill="#bcbcbc"/>
      <path id="XMLID_13_" d="M8.841,18.629a.2.2,0,0,0-.113-.361c-.131,0-1.282.055-1.363.788a.762.762,0,0,0,.186.595c.413.49,1.529.781,3.41.89.223.013.449.02.672.02A10.252,10.252,0,0,0,15.7,19.78a.2.2,0,0,0,.018-.346l-1.232-.752a.2.2,0,0,0-.143-.025c-.008,0-.79.164-1.97.324a6.366,6.366,0,0,1-.831.046A10.317,10.317,0,0,1,8.8,18.709.079.079,0,0,1,8.841,18.629Z" fill="#bcbcbc"/>
      <path id="XMLID_14_" d="M10.519,22.821c5.478,0,8.417-.979,8.984-1.592a.678.678,0,0,0,.205-.556.859.859,0,0,0-.377-.554.2.2,0,0,0-.257.035.194.194,0,0,0,0,.256c.035.044.055.119-.047.22-.226.211-2.51.853-6.312,1.046-.521.027-1.067.041-1.624.041-3.4,0-5.9-.466-6.223-.738a4.85,4.85,0,0,1,1.944-.634.2.2,0,0,0-.06-.389c-.026,0-.116.009-.22.015-1.546.094-3.333.3-3.426,1.1a.811.811,0,0,0,.215.655c.418.469,1.618,1.093,7.2,1.093Z" fill="#bcbcbc"/>
      <path id="XMLID_15_" d="M20.579,21.4a.2.2,0,0,0-.227.045,6.57,6.57,0,0,1-3.308,1.375,32.094,32.094,0,0,1-5.289.286c-2.566,0-5.008-.1-5.032-.1a.2.2,0,0,0-.054.388A29.282,29.282,0,0,0,12.753,24a28.357,28.357,0,0,0,4.854-.405c2.876-.5,3.078-1.93,3.085-1.991A.2.2,0,0,0,20.579,21.4Z" fill="#bcbcbc"/>
    </g>
  </g>
</svg>
