<svg xmlns="http://www.w3.org/2000/svg" xmlns:xlink="http://www.w3.org/1999/xlink" width="24" height="24" viewBox="0 0 24 24">
  <defs>
    <clipPath id="clip-path">
      <rect id="Rectangle_872" data-name="Rectangle 872" width="24" height="24" transform="translate(-1107 2377)" fill="#bcbcbc"/>
    </clipPath>
  </defs>
  <g id="java-active" transform="translate(1107 -2377)" clip-path="url(#clip-path)">
    <g id="java-seeklogo.com" transform="translate(-1104.517 2376.628)">
      <path id="Path_11885" data-name="Path 11885" d="M67.105,267.473s-.917.533.653.714a13.733,13.733,0,0,0,4.97-.211,8.647,8.647,0,0,0,1.32.645c-4.7,2.014-10.633-.117-6.943-1.148" transform="translate(-60.888 -248.541)" fill="#5382a1"/>
      <path id="Path_11886" data-name="Path 11886" d="M57,229.659s-1.029.761.542.924a19.387,19.387,0,0,0,6.412-.308,2.846,2.846,0,0,0,.988.6c-5.68,1.661-12.008.131-7.942-1.218" transform="translate(-51.352 -213.355)" fill="#5382a1"/>
      <path id="Path_11887" data-name="Path 11887" d="M129.723,77.488a1.758,1.758,0,0,1-.3,2.532s2.939-1.517,1.589-3.418c-1.261-1.772-2.228-2.653,3.007-5.688,0,0-8.216,2.052-4.292,6.574" transform="translate(-119.24 -65.641)" fill="#e76f00"/>
      <path id="Path_11888" data-name="Path 11888" d="M16.7,292.724s.679.559-.747.992c-2.712.822-11.287,1.07-13.669.033-.856-.373.75-.89,1.255-1a3.255,3.255,0,0,1,.828-.093c-.952-.671-6.155,1.317-2.643,1.887,9.579,1.553,17.462-.7,14.977-1.82" transform="translate(0 -271.848)" fill="#5382a1"/>
      <path id="Path_11889" data-name="Path 11889" d="M32.468,190.428s-4.362,1.036-1.545,1.412a32.758,32.758,0,0,0,5.77-.062c1.805-.152,3.618-.476,3.618-.476a7.659,7.659,0,0,0-1.1.587c-4.429,1.165-12.986.623-10.523-.569a8.254,8.254,0,0,1,3.777-.893" transform="translate(-25.81 -176.846)" fill="#5382a1"/>
      <path id="Path_11890" data-name="Path 11890" d="M200.294,191.749c4.5-2.34,2.421-4.588.968-4.285a3.364,3.364,0,0,0-.515.138.82.82,0,0,1,.385-.3c2.875-1.011,5.086,2.981-.928,4.562a.39.39,0,0,0,.09-.118" transform="translate(-185.811 -173.793)" fill="#5382a1"/>
      <path id="Path_11891" data-name="Path 11891" d="M88.149.371s2.494,2.495-2.365,6.33c-3.9,3.077-.888,4.832,0,6.836C83.508,11.486,81.839,9.68,82.959,8c1.643-2.468,6.2-3.664,5.19-7.627" transform="translate(-76.38)" fill="#e76f00"/>
      <path id="Path_11892" data-name="Path 11892" d="M49.832,315.225c4.322.277,10.959-.154,11.116-2.2,0,0-.3.775-3.572,1.391a35.536,35.536,0,0,1-10.937.168s.552.457,3.393.639" transform="translate(-42.731 -290.929)" fill="#5382a1"/>
    </g>
  </g>
</svg>
