<svg xmlns="http://www.w3.org/2000/svg" xmlns:xlink="http://www.w3.org/1999/xlink" width="568.946" height="573.851" viewBox="0 0 568.946 573.851">
    <defs>
        <style>
            .cls-1{fill:#cde0fe}.cls-2{fill:#b6cdef}.cls-3{fill:#9abce5}.cls-4{fill:#2a2b7d}.cls-5{fill:#676bb7}.cls-6{fill:#f4e4e5}.cls-7{fill:url(#linear-gradient)}.cls-8{fill:#ef6a6a}.cls-9{fill:#fa7070}.cls-10{opacity:.107}.cls-11{fill:#fff}.cls-12{fill:#e25a5a}.cls-13{fill:#ffc9ae}.cls-14{opacity:.3}.cls-15{fill:#ef9d78}.cls-16{fill:url(#linear-gradient-2)}.cls-17{fill:#332b28}.cls-18{fill:#2e3152}.cls-19{fill:#efb4ba}.cls-20{fill:#e1e2ff}.cls-21{fill:none;stroke:#cde0fe;stroke-miterlimit:10;stroke-width:1.676px}
        </style>
        <linearGradient id="linear-gradient" x2="1" y1=".5" y2=".5" gradientUnits="objectBoundingBox">
            <stop offset="0" stop-color="#fdc"/>
            <stop offset="1" stop-color="#ffbc97"/>
        </linearGradient>
        <linearGradient id="linear-gradient-2" x1=".008" x2=".96" y1=".492" y2=".492" xlink:href="#linear-gradient"/>
    </defs>
    <g id="laptop" transform="translate(-30.784 -132.454)">
        <g id="Group_41" data-name="Group 41" transform="translate(30.784 170)">
            <path id="Path_60" d="M358.828 625.575c-16.091-3.111-31.633-6.137-49.509-4.343-35.943 3.6-71.876 7.354-107.813 11.033-19.952 2.042-58.977 5.908-78.318.444C39.343 609.036 75.7 517.624 69.025 450.568c-3.679-36.973-22.214-70.358-32.54-105.948C16.28 275.007 51.264 187.059 118 160.412c48.7-19.441 105.265-28.956 153.791-9.129 33.184 13.557 64.15 41.86 82.656 73.546 20.2 34.573 31.8 61.63 73.99 73.011 32.874 8.866 67.538 6.032 101.271 10.174 15.375 1.885 32.507 6.638 39.889 20.768 11.128 21.3-7.058 45.7-11.916 69.4-6.137 29.92 13.376 49.533 25.64 73.784 14.359 28.389 23.97 61.907 8.518 92.214-6.934 13.61-18.339 24.762-31.061 33.786-50.421 35.346-114.456 37.589-173.089 32.154a290.4 290.4 0 0 1-28.861-4.545z" class="cls-1" data-name="Path 60" transform="translate(-30.784 -140.322)"/>
            <path id="Path_61" d="M532.592 463.393c-7.215-26.809-17.752-53.919-17.256-75.77.568-24.8 18.778-52.554 3.627-75.956-10.031-15.485-30.03-19.928-47.2-21.545-23.9-2.257-49.228-1.045-71.818-10.312-10.35-4.247-20.119-11.119-26.537-20.4-7.32-10.6-8.823-23.722-14.158-35.227-13.552-29.224-43.7-40.939-74.281-39.159-27.911 1.623-56.08 11.128-82.947-.811-42.952-19.088-90.672-42.948-133.622-19.088-34.01 18.892-39.746 64.155-28.837 97.735 6.409 19.708 17.957 37.67 32.5 52.353 16.487 16.645 37.212 25.616 40.877 51.294 6.337 44.389-25.463 83.767-39.77 123.112-19.088 52.492 33.4 81.124 76.352 57.264 33.4-14.316 62.036-52.492 104.984-28.632 13.2 10.56 20.6 22.948 29.3 37.236a22.006 22.006 0 0 0 4.409 5.731c3.412 2.844 8.131 3.374 12.55 3.789 26.413 2.458 53.241 6.59 79.745 7.43 24.227.768 49-3.923 72.844-8.327 21.183-3.918 47.553.1 65.3-14.44 26.546-21.75 22.676-53.799 13.938-86.277z" class="cls-2" data-name="Path 61" transform="translate(-16.562 -84.512)"/>
            <path id="Path_62" d="M490.563 442.549c-6.533-24.28-16.077-48.832-15.624-68.621.515-22.457 17.007-47.591 3.283-68.783-9.081-14.025-27.2-18.043-42.747-19.508-21.646-2.042-44.58-.95-65.042-9.344-9.372-3.846-18.219-10.064-24.027-18.472-6.628-9.6-7.993-21.479-12.822-31.9-12.274-26.467-39.584-37.075-67.271-35.467-25.277 1.47-50.788 10.083-75.116-.73-38.9-17.289-82.107-38.892-121-17.289-30.794 17.112-35.99 58.1-26.108 88.511a121.387 121.387 0 0 0 29.429 47.41c14.927 15.075 33.7 23.2 37.021 46.45 5.736 40.2-23.063 75.86-36.024 111.493-17.284 47.539 30.254 73.465 69.146 51.857 30.254-12.965 56.181-47.534 95.077-25.926 11.949 9.558 18.654 20.782 26.527 33.719a20.1 20.1 0 0 0 3.994 5.192c3.092 2.572 7.363 3.054 11.367 3.431 23.917 2.224 48.211 5.965 72.214 6.724 21.942.7 44.37-3.546 65.968-7.54 19.183-3.546 43.062.1 59.134-13.07 24.035-19.704 20.537-48.723 12.621-78.137z" class="cls-3" data-name="Path 62" transform="translate(2.267 -53.365)"/>
            <g id="Group_38" data-name="Group 38" transform="translate(42.648 42.152)">
                <path id="Path_63" d="M241.674 174.489s-180.892 47.8-185.6 54.243-27.1 24.127-10.021 93.655 29.462 163.078 78.957 151.067 125.508-22.619 126.682-32.636 36.9-278.918-10.018-266.329z" class="cls-4" data-name="Path 63" transform="translate(-39.722 -55.214)"/>
                <path id="Path_64" d="M228.106 174.15S64.021 217.508 44.427 227.186c-7.082 18.114 21.9 17.9 26.422 26.933 14.139 28.284 8.919 56.142-12.293 77.354 14.521-.291 26.37 7.072 33.442 21.216 9.511 28.441.792 41.555-10.46 50.378 8.976 5.574 18.114 10.6 25.187 24.748 5.636 16.9 16.4 33.848 4.07 45.42.22-.048.425-.067.644-.119 49.495-12.011 163.913-36.425 158.926-45.191-19.592-34.445 14.503-242.575-42.259-253.775z" class="cls-5" data-name="Path 64" transform="translate(-26.153 -54.876)"/>
                <path id="Path_65" d="M347.388 220.08L63.7 331.754l38.462 17.275a304.873 304.873 0 0 0 279.805-15.542l71.36-42.108c24.733-14.593 16.964-52.229-11.524-55.837z" class="cls-6" data-name="Path 65" transform="translate(50.717 118.371)"/>
                <path id="Path_66" d="M81.116 197.556s40.361-28.284 51.261 31.82c4.648 25.616 5.6 32.111 5.6 32.111 34.177 5.306 38.849 17.628 82.2 22.686 33.146 0 50.235 17.675 50.235 17.675s5.3 13.261 3.092 19.446-9.721 7.511-9.721 7.511.143 5.159-1.77 7.22-4.572-16.645-10.613-20.625-1.766 6.781-3.679 7.955-9.577-6.628-15.323-16.2-26.661 6.542-115.339-9.134C89.219 270.4 81.116 197.556 81.116 197.556z" class="cls-7" data-name="Path 66" transform="translate(116.418 8.334)"/>
                <path id="Path_67" d="M142.3 260.255c-2.281-5.421-5.187-14.388-7.7-21.164-24-64.78-53.48-55.05-53.48-55.05s7.129 52.463 20.7 92.934c10.223-2.462 31.735-11.562 40.48-16.72z" class="cls-8" data-name="Path 67" transform="translate(116.418 -19.524)"/>
                <path id="Path_68" d="M243.736 420.762c-17.322 16.9-58.333 27.782-89.231 27.291-14.354-.143-21.622-2.152-38.806-4.634-37.265-66.584-38.758-131.053-38.758-131.053L68.1 314.7s-19.446-29.486-20.014-67.17c-.563-37.761 59.254-58.051 64.555-59.822 42.991-14.774 79.831-2.9 107.475 7.921 29.193 64.25 4.179 153.787 23.62 225.133z" class="cls-9" data-name="Path 68" transform="translate(-8.174 -29.828)"/>
                <path id="Path_69" d="M117.628 338.208c17.814 41.931 14.636 51.547 14.068 52.678-14.354-.143-26.513-2.83-33.017-8.485C66.825 342.651 54.132 255.2 54.132 255.2l3.536-1.131s12.231-1.7 22.624-15.06c10.393-13.295 18.386-11.524 18.386-11.524s-6.79-19.165-14.778-31.539c14.139 10.04 29.768 42.781 30.331 59.254.639 16.473 46.6 17.6 46.6 17.6s-62.296 20.652-43.203 65.408z" class="cls-10" data-name="Path 69" transform="translate(14.634 27.338)"/>
                <path id="Path_70" d="M73.968 179.43s-13.29 12.693-15.347 19.527c3.207 15.013 31.643 40.953 40.891 38.391 9-17.609 15.223-18.53 15.223-18.53l.993-23.683z" class="cls-11" data-name="Path 70" transform="translate(31.567 -34.96)"/>
                <path id="Path_71" d="M70.38 224.435s14.693 2.973 17.69 15.924c10.408-.229 25.626-24.1 20.434-45.6-7.788-12.316-26.26-16.821-26.26-16.821z" class="cls-11" data-name="Path 71" transform="translate(75.922 -40.576)"/>
                <path id="Path_72" d="M128.909 195.38c-3.04 7.354-11.31 16.9-23.192 29.553-2.758-10.89-28.847-17.322-39.946-26.442a14.662 14.662 0 0 1-3.961-4.524v-.067a5.447 5.447 0 0 1-.5-1.136c-1.269-3.884 1.694-6.643 6.433-8.551.215-.072.5-.215.778-.286 10.751-4.242 29.486-4.667 29.486-4.667s11.811-3.178 21.708-.138a10.382 10.382 0 0 1 1.412.425 18.344 18.344 0 0 1 4.949 2.615 10.342 10.342 0 0 1 3.541 4.457c.991 2.538.704 5.44-.708 8.761z" class="cls-12" data-name="Path 72" transform="translate(40.613 -41.103)"/>
                <g id="Group_33" data-name="Group 33" transform="translate(103.686 103.361)">
                    <g id="Group_32" data-name="Group 32">
                        <g id="Group_31" data-name="Group 31">
                            <path id="Path_73" d="M127.286 221.731c-3.04 7.354-11.31 16.9-23.192 29.553-2.758-10.89-28.847-17.322-39.946-26.442a18.385 18.385 0 0 0 1.976-5.235 38.771 38.771 0 0 0 .778-9.334c0-.706 0-1.413-.067-2.119-1.064-17.68-14.569-37.121 5.726-37.336 20.362-.21 45.534 9.692 45.534 10.4a227.213 227.213 0 0 0 0 24.251 51.013 51.013 0 0 0 1.412 9.477 6.82 6.82 0 0 0 1.909 3.6 25.756 25.756 0 0 0 5.87 3.185z" class="cls-13" data-name="Path 73" transform="translate(-61.45 -170.815)"/>
                        </g>
                    </g>
                </g>
                <g id="Group_36" class="cls-14" data-name="Group 36" transform="translate(105.453 103.361)">
                    <g id="Group_35" data-name="Group 35">
                        <g id="Group_34" data-name="Group 34">
                            <path id="Path_74" d="M117.17 235.045c4.147-5.1 7.148-9.511 8.718-13.314a25.756 25.756 0 0 1-5.87-3.183 6.82 6.82 0 0 1-1.909-3.6 51.013 51.013 0 0 1-1.412-9.477 227.211 227.211 0 0 1 0-24.251c0-.706-25.172-10.608-45.534-10.4-4.844.052-7.721 1.222-9.344 3.178 4.644 30.783 29.015 48.602 55.351 61.047z" class="cls-15" data-name="Path 74" transform="translate(-61.82 -170.815)"/>
                        </g>
                    </g>
                </g>
                <path id="Path_75" d="M159.911 206.64s9.783 28.436-14.574 52.253c-5.7 5.574-2.462 9.138-14.426 11.3-60.494 1.909-71.4-59.764-72.071-79.105S166.2 113.6 159.911 206.64z" class="cls-16" data-name="Path 75" transform="translate(32.383 -125.838)"/>
                <path id="Path_76" d="M81.345 261.715a52.007 52.007 0 0 0 12.006 7.869c3.441 1.622 7.282 2.877 11.014 2.119a65.269 65.269 0 0 1-9.878-27.682c-.3-2.563.014-5.865 2.458-6.671 1.723-.573 3.536.511 4.9 1.7a23.077 23.077 0 0 1 7.5 13.452 34.333 34.333 0 0 1 7.215-23.54c4.81-6.084 12.956-9.625 20.419-10.985 8.351-1.522 15.194 1.79 23.426 1.575 12.436-.325 24.275-1.852 31.853-13.123 5.889-8.766 6.862-20.381 3.474-30.383-6.013 3.689-14.025 1.818-19.961-2s-10.579-9.324-16.2-13.591c-10.064-7.64-22.906-10.99-35.542-11.281a111.292 111.292 0 0 0-24.561 2.481c-7.368 1.489-14.86 2.376-19.9 8.5-.5.611-4.1 7.525-3.846 7.53-11.6-.22-27.7 11.825-22.538 35.346 4.55 20.804 11.698 44.345 28.161 58.684z" class="cls-17" data-name="Path 76" transform="translate(7.311 -149.155)"/>
                <g id="Group_37" data-name="Group 37" transform="translate(96.255 99.942)">
                    <path id="Path_77" d="M80.782 220.062l-20.175-30.044a4.2 4.2 0 0 1-.043-4.619l8.636-13.376a4.2 4.2 0 0 1 7.168.181L98.143 210.1a4.2 4.2 0 0 1-1.56 5.741l-12.6 7.182z" class="cls-5" data-name="Path 77" transform="translate(-59.892 -170.099)"/>
                    <path id="Path_78" d="M79.5 216.218l-18.868-28.1a3.923 3.923 0 0 1-.038-4.319l7.43-11.186a3.927 3.927 0 0 1 6.7.177l20.367 35.446a3.92 3.92 0 0 1-1.46 5.364l-11.138 5.388z" class="cls-9" data-name="Path 78" transform="translate(-59.629 -167.395)"/>
                    <ellipse id="Ellipse_3" cx="3.083" cy="3.877" class="cls-11" data-name="Ellipse 3" rx="3.083" ry="3.877" transform="translate(7.779 14.772)"/>
                </g>
                <path id="Path_79" d="M54.877 330.381c26.518-6.905 21.216-25.759 41.006-26.642l1.5 2.787s1.393-21.35 16.268-68.927c0 0-15.466-26.957-16.349-33.59s4.863-28.723 11.491-28.279a8 8 0 0 1 7.568 6.5s4.362.573 5.244 7.2c0 0 6.633-1.77 6.633 8.838 2.648.439 7.95 4.858 5.3 15.022s8.074 22.982.721 28.284c-1.608 18.119 9 90.152-21.345 121.972-21.651 8.838-47.133-18.859-58.037-33.165z" class="cls-7" data-name="Path 79" transform="translate(17.445 -48.94)"/>
                <path id="Path_80" d="M304.319 244.841a7.82 7.82 0 0 1-3.889 5.66l-115.11 67.241a7.863 7.863 0 0 1-6.289.778l-81.6-23.9a7.961 7.961 0 0 1-.845-14.989l105.633-44.9 25.458-10.813a8.442 8.442 0 0 1 4.6-.5l65.615 12.3a7.916 7.916 0 0 1 6.427 9.123z" class="cls-18" data-name="Path 80" transform="translate(156.318 130.498)"/>
                <path id="Path_81" d="M303.389 244.841a7.82 7.82 0 0 1-3.889 5.66l-115.11 67.241c-1.909 1.131-1.121-1.99-3.24-2.625l-81.6-23.9c-7.215-2.052-10.828-8.69-3.9-11.586l105.633-44.9 25.458-10.813a8.442 8.442 0 0 1 4.6-.5l65.615 12.3a7.916 7.916 0 0 1 6.433 9.123z" class="cls-19" data-name="Path 81" transform="translate(157.248 130.498)"/>
                <path id="Path_82" d="M253.351 206.979a4.594 4.594 0 0 1 6.59 5.206l-24.657 96.241a7.82 7.82 0 0 1-3.889 5.66l-115.11 67.242a7.863 7.863 0 0 1-6.289.778l23.187-83.791 7.878-28.393a10.776 10.776 0 0 1 5.359-6.647z" class="cls-9" data-name="Path 82" transform="translate(225.353 66.912)"/>
            </g>
            <g id="Group_40" data-name="Group 40" transform="translate(167.375 349.733)">
                <g id="Group_39" data-name="Group 39" transform="translate(40.949 110.504)">
                    <path id="Path_83" d="M75.517 242.187l12.355 36.386s31.218 17.494 52.392-1.589c12.231-31.614 12.45-37.78 12.45-37.78z" class="cls-4" data-name="Path 83" transform="translate(-70.378 -227.574)"/>
                    <path id="Path_84" d="M74.648 239.639s3.856 12.422 7.358 18.3 58.457 7.554 71.976-2.586c6.361-15.113 6-17.26 6-17.26z" class="cls-5" data-name="Path 84" transform="translate(-73.655 -231.787)"/>
                    <path id="Path_85" d="M74.44 242.037l.993 2.582s5.569 6.762 29.429 6.165 52.754-.115 55.9-7.716-70.217-8.785-86.322-1.031z" class="cls-5" data-name="Path 85" transform="translate(-74.44 -236.768)"/>
                    <path id="Path_86" d="M76.048 240.388l.821 1.56s4.576 4.085 24.2 3.722 43.382-.067 45.969-4.657-57.738-5.313-70.99-.625z" class="cls-20" data-name="Path 86" transform="translate(-68.375 -235.123)"/>
                </g>
                <path id="Path_87" d="M147.751 286.088a100.8 100.8 0 0 0-38.9-50.783c-9.4-6.309-20.577-11.124-31.786-9.563-3.383.472-6.867 1.641-9.052 4.261-3.183 3.827-2.6 9.783.143 13.944s7.158 6.876 11.567 9.191c20.438 10.737 47.119 12.469 58.3 32.64.888 1.6 8.68-3.727 9.429-2.061" class="cls-4" data-name="Path 87" transform="translate(-65.859 -168.973)"/>
                <path id="Path_88" d="M128.826 301.515a33.28 33.28 0 0 0-13.848 10.556c-3.235 4.409-7.931 5.855-13.223 7.144a1.372 1.372 0 0 1-2-1.093c-1.3-3.851-1.842-7.941-3.307-11.734A64.841 64.841 0 0 0 87.5 290.73a36.178 36.178 0 0 1-7.01-23.464c2.553 8.485 10.441 10.369 17.79 12.88 2.066.706 2.968 1.355 3.422-.883.6-2.9-1.718-7.368-2.524-10.179-.816-2.863-1.642-5.726-2.238-8.647a58.354 58.354 0 0 1-1.078-8.332 25.871 25.871 0 0 1 .663-8.446 22.057 22.057 0 0 1 2.92-6.127 32.772 32.772 0 0 1 11.625-10.684c-.749 2.591.472 5.335 1.957 7.587 1.67 2.539 3 6.289 5.182 8.322a3.4 3.4 0 0 0 3.269.935 4.178 4.178 0 0 0 1.89-1.579c1.823-2.453 2.7-5.4 3.908-8.17 1.3-2.982 3.078-4.739 5.168-7.082 4.7-5.283 10.57-9.191 17.857-9.506a4.488 4.488 0 0 1 4.758 2.582 22.236 22.236 0 0 1 2.353 18.3c-.773 2.653-2.1 6.1-4.051 8.136-2.477 2.591-5.411 3.965-7.358 7.23-2.553 4.257 7.463 2.023 8.866 1.594a23.443 23.443 0 0 0 6.881-2.963 8.618 8.618 0 0 0 3.889-6.156 20.418 20.418 0 0 1 6.194 14.273c-.167 14.006-14.588 14.33-24.571 17.943 2.353 2.31 4.271 4.185 7.845 4.385a10.59 10.59 0 0 0 6.962-2.138c-.086.067-.033 4.376-.186 4.958a11.77 11.77 0 0 1-2.486 4.7c-2.8 3.207-6.318 4.6-10.379 5.559-6.818 1.615-13.759 2.975-20.192 5.757z" class="cls-4" data-name="Path 88" transform="translate(-10.91 -199.537)"/>
                <path id="Path_89" d="M108 332.387c-7-3.846-10.527-12.073-11.4-20.009s.4-15.934.5-23.917c.1-8.117-1.069-16.377-4.533-23.726-2.386-5.063-5.8-9.563-8.881-14.24s-5.9-9.682-6.872-15.194.177-11.663 4.133-15.623c2.92-2.925 7.01-4.366 11.057-5.216a30.679 30.679 0 0 1 12.569-.348 7.411 7.411 0 0 1 3.278 1.365 7.2 7.2 0 0 1 1.947 2.968c3.264 8.155.348 17.284-1.546 25.855-.974 4.414-1.627 9.224.348 13.285 1.995 4.1 6.218 6.538 10.069 8.986s7.831 5.545 8.771 10.007c.682 3.264-.439 6.671-2.162 9.525s-4.023 5.311-6.013 7.988a44.246 44.246 0 0 0-6.5 39.312" class="cls-5" data-name="Path 89" transform="translate(-25.757 -213.611)"/>
            </g>
        </g>
        <g id="Group_42" data-name="Group 42" transform="translate(376.894 183.557)">
            <path id="Path_90" d="M260.589 191.971c0 26.952-35.208 48.8-78.638 48.8a120.57 120.57 0 0 1-31.758-4.142c-2.877-.792-24.232 4.142-24.232 4.142s9.081-9.549 5.97-11.143c-17.475-8.952-28.618-22.5-28.618-37.661 0-26.957 35.208-48.808 78.637-48.808s78.639 21.855 78.639 48.812z" class="cls-1" data-name="Path 90" transform="translate(-103.314 -143.163)"/>
            <path id="Path_91" d="M125.607 158.851a6.678 6.678 0 1 1-6.681-6.676 6.682 6.682 0 0 1 6.681 6.676z" class="cls-11" data-name="Path 91" transform="translate(-69.608 -109.17)"/>
            <path id="Path_92" d="M131.93 158.851a6.676 6.676 0 1 1-6.676-6.676 6.678 6.678 0 0 1 6.676 6.676z" class="cls-11" data-name="Path 92" transform="translate(-45.738 -109.17)"/>
            <circle id="Ellipse_4" cx="6.678" cy="6.678" r="6.678" class="cls-11" data-name="Ellipse 4" transform="translate(103.031 43.004)"/>
        </g>
        <g id="Group_43" data-name="Group 43" transform="translate(261.804 132.454)">
            <path id="Path_93" d="M105.847 146.111A13.328 13.328 0 1 0 92.19 159.1a13.32 13.32 0 0 0 13.657-12.989z" class="cls-1" data-name="Path 93" transform="translate(-79.196 -132.454)"/>
            <path id="Path_94" d="M107.785 152a8.829 8.829 0 1 0-9.048 8.6 8.822 8.822 0 0 0 9.048-8.6z" class="cls-1" data-name="Path 94" transform="translate(-37.952 -92.874)"/>
            <path id="Path_95" d="M115.249 145.766a5.912 5.912 0 1 0-6.06 5.76 5.916 5.916 0 0 0 6.06-5.76z" class="cls-1" data-name="Path 95" transform="translate(12.201 -105.109)"/>
            <path id="Path_96" d="M81.989 135.246l47.678 45.579 60.533-18.4" class="cls-21" data-name="Path 96" transform="translate(-68.66 -121.923)"/>
        </g>
        <g id="Group_44" data-name="Group 44" transform="translate(348.727 332.925)">
            <path id="Path_97" d="M143.273 208.631a6.715 6.715 0 0 0 .582 1.055 3.759 3.759 0 0 0 2.176 1.818 2.938 2.938 0 0 0 2.348-.429 7.108 7.108 0 0 0 3.006-5.33 21.728 21.728 0 0 0-.673-8.461 30.112 30.112 0 0 0-3.779-8.747 17.282 17.282 0 0 0-7.058-6.485 16.5 16.5 0 0 0-9.286-1.47 24.209 24.209 0 0 0-10.174 3.846 38.957 38.957 0 0 0-12.627 12.56 29.435 29.435 0 0 0-4.443 15.934 31.657 31.657 0 0 0 5.359 16.807 24.759 24.759 0 0 0 7.673 7.74 18.722 18.722 0 0 0 10.441 2.868q5.827-.064 12.154-4.085a33.271 33.271 0 0 0 7.263-5.908 37.735 37.735 0 0 0 4.6-6.881 3.086 3.086 0 0 1 .964-1.14 2.442 2.442 0 0 1 2.9.372 1.944 1.944 0 0 1 .678.639q.88 1.389-.716 4.185a56.853 56.853 0 0 1-5.24 7.554 31.513 31.513 0 0 1-7.306 6.108q-8.11 5.154-15.509 5.24a23.547 23.547 0 0 1-13.238-3.622 31.548 31.548 0 0 1-9.725-9.854 37.1 37.1 0 0 1-6.227-19.718 35.4 35.4 0 0 1 5.125-18.9 44.611 44.611 0 0 1 14.741-14.836 29.765 29.765 0 0 1 13.648-4.949 21.761 21.761 0 0 1 12.107 2.343A23.651 23.651 0 0 1 152 185.32a31.165 31.165 0 0 1 4.447 11.606 24.435 24.435 0 0 1-.778 11.911 16.191 16.191 0 0 1-6.91 8.842 9.318 9.318 0 0 1-5.578 1.5 7.21 7.21 0 0 1-4.934-2.1q.329 7.079-6.065 11.143a10.71 10.71 0 0 1-5.392 1.651 11.049 11.049 0 0 1-5.846-1.441 13.257 13.257 0 0 1-4.829-4.657 22.689 22.689 0 0 1-3.212-9.6 24.4 24.4 0 0 1 1-10.723 13.752 13.752 0 0 1 5.664-7.645 8.067 8.067 0 0 1 4.634-1.3 8.539 8.539 0 0 1 4.7 1.589l-.835-1.871a3.693 3.693 0 0 1-.081-2.439 4.229 4.229 0 0 1 1.952-2.31q3.422-2.169 5.149.554a7.791 7.791 0 0 1 .577 1.05zM131.6 203c-1.1-1.727-2.357-2.677-3.765-2.849a6.512 6.512 0 0 0-4.335 1.149 7.06 7.06 0 0 0-3.087 4.719 15.563 15.563 0 0 0 .148 6.8 20.062 20.062 0 0 0 2.553 6.323 6.153 6.153 0 0 0 3.455 2.916 4.862 4.862 0 0 0 3.951-.778 7.239 7.239 0 0 0 2.911-3.588 12.954 12.954 0 0 0 .892-4.743 15.34 15.34 0 0 0-.52-4.247A19.669 19.669 0 0 0 131.6 203z" class="cls-11" data-name="Path 97" transform="translate(-97.411 -174.464)"/>
        </g>
        <path id="Path_98" d="M57.4 158.356a14.7 14.7 0 0 0-18.091 10.222c-2.6 9.358 7.063 29.477 7.063 29.477s18.654-12.25 21.254-21.608A14.662 14.662 0 0 0 57.4 158.356zm-6.1 21.975a8.083 8.083 0 1 1 9.988-5.645 8.119 8.119 0 0 1-9.988 5.645z" class="cls-11" data-name="Path 98" transform="translate(30.479 95.668)"/>
        <path id="Path_99" d="M174.922 177.542l-10.737 1.112-1.117-10.742a5.769 5.769 0 1 0-11.477 1.193l1.112 10.737-10.737 1.117a5.769 5.769 0 1 0 1.188 11.477l10.737-1.112L155 202.06a5.771 5.771 0 1 0 11.481-1.183l-1.112-10.742 10.742-1.112a5.772 5.772 0 1 0-1.193-11.481z" class="cls-1" data-name="Path 99" transform="translate(399.838 114.224)"/>
        <path id="Path_100" d="M64 183.755l-5.335.554-.554-5.34a2.869 2.869 0 0 0-5.707.592l.554 5.335-5.335.554a2.869 2.869 0 1 0 .592 5.707l5.335-.554.554 5.335a2.869 2.869 0 0 0 5.707-.592l-.558-5.335 5.335-.554a2.866 2.866 0 1 0-.587-5.7z" class="cls-11" data-name="Path 100" transform="translate(53.816 165.747)"/>
        <g id="Group_45" data-name="Group 45" transform="translate(43.342 133.16)">
            <path id="Path_101" d="M65.856 148.159q0-7.487 3.665-11.52t10.131-4.039a14.511 14.511 0 0 1 6.309 1.541 16.425 16.425 0 0 1 5.435 4.113 8.31 8.31 0 0 1 2.2 5.5 5.479 5.479 0 0 1-.954 3.522 6.715 6.715 0 0 1-2.72 1.909 7.53 7.53 0 0 0-4.1-1.031 6.221 6.221 0 0 0-4.037 1.25 3.613 3.613 0 0 0-1.537 2.863q0 3.665 4.1 5.87a15.6 15.6 0 0 0 1.98.735 7.774 7.774 0 0 1 2.572 1.398 4.051 4.051 0 0 1 1.174 3.3 5.192 5.192 0 0 1-1.909 4.481 8.557 8.557 0 0 1-5.139 1.389q-4.252 0-8.222-3.813a31.45 31.45 0 0 1-6.456-8.957q-2.492-5.13-2.492-8.511zm-32.44 0q0-7.487 3.67-11.52t10.126-4.039a14.546 14.546 0 0 1 6.313 1.541 16.358 16.358 0 0 1 5.431 4.113 8.31 8.31 0 0 1 2.2 5.5 5.479 5.479 0 0 1-.954 3.522 6.7 6.7 0 0 1-2.715 1.909 7.536 7.536 0 0 0-4.109-1.031 6.23 6.23 0 0 0-4.037 1.25 3.632 3.632 0 0 0-1.541 2.863q0 3.665 4.113 5.87a15.035 15.035 0 0 0 1.98.735 7.705 7.705 0 0 1 2.567 1.393 4.051 4.051 0 0 1 1.174 3.3 5.179 5.179 0 0 1-1.909 4.481 8.551 8.551 0 0 1-5.135 1.389q-4.259 0-8.222-3.813a31.268 31.268 0 0 1-6.456-8.957q-2.491-5.125-2.496-8.506z" class="cls-1" data-name="Path 101" transform="translate(-33.416 -132.602)"/>
        </g>
    </g>
</svg>
