<svg id="laravel" xmlns="http://www.w3.org/2000/svg" width="24" height="24" viewBox="0 0 24 24">
  <path id="Path_11897" data-name="Path 11897" d="M135.045,144.062c.188.271.3.25.448.188s7.646-2.594,7.875-2.677.156-.156.083-.271-2.573-3.51-2.7-3.708-.187-.156-.385-.094l-7.95,2.069s2.44,4.223,2.628,4.494Z" transform="translate(-120.003 -124.562)" fill="#bcbcbc"/>
  <path id="Path_11898" data-name="Path 11898" d="M232.1,132.692v-3.975l-2.472.658c.674.9,1.727,2.312,2.472,3.316Z" transform="translate(-208.099 -116.65)" fill="#bcbcbc"/>
  <path id="Path_11899" data-name="Path 11899" d="M199.454,83.32c-.123.028-2.836.518-3,.54s-.111.117-.045.212l2.388,3.276s2.919-.724,3.1-.763l.042-.01v-.434c-.531-.673-1.976-2.5-2.1-2.676-.15-.206-.256-.173-.379-.145Z" transform="translate(-177.934 -75.49)" fill="#bcbcbc"/>
  <path id="Path_11900" data-name="Path 11900" d="M6.777,2.684c.588-.027.641.107.9.49l6.485,10.841,8.154-1.953c-.452-.64-2.5-3.548-2.7-3.826-.223-.312.006-.457.368-.518s3.482-.585,3.749-.624.479-.134.914.39c.222.268.976,1.207,1.683,2.086V4.5a4.335,4.335,0,0,0-1.32-3.18A4.334,4.334,0,0,0,21.828,0h-15a4.334,4.334,0,0,0-3.18,1.32A4.42,4.42,0,0,0,2.569,3.013c1.47-.121,3.8-.309,4.208-.328Z" transform="translate(-2.328 0)" fill="#bcbcbc"/>
  <path id="Path_11901" data-name="Path 11901" d="M15.777,87.705c-.688.208-1,.312-1.444-.313-.335-.468-2.149-3.735-3.039-5.346-1.683.441-4.764,1.245-5.652,1.458a1.094,1.094,0,0,1-1.38-.632c-.1-.225-2.642-5.705-4.263-9.221v12.6a4.334,4.334,0,0,0,1.32,3.18,4.335,4.335,0,0,0,3.18,1.32h15a4.508,4.508,0,0,0,4.5-4.5V84.766c-1.841.674-7.76,2.8-8.223,2.939Z" transform="translate(0 -66.746)" fill="#bcbcbc"/>
  <path id="Path_11902" data-name="Path 11902" d="M5.7,48.754c.244-.056,4.811-1.149,4.908-1.17s.16-.077.056-.258L4.58,36.819c-.055-.095-.039-.126-.19-.118-.134.007-3.519.309-4.3.375a4.785,4.785,0,0,0-.043.5C.84,39.2,5.406,48.622,5.432,48.7s.028.111.271.056Z" transform="translate(-0.04 -33.258)" fill="#bcbcbc"/>
</svg>
