<svg class="lds-spinner" width="200px"  height="200px"  xmlns="http://www.w3.org/2000/svg" xmlns:xlink="http://www.w3.org/1999/xlink" viewBox="0 0 100 100" preserveAspectRatio="xMidYMid" style="background: none;"><g transform="rotate(0 50 50)">
  <rect x="47" y="24" rx="9.4" ry="4.8" width="6" height="12" fill="#26ded7">
    <animate attributeName="opacity" values="1;0" keyTimes="0;1" dur="2.8s" begin="-2.5666666666666664s" repeatCount="indefinite"></animate>
  </rect>
</g><g transform="rotate(30 50 50)">
  <rect x="47" y="24" rx="9.4" ry="4.8" width="6" height="12" fill="#26ded7">
    <animate attributeName="opacity" values="1;0" keyTimes="0;1" dur="2.8s" begin="-2.3333333333333335s" repeatCount="indefinite"></animate>
  </rect>
</g><g transform="rotate(60 50 50)">
  <rect x="47" y="24" rx="9.4" ry="4.8" width="6" height="12" fill="#26ded7">
    <animate attributeName="opacity" values="1;0" keyTimes="0;1" dur="2.8s" begin="-2.1s" repeatCount="indefinite"></animate>
  </rect>
</g><g transform="rotate(90 50 50)">
  <rect x="47" y="24" rx="9.4" ry="4.8" width="6" height="12" fill="#26ded7">
    <animate attributeName="opacity" values="1;0" keyTimes="0;1" dur="2.8s" begin="-1.8666666666666665s" repeatCount="indefinite"></animate>
  </rect>
</g><g transform="rotate(120 50 50)">
  <rect x="47" y="24" rx="9.4" ry="4.8" width="6" height="12" fill="#26ded7">
    <animate attributeName="opacity" values="1;0" keyTimes="0;1" dur="2.8s" begin="-1.633333333333333s" repeatCount="indefinite"></animate>
  </rect>
</g><g transform="rotate(150 50 50)">
  <rect x="47" y="24" rx="9.4" ry="4.8" width="6" height="12" fill="#26ded7">
    <animate attributeName="opacity" values="1;0" keyTimes="0;1" dur="2.8s" begin="-1.3999999999999997s" repeatCount="indefinite"></animate>
  </rect>
</g><g transform="rotate(180 50 50)">
  <rect x="47" y="24" rx="9.4" ry="4.8" width="6" height="12" fill="#26ded7">
    <animate attributeName="opacity" values="1;0" keyTimes="0;1" dur="2.8s" begin="-1.1666666666666667s" repeatCount="indefinite"></animate>
  </rect>
</g><g transform="rotate(210 50 50)">
  <rect x="47" y="24" rx="9.4" ry="4.8" width="6" height="12" fill="#26ded7">
    <animate attributeName="opacity" values="1;0" keyTimes="0;1" dur="2.8s" begin="-0.9333333333333332s" repeatCount="indefinite"></animate>
  </rect>
</g><g transform="rotate(240 50 50)">
  <rect x="47" y="24" rx="9.4" ry="4.8" width="6" height="12" fill="#26ded7">
    <animate attributeName="opacity" values="1;0" keyTimes="0;1" dur="2.8s" begin="-0.6999999999999998s" repeatCount="indefinite"></animate>
  </rect>
</g><g transform="rotate(270 50 50)">
  <rect x="47" y="24" rx="9.4" ry="4.8" width="6" height="12" fill="#26ded7">
    <animate attributeName="opacity" values="1;0" keyTimes="0;1" dur="2.8s" begin="-0.4666666666666666s" repeatCount="indefinite"></animate>
  </rect>
</g><g transform="rotate(300 50 50)">
  <rect x="47" y="24" rx="9.4" ry="4.8" width="6" height="12" fill="#26ded7">
    <animate attributeName="opacity" values="1;0" keyTimes="0;1" dur="2.8s" begin="-0.2333333333333333s" repeatCount="indefinite"></animate>
  </rect>
</g><g transform="rotate(330 50 50)">
  <rect x="47" y="24" rx="9.4" ry="4.8" width="6" height="12" fill="#26ded7">
    <animate attributeName="opacity" values="1;0" keyTimes="0;1" dur="2.8s" begin="0s" repeatCount="indefinite"></animate>
  </rect>
</g></svg>