<svg xmlns="http://www.w3.org/2000/svg" xmlns:xlink="http://www.w3.org/1999/xlink" width="801.972" height="885.381" viewBox="0 0 801.972 885.381">
  <defs>
    <clipPath id="clip-path">
      <circle id="Ellipse_38" data-name="Ellipse 38" cx="60.821" cy="60.821" r="60.821" fill="none"/>
    </clipPath>
  </defs>
  <g id="login" transform="translate(-54.971 -26.156)">
    <g id="Group_3087" data-name="Group 3087" transform="translate(295.902 26.156)">
      <path id="Path_2737" data-name="Path 2737" d="M477.79,86.858,462.126,92.3l-6.793-19.568a69.258,69.258,0,1,0-130.855,45.425l6.793,19.568-15.716,5.456a23.671,23.671,0,0,0-14.538,30l44.2,127.335a23.738,23.738,0,0,0,30.074,14.75l162.234-56.321a23.794,23.794,0,0,0,14.677-30.283L508,101.322A23.729,23.729,0,0,0,477.79,86.858ZM354.041,107.891A37.949,37.949,0,1,1,425.742,83l6.793,19.568-71.7,24.892Zm94.024,116.062,11.288,32.518a2.591,2.591,0,0,1-1.731,3.268l-15.568,5.4a2.551,2.551,0,0,1-3.2-1.557l-11.29-32.518a30.255,30.255,0,1,1,20.5-7.115Z" transform="translate(7.513 -26.156)" fill="#b1e2f7"/>
      <path id="Path_2738" data-name="Path 2738" d="M352.717,378.028c-3.854-7.512,5.171-15.557,13.483-17.042s17.725-.347,24.343-5.59c8.838-7,8.385-22.26,18.177-27.848,7.859-4.484,18.265-.206,26.59-3.749,10.343-4.405,13.252-18.815,23.4-23.653,8.09-3.857,18.668.5,22.8,8.455s2.231,18.236-3.494,25.129c-4.477,5.393-11.107,9.171-13.888,15.6-4.356,10.074,2.52,22.28-1.489,32.5-7.4,18.867-42.375,13.187-48.451,32.525-1.351,4.3-.782,8.945-1.136,13.445-1.048,13.382-10.482,25.071-22.132,31.736s-25.281,8.979-38.673,9.915c-5.472.383-11.239.495-16.115-2.013-4.589-2.363-7.783-6.755-10.276-11.277-16.081-29.174-22.71-67.193,26.865-78.133" transform="translate(25.279 311.737)" fill="#78ba9a"/>
      <path id="Path_2739" data-name="Path 2739" d="M282.612,413.206c8.647-5.716,3.839-19.754-4.157-26.348s-18.751-11.046-22.675-20.641c-5.236-12.809,4.439-28.863-2.67-40.735-5.7-9.53-19.411-11.219-26.182-20.023-8.412-10.941-2.844-28.108-10.786-39.394-6.329-9-20.269-10.706-29.476-4.683s-13.366,18.159-11.4,28.984c1.543,8.464,6.356,16.5,5.458,25.053-1.407,13.4-16.112,22.316-17.978,35.658-3.445,24.639,37.385,39.627,32.238,63.967-1.147,5.42-4.549,10.041-6.883,15.066-6.938,14.943-3.886,33.129,4.562,47.275s21.635,24.829,35.394,33.893c5.622,3.7,11.722,7.3,18.45,7.552,6.332.237,12.394-2.538,17.781-5.872,34.771-21.521,64.758-58.2,18.318-99.753" transform="translate(-162.545 261.054)" fill="#ffa938"/>
      <g id="Group_3065" data-name="Group 3065" transform="translate(343.766 460.881)">
        <g id="Group_3064" data-name="Group 3064" transform="translate(0 32.854)">
          <path id="Path_2740" data-name="Path 2740" d="M319.2,458.026c12.1-5.216,22.984-14.862,32.014-24.182,24.352-25.136,39.45-57.963,47.389-91.755,7.185-30.578,8.788-62.2,7.286-93.491-.128-2.65-4.264-2.665-4.134,0,3.373,70.308-10.587,156.587-73.511,199.383a68.4,68.4,0,0,1-11.131,6.473c-2.437,1.053-.331,4.616,2.087,3.572Z" transform="translate(-316.034 -246.605)" fill="#e1806d"/>
        </g>
        <path id="Path_2741" data-name="Path 2741" d="M353.156,298.559s3.984-22.777,34.162-26.383C387.318,272.176,376.31,299.131,353.156,298.559Z" transform="translate(-270.013 -182.051)" fill="#e1806d"/>
        <path id="Path_2742" data-name="Path 2742" d="M348.739,308.992s9.194-21.216,39.378-17.678C388.117,291.314,371.12,314.954,348.739,308.992Z" transform="translate(-275.489 -158.819)" fill="#e1806d"/>
        <path id="Path_2743" data-name="Path 2743" d="M343.015,318.581s13.714-18.616,42.337-8.405C385.352,310.176,363.49,329.408,343.015,318.581Z" transform="translate(-282.585 -138.737)" fill="#e1806d"/>
        <path id="Path_2744" data-name="Path 2744" d="M355.225,282.521s3.917-22.392,33.582-25.936C388.807,256.585,377.987,283.083,355.225,282.521Z" transform="translate(-267.449 -201.379)" fill="#e1806d"/>
        <path id="Path_2745" data-name="Path 2745" d="M360.332,274.165s-16.892-15.212-4.139-42.229C356.194,231.936,372.9,255.179,360.332,274.165Z" transform="translate(-272.153 -231.936)" fill="#e1806d"/>
        <path id="Path_2746" data-name="Path 2746" d="M369.633,279.816S347.281,275.691,344.011,246C344.011,246,370.408,257.061,369.633,279.816Z" transform="translate(-281.35 -214.507)" fill="#e1806d"/>
        <path id="Path_2747" data-name="Path 2747" d="M368.639,295.047s-22.354-4.126-25.624-33.821C343.015,261.226,369.412,272.292,368.639,295.047Z" transform="translate(-282.585 -195.626)" fill="#e1806d"/>
        <path id="Path_2748" data-name="Path 2748" d="M364.7,310.261s-22.009-5.682-23.187-35.535C341.511,274.726,367.066,287.615,364.7,310.261Z" transform="translate(-284.45 -178.89)" fill="#e1806d"/>
        <path id="Path_2749" data-name="Path 2749" d="M360.172,324.512s-22.009-5.682-23.19-35.535C336.982,288.977,362.539,301.866,360.172,324.512Z" transform="translate(-290.064 -161.223)" fill="#e1806d"/>
      </g>
      <g id="Group_3086" data-name="Group 3086" transform="translate(76.618 155.444)">
        <rect id="Rectangle_519" data-name="Rectangle 519" width="321.215" height="629.847" rx="21.148" transform="translate(0)" fill="#0063b0"/>
        <rect id="Rectangle_520" data-name="Rectangle 520" width="291.558" height="589.065" rx="14.811" transform="translate(15.137 18.52)" fill="#fff"/>
        <path id="Path_2750" data-name="Path 2750" d="M417.976,106.821H399.015a10.535,10.535,0,0,0-10.533,10.535v7.528a10.535,10.535,0,0,1-10.535,10.533H293.391a10.534,10.534,0,0,1-10.533-10.533v-7.528a10.535,10.535,0,0,0-10.533-10.535H218.483v-5.4H417.976Z" transform="translate(-169.817 -88.301)" fill="#0063b0"/>
        <g id="Group_2708" data-name="Group 2708" transform="translate(100.558 110.263)">
          <circle id="Ellipse_37" data-name="Ellipse 37" cx="60.821" cy="60.821" r="60.821" fill="#c8eefb"/>
          <g id="Group_2707" data-name="Group 2707">
            <g id="Group_2706" data-name="Group 2706" clip-path="url(#clip-path)">
              <path id="Path_1406" data-name="Path 1406" d="M294.5,192.514a23.5,23.5,0,1,1-23.5-23.5A23.505,23.505,0,0,1,294.5,192.514Zm11.966,98.418V249.863A28.26,28.26,0,0,0,278.209,221.6H263.794a28.26,28.26,0,0,0-28.261,28.261v41.069a7.833,7.833,0,0,0,7.833,7.833h55.271A7.833,7.833,0,0,0,306.47,290.932Z" transform="translate(-210.18 -145.575)" fill="#0063b0"/>
            </g>
          </g>
        </g>
        <path id="Path_1407" data-name="Path 1407" d="M400.19,256.856H197.911c-9.238,0-16.726-8.846-16.726-19.759h0c0-10.913,7.488-19.759,16.726-19.759H400.19c9.238,0,16.726,8.846,16.726,19.759h0C416.916,248.01,409.427,256.856,400.19,256.856Z" transform="translate(-138.264 39.929)" fill="#c8eefb"/>
        <path id="Path_1408" data-name="Path 1408" d="M368.456,237.114H196.474c-2.2,0-3.99-2.813-3.99-6.285h0c0-3.47,1.786-6.285,3.99-6.285H368.456c2.2,0,3.991,2.816,3.991,6.285h0C372.447,234.3,370.661,237.114,368.456,237.114Z" transform="translate(-121.357 46.198)" fill="#0063b0"/>
        <path id="Path_1409" data-name="Path 1409" d="M400.286,288.4H198.005c-9.238,0-16.726-8.054-16.726-17.99h0c0-9.936,7.488-17.99,16.726-17.99H400.286c9.236,0,16.726,8.054,16.726,17.99h0C417.012,280.342,409.522,288.4,400.286,288.4Z" transform="translate(-138.357 93.185)" fill="#c8eefb"/>
        <path id="Path_2792" data-name="Path 2792" d="M400.286,300.548H198.005c-9.238,0-16.726-10.775-16.726-24.066h0c0-13.292,7.488-24.066,16.726-24.066H400.286c9.236,0,16.726,10.774,16.726,24.066h0C417.012,289.773,409.522,300.548,400.286,300.548Z" transform="translate(-138.357 174.179)" fill="#009bdb"/>
        <path id="Path_1410" data-name="Path 1410" d="M197.787,272.364h0a6.288,6.288,0,0,1-6.285-6.286h0a6.286,6.286,0,0,1,6.285-6.285h0a6.284,6.284,0,0,1,6.285,6.285h0A6.286,6.286,0,0,1,197.787,272.364Zm24.974-6.286h0a6.286,6.286,0,0,0-6.285-6.285h0a6.284,6.284,0,0,0-6.285,6.285h0a6.286,6.286,0,0,0,6.285,6.286h0A6.288,6.288,0,0,0,222.762,266.078Zm18.686,0h0a6.284,6.284,0,0,0-6.283-6.285h0a6.284,6.284,0,0,0-6.285,6.285h0a6.286,6.286,0,0,0,6.285,6.286h0A6.285,6.285,0,0,0,241.448,266.078Zm18.689,0h0a6.284,6.284,0,0,0-6.285-6.285h0a6.284,6.284,0,0,0-6.283,6.285h0a6.285,6.285,0,0,0,6.283,6.286h0A6.286,6.286,0,0,0,260.136,266.078Zm18.689,0h0a6.284,6.284,0,0,0-6.285-6.285h0a6.284,6.284,0,0,0-6.285,6.285h0a6.286,6.286,0,0,0,6.285,6.286h0A6.286,6.286,0,0,0,278.825,266.078Zm18.686,0h0a6.284,6.284,0,0,0-6.283-6.285h0a6.284,6.284,0,0,0-6.285,6.285h0a6.286,6.286,0,0,0,6.285,6.286h0A6.285,6.285,0,0,0,297.511,266.078Zm18.689,0h0a6.284,6.284,0,0,0-6.285-6.285h0a6.284,6.284,0,0,0-6.283,6.285h0a6.285,6.285,0,0,0,6.283,6.286h0A6.286,6.286,0,0,0,316.2,266.078Z" transform="translate(-93.396 97.937)" fill="#0063b0"/>
      </g>
    </g>
    <g id="Group_3094" data-name="Group 3094" transform="translate(359.093 382.835)">
      <path id="Path_2752" data-name="Path 2752" d="M476.262,421.977c0-2.607-63.912-4.721-142.751-4.721s-142.753,2.114-142.753,4.721,63.912,4.721,142.753,4.721S476.262,424.584,476.262,421.977Z" transform="translate(-190.759 102.003)" fill="#6d6d6d" opacity="0.25"/>
      <g id="Group_3093" data-name="Group 3093" transform="translate(48.066)">
        <path id="Path_2753" data-name="Path 2753" d="M261.228,289.6s14.186,21.906,17.4,12.412,5.176-15.3,5.176-15.3-4.027-6.6-6.161-4.573c-2.231,2.125-5.124-1.738-5.124-1.738Z" transform="translate(-151.466 -67.659)" fill="#f5ba9a"/>
        <g id="Group_3088" data-name="Group 3088" transform="translate(131.326 30.059)">
          <path id="Path_2754" data-name="Path 2754" d="M319.408,277.425l5.861-34.036c3.846-1.241,7.805-4.213,6.448-8.813-.676-2.3-2.475-3.514-4.594-4.314-.8-.3-4.894-1.478-5.18.1,0-.022,2.229-12.267,2.229-12.267l-39.916-19.263-3.682,24.715c.056-.378-3.879-1.263-4.412-1.207a6.687,6.687,0,0,0-4.746,3.839c-2.078,4.632,1.942,10.486,6.959,10.565,0,0,.683,10.961,3.225,14.849s14.278,6.576,14.278,6.576l-1.288,14.818Z" transform="translate(-270.856 -198.832)" fill="#f5ba9a"/>
        </g>
        <g id="Group_3089" data-name="Group 3089" transform="translate(133.18 101.926)">
          <path id="Path_2755" data-name="Path 2755" d="M331.862,240.436c-18.036-5.062-43.371-9.516-43.371-9.516L271.684,350.613l70.8-2.186Z" transform="translate(-271.684 -230.92)" fill="#ffa938"/>
        </g>
        <g id="Group_3090" data-name="Group 3090" transform="translate(193.358 53.892)">
          <path id="Path_2756" data-name="Path 2756" d="M298.553,267.024a468.416,468.416,0,0,0,71.023,13.337c-5.393-24.531-8.345-43.286-15.393-64.124,6.73-1.7,19.862-5.062,26.592-6.764,0,0,22.3,77.688,15.532,88.046-11.519,17.626-68.886,6.02-68.886,6.02L300.284,298.7Z" transform="translate(-298.553 -209.473)" fill="#ffa938"/>
        </g>
        <g id="Group_3091" data-name="Group 3091" transform="translate(56.099 101.95)">
          <path id="Path_2757" data-name="Path 2757" d="M253.266,266.773s76-37.176,79.5-35.806,6.461,18.6,6.461,18.6S311.67,267.1,269.067,286.9l38.751,52.747L288.512,353.5s-53.21-59.8-51.188-72.165C238.885,271.792,253.266,266.773,253.266,266.773Z" transform="translate(-237.268 -230.931)" fill="#ffa938"/>
        </g>
        <path id="Path_2758" data-name="Path 2758" d="M359.385,239.591s-3.145-21.987-3.521-22.614-.376-4.508-6.022-3.572c0,0-.376-6.968-3.637-7.093a29.532,29.532,0,0,0-6.9.755s-3.673-17.864-6.056-20.959c-2.6-3.384-6.24,5.525-.6,27.3,0,0,3.129,14.809,2.2,15.353-2.526,1.474-6,1.2-10.807-7.012-5.1-8.728-11.465-5.772-8.327,1s7.581,15.541,10.466,17.924,8.981,2.025,8.981,2.025l.9,2.831Z" transform="translate(-84.952 -185.411)" fill="#f5ba9a"/>
        <g id="Group_3092" data-name="Group 3092" transform="translate(0 212.419)">
          <path id="Path_2759" data-name="Path 2759" d="M416.2,287.269c-8.526,129.523-37.481,289.373-37.481,289.373l28.357,12H346.693L386.3,305.972H372.731L272.541,588.826H212.22l34.319-12.513L346.693,280.254Z" transform="translate(-212.22 -280.254)" fill="#594656"/>
        </g>
        <path id="Path_2760" data-name="Path 2760" d="M326.936,235.883c3.375-6.748,7.324-23.129-2.923-27.682a105.3,105.3,0,0,1-14.905-8.493,25.964,25.964,0,0,0-21.25-3.832,19.524,19.524,0,0,0-3.362,1.259c-7.154,3.512-11.984,22.52-11.984,22.52l7.03,1.76s7.841,34.865,20.737,42.03l12.883,2.728,7.622,1.713Z" transform="translate(-137.477 -173.492)" fill="#b96944"/>
        <path id="Path_2761" data-name="Path 2761" d="M292.478,203.285a45.412,45.412,0,0,0-.242-6.244" transform="translate(-113.026 -170.993)" fill="none" stroke="#b96944" stroke-miterlimit="10" stroke-width="0.05"/>
        <path id="Path_2762" data-name="Path 2762" d="M292.491,202.689a1.753,1.753,0,0,0,.777-.965,24.212,24.212,0,0,1,2.748-4.453" transform="translate(-112.71 -170.708)" fill="none" stroke="#b96944" stroke-miterlimit="10" stroke-width="0.05"/>
      </g>
    </g>
    <g id="Group_3118" data-name="Group 3118" transform="translate(54.971 367.847)">
      <path id="Path_2763" data-name="Path 2763" d="M340.477,406.634c0-2.607-63.912-4.721-142.753-4.721s-142.753,2.114-142.753,4.721,63.914,4.723,142.753,4.723S340.477,409.243,340.477,406.634Z" transform="translate(-54.971 97.971)" fill="#6d6d6d" opacity="0.25"/>
      <g id="Group_3117" data-name="Group 3117" transform="translate(9.245)">
        <path id="Path_2764" data-name="Path 2764" d="M167.822,183.4a65.344,65.344,0,0,0-8.6-1.028c-5.109-.475-9.77,2.835-13.637,6.206s-6.654,7.8-9.156,12.276c-2.558,4.578-4.945,9.879-3.436,14.9a13.169,13.169,0,0,1,1,3.855c-.054,4.152-5.776,5.718-7.566,9.465-2.213,4.629,2.3,10.865-.757,14.984-1.53,2.054-4.47,2.7-5.917,4.815-1.136,1.657-1.088,3.828-1,5.837a1.209,1.209,0,0,0,1.326,1.465c16.352,1.57,32.534-1.964,48.886-.394a27.835,27.835,0,0,0,5.933.148,27.614,27.614,0,0,0,8.065-2.7c14.132-6.441,28.28-8.11,42.09-15.219a3.111,3.111,0,0,0,1.483-1.214,2.651,2.651,0,0,0,.166-1.467,9.647,9.647,0,0,0-6.549-8.031c-3.6-1.129-7.913-.141-10.916-2.421-2.168-1.646-2.954-4.533-3.241-7.239-.578-5.5.047-11.857-3.933-15.691-3.115-3-8.117-3.33-11.245-6.32-1.783-1.7-2.744-4.076-4.182-6.079-4.213-5.861-11.387-9.263-18.811-6.148" transform="translate(14.799 -174.381)" fill="#594656"/>
        <g id="Group_3095" data-name="Group 3095" transform="translate(28.283 193.56)">
          <path id="Path_2765" data-name="Path 2765" d="M198.742,269.537,107.6,557.965,71.727,571.8h53.235l102.9-271.736a4.487,4.487,0,0,1,4.2-2.9h0a4.49,4.49,0,0,1,4.464,4.965L209.411,571.8H263.3l-35.978-11.9S260.839,403.094,268.3,354.031s-3.353-83.733-3.353-83.733S230.014,259.221,198.742,269.537Z" transform="translate(-71.727 -265.141)" fill="#53648c"/>
        </g>
        <g id="Group_3096" data-name="Group 3096" transform="translate(156.363 86.39)">
          <path id="Path_2766" data-name="Path 2766" d="M128.914,225.047c8.356-8.728,41.566-9.731,53.571-4.8s34.095,68.7,34.095,68.7l-21.969,8.625L180.98,244.257l-42.724-5.886Z" transform="translate(-128.914 -217.291)" fill="#570820"/>
        </g>
        <g id="Group_3097" data-name="Group 3097" transform="translate(154.054 92.07)">
          <path id="Path_2767" data-name="Path 2767" d="M186.325,248.945s3.742-8.827,4.542-15.642-8.466-13.476-8.466-13.476l-50.267,13.026,3.124,29.942-7.375,60.5,63.871,2.374L185.335,249.2" transform="translate(-127.883 -219.827)" fill="#570820"/>
        </g>
        <g id="Group_3098" data-name="Group 3098" transform="translate(161.111 116.112)">
          <path id="Path_2768" data-name="Path 2768" d="M132.055,237.362a1,1,0,0,1-.611-.2,1.02,1.02,0,0,1-.206-1.429l3.572-4.759a1.021,1.021,0,1,1,1.633,1.225l-3.57,4.759A1.024,1.024,0,0,1,132.055,237.362Z" transform="translate(-131.034 -230.561)" fill="#5d95ba"/>
        </g>
        <g id="Group_3099" data-name="Group 3099" transform="translate(130.226 199.135)">
          <path id="Path_2769" data-name="Path 2769" d="M117.244,274.339l11.523-6.708" transform="translate(-117.244 -267.631)" fill="#8fcaec"/>
        </g>
        <g id="Group_3100" data-name="Group 3100" transform="translate(160.623 11.918)">
          <path id="Path_2770" data-name="Path 2770" d="M150.174,259.065c-.7-6.676,2.717-13.447-8.054-17.763-14.849-5.946-18.034-57.148,8.788-57.262s25.505,33.68,25.4,43.714-8.943,12.589-11.151,16.222-.3,15.089-.3,15.089Z" transform="translate(-130.816 -184.04)" fill="#f5ba9a"/>
        </g>
        <g id="Group_3101" data-name="Group 3101" transform="translate(154.466 42.212)">
          <path id="Path_2771" data-name="Path 2771" d="M138.365,203.521c0,3.288-2.3,5.953-5.149,5.953s-5.149-2.665-5.149-5.953,2.3-5.955,5.149-5.955S138.365,200.231,138.365,203.521Z" transform="translate(-128.067 -197.566)" fill="#f5ba9a"/>
        </g>
        <g id="Group_3102" data-name="Group 3102" transform="translate(202.585 37.612)">
          <ellipse id="Ellipse_64" data-name="Ellipse 64" cx="5.149" cy="5.955" rx="5.149" ry="5.955" fill="#f5ba9a"/>
        </g>
        <path id="Path_2772" data-name="Path 2772" d="M377.884,257.73l-7.953-20.153L145.067,325.852a47.98,47.98,0,1,0,8.961,22.531l171.246-69.349,9.4,20.686,20.887-9.568-7.353-16.459,6.768-3.583,7.962,15.835,14.941-7.978-8.276-16.885ZM106.744,385.2a31.04,31.04,0,1,1,31.04-31.04A31.04,31.04,0,0,1,106.744,385.2Z" transform="translate(-59.099 -105.753)" fill="#b1e2f7"/>
        <g id="Group_3103" data-name="Group 3103" transform="translate(99.355 94.146)">
          <path id="Path_2773" data-name="Path 2773" d="M160.469,220.754s-56.7,50.48-57.007,59.849,33.4,58.655,33.4,58.655L153.721,328.6l-23.6-44.184,38.4-36.621s1.259,8.509,4.329,10.824l1.711-33.687Z" transform="translate(-103.46 -220.754)" fill="#570820"/>
        </g>
        <path id="Path_2774" data-name="Path 2774" d="M170.883,198.551c-7.371.379-40.034,3.7-40.034,3.7s4.777-19.608,20.018-20.379C170.883,180.862,170.883,198.551,170.883,198.551Z" transform="translate(29.848 -174.859)" fill="#594656"/>
        <path id="Path_2775" data-name="Path 2775" d="M131.628,210.515s26.469-2.479,31.107-14.972c0,0,8.788,11.234,13.935,10.672,0,0,.844-14.784-2.356-16.784s-43.808,2.125-43.808,2.125A64.513,64.513,0,0,0,131.628,210.515Z" transform="translate(29.109 -166.117)" fill="#594656"/>
        <path id="Path_2776" data-name="Path 2776" d="M118.692,278.688s7.232,15.246,7.646,15.617,1.288,3.185,5.174,1.234c0,0,1.843,4.972,4.237,4.329a22.525,22.525,0,0,0,4.838-2.1s2.9,3.868,5.057,1.823c2.515-2.39.134-5.042-1.66-7.922,0,0-5.6-10.041-5.048-10.645,1.5-1.637,4.081-2.224,9.418,2.656,5.669,5.185,9.619,1.606,5.819-2.6s-9-9.57-11.631-10.65-6.972.551-6.972.551l-1.288-1.85Z" transform="translate(14.777 -66.639)" fill="#f5ba9a"/>
        <path id="Path_2777" data-name="Path 2777" d="M202.555,259.124S198.494,270.663,191.4,272.6s-46.859,10.014-46.859,10.014V266.889Z" transform="translate(46.827 -79.042)" fill="#570820"/>
        <path id="Path_2778" data-name="Path 2778" d="M162.72,266.588h-3.03a20.243,20.243,0,0,0-1.109-2.824c-1.243-2.018-17.888-4.137-17.584-1.957s3.044,2.717,8.912,3.805c0,0-21.953,5.324-19.888,7.064s15.758-2.258,15.758-2.258-14.856,4.831-13.8,8.126c.6,1.888,15.658-2.551,15.658-2.551s-15.331,5.487-12.614,7.333,19.671-2.311,21.3-2.894,2.26-3.736,2.26-3.736l4.139-.7Z" transform="translate(28.652 -76.857)" fill="#f5ba9a"/>
        <g id="Group_3104" data-name="Group 3104" transform="translate(178.846)">
          <path id="Path_2779" data-name="Path 2779" d="M138.978,179.741c.582,2.428.826,5.451,2.22,7.575.578.88,2,.058,1.418-.829-1.286-1.96-1.516-4.936-2.054-7.183-.246-1.026-1.83-.591-1.583.437Z" transform="translate(-138.952 -178.719)" fill="#594656"/>
        </g>
        <g id="Group_3105" data-name="Group 3105" transform="translate(180.913 3.186)">
          <path id="Path_2780" data-name="Path 2780" d="M141.4,185.7q1.256-2.237,2.692-4.361c.591-.878-.829-1.7-1.418-.829q-1.438,2.127-2.69,4.361a.821.821,0,0,0,1.415.829Z" transform="translate(-139.875 -180.141)" fill="#594656"/>
        </g>
        <g id="Group_3106" data-name="Group 3106" transform="translate(185.591 42.864)">
          <path id="Path_2781" data-name="Path 2781" d="M141.989,198.253a37.676,37.676,0,0,0,.206,5.642c.112.961.02,2.679.688,3.409.381.417,1.18.39,1.664.464,1.8.28,3.615.486,5.418.728l-.289-.7a16.763,16.763,0,0,1-5.133,3.351c-.484.206-.067.914.414.708a17.38,17.38,0,0,0,5.3-3.478.416.416,0,0,0-.291-.7c-1.881-.251-5.713-.038-6.69-2.025-.916-1.866-.529-5.407-.466-7.4.018-.529-.8-.529-.82,0Z" transform="translate(-141.964 -197.857)" fill="#f49e78"/>
        </g>
        <g id="Group_3107" data-name="Group 3107" transform="translate(193.214 40.7)">
          <path id="Path_2782" data-name="Path 2782" d="M146.2,205.1c.237-1.872-.954-6.253,1.4-7.158,2.1-.8,3.42.938,3.749,2.708.206,1.109.405,2.222.607,3.33.094.52.885.3.791-.217-.495-2.721-.611-7.375-4.67-6.822-3.776.515-2.4,5.752-2.7,8.159-.067.524.755.517.82,0Z" transform="translate(-145.367 -196.891)" fill="#514540"/>
        </g>
        <g id="Group_3108" data-name="Group 3108" transform="translate(172.034 41.82)">
          <path id="Path_2783" data-name="Path 2783" d="M136.74,205.6c.235-1.872-.956-6.255,1.4-7.16,2.1-.8,3.42.938,3.749,2.708.206,1.109.4,2.222.607,3.333.094.517.885.3.791-.219-.495-2.721-.611-7.375-4.67-6.822-3.778.517-2.4,5.751-2.7,8.161-.065.522.757.517.822,0Z" transform="translate(-135.911 -197.391)" fill="#514540"/>
        </g>
        <g id="Group_3109" data-name="Group 3109" transform="translate(178.452 54.395)">
          <path id="Path_2784" data-name="Path 2784" d="M138.78,203.4c.882,6.829,12.446,8.2,16.695,4.054.379-.37-.2-.95-.58-.58-3.548,3.458-14.5,2.652-15.293-3.474-.067-.517-.889-.524-.822,0Z" transform="translate(-138.776 -203.006)" fill="#f49e78"/>
        </g>
        <g id="Group_3110" data-name="Group 3110" transform="translate(177.479 54.039)">
          <path id="Path_2785" data-name="Path 2785" d="M139.155,204.74a1.562,1.562,0,0,1,1.727-1.066c.517.087.739-.706.217-.791a2.4,2.4,0,0,0-2.735,1.637c-.164.5.627.719.791.219Z" transform="translate(-138.342 -202.847)" fill="#f49e78"/>
        </g>
        <g id="Group_3111" data-name="Group 3111" transform="translate(168.921 51.23)" opacity="0.28">
          <path id="Path_2786" data-name="Path 2786" d="M142.864,202.427c.365.916-1.252,2.41-3.72,2.941a6.736,6.736,0,0,1-3.14,0,2.345,2.345,0,0,1-1.411-.9.811.811,0,0,1,.069-.788,2.478,2.478,0,0,1,.912-.817,10.177,10.177,0,0,1,2.813-1.01C140.539,201.4,142.5,201.5,142.864,202.427Z" transform="translate(-134.521 -201.593)" fill="#f28279"/>
        </g>
        <g id="Group_3112" data-name="Group 3112" transform="translate(195.846 49.352)" opacity="0.28">
          <path id="Path_2787" data-name="Path 2787" d="M154.886,201.587c.365.916-1.252,2.412-3.72,2.941a6.74,6.74,0,0,1-3.14,0,2.333,2.333,0,0,1-1.409-.9.8.8,0,0,1,.067-.786,2.459,2.459,0,0,1,.912-.817,10.175,10.175,0,0,1,2.813-1.01C152.561,200.562,154.523,200.66,154.886,201.587Z" transform="translate(-146.543 -200.754)" fill="#f28279"/>
        </g>
        <g id="Group_3113" data-name="Group 3113" transform="translate(156.928 45.081)">
          <path id="Path_2788" data-name="Path 2788" d="M131.509,198.847a2.6,2.6,0,0,0-2.327,3.066,2.969,2.969,0,0,0,2.764,2.806c.529.036.526-.784,0-.822-2.17-.152-2.86-4.146-.437-4.231.526-.018.531-.84,0-.82Z" transform="translate(-129.166 -198.847)" fill="#f49e78"/>
        </g>
        <g id="Group_3114" data-name="Group 3114" transform="translate(156.983 46.598)">
          <path id="Path_2789" data-name="Path 2789" d="M129.288,200.247a3.766,3.766,0,0,0,3.212,1.413c.524-.034.529-.856,0-.822a3.006,3.006,0,0,1-2.632-1.174c-.329-.412-.907.172-.58.582Z" transform="translate(-129.191 -199.524)" fill="#f49e78"/>
        </g>
        <g id="Group_3115" data-name="Group 3115" transform="translate(207.033 40.251)">
          <path id="Path_2790" data-name="Path 2790" d="M151.832,202.932c1.776.421,2.757-1.194,2.981-2.732a2.962,2.962,0,0,0-2.6-3.507c-.524-.047-.522.773,0,.82a2.153,2.153,0,0,1,1.83,2.334c-.094,1.044-.618,2.62-1.991,2.293-.513-.121-.732.67-.217.793Z" transform="translate(-151.538 -196.69)" fill="#f49e78"/>
        </g>
        <g id="Group_3116" data-name="Group 3116" transform="translate(207.112 40.922)">
          <path id="Path_2791" data-name="Path 2791" d="M152.285,200.139a4.331,4.331,0,0,0,1.413-2.634c.074-.517-.717-.739-.793-.217a3.633,3.633,0,0,1-1.2,2.269c-.392.356.19.934.582.582Z" transform="translate(-151.573 -196.99)" fill="#f49e78"/>
        </g>
      </g>
    </g>
  </g>
</svg>
