<svg xmlns="http://www.w3.org/2000/svg" width="107.203" height="100" viewBox="0 0 107.203 100">
    <defs>
        <style>
            .cls-1,.cls-3{fill:#bcbcbc}.cls-1{clip-rule:evenodd}.cls-2{clip-path:url(#clip-path)}.cls-4{clip-path:url(#clip-path-2)}.cls-5{clip-path:url(#clip-path-3)}.cls-6{clip-path:url(#clip-path-4)}.cls-7{clip-path:url(#clip-path-5)}
        </style>
        <clipPath id="clip-path">
            <path id="Path_2897" d="M396.855 367.791l-15.728-43.212H360l22.953 63.065z" class="cls-1" data-name="Path 2897" transform="translate(-360 -324.579)"/>
        </clipPath>
        <clipPath id="clip-path-2">
            <path id="Path_2898" d="M360 324.579l36.855 43.212-13.9 19.853z" class="cls-1" data-name="Path 2898" transform="translate(-360 -324.579)"/>
        </clipPath>
        <clipPath id="clip-path-3">
            <path id="Path_2899" d="M333.891 367.791l15.728-43.212h21.127l-22.954 63.065z" class="cls-1" data-name="Path 2899" transform="translate(-333.891 -324.579)"/>
        </clipPath>
        <clipPath id="clip-path-4">
            <path id="Path_2900" d="M370.746 324.579l-36.854 43.212 13.9 19.853z" class="cls-1" data-name="Path 2900" transform="translate(-333.891 -324.579)"/>
        </clipPath>
        <clipPath id="clip-path-5">
            <path id="Path_2901" d="M333.891 355.191H407.6l-13.9 19.853h-45.908z" class="cls-1" data-name="Path 2901" transform="translate(-333.891 -355.191)"/>
        </clipPath>
    </defs>
    <g id="logo7" transform="translate(-322.027 -324.579)">
        <g id="Group_3234" data-name="Group 3234" transform="translate(375.628 324.579)">
            <g id="Group_3233" class="cls-2" data-name="Group 3233">
                <path id="Rectangle_596" d="M0 0h36.855v63.065H0z" class="cls-3" data-name="Rectangle 596"/>
            </g>
        </g>
        <g id="Group_3236" data-name="Group 3236" transform="translate(375.628 324.579)">
            <g id="Group_3235" class="cls-4" data-name="Group 3235">
                <path id="Rectangle_597" d="M0 0h36.855v63.065H0z" class="cls-3" data-name="Rectangle 597"/>
            </g>
        </g>
        <g id="Group_3238" data-name="Group 3238" transform="translate(338.774 324.579)">
            <g id="Group_3237" class="cls-5" data-name="Group 3237">
                <path id="Rectangle_598" d="M0 0h36.854v63.065H0z" class="cls-3" data-name="Rectangle 598"/>
            </g>
        </g>
        <g id="Group_3240" data-name="Group 3240" transform="translate(338.774 324.579)">
            <g id="Group_3239" class="cls-6" data-name="Group 3239">
                <path id="Rectangle_599" d="M0 0h36.854v63.065H0z" class="cls-3" data-name="Rectangle 599"/>
            </g>
        </g>
        <g id="Group_3242" data-name="Group 3242" transform="translate(338.774 367.791)">
            <g id="Group_3241" class="cls-7" data-name="Group 3241">
                <path id="Rectangle_602" d="M0 0h73.709v19.853H0z" class="cls-3" data-name="Rectangle 602"/>
            </g>
        </g>
        <path id="Path_2902" d="M416.068 379.632h2.8l3.95 6.768 3.711-6.768h2.7l-5.166 9.133v4.912h-2.6v-4.912zm-15.444 14.045v-14.045h2.6l7.416 10.234v-10.234h2.5v14.045h-2.6l-7.412-10.45v10.45zm-9.875-11.365l-4.626 11.365h-2.672l5.965-14.045h2.8l6.087 14.045h-2.8zm-36.205 11.365v-14.045h2.7l4.763 10.656 4.667-10.656h2.6v14.045h-2.408v-9.782l-3.811 9.782h-2.219l-3.887-9.782v9.782zm-17.66-7c-.1-4.758 2.35-7.141 7.054-7.141q6.939 0 6.942 7.141 0 7.1-6.942 7.1c-4.492-.004-6.951-2.367-7.054-7.103zm2.7-.056q0 4.9 4.352 4.9 4.239 0 4.24-4.9 0-4.823-4.24-4.825-4.354-.003-4.351 4.822zm36.949-4.7h2.352a2.274 2.274 0 1 1 0 4.548h-2.858v-4.548zm2.352 6.836a4.563 4.563 0 1 0 0-9.126h-5.46v14.045h2.6v-4.919zm-45.173 4.329a11.576 11.576 0 0 1-4.123.686q-7.563 0-7.563-7.313 0-6.924 7.563-6.927a11.606 11.606 0 0 1 4.123.689v2.356a9.794 9.794 0 0 0-3.93-.785q-5.052 0-5.055 4.667 0 5.058 5.055 5.056a9.8 9.8 0 0 0 3.93-.786z" class="cls-3" data-name="Path 2902" transform="translate(0 22.617)"/>
        <path id="Path_2903" d="M403.345 394.232h1.362v.625h-1.362zm1.588-1.763v.661h-2.223v2.84H405v.662h-3v-4.163zm-6.139 2.126a1.293 1.293 0 0 0 .809-.184.743.743 0 0 0 .216-.593.632.632 0 0 0-.222-.56 1.46 1.46 0 0 0-.785-.152h-.894v1.489zm1.745-.774a1.207 1.207 0 0 1-.9 1.3l1.09 1.513h-.894l-1-1.4h-.922v1.4h-.7v-4.163h1.548a2.244 2.244 0 0 1 1.362.32 1.228 1.228 0 0 1 .416 1.03zm-6.339.411h1.362v.625H394.2zm1.588-1.763v.661h-2.22v2.84h2.292v.662h-3v-4.163zm-8.008 4.163v-4.163h.7v1.8h2.067v-1.8h.7v4.163h-.7v-1.7h-2.067v1.7zm-4.581-3.615a.917.917 0 0 0-.5.126.417.417 0 0 0-.2.378.439.439 0 0 0 .2.387 2.967 2.967 0 0 0 .837.288 2.3 2.3 0 0 1 .966.436 1.033 1.033 0 0 1 .325.824 1.094 1.094 0 0 1-.411.885 1.644 1.644 0 0 1-1.078.339 2.533 2.533 0 0 1-1.733-.673l.44-.531a1.986 1.986 0 0 0 1.311.549.9.9 0 0 0 .538-.145.462.462 0 0 0 .2-.388.431.431 0 0 0-.186-.374 1.96 1.96 0 0 0-.646-.246 5.924 5.924 0 0 1-.7-.2 1.564 1.564 0 0 1-.422-.241 1.008 1.008 0 0 1-.37-.858 1.041 1.041 0 0 1 .419-.889 1.684 1.684 0 0 1 1.04-.313 2.469 2.469 0 0 1 .79.131 2.051 2.051 0 0 1 .68.37l-.375.529a1.418 1.418 0 0 0-.5-.274 1.958 1.958 0 0 0-.624-.111zm-4.274 1.215h1.361v.625h-1.361zm1.587-1.763v.661h-2.22v2.84h2.292v.662h-3v-4.163zm-4.9 3.588a2.282 2.282 0 0 1-3.121 0 2.186 2.186 0 0 1 0-3.073 2.282 2.282 0 0 1 3.121 0 2.186 2.186 0 0 1 0 3.073zm-.515-2.606a1.456 1.456 0 0 0-2.089 0 1.552 1.552 0 0 0 0 2.137 1.456 1.456 0 0 0 2.089 0 1.552 1.552 0 0 0 0-2.137zm-5.051 1.155h.7v1.424a2.159 2.159 0 0 1-1.685.649 2.126 2.126 0 0 1-1.546-.608 2.053 2.053 0 0 1-.622-1.537 2.078 2.078 0 0 1 .634-1.547 2.12 2.12 0 0 1 1.534-.62 2.174 2.174 0 0 1 1.493.524l-.374.536a1.449 1.449 0 0 0-.491-.288 1.82 1.82 0 0 0-.575-.082 1.477 1.477 0 0 0-1.06.409 1.465 1.465 0 0 0 1 2.539 1.8 1.8 0 0 0 .991-.255zm-7.529-.374h1.361v.625h-1.361zm1.587-1.763v.661h-2.22v2.84h2.292v.662h-3v-4.163zm-5.238 0h.7v4.163h-.766l-2.357-3.038v3.038h-.7v-4.163h.7l2.418 3.108zm-5.436 0h.7v4.163h-.7zm-3.828 4.163v-4.163h.7v3.5h1.9v.668zm-2.082-2.026h.7v1.424a2.157 2.157 0 0 1-1.685.649 2.126 2.126 0 0 1-1.546-.608 2.053 2.053 0 0 1-.622-1.537 2.074 2.074 0 0 1 .635-1.547 2.115 2.115 0 0 1 1.533-.62 2.175 2.175 0 0 1 1.495.524l-.374.536a1.454 1.454 0 0 0-.493-.288 1.808 1.808 0 0 0-.574-.082 1.477 1.477 0 0 0-1.06.409 1.466 1.466 0 0 0 1 2.539 1.8 1.8 0 0 0 .991-.255zm-5.37.429l-.757-1.715-.757 1.715zm-1.8.649l-.416.947h-.751l1.834-4.163h.751l1.834 4.163h-.75l-.418-.947zm-3.072-2.572v3.519h-.7v-3.519h-1.262v-.644h3.228v.644z" class="cls-3" data-name="Path 2903" transform="translate(5.469 27.899)"/>
    </g>
</svg>
