<svg xmlns="http://www.w3.org/2000/svg" width="151" height="90.676" viewBox="0 0 151 90.676">
  <g id="logo-white" transform="translate(0 8)">
    <text id="View_Plus" data-name="View
      Plus" transform="translate(0 40.676)" fill="#fff" font-size="37" font-family="Helvetica-Bold, Helvetica" font-weight="700"><tspan x="0" y="0">View</tspan><tspan x="0" y="32" xml:space="preserve">      </tspan><tspan y="32" font-size="42">Plus</tspan></text>
    <path id="Path_1066" data-name="Path 1066" d="M409.088,176.44" transform="translate(-284.397 -120.912)" fill="#fff"/>
    <g id="Group_2420" data-name="Group 2420" transform="translate(95.333 -8)">
      <g id="Group_2416" data-name="Group 2416" transform="translate(0 27.271)">
        <path id="Path_1067" data-name="Path 1067" d="M356.549,126.3s7.244-1.623,10.908,1.589a22.978,22.978,0,0,1,3.313,11.193v.1c.167,3.095.033,5.571.033,5.571h-9.887s1.773-8.2-.552-13.953A8.4,8.4,0,0,0,356.549,126.3Z" transform="translate(-346.795 -120.224)" fill="#fff"/>
        <path id="Path_1068" data-name="Path 1068" d="M330.409,121.619V111.1s12.626-2.907,20.662,7.278c2,2.529,3.012,6.341,3.313,11.193v.1a16.626,16.626,0,0,0-10.406-8.382C340.531,120.28,336.064,120.1,330.409,121.619Z" transform="translate(-330.409 -110.711)" fill="#fff"/>
      </g>
      <g id="Group_2417" data-name="Group 2417" transform="translate(30.081)">
        <path id="Path_1069" data-name="Path 1069" d="M425.331,56.078s-7.244,1.623-10.908-1.589A22.979,22.979,0,0,1,411.11,43.3v-.1c-.168-3.1-.034-5.571-.034-5.571h9.888s-1.773,8.2.552,13.953A8.4,8.4,0,0,0,425.331,56.078Z" transform="translate(-411.026 -37.625)" fill="#fff"/>
        <path id="Path_1070" data-name="Path 1070" d="M435.226,60.6V71.127s-12.626,2.907-20.662-7.278c-1.995-2.529-3.011-6.341-3.312-11.193v-.1a16.625,16.625,0,0,0,10.406,8.382C425.1,61.941,429.572,62.126,435.226,60.6Z" transform="translate(-411.168 -46.985)" fill="#fff"/>
      </g>
      <g id="Group_2418" data-name="Group 2418" transform="translate(29.138 28.291)">
        <path id="Path_1071" data-name="Path 1071" d="M443.483,113.452v10.4s-7.952-2.507-13.657-1.119c-.418.1-.814.935-1.2,1.069-1.924.686-2.61,2.56-3.6,4.417,0,0-1.623-7.244,1.589-10.908a22.874,22.874,0,0,1,11.193-3.781h.1c.452-.033.87-.05,1.288-.067a2.46,2.46,0,0,1,.351-.017Z" transform="translate(-418.605 -113.444)" fill="#fff"/>
        <path id="Path_1072" data-name="Path 1072" d="M429.112,113.444l-.016.017c-.435.184-6.943,3.212-9.352,9.988-.117.318-.217.636-.318.953-1,3.447-1.054,6.943-.184,12.548H408.718s-.017-.084-.034-.268a27.129,27.129,0,0,1,1.573-12.832l.1-.251a15.714,15.714,0,0,1,1.087-2.108,14.886,14.886,0,0,1,1.54-2.141,15.2,15.2,0,0,1,3.145-2.744,19.294,19.294,0,0,1,3.1-1.656c.033-.016.067-.016.1-.033A27.9,27.9,0,0,1,429.112,113.444Z" transform="translate(-408.499 -113.444)" fill="#fff"/>
      </g>
      <g id="Group_2419" data-name="Group 2419" transform="translate(0.123)">
        <path id="Path_1073" data-name="Path 1073" d="M330.738,75.795V65.4S338.69,67.9,344.4,66.515c.418-.1.814-.935,1.2-1.069,1.924-.686,2.61-2.56,3.6-4.417,0,0,1.623,7.244-1.59,10.908a22.873,22.873,0,0,1-11.193,3.781h-.1c-.452.033-.87.05-1.288.067a2.46,2.46,0,0,1-.351.017Z" transform="translate(-330.738 -52.297)" fill="#fff"/>
        <path id="Path_1074" data-name="Path 1074" d="M342.172,61.131l.017-.017c.435-.184,6.943-3.212,9.352-9.988.117-.318.218-.635.318-.953,1-3.447,1.054-6.943.184-12.548h10.523s.017.084.034.268a27.124,27.124,0,0,1-1.573,12.832l-.1.251a15.706,15.706,0,0,1-1.087,2.108,14.9,14.9,0,0,1-1.539,2.141,15.2,15.2,0,0,1-3.146,2.744,19.292,19.292,0,0,1-3.095,1.656c-.034.017-.067.017-.1.033A27.908,27.908,0,0,1,342.172,61.131Z" transform="translate(-337.906 -37.625)" fill="#fff"/>
      </g>
    </g>
  </g>
</svg>
