<svg xmlns="http://www.w3.org/2000/svg" width="103.5" height="100" viewBox="0 0 103.5 100">
    <defs>
        <style>
            .cls-1,.cls-3{fill:#bcbcbc}.cls-1{clip-rule:evenodd}.cls-2{clip-path:url(#clip-path)}.cls-4{clip-path:url(#clip-path-2)}.cls-5{clip-path:url(#clip-path-3)}
        </style>
        <clipPath id="clip-path">
            <path id="Path_2875" d="M212.864 47.309h2.374v2.374h-2.374v-2.374h-1.552v-1.552h1.552zm-1.619-9.709h1.555v1.552h-1.552zm-3.023 9.968h1.552v1.552h-1.552zm-2.389-9.01h1.552v1.552h-1.552zm9.707.81h1.552v1.552h-1.552zm.75 4.694h3.695v3.695h-3.695zm-16.79-4.717h2.374v2.374H199.5zm1.6 4.545h2.375v2.374H201.1zm4.745 3.047h-1.552v1.552h1.552zm-5.5-4.275h-1.552v1.552h1.552zm-4.129 1.547h-1.552v1.554h1.552zm-3.906-4.942h-1.551v1.552h1.551zm.266 7.149h-1.554v1.552h1.554zm9.437 1.987h-1.552v-3.13h-3.129V48.4h3.129v1.552h1.552zm-8.543.387h2.375v2.374h-2.375zm-2.007-6.535h6.069v-3.694h-3.695v6.07h-2.374zm-1.108.56H188.8v1.552h1.552zm-1.455-6.021h-1.552v1.552h1.552zm53.184-1.483l11.683 15.854H208.62l-1.465-1.988V43.8h2.374v-3.7h3.7v3.7h-3.7v2.374h-4.586l-.108-.147v-4.349h1.552v1.554h-3.271v-6.1h1.552v1.552h-5.248l-2.484-3.373z" class="cls-1" data-name="Path 2875" transform="translate(-187.345 -35.311)"/>
        </clipPath>
        <clipPath id="clip-path-2">
            <path id="Path_2876" d="M212.864 74.065h2.374v-2.374h-2.374v2.374h-1.552v1.552h1.552zm-1.619 9.714h1.555v-1.553h-1.552zm-3.023-9.969h1.552v-1.552h-1.552zm-2.389 9.01h1.552v-1.552h-1.552zm9.707-.808h1.552V80.46h-1.552zm.75-4.694h3.695v-3.694h-3.695zm-16.79 4.713h2.374v-2.374H199.5zm1.6-4.545h2.375v-2.374H201.1zm4.745-3.049h-1.552v-1.552h1.552zm-5.5 4.275h-1.552v-1.55h1.552zm-4.129-1.547h-1.552v-1.551h1.552zm-3.906 4.942h-1.551v-1.551h1.551zm.266-7.149h-1.554v-1.552h1.554zm9.437-1.986h-1.552V76.1h-3.129v-3.128h3.129V71.42h1.552zm-8.543-.387h2.375V70.21h-2.375zm-2.007 6.533h6.069v3.7h-3.695v-6.075h-2.374zm-1.108-.56H188.8v-1.552h1.552zm-1.455 6.023h-1.552v-1.552h1.552zm53.184 1.483l11.68-15.854H208.62l-1.465 1.99v5.375h2.374v3.695h3.7v-3.697h-3.7V75.2h-4.586l-.108.147V79.7h1.552v-1.556h-3.271v6.1h1.552v-1.552h-5.248l-2.484 3.372z" class="cls-1" data-name="Path 2876" transform="translate(-187.345 -70.21)"/>
        </clipPath>
        <clipPath id="clip-path-3">
            <path id="Path_2877" d="M215.96 69.073h-2.374v2.887h2.885v-2.887zm-8.479-6.39h2.375v-2.374h-2.376zm-1.618 9.717h1.552v-1.557h-1.552zm-3.024-9.968h1.552v-1.556h-1.552zm11.764.492h1.552v-1.555H214.6v1.551h-3.695v3.7h3.695zm-10.455 6.965h3.7v-3.698h-3.7v-2.376h-2.374v2.375h2.374zm13.3-1.945h1.551v-1.556h-1.551zm-7.286 2.689h1.554v-1.557h-1.554zm-16.688 3.477h2.375v-2.379h-2.375zm5.664-1.942h2.374v-2.379h-2.374v3.926h-1.552v-1.551zm-2.922-6.768h-1.552v-1.55h1.552zm-3.906 4.943h-1.551v-1.551h1.551zm.266-7.149h-1.554v-1.552h1.554zm.894-2.374h2.375v-2.374h-2.375zm-2.007 6.052h4.837v2.949h-2.949v-4.84h-1.893zm-1.108-.078h-2.725v-2.722h2.724zm10.477-4.346h-2.723v-2.721h2.723zM188.9 72.817h-1.552v-1.552h1.552zm0-11.608h-1.552v-1.553h1.552zm8.816 4.749h-.7V63.7h2.257v2.255zm44.368-30.647h-19.035l17.527 23.781h-38.8V63.2h-1.424v5.113h1.548v-1.551h-4.5v2.4h5.124v3.7H201.2v2.085h39.373l-17.526 23.78h19.03l23.367-31.707z" class="cls-1" data-name="Path 2877" transform="translate(-187.345 -35.311)"/>
        </clipPath>
    </defs>
    <g id="logo3" transform="translate(-851 -1232.773)">
        <g id="Group_3215" data-name="Group 3215" transform="translate(863.699 1232.773)">
            <g id="Group_3214" class="cls-2" data-name="Group 3214">
                <path id="Rectangle_587" d="M0 0h66.42v15.853H0z" class="cls-3" data-name="Rectangle 587"/>
            </g>
        </g>
        <g id="Group_3217" data-name="Group 3217" transform="translate(863.699 1280.333)">
            <g id="Group_3216" class="cls-4" data-name="Group 3216">
                <path id="Rectangle_588" d="M0 0h66.42v15.854H0z" class="cls-3" data-name="Rectangle 588"/>
            </g>
        </g>
        <g id="Group_3219" data-name="Group 3219" transform="translate(863.699 1232.773)">
            <g id="Group_3218" class="cls-5" data-name="Group 3218">
                <path id="Rectangle_589" d="M0 0h78.103v63.415H0z" class="cls-3" data-name="Rectangle 589"/>
            </g>
        </g>
        <path id="Path_2878" d="M268.82 92.9h2.7l3.813 6.533 3.583-6.533h2.608l-4.988 8.819v4.741h-2.512v-4.741zm-14.91 13.56V92.9h2.512l7.159 9.88V92.9H266v13.56h-2.514l-7.156-10.088v10.088zm-9.534-10.971l-4.466 10.971h-2.58l5.758-13.56h2.7l5.878 13.56h-2.7zm-34.955 10.971V92.9h2.606l4.6 10.288L221.13 92.9h2.512v13.56h-2.325v-9.448l-3.68 9.443h-2.142l-3.753-9.443v9.443zm-17.05-6.761c-.1-4.594 2.269-6.893 6.81-6.893q6.7 0 6.7 6.893 0 6.854-6.7 6.855c-4.337-.005-6.711-2.288-6.81-6.86zm2.608-.055q0 4.728 4.2 4.728 4.092 0 4.094-4.728 0-4.657-4.094-4.658-4.201-.005-4.2 4.654zm35.673-4.534h2.27a2.2 2.2 0 0 1 0 4.391h-2.76v-4.395zm2.27 6.6a4.406 4.406 0 0 0 0-8.812h-5.271v13.56h2.512v-4.748zm-43.613 4.178a11.14 11.14 0 0 1-3.981.664q-7.3 0-7.3-7.062 0-6.685 7.3-6.686a11.23 11.23 0 0 1 3.981.664v2.275a9.474 9.474 0 0 0-3.794-.758q-4.878 0-4.88 4.505 0 4.884 4.88 4.88a9.451 9.451 0 0 0 3.794-.758z" class="cls-3" data-name="Path 2878" transform="translate(672.973 1218.32)"/>
        <path id="Path_2879" d="M257 107.434h1.314v.6H257zm1.532-1.7v.638h-2.145v2.743h2.213v.638h-2.9v-4.019zm-5.926 2.052a1.242 1.242 0 0 0 .781-.177.717.717 0 0 0 .208-.572.614.614 0 0 0-.214-.541 1.406 1.406 0 0 0-.758-.147h-.864v1.438zm1.684-.747a1.168 1.168 0 0 1-.868 1.254l1.052 1.46h-.863l-.959-1.351h-.893v1.351h-.677v-4.019h1.495a2.164 2.164 0 0 1 1.316.311 1.186 1.186 0 0 1 .393.993zm-6.119.4h1.314v.6h-1.314zm1.532-1.7v.638h-2.144v2.743h2.213v.638h-2.892v-4.019zm-7.731 4.019v-4.019h.679v1.742h2v-1.742h.679v4.019h-.679v-1.645h-2v1.645zm-4.422-3.49a.894.894 0 0 0-.487.121.405.405 0 0 0-.189.365.427.427 0 0 0 .189.373 2.927 2.927 0 0 0 .808.279 2.251 2.251 0 0 1 .932.418 1 1 0 0 1 .313.8 1.056 1.056 0 0 1-.4.853 1.578 1.578 0 0 1-1.041.328 2.445 2.445 0 0 1-1.674-.65l.425-.511a1.915 1.915 0 0 0 1.266.529.86.86 0 0 0 .519-.142.44.44 0 0 0 .194-.373.423.423 0 0 0-.181-.363 1.914 1.914 0 0 0-.624-.236 5.432 5.432 0 0 1-.672-.195 1.536 1.536 0 0 1-.409-.233.971.971 0 0 1-.357-.829 1.007 1.007 0 0 1 .4-.859 1.634 1.634 0 0 1 1-.3 2.443 2.443 0 0 1 .765.127 2.035 2.035 0 0 1 .656.356l-.363.512a1.368 1.368 0 0 0-.482-.264 1.884 1.884 0 0 0-.592-.113zm-4.128 1.173h1.315v.6h-1.315zm1.533-1.7v.638h-2.144v2.743h2.213v.638h-2.892v-4.019zm-4.73 3.464a2.2 2.2 0 0 1-3.012 0 2.107 2.107 0 0 1 0-2.967 2.2 2.2 0 0 1 3.012 0 2.111 2.111 0 0 1 0 2.967zm-.5-2.516a1.409 1.409 0 0 0-2.017 0 1.5 1.5 0 0 0 0 2.065 1.409 1.409 0 0 0 2.017 0 1.5 1.5 0 0 0 0-2.065zm-4.876 1.116h.679v1.374a2.082 2.082 0 0 1-1.627.627 2.047 2.047 0 0 1-1.492-.587 1.981 1.981 0 0 1-.6-1.483 2 2 0 0 1 .612-1.495 2.042 2.042 0 0 1 1.481-.6 2.112 2.112 0 0 1 1.443.506l-.363.518a1.424 1.424 0 0 0-.474-.278 1.8 1.8 0 0 0-.555-.078 1.425 1.425 0 0 0-1.023.394 1.414 1.414 0 0 0 .964 2.452 1.737 1.737 0 0 0 .957-.247zm-7.269-.363h1.314v.6h-1.314zm1.532-1.7v.638h-2.144v2.743h2.213v.638h-2.892v-4.019zm-5.057 0h.679v4.019h-.737l-2.276-2.933v2.933h-.679v-4.019h.679l2.334 3zm-5.248 0h.679v4.019h-.686zm-3.7 4.019v-4.019h.68v3.376h1.833v.643zM203.1 107.8h.679v1.374a2.082 2.082 0 0 1-1.627.627 2.047 2.047 0 0 1-1.492-.587 2.129 2.129 0 0 1 .012-2.978 2.036 2.036 0 0 1 1.48-.6 2.107 2.107 0 0 1 1.443.506l-.361.518a1.429 1.429 0 0 0-.476-.278 1.787 1.787 0 0 0-.555-.078 1.425 1.425 0 0 0-1.023.394 1.415 1.415 0 0 0 .964 2.452 1.733 1.733 0 0 0 .957-.247zm-5.184.413l-.73-1.654-.73 1.654zm-1.736.627l-.4.914h-.725l1.77-4.019h.725l1.77 4.019h-.724l-.4-.914zm-2.965-2.483v3.4h-.679v-3.4h-1.218v-.621h3.117v.621z" class="cls-3" data-name="Path 2879" transform="translate(677.794 1222.976)"/>
    </g>
</svg>
