<svg xmlns="http://www.w3.org/2000/svg" width="32" height="32" viewBox="0 0 32 32">
    <defs>
        <style>
            .cls-1{fill:#0077b5}
        </style>
    </defs>
    <path id="logo-linkedin" d="M93.441 64H66.734A2.611 2.611 0 0 0 64 66.492v26.766A2.816 2.816 0 0 0 66.734 96h26.7A2.673 2.673 0 0 0 96 93.258V66.492A2.454 2.454 0 0 0 93.441 64zM73.919 90.674h-4.584V76.42h4.585zm-2.134-16.421h-.033a2.493 2.493 0 1 1 .033 0zm18.889 16.421h-4.585V82.88c0-1.867-.667-3.142-2.326-3.142a2.508 2.508 0 0 0-2.351 1.692 3.087 3.087 0 0 0-.158 1.125v8.119H76.67V76.42h4.585v1.98a4.641 4.641 0 0 1 4.134-2.317c3.009 0 5.285 1.984 5.285 6.26z" class="cls-1" transform="translate(-64 -64)"/>
</svg>
