<svg xmlns="http://www.w3.org/2000/svg" width="98.028" height="100" viewBox="0 0 98.028 100">
    <defs>
        <style>
            .cls-1,.cls-3{fill:#bcbcbc}.cls-1{clip-rule:evenodd}.cls-2{clip-path:url(#clip-path)}.cls-4{clip-path:url(#clip-path-2)}.cls-5{clip-path:url(#clip-path-3)}
        </style>
        <clipPath id="clip-path">
            <path id="Path_2889" d="M222.741 177.263c-6.178 0-11.186 4.72-11.186 10.545a9.959 9.959 0 0 0 .177 1.872c.651 3.426 4.158 8.249 5.222 12.742 2.045 8.629.789 18.534-4.864 25.445a9.325 9.325 0 0 1-.835.9c-5.119 4.838-15.166 3.853-18.441-2.294 1.816 5.346 6.3 11.832 11.446 14.864 7.461 4.4 13.407-3.969 18.48-3.969s11.019 8.365 18.48 3.969c5.148-3.032 9.63-9.518 11.446-14.864-3.275 6.147-13.322 7.131-18.441 2.294a9.688 9.688 0 0 1-.836-.9c-5.65-6.911-6.907-16.816-4.862-25.445 1.066-4.493 4.572-9.317 5.222-12.742a9.956 9.956 0 0 0 .176-1.872c0-5.825-5.007-10.545-11.184-10.545" class="cls-1" data-name="Path 2889" transform="translate(-192.815 -177.263)"/>
        </clipPath>
        <clipPath id="clip-path-2">
            <path id="Path_2890" d="M226.85 203.314a7.816 7.816 0 0 1 8.035-7.575 8.085 8.085 0 0 1 7.24 4.288 28.126 28.126 0 0 1 1.215 21.072c-3.275 6.147-13.322 7.131-18.441 2.294 7.865-.081 9.713-9.766 4.728-14.349a7.383 7.383 0 0 1-2.776-5.728" class="cls-1" data-name="Path 2890" transform="translate(-224.898 -195.739)"/>
        </clipPath>
        <clipPath id="clip-path-3">
            <path id="Path_2891" d="M209.64 203.314a7.816 7.816 0 0 0-8.035-7.575 8.084 8.084 0 0 0-7.24 4.288 28.126 28.126 0 0 0-1.215 21.072c3.275 6.147 13.322 7.131 18.441 2.294-7.865-.081-9.713-9.766-4.729-14.349a7.381 7.381 0 0 0 2.778-5.728" class="cls-1" data-name="Path 2891" transform="translate(-191.66 -195.739)"/>
        </clipPath>
    </defs>
    <g id="logo1" transform="translate(-178.027 -177.263)">
        <g id="Group_3224" data-name="Group 3224" transform="translate(197.115 177.263)">
            <g id="Group_3223" class="cls-2" data-name="Group 3223">
                <path id="Rectangle_590" d="M0 0h59.852v68.469H0z" class="cls-3" data-name="Rectangle 590" transform="translate(.001)"/>
            </g>
        </g>
        <g id="Group_3226" data-name="Group 3226" transform="translate(238.526 201.111)">
            <g id="Group_3225" class="cls-4" data-name="Group 3225">
                <path id="Rectangle_591" d="M0 0h19.931v32.491H0z" class="cls-3" data-name="Rectangle 591" transform="translate(.001)"/>
            </g>
        </g>
        <g id="Group_3228" data-name="Group 3228" transform="translate(195.624 201.111)">
            <g id="Group_3227" class="cls-5" data-name="Group 3227">
                <path id="Rectangle_594" d="M0 0h19.931v32.491H0z" class="cls-3" data-name="Rectangle 594"/>
            </g>
        </g>
        <path id="Path_2892" d="M264.02 238.938h2.56l3.612 6.189 3.393-6.189h2.47l-4.724 8.352v4.492h-2.379v-4.492zm-14.12 12.844v-12.844h2.379l6.78 9.359v-9.359h2.29v12.844h-2.381l-6.778-9.555v9.555zm-9.03-10.392l-4.23 10.392h-2.443l5.453-12.844h2.56l5.567 12.844h-2.56zm-33.107 10.392v-12.844h2.468l4.355 9.745 4.267-9.745h2.379v12.844h-2.2v-8.945l-3.485 8.945h-2.029l-3.555-8.945v8.945zm-16.149-6.4c-.094-4.351 2.149-6.53 6.45-6.53q6.345 0 6.348 6.53 0 6.492-6.348 6.492c-4.109-.003-6.358-2.165-6.452-6.495zm2.471-.053q0 4.478 3.979 4.479 3.876 0 3.877-4.479 0-4.409-3.877-4.411-3.983-.003-3.981 4.408zm33.787-4.294h2.15a2.08 2.08 0 0 1 0 4.16h-2.614v-4.16zm2.15 6.252a4.173 4.173 0 0 0 0-8.346h-4.993v12.844h2.379v-4.5zm-41.307 3.959a10.58 10.58 0 0 1-3.77.629q-6.916 0-6.916-6.689 0-6.331 6.916-6.334a10.637 10.637 0 0 1 3.77.629v2.154a8.973 8.973 0 0 0-3.593-.716q-4.62 0-4.622 4.267 0 4.625 4.622 4.622a8.973 8.973 0 0 0 3.593-.718z" class="cls-3" data-name="Path 2892" transform="translate(0 17.906)"/>
        <path id="Path_2893" d="M253.523 253.387h1.244v.572h-1.244zm1.451-1.612v.605h-2.032v2.6h2.1v.605H252.3v-3.808zm-5.612 1.945a1.175 1.175 0 0 0 .74-.169.676.676 0 0 0 .2-.542.579.579 0 0 0-.2-.511 1.332 1.332 0 0 0-.718-.139h-.818v1.362zm1.6-.709a1.105 1.105 0 0 1-.822 1.187l1 1.384h-.817l-.909-1.28h-.845v1.28h-.641v-3.808h1.416a2.058 2.058 0 0 1 1.247.294 1.123 1.123 0 0 1 .366.943zm-5.8.376h1.244v.572h-1.244zm1.451-1.612v.605h-2.03v2.6h2.1v.605h-2.739v-3.808zm-7.322 3.808v-3.808h.643v1.651h1.89v-1.651h.643v3.808h-.643v-1.558h-1.89v1.558zm-4.188-3.306a.847.847 0 0 0-.461.114.387.387 0 0 0-.179.346.4.4 0 0 0 .179.354 2.686 2.686 0 0 0 .765.265 2.116 2.116 0 0 1 .883.4.947.947 0 0 1 .3.755 1 1 0 0 1-.376.808 1.5 1.5 0 0 1-.986.31 2.315 2.315 0 0 1-1.585-.614l.4-.485a1.814 1.814 0 0 0 1.2.5.814.814 0 0 0 .492-.133.419.419 0 0 0 .183-.354.4.4 0 0 0-.172-.343 1.813 1.813 0 0 0-.591-.223 5.382 5.382 0 0 1-.636-.185 1.454 1.454 0 0 1-.387-.221.92.92 0 0 1-.338-.785.956.956 0 0 1 .383-.814 1.555 1.555 0 0 1 .951-.285 2.313 2.313 0 0 1 .724.119 1.905 1.905 0 0 1 .621.338l-.343.485a1.3 1.3 0 0 0-.457-.25 1.749 1.749 0 0 0-.573-.102zm-3.91 1.11h1.246v.572h-1.246zm1.452-1.612v.605h-2.03v2.6h2.1v.605h-2.739v-3.808zm-4.48 3.281a2.085 2.085 0 0 1-2.853 0 2 2 0 0 1 0-2.81 2.089 2.089 0 0 1 2.853 0 2 2 0 0 1 0 2.81zm-.471-2.381a1.331 1.331 0 0 0-1.91 0 1.42 1.42 0 0 0 0 1.954 1.334 1.334 0 0 0 1.91 0 1.419 1.419 0 0 0 0-1.954zm-4.618 1.056h.643v1.3a1.972 1.972 0 0 1-1.541.594 1.943 1.943 0 0 1-1.413-.555 1.878 1.878 0 0 1-.569-1.4 1.9 1.9 0 0 1 .58-1.416 1.934 1.934 0 0 1 1.4-.567 2 2 0 0 1 1.367.479l-.343.491a1.305 1.305 0 0 0-.449-.263 1.664 1.664 0 0 0-.525-.075 1.355 1.355 0 0 0-.969.373 1.34 1.34 0 0 0 .913 2.323 1.645 1.645 0 0 0 .906-.235zm-6.885-.343h1.244v.572h-1.244zm1.451-1.612v.605h-2.03v2.6h2.1v.605h-2.739v-3.808zm-4.79 0h.643v3.808h-.7l-2.156-2.778v2.778H210v-3.808h.643l2.211 2.844zm-4.971 0h.643v3.808h-.643zm-3.5 3.808v-3.808h.644v3.2h1.736v.611zm-1.9-1.852h.643v1.3a1.972 1.972 0 0 1-1.541.594 1.943 1.943 0 0 1-1.413-.555 2.017 2.017 0 0 1 .012-2.82 1.928 1.928 0 0 1 1.4-.567 2 2 0 0 1 1.367.479l-.342.491a1.31 1.31 0 0 0-.45-.263 1.653 1.653 0 0 0-.525-.075 1.355 1.355 0 0 0-.969.373 1.428 1.428 0 0 0-.01 1.956 1.28 1.28 0 0 0 .923.368 1.642 1.642 0 0 0 .906-.235zm-4.91.392l-.692-1.568-.692 1.568zm-1.644.594l-.381.866h-.687l1.677-3.808h.687l1.677 3.808h-.685l-.382-.866zm-2.809-2.353v3.219h-.643v-3.219h-1.154v-.589h2.952v.589z" class="cls-3" data-name="Path 2893" transform="translate(3.864 21.638)"/>
    </g>
</svg>
