<svg xmlns="http://www.w3.org/2000/svg" width="98.028" height="100" viewBox="0 0 98.028 100">
    <defs>
        <style>
            .cls-1,.cls-3{fill:#bcbcbc}.cls-1{clip-rule:evenodd}.cls-2{clip-path:url(#clip-path)}.cls-4{clip-path:url(#clip-path-2)}.cls-5{clip-path:url(#clip-path-3)}.cls-6{clip-path:url(#clip-path-4)}.cls-7{clip-path:url(#clip-path-5)}.cls-8{clip-path:url(#clip-path-6)}.cls-9{clip-path:url(#clip-path-7)}.cls-10{clip-path:url(#clip-path-8)}
        </style>
        <clipPath id="clip-path">
            <path id="Path_3175" d="M88.167 609.263a11.67 11.67 0 0 1 11.67 11.67v42.01a11.67 11.67 0 0 1-23.339 0v-42.01a11.669 11.669 0 0 1 11.67-11.67" class="cls-1" data-name="Path 3175" transform="translate(-76.497 -609.263)"/>
        </clipPath>
        <clipPath id="clip-path-2">
            <path id="Path_3176" d="M88.562 609.377a11.672 11.672 0 0 1 9.813 11.523v42.01a11.674 11.674 0 0 1-16.853 10.458 11.923 11.923 0 0 0 1.857.147 11.669 11.669 0 0 0 11.67-11.67v-42.01a11.668 11.668 0 0 0-6.487-10.458" class="cls-1" data-name="Path 3176" transform="translate(-81.522 -609.377)"/>
        </clipPath>
        <clipPath id="clip-path-3">
            <path id="Path_3177" d="M85.517 615.881l.065-.136m-24.489 58.868a11.672 11.672 0 0 1-3.743-22.726 8.704 8.704 0 0 0-.227.08 43.51 43.51 0 0 0 26.872-29.953c.33-1.3.376-2.344.629-3.522v-.025l.015-.068.021-.087.059-.243c.017-.07.035-.138.054-.208l.008-.026c.015-.058.032-.118.05-.177l.005-.019c.028-.1.057-.191.088-.287l.008-.025.01-.032.005-.013.053-.152.014-.044.025-.067.01-.032.043-.115.041-.11.018-.047.006-.018q.141-.362.314-.731l.006-.014.009-.016v-.01l.013-.027.01-.019.052-.108.013-.027v-.006c.086-.173.178-.347.275-.52l.009-.016.034-.059c.063-.11.128-.218.194-.327q.219-.352.461-.689c.041-.057.081-.114.124-.169a11.7 11.7 0 0 1 1.044-1.216q.128-.13.259-.256a11.622 11.622 0 0 1 6.065-3.055c.129-.023.259-.044.39-.061l.2-.026c.066-.008.132-.016.2-.021s.132-.014.2-.019.133-.012.2-.016l.2-.013.2-.008.2-.005h.439l.237.006c.079 0 .157.006.236.012l.236.017.234.022.232.025c.155.019.308.04.462.066s.3.052.454.083c.076.016.151.031.226.049l.223.052.222.057.221.059.218.066c.072.023.145.045.217.07l.214.073c.214.075.425.156.632.243.07.028.138.059.208.089s.136.061.2.093a11.665 11.665 0 0 1 3.12 2.125q.321.306.62.635a11.757 11.757 0 0 1 1.553 2.168c.072.132.142.262.209.4l.1.2q.2.4.359.826c.028.07.054.141.08.212s.052.141.076.213a11.5 11.5 0 0 1 .565 3.951c-.217 13.963-13.006 32.9-23.267 41.416-3.648 3.036-17.284 12.122-23.262 12.122z" class="cls-1" data-name="Path 3177" transform="translate(-49.422 -609.263)"/>
        </clipPath>
        <clipPath id="clip-path-4">
            <path id="Path_3178" d="M49.423 620.933c-.243 34.685 23.339 10.935 23.339 0a11.67 11.67 0 0 0-23.339 0" class="cls-1" data-name="Path 3178" transform="translate(-49.422 -609.263)"/>
        </clipPath>
        <clipPath id="clip-path-5">
            <path id="Path_3179" d="M84 657.274l.5-.461c11.437-10.7 22.382-26.475 22.659-37.742a10.237 10.237 0 0 0-.456-1.95c-3.815-11.1-19.882-10.246-22.446 1.368-.254 1.178-.3 2.224-.63 3.522a43.511 43.511 0 0 1-26.872 29.953 11.554 11.554 0 0 0-2.7 1.4c-7.973 5.909-1.113 21.514 13.887 14.638A59.958 59.958 0 0 0 84 657.274" class="cls-1" data-name="Path 3179" transform="translate(-50.693 -609.267)"/>
        </clipPath>
        <clipPath id="clip-path-6">
            <path id="Path_3180" d="M76.5 657.267c8.241-7.64 25.735-27.973 22.7-40.153-3.819-11.12-19.972-10.143-22.454 1.406l-.248 2.4z" class="cls-1" data-name="Path 3180" transform="translate(-76.497 -609.293)"/>
        </clipPath>
        <clipPath id="clip-path-7">
            <path id="Path_3181" d="M72.109 616.624c-.08 7.125-7.134 14.628-13.319 16.986a7.836 7.836 0 0 1-7.81-1.126c5.661 12.652 21.331-4.778 21.331-13.692a11.763 11.763 0 0 0-.2-2.168" class="cls-1" data-name="Path 3181" transform="translate(-50.979 -616.624)"/>
        </clipPath>
        <clipPath id="clip-path-8">
            <path id="Path_3182" d="M76.5 661.066a11.626 11.626 0 0 0 1.03 4.8 64.272 64.272 0 0 0 22.309-38.543v-8.269a11.665 11.665 0 0 0-.484-3.337c.074.27.138.545.194.822v.01c.043.212.077.427.107.644a13.479 13.479 0 0 1 .11 2c-.217 13.963-13.006 32.9-23.267 41.416zm23.1-44.247l.005.032v-.01z" class="cls-1" data-name="Path 3182" transform="translate(-76.497 -615.719)"/>
        </clipPath>
    </defs>
    <g id="logo5" transform="translate(-34.027 -609.263)">
        <g id="Group_3272" data-name="Group 3272" transform="translate(88.845 609.263)">
            <g id="Group_3271" class="cls-2" data-name="Group 3271">
                <path id="Rectangle_615" d="M0 0h23.339v65.35H0z" class="cls-3" data-name="Rectangle 615" transform="translate(-.001)"/>
            </g>
        </g>
        <g id="Group_3274" data-name="Group 3274" transform="translate(95.331 609.41)">
            <g id="Group_3273" class="cls-4" data-name="Group 3273">
                <path id="Rectangle_616" d="M0 0h16.853v65.202H0z" class="cls-3" data-name="Rectangle 616"/>
            </g>
        </g>
        <g id="Group_3276" data-name="Group 3276" transform="translate(53.898 609.263)">
            <g id="Group_3275" class="cls-5" data-name="Group 3275">
                <path id="Rectangle_617" d="M0 0h58.236v65.35H0z" class="cls-3" data-name="Rectangle 617" transform="translate(.001)"/>
            </g>
        </g>
        <g id="Group_3278" data-name="Group 3278" transform="translate(53.898 609.263)">
            <g id="Group_3277" class="cls-6" data-name="Group 3277">
                <path id="Rectangle_618" d="M0 0h23.581v46.355H0z" class="cls-3" data-name="Rectangle 618" transform="translate(-.24)"/>
            </g>
        </g>
        <g id="Group_3280" data-name="Group 3280" transform="translate(55.538 609.268)">
            <g id="Group_3279" class="cls-7" data-name="Group 3279">
                <path id="Rectangle_619" d="M0 0h61.079v68.861H0z" class="cls-3" data-name="Rectangle 619" transform="translate(-4.615 -3.247)"/>
            </g>
        </g>
        <g id="Group_3282" data-name="Group 3282" transform="translate(88.845 609.301)">
            <g id="Group_3281" class="cls-8" data-name="Group 3281">
                <path id="Rectangle_620" d="M0 0h25.736v51.272H0z" class="cls-3" data-name="Rectangle 620" transform="translate(-.001 -3.298)"/>
            </g>
        </g>
        <g id="Group_3284" data-name="Group 3284" transform="translate(55.908 618.764)">
            <g id="Group_3283" class="cls-9" data-name="Group 3283">
                <path id="Rectangle_621" d="M0 0h21.332v28.513H0z" class="cls-3" data-name="Rectangle 621" transform="translate(-.001)"/>
            </g>
        </g>
        <g id="Group_3286" data-name="Group 3286" transform="translate(88.845 617.596)">
            <g id="Group_3285" class="cls-10" data-name="Group 3285">
                <path id="Rectangle_622" d="M0 0h23.339v50.449H0z" class="cls-3" data-name="Rectangle 622" transform="translate(-.001 -.3)"/>
            </g>
        </g>
        <path id="Path_3183" d="M120.02 670.938h2.56l3.612 6.189 3.393-6.189h2.471l-4.724 8.354v4.489h-2.379v-4.489zm-14.12 12.843v-12.843h2.379l6.78 9.359v-9.359h2.29v12.843h-2.381l-6.778-9.554v9.554zm-9.03-10.391l-4.23 10.391h-2.446l5.453-12.843h2.56l5.567 12.843h-2.56zm-33.109 10.391v-12.843h2.468l4.355 9.745 4.267-9.745h2.379v12.843h-2.2v-8.942l-3.485 8.942h-2.031l-3.555-8.942v8.942zm-16.149-6.4c-.093-4.35 2.149-6.527 6.45-6.527q6.345 0 6.348 6.527 0 6.494-6.348 6.494c-4.107-.004-6.354-2.166-6.45-6.498zm2.471-.052q0 4.48 3.979 4.479 3.876 0 3.877-4.479 0-4.409-3.877-4.411-3.983-.003-3.979 4.408zm33.787-4.294h2.15a2.08 2.08 0 0 1 0 4.16h-2.614v-4.16zm2.15 6.254a4.174 4.174 0 0 0 0-8.347h-4.993v12.843h2.379v-4.5zm-41.307 3.956a10.551 10.551 0 0 1-3.77.63q-6.916 0-6.916-6.689 0-6.333 6.916-6.332a10.638 10.638 0 0 1 3.77.627v2.156a8.949 8.949 0 0 0-3.592-.718q-4.622 0-4.623 4.267 0 4.626 4.623 4.622a8.971 8.971 0 0 0 3.592-.718z" class="cls-3" data-name="Path 3183" transform="translate(0 17.907)"/>
        <path id="Path_3184" d="M109.523 685.388h1.244v.57h-1.244zm1.451-1.612v.6h-2.032v2.6h2.1v.605H108.3v-3.806zm-5.612 1.944a1.175 1.175 0 0 0 .74-.169.677.677 0 0 0 .2-.542.579.579 0 0 0-.2-.511 1.329 1.329 0 0 0-.718-.139h-.817v1.362zm1.6-.709a1.1 1.1 0 0 1-.822 1.188l1 1.384h-.817l-.909-1.28h-.844v1.28h-.644v-3.806h1.417a2.05 2.05 0 0 1 1.247.293 1.125 1.125 0 0 1 .367.941zm-5.8.377h1.244v.57h-1.244zm1.452-1.612v.6h-2.032v2.6h2.1v.605h-2.743v-3.806zm-7.324 3.806v-3.806h.643v1.65h1.89v-1.65h.643v3.806h-.643v-1.558h-1.89v1.558zm-4.19-3.305a.847.847 0 0 0-.461.114.385.385 0 0 0-.179.346.4.4 0 0 0 .179.354 2.688 2.688 0 0 0 .765.265 2.132 2.132 0 0 1 .883.4.946.946 0 0 1 .3.754 1 1 0 0 1-.377.809 1.5 1.5 0 0 1-.985.31 2.32 2.32 0 0 1-1.585-.614l.4-.484a1.812 1.812 0 0 0 1.2.5.814.814 0 0 0 .492-.133.419.419 0 0 0 .183-.354.4.4 0 0 0-.172-.343 1.784 1.784 0 0 0-.591-.223 5.748 5.748 0 0 1-.638-.185 1.467 1.467 0 0 1-.386-.221.92.92 0 0 1-.338-.785.956.956 0 0 1 .383-.814 1.556 1.556 0 0 1 .951-.285 2.31 2.31 0 0 1 .724.119 1.928 1.928 0 0 1 .621.338l-.343.485a1.3 1.3 0 0 0-.457-.25 1.75 1.75 0 0 0-.569-.103zm-3.91 1.111h1.246v.57h-1.244zm1.452-1.612v.6h-2.03v2.6h2.1v.605h-2.741v-3.806zm-4.48 3.28a2.087 2.087 0 0 1-2.854 0 2 2 0 0 1 0-2.81 2.09 2.09 0 0 1 2.854 0 2 2 0 0 1 0 2.81zm-.471-2.381a1.334 1.334 0 0 0-1.91 0 1.42 1.42 0 0 0 0 1.954 1.334 1.334 0 0 0 1.91 0 1.42 1.42 0 0 0 0-1.954zm-4.618 1.057h.643v1.3a1.974 1.974 0 0 1-1.541.594 1.943 1.943 0 0 1-1.413-.555 1.878 1.878 0 0 1-.569-1.4 1.9 1.9 0 0 1 .58-1.416 1.933 1.933 0 0 1 1.4-.567 2 2 0 0 1 1.367.479l-.343.49a1.344 1.344 0 0 0-.449-.265 1.7 1.7 0 0 0-.525-.074 1.355 1.355 0 0 0-.969.373 1.34 1.34 0 0 0 .911 2.323 1.646 1.646 0 0 0 .907-.235zm-6.885-.343h1.244v.57h-1.243zm1.451-1.612v.6H71.61v2.6h2.1v.605h-2.743v-3.806zm-4.79 0h.643v3.806h-.7l-2.153-2.783v2.778H66v-3.806h.643l2.211 2.842zm-4.971 0h.643v3.806h-.643zm-3.5 3.806v-3.806h.644v3.2h1.736v.61zm-1.9-1.851h.643v1.3a1.972 1.972 0 0 1-1.541.594 1.943 1.943 0 0 1-1.413-.555 2.02 2.02 0 0 1 .012-2.82 1.931 1.931 0 0 1 1.4-.567 2 2 0 0 1 1.367.479l-.342.49a1.336 1.336 0 0 0-.45-.265 1.692 1.692 0 0 0-.525-.074 1.355 1.355 0 0 0-.969.373 1.428 1.428 0 0 0-.01 1.956 1.28 1.28 0 0 0 .923.368 1.641 1.641 0 0 0 .906-.235zm-4.91.391l-.692-1.57-.692 1.57zm-1.644.592l-.381.867h-.687l1.677-3.806h.687l1.677 3.806h-.685l-.382-.867zm-2.809-2.352v3.219h-.643v-3.219h-1.157v-.587h2.952v.587z" class="cls-3" data-name="Path 3184" transform="translate(3.864 21.638)"/>
    </g>
</svg>
