<svg xmlns="http://www.w3.org/2000/svg" width="114.375" height="116.675" viewBox="0 0 114.375 116.675">
    <defs>
        <style>
            .cls-1,.cls-3{fill:#6b007f}.cls-1{clip-rule:evenodd}.cls-2{clip-path:url(#clip-path)}.cls-4{clip-path:url(#clip-path-2)}.cls-5{clip-path:url(#clip-path-3)}
        </style>
        <clipPath id="clip-path">
            <path id="Path_2889" d="M227.732 177.263c-7.208 0-13.051 5.507-13.051 12.3a11.62 11.62 0 0 0 .206 2.184c.759 4 4.851 9.625 6.093 14.867 2.385 10.068.92 21.624-5.675 29.688a10.878 10.878 0 0 1-.974 1.047c-5.973 5.645-17.7 4.5-21.516-2.676 2.119 6.238 7.349 13.805 13.355 17.343 8.7 5.129 15.643-4.631 21.561-4.631s12.857 9.76 21.561 4.631c6.006-3.538 11.236-11.105 13.355-17.343-3.821 7.172-15.543 8.321-21.516 2.676a11.3 11.3 0 0 1-.976-1.047c-6.592-8.063-8.059-19.62-5.673-29.687 1.244-5.242 5.334-10.87 6.093-14.867a11.616 11.616 0 0 0 .2-2.184c0-6.8-5.842-12.3-13.049-12.3" class="cls-1" data-name="Path 2889" transform="translate(-192.815 -177.263)"/>
        </clipPath>
        <clipPath id="clip-path-2">
            <path id="Path_2890" d="M227.175 204.578a9.119 9.119 0 0 1 9.375-8.839 9.434 9.434 0 0 1 8.447 5 32.816 32.816 0 0 1 1.417 24.585c-3.821 7.172-15.543 8.321-21.516 2.676 9.176-.095 11.333-11.394 5.516-16.742a8.615 8.615 0 0 1-3.239-6.684" class="cls-1" data-name="Path 2890" transform="translate(-224.898 -195.739)"/>
        </clipPath>
        <clipPath id="clip-path-3">
            <path id="Path_2891" d="M212.639 204.578a9.119 9.119 0 0 0-9.375-8.839 9.432 9.432 0 0 0-8.447 5 32.816 32.816 0 0 0-1.417 24.585c3.821 7.172 15.543 8.321 21.516 2.676-9.176-.095-11.333-11.394-5.518-16.742a8.611 8.611 0 0 0 3.241-6.684" class="cls-1" data-name="Path 2891" transform="translate(-191.66 -195.739)"/>
        </clipPath>
    </defs>
    <g id="logo1">
        <g id="Group_3224" data-name="Group 3224" transform="translate(22.271)">
            <g id="Group_3223" class="cls-2" data-name="Group 3223">
                <path id="Rectangle_590" d="M0 0h69.833v79.886H0z" class="cls-3" data-name="Rectangle 590" transform="translate(.001)"/>
            </g>
        </g>
        <g id="Group_3226" data-name="Group 3226" transform="translate(70.588 27.825)">
            <g id="Group_3225" class="cls-4" data-name="Group 3225">
                <path id="Rectangle_591" d="M0 0h23.255v37.908H0z" class="cls-3" data-name="Rectangle 591" transform="translate(.001)"/>
            </g>
        </g>
        <g id="Group_3228" data-name="Group 3228" transform="translate(20.531 27.825)">
            <g id="Group_3227" class="cls-5" data-name="Group 3227">
                <path id="Rectangle_594" d="M0 0h23.255v37.908H0z" class="cls-3" data-name="Rectangle 594"/>
            </g>
        </g>
        <path id="Path_2892" d="M278.36 238.953h2.986l4.214 7.221 3.959-7.221h2.881l-5.51 9.747v5.241h-2.776V248.7zm-16.477 14.986v-14.986h2.776l7.911 10.92v-10.92h2.672v14.986h-2.779l-7.908-11.149v11.149zm-10.536-12.125l-4.935 12.125h-2.851l6.363-14.986h2.986l6.5 14.986h-2.986zm-38.627 12.125v-14.986h2.88l5.081 11.37 4.979-11.37h2.776v14.986h-2.569V243.5l-4.067 10.439h-2.367l-4.149-10.439v10.437zm-18.842-7.471c-.11-5.077 2.507-7.619 7.525-7.619q7.4 0 7.407 7.619 0 7.574-7.407 7.575c-4.792 0-7.415-2.523-7.525-7.575zm2.882-.062q0 5.225 4.643 5.226 4.523 0 4.524-5.226 0-5.144-4.524-5.146-4.644 0-4.643 5.146zm39.421-5.01h2.509a2.427 2.427 0 0 1 0 4.854h-3.05v-4.85zm2.509 7.295a4.869 4.869 0 0 0 0-9.738h-5.825v14.986h2.776v-5.248zm-48.19 4.619a12.344 12.344 0 0 1-4.4.733q-8.069 0-8.069-7.8 0-7.387 8.069-7.39a12.411 12.411 0 0 1 4.4.733v2.514a10.469 10.469 0 0 0-4.193-.836q-5.39 0-5.393 4.979 0 5.4 5.393 5.393a10.47 10.47 0 0 0 4.193-.837z" class="cls-3" data-name="Path 2892" transform="translate(-178.027 -146.101)"/>
        <path id="Path_2893" d="M263.9 253.671h1.452v.667H263.9zm1.693-1.881v.706h-2.37v3.03h2.447v.706h-3.2v-4.442zm-6.548 2.27a1.371 1.371 0 0 0 .863-.2.788.788 0 0 0 .23-.633.675.675 0 0 0-.236-.6 1.554 1.554 0 0 0-.837-.163h-.955v1.589zm1.861-.827a1.289 1.289 0 0 1-.959 1.385l1.163 1.614h-.953l-1.06-1.494h-.986v1.494h-.748v-4.442h1.652a2.4 2.4 0 0 1 1.455.343 1.31 1.31 0 0 1 .43 1.1zm-6.762.438h1.452v.667h-1.452zm1.693-1.881v.706h-2.369v3.03h2.446v.706h-3.2v-4.442zm-8.544 4.443v-4.443h.75v1.926h2.2v-1.926h.75v4.443h-.75v-1.818h-2.2v1.818zm-4.887-3.857a.988.988 0 0 0-.538.132.451.451 0 0 0-.209.4.47.47 0 0 0 .209.413 3.134 3.134 0 0 0 .893.309 2.468 2.468 0 0 1 1.03.464 1.105 1.105 0 0 1 .346.881 1.171 1.171 0 0 1-.438.943 1.751 1.751 0 0 1-1.151.361 2.7 2.7 0 0 1-1.849-.717l.47-.566a2.116 2.116 0 0 0 1.4.584.95.95 0 0 0 .574-.155.488.488 0 0 0 .214-.413.466.466 0 0 0-.2-.4 2.116 2.116 0 0 0-.69-.261 6.284 6.284 0 0 1-.742-.215 1.7 1.7 0 0 1-.452-.258 1.073 1.073 0 0 1-.395-.916 1.115 1.115 0 0 1 .447-.95 1.815 1.815 0 0 1 1.11-.333 2.7 2.7 0 0 1 .845.139 2.223 2.223 0 0 1 .724.395l-.4.566a1.513 1.513 0 0 0-.533-.292 2.041 2.041 0 0 0-.671-.111zm-4.562 1.3h1.453v.667h-1.453zm1.694-1.881v.706h-2.369v3.03h2.446v.706h-3.2v-4.447zm-5.227 3.828a2.433 2.433 0 0 1-3.328 0 2.329 2.329 0 0 1 0-3.279 2.437 2.437 0 0 1 3.328 0 2.333 2.333 0 0 1 0 3.279zm-.55-2.779a1.553 1.553 0 0 0-2.229 0 1.656 1.656 0 0 0 0 2.28 1.557 1.557 0 0 0 2.229 0 1.656 1.656 0 0 0 0-2.28zm-5.388 1.232h.75v1.518a2.3 2.3 0 0 1-1.8.693 2.267 2.267 0 0 1-1.649-.648 2.192 2.192 0 0 1-.664-1.639 2.215 2.215 0 0 1 .676-1.652 2.256 2.256 0 0 1 1.637-.661 2.334 2.334 0 0 1 1.595.559l-.4.572a1.523 1.523 0 0 0-.524-.307 1.942 1.942 0 0 0-.613-.087 1.581 1.581 0 0 0-1.131.435 1.564 1.564 0 0 0 1.065 2.711 1.919 1.919 0 0 0 1.057-.274zm-8.033-.4h1.452v.667h-1.452zm1.693-1.881v.706h-2.369v3.03h2.446v.706h-3.2v-4.447zm-5.589 0h.75v4.443h-.815l-2.515-3.241v3.241h-.75v-4.448h.75l2.58 3.318zm-5.8 0h.75v4.443h-.75zm-4.084 4.443v-4.448h.751v3.73h2.026v.712zm-2.221-2.161h.75v1.518a2.3 2.3 0 0 1-1.8.693 2.267 2.267 0 0 1-1.649-.648 2.353 2.353 0 0 1 .014-3.291 2.25 2.25 0 0 1 1.636-.661 2.328 2.328 0 0 1 1.595.559l-.4.572a1.529 1.529 0 0 0-.526-.307 1.929 1.929 0 0 0-.613-.087 1.581 1.581 0 0 0-1.131.435 1.666 1.666 0 0 0-.012 2.282 1.494 1.494 0 0 0 1.077.429 1.916 1.916 0 0 0 1.057-.274zm-5.729.458l-.807-1.83-.807 1.83zm-1.919.693l-.444 1.011h-.8l1.956-4.443h.8l1.956 4.443h-.8l-.446-1.011zm-3.277-2.745v3.756h-.75v-3.756h-1.346v-.687h3.444v.687z" class="cls-3" data-name="Path 2893" transform="translate(-171.303 -139.607)"/>
    </g>
</svg>
