<svg xmlns="http://www.w3.org/2000/svg" width="100.615" height="100" viewBox="0 0 100.615 100">
    <defs>
        <style>
            .cls-1,.cls-3{fill:#bcbcbc}.cls-1{clip-rule:evenodd}.cls-2{clip-path:url(#clip-path)}
        </style>
        <clipPath id="clip-path">
            <path id="Path_2894" d="M195.437 342.233l-10.021 12.791 10.021 12.792c8.115-10.356 18.237-15.649 27.808-3.434a3.261 3.261 0 0 0 5.379 0c9.574-12.219 19.7-6.92 27.807 3.434l10.022-12.792-10.023-12.791c-8.111 10.352-18.233 15.651-27.807 3.433a3.262 3.262 0 0 0-5.379 0c-9.569 12.215-19.695 6.922-27.808-3.433m15.25 19.974L200.665 375l10.022 12.791c11.44-14.6 19.807-13.64 30.5 0L251.205 375l-10.022-12.791c-10.683 13.639-19.056 14.601-30.496-.001zm30.5-14.366c-10.689-13.64-19.056-14.6-30.5 0l-10.021-12.791 10.022-12.791c10.687 13.642 19.055 14.6 30.5 0l10.022 12.791z" class="cls-1" data-name="Path 2894" transform="translate(-185.416 -322.259)"/>
        </clipPath>
    </defs>
    <g id="logo8" transform="translate(-178.027 -322.259)">
        <g id="Group_3231" data-name="Group 3231" transform="translate(187.816 322.259)">
            <g id="Group_3230" class="cls-2" data-name="Group 3230">
                <path id="Rectangle_595" d="M0 0h81.037v65.531H0z" class="cls-3" data-name="Rectangle 595"/>
            </g>
        </g>
        <path id="Path_2895" d="M266.289 381.944h2.627l3.707 6.353 3.483-6.353h2.536l-4.849 8.573v4.609h-2.442v-4.609zm-14.495 13.182v-13.182h2.442l6.959 9.6v-9.6h2.352v13.182H261.1l-6.957-9.806v9.806zm-9.268-10.666l-4.341 10.666h-2.508l5.6-13.182h2.623l5.714 13.182h-2.627zm-33.98 10.666v-13.182h2.533l4.47 10 4.38-10h2.442v13.182h-2.26v-9.181l-3.577 9.181h-2.084l-3.649-9.181v9.181zm-16.575-6.572c-.1-4.465 2.206-6.7 6.62-6.7q6.512 0 6.515 6.7 0 6.665-6.515 6.664c-4.216 0-6.524-2.218-6.62-6.664zm2.536-.053q0 4.6 4.084 4.6 3.978 0 3.98-4.6 0-4.525-3.98-4.528-4.086 0-4.085 4.527zm34.678-4.408h2.207a2.135 2.135 0 0 1 0 4.27h-2.683v-4.27zm2.207 6.417a4.283 4.283 0 1 0 0-8.566h-5.124v13.182h2.442v-4.616zM189 394.573a10.859 10.859 0 0 1-3.87.645q-7.1 0-7.1-6.864 0-6.5 7.1-6.5a10.917 10.917 0 0 1 3.87.645v2.211a9.21 9.21 0 0 0-3.688-.737q-4.742 0-4.744 4.381 0 4.746 4.744 4.743a9.209 9.209 0 0 0 3.688-.735z" class="cls-3" data-name="Path 2895" transform="translate(0 19.357)"/>
        <path id="Path_2896" d="M255.165 396.436h1.277v.587h-1.277zm1.489-1.655v.621h-2.084v2.666h2.151v.62h-2.811v-3.907zm-5.76 2a1.206 1.206 0 0 0 .759-.174.7.7 0 0 0 .2-.556.6.6 0 0 0-.208-.526 1.37 1.37 0 0 0-.737-.142h-.84v1.4zm1.637-.727a1.135 1.135 0 0 1-.844 1.219l1.023 1.419h-.839l-.933-1.313h-.868v1.313h-.658v-3.907h1.453a2.1 2.1 0 0 1 1.28.3 1.153 1.153 0 0 1 .386.965zm-5.948.385h1.277v.587h-1.277zm1.49-1.655v.621h-2.085v2.666h2.152v.62h-2.811v-3.907zm-7.517 3.907v-3.907h.66v1.693h1.94v-1.693h.66v3.907h-.66v-1.6h-1.94v1.6zm-4.3-3.392a.869.869 0 0 0-.473.117.4.4 0 0 0-.184.355.415.415 0 0 0 .184.363 2.768 2.768 0 0 0 .786.27 2.171 2.171 0 0 1 .906.409.965.965 0 0 1 .3.774 1.031 1.031 0 0 1-.385.831 1.54 1.54 0 0 1-1.012.318 2.382 2.382 0 0 1-1.627-.631l.413-.5a1.862 1.862 0 0 0 1.231.514.845.845 0 0 0 .5-.136.43.43 0 0 0 .188-.364.408.408 0 0 0-.176-.351 1.832 1.832 0 0 0-.607-.229 5.431 5.431 0 0 1-.653-.192 1.451 1.451 0 0 1-.4-.224.945.945 0 0 1-.347-.807.98.98 0 0 1 .393-.835 1.6 1.6 0 0 1 .976-.293 2.335 2.335 0 0 1 .743.122 1.931 1.931 0 0 1 .637.347l-.352.5a1.331 1.331 0 0 0-.469-.256 1.8 1.8 0 0 0-.571-.101zm-4.013 1.139h1.278v.587h-1.278zm1.49-1.655v.621h-2.083v2.666h2.15v.62h-2.811v-3.907zm-4.6 3.368a2.144 2.144 0 0 1-2.928 0 2.052 2.052 0 0 1 0-2.884 2.144 2.144 0 0 1 2.928 0 2.052 2.052 0 0 1 0 2.884zm-.484-2.446a1.369 1.369 0 0 0-1.961 0 1.459 1.459 0 0 0 0 2.007 1.369 1.369 0 0 0 1.961 0 1.459 1.459 0 0 0 0-2.007zm-4.74 1.085h.66v1.335a2.024 2.024 0 0 1-1.582.609 1.994 1.994 0 0 1-1.451-.57 1.932 1.932 0 0 1-.584-1.441 1.952 1.952 0 0 1 .595-1.455 1.989 1.989 0 0 1 1.44-.58 2.046 2.046 0 0 1 1.4.492l-.352.5a1.393 1.393 0 0 0-.461-.273 1.751 1.751 0 0 0-.539-.074 1.391 1.391 0 0 0-.995.383 1.376 1.376 0 0 0 .937 2.385 1.688 1.688 0 0 0 .93-.241zm-7.067-.352h1.277v.587h-1.277zm1.489-1.655v.621h-2.084v2.666h2.153v.62h-2.811v-3.907zm-4.916 0h.66v3.907h-.715l-2.214-2.85v2.85h-.66v-3.907h.66l2.269 2.917zm-5.1 0h.66v3.907h-.66zm-3.593 3.907v-3.907h.661v3.28h1.782v.627zm-1.954-1.9h.66v1.335a2.024 2.024 0 0 1-1.582.609 2 2 0 0 1-1.451-.57 2.071 2.071 0 0 1 .012-2.9 1.986 1.986 0 0 1 1.439-.58 2.042 2.042 0 0 1 1.4.492l-.351.5a1.4 1.4 0 0 0-.462-.273 1.739 1.739 0 0 0-.539-.074 1.393 1.393 0 0 0-.995.383 1.376 1.376 0 0 0 .937 2.385 1.685 1.685 0 0 0 .93-.241zm-5.04.4l-.709-1.61-.711 1.61zm-1.688.609l-.391.889h-.7l1.721-3.907h.7l1.721 3.907h-.7L198 397.8zm-2.883-2.414v3.3h-.66v-3.3h-1.184v-.6h3.03v.6z" class="cls-3" data-name="Path 2896" transform="translate(4.316 23.526)"/>
    </g>
</svg>
