<svg xmlns="http://www.w3.org/2000/svg" width="98.028" height="100" viewBox="0 0 98.028 100">
    <defs>
        <style>
            .cls-1,.cls-2{fill:#bcbcbc}.cls-1{clip-rule:evenodd}.cls-3{clip-path:url(#clip-path)}.cls-4{clip-path:url(#clip-path-2)}.cls-5{clip-path:url(#clip-path-3)}.cls-6{clip-path:url(#clip-path-4)}.cls-7{clip-path:url(#clip-path-5)}.cls-8{clip-path:url(#clip-path-6)}
        </style>
        <clipPath id="clip-path">
            <path id="Path_2838" d="M63.3 74.387h17.326a6.1 6.1 0 0 0 1.082-.1c11.517-.845 18.744-7.264 22.047-17.073v11.3a23.2 23.2 0 0 1-23.129 23.133h-.984c-8.371-2.82-14.272-8.5-16.347-17.26" class="cls-1" data-name="Path 2838" transform="translate(-63.295 -57.219)"/>
        </clipPath>
        <clipPath id="clip-path-2">
            <path id="Path_2839" d="M82.439 75.484V33.263h1.5a15.707 15.707 0 0 1 15.668 15.665v15.256c-3.3 9.808-10.53 16.227-22.047 17.073a5.861 5.861 0 0 0 4.879-5.774" class="cls-1" data-name="Path 2839" transform="translate(-77.56 -33.263)"/>
        </clipPath>
        <clipPath id="clip-path-3">
            <path id="Path_2840" d="M68.6 74.356h12.19a6.1 6.1 0 0 0 1.082-.1c11.463-.842 18.675-7.2 22-16.935.03.534.045 1.074.045 1.615 0 14.926-11.525 27.514-27.267 31.42a22.823 22.823 0 0 1-13.191-16 30.5 30.5 0 0 1-.727-4.818 5.911 5.911 0 0 0 5.868 4.818" class="cls-1" data-name="Path 2840" transform="translate(-62.731 -57.326)"/>
        </clipPath>
        <clipPath id="clip-path-4">
            <path id="Path_2843" d="M75.751 90.493a37.518 37.518 0 0 0 15.315-7.417 34.846 34.846 0 0 0 6.015-6.212c4.665-6.233 5.718-11.894 5.718-19.645-.453 7.224-1.91 13.376-6.274 19.214a34.186 34.186 0 0 1-5.9 6.095 40.462 40.462 0 0 1-15.644 7.6c.254.125.51.247.771.364m-9.167 1.135z" class="cls-2" data-name="Path 2843" transform="translate(-66.584 -57.219)"/>
        </clipPath>
        <clipPath id="clip-path-5">
            <path id="Path_2844" d="M66.619 76.534c.836 11.535 7.259 18.771 17.075 22.078H72.488a23.2 23.2 0 0 1-23.13-23.129V48.928a15.708 15.708 0 0 1 15.667-15.665h1.5v42.221a5.98 5.98 0 0 0 .093 1.051" class="cls-1" data-name="Path 2844" transform="translate(-49.358 -33.263)"/>
        </clipPath>
        <clipPath id="clip-path-6">
            <path id="Path_2845" d="M66.619 75.352c.824 11.348 7.054 18.538 16.607 21.915C64.211 95.629 49.358 81.7 49.358 64.755c0-11.494 6.836-21.6 17.168-27.425V74.3a5.98 5.98 0 0 0 .093 1.051" class="cls-1" data-name="Path 2845" transform="translate(-49.358 -37.33)"/>
        </clipPath>
    </defs>
    <g id="logo4" transform="translate(-707 -1230.725)">
        <g id="Group_3157" data-name="Group 3157" transform="translate(744.778 1261.646)">
            <g id="Group_3156" class="cls-3" data-name="Group 3156">
                <path id="Rectangle_549" d="M0 0h40.46v34.428H0z" class="cls-2" data-name="Rectangle 549"/>
            </g>
        </g>
        <g id="Group_3159" data-name="Group 3159" transform="translate(763.191 1230.725)">
            <g id="Group_3158" class="cls-4" data-name="Group 3158">
                <path id="Rectangle_550" d="M0 0h22.047v47.994H0z" class="cls-2" data-name="Rectangle 550"/>
            </g>
        </g>
        <g id="Group_3161" data-name="Group 3161" transform="translate(744.05 1261.784)">
            <g id="Group_3160" class="cls-5" data-name="Group 3160">
                <path id="Rectangle_551" d="M0 0h41.186v33.035H0z" class="cls-2" data-name="Rectangle 551" transform="translate(.001)"/>
            </g>
        </g>
        <g id="Group_3167" data-name="Group 3167" transform="translate(749.023 1261.646)">
            <g id="Group_3166" class="cls-6" data-name="Group 3166">
                <path id="Rectangle_555" d="M0 0h36.214v34.409H0z" class="cls-2" data-name="Rectangle 555" transform="translate(.001)"/>
            </g>
        </g>
        <g id="Group_3169" data-name="Group 3169" transform="translate(726.789 1230.725)">
            <g id="Group_3168" class="cls-7" data-name="Group 3168">
                <path id="Rectangle_556" d="M0 0h34.337v65.349H0z" class="cls-2" data-name="Rectangle 556" transform="translate(.001)"/>
            </g>
        </g>
        <g id="Group_3171" data-name="Group 3171" transform="translate(726.789 1235.974)">
            <g id="Group_3170" class="cls-8" data-name="Group 3170">
                <path id="Rectangle_557" d="M0 0h33.867v59.937H0z" class="cls-2" data-name="Rectangle 557" transform="translate(.001)"/>
            </g>
        </g>
        <path id="Path_2846" d="M120.02 94.938h2.56l3.612 6.189 3.393-6.189h2.471l-4.724 8.352v4.492h-2.379v-4.492zm-14.12 12.844V94.938h2.379l6.78 9.359v-9.359h2.29v12.844h-2.381l-6.778-9.555v9.555zM96.87 97.39l-4.23 10.392h-2.446l5.453-12.844h2.56l5.567 12.844h-2.56zm-33.109 10.392V94.938h2.468l4.355 9.745 4.267-9.745h2.379v12.844h-2.2v-8.945l-3.485 8.945h-2.031l-3.555-8.945v8.945zm-16.149-6.4c-.093-4.35 2.149-6.529 6.45-6.529q6.345 0 6.348 6.529 0 6.494-6.348 6.492c-4.107-.004-6.354-2.165-6.45-6.496zm2.471-.052q0 4.478 3.979 4.479 3.876 0 3.877-4.479 0-4.411-3.877-4.411-3.983-.004-3.979 4.407zm33.787-4.294h2.15a2.08 2.08 0 0 1 0 4.16h-2.614v-4.16zm2.15 6.254a4.174 4.174 0 0 0 0-8.347h-4.993v12.844h2.379v-4.5zm-41.307 3.957a10.579 10.579 0 0 1-3.77.627q-6.916 0-6.916-6.689 0-6.331 6.916-6.332a10.637 10.637 0 0 1 3.77.629v2.154a8.971 8.971 0 0 0-3.592-.716q-4.622 0-4.623 4.266 0 4.627 4.623 4.623a8.971 8.971 0 0 0 3.592-.718z" class="cls-2" data-name="Path 2846" transform="translate(672.973 1215.368)"/>
        <path id="Path_2847" d="M109.523 109.387h1.244v.572h-1.244zm1.451-1.612v.605h-2.032v2.6h2.1v.605H108.3v-3.808zm-5.612 1.945a1.175 1.175 0 0 0 .74-.169.678.678 0 0 0 .2-.542.577.577 0 0 0-.2-.511 1.329 1.329 0 0 0-.718-.139h-.817v1.362zm1.6-.709a1.105 1.105 0 0 1-.822 1.188l1 1.384h-.817l-.909-1.28h-.844v1.28h-.644v-3.808h1.417a2.049 2.049 0 0 1 1.247.294 1.123 1.123 0 0 1 .367.942zm-5.8.376h1.244v.572h-1.244zm1.452-1.612v.605h-2.032v2.6h2.1v.605h-2.743v-3.808zm-7.324 3.808v-3.808h.643v1.651h1.89v-1.651h.643v3.808h-.643v-1.558h-1.89v1.558zm-4.19-3.306a.847.847 0 0 0-.461.114.384.384 0 0 0-.179.346.4.4 0 0 0 .179.354 2.687 2.687 0 0 0 .765.265 2.116 2.116 0 0 1 .883.4.946.946 0 0 1 .3.754 1 1 0 0 1-.377.809 1.5 1.5 0 0 1-.985.31 2.314 2.314 0 0 1-1.585-.614l.4-.485a1.814 1.814 0 0 0 1.2.5.814.814 0 0 0 .492-.133.419.419 0 0 0 .183-.354.4.4 0 0 0-.172-.343 1.784 1.784 0 0 0-.591-.223 5.5 5.5 0 0 1-.638-.185 1.467 1.467 0 0 1-.386-.221.921.921 0 0 1-.338-.785.956.956 0 0 1 .383-.814 1.547 1.547 0 0 1 .951-.285 2.312 2.312 0 0 1 .724.119 1.9 1.9 0 0 1 .621.338l-.343.485a1.3 1.3 0 0 0-.457-.25 1.749 1.749 0 0 0-.569-.102zm-3.91 1.11h1.246v.572h-1.244zm1.452-1.612v.605h-2.03v2.6h2.1v.605H85.97v-3.808zm-4.48 3.281a2.087 2.087 0 0 1-2.854 0 2 2 0 0 1 0-2.81 2.09 2.09 0 0 1 2.854 0 2 2 0 0 1 0 2.81zm-.471-2.381a1.331 1.331 0 0 0-1.91 0 1.42 1.42 0 0 0 0 1.954 1.334 1.334 0 0 0 1.91 0 1.42 1.42 0 0 0 0-1.954zm-4.618 1.056h.643v1.3a1.974 1.974 0 0 1-1.541.594 1.943 1.943 0 0 1-1.413-.555 2.018 2.018 0 0 1 .01-2.82 1.934 1.934 0 0 1 1.4-.567 2 2 0 0 1 1.367.479l-.343.49a1.344 1.344 0 0 0-.449-.265 1.7 1.7 0 0 0-.525-.074 1.355 1.355 0 0 0-.969.373 1.34 1.34 0 0 0 .911 2.323 1.647 1.647 0 0 0 .907-.235zm-6.885-.343h1.244v.572h-1.243zm1.451-1.612v.605H71.61v2.6h2.1v.605h-2.743v-3.808zm-4.79 0h.643v3.808h-.7l-2.153-2.784v2.778H66v-3.808h.643l2.211 2.844zm-4.971 0h.643v3.808h-.643zm-3.5 3.808v-3.808h.644v3.2h1.736v.611zm-1.9-1.852h.643v1.3a1.972 1.972 0 0 1-1.541.594 1.943 1.943 0 0 1-1.413-.555 2.02 2.02 0 0 1 .012-2.82 1.931 1.931 0 0 1 1.4-.567 2 2 0 0 1 1.367.479l-.342.49a1.336 1.336 0 0 0-.45-.265 1.693 1.693 0 0 0-.525-.074 1.355 1.355 0 0 0-.969.373 1.428 1.428 0 0 0-.01 1.955 1.28 1.28 0 0 0 .923.368 1.642 1.642 0 0 0 .906-.235zm-4.91.392l-.692-1.568-.692 1.568zm-1.644.594l-.381.866h-.687l1.677-3.808h.687l1.677 3.808h-.685l-.382-.866zm-2.809-2.353v3.219h-.643v-3.219h-1.157v-.589h2.952v.589z" class="cls-2" data-name="Path 2847" transform="translate(676.837 1219.1)"/>
    </g>
</svg>
