<svg xmlns="http://www.w3.org/2000/svg" width="91.585" height="100" viewBox="0 0 91.585 100">
    <defs>
        <style>
            .cls-1,.cls-2,.cls-4{fill:#bcbcbc}.cls-1{clip-rule:evenodd}.cls-2{fill-rule:evenodd}.cls-3{clip-path:url(#clip-path)}.cls-5{clip-path:url(#clip-path-2)}.cls-6{clip-path:url(#clip-path-3)}.cls-7{clip-path:url(#clip-path-4)}.cls-8{clip-path:url(#clip-path-5)}.cls-9{clip-path:url(#clip-path-6)}
        </style>
        <clipPath id="clip-path">
            <path id="Path_2849" d="M508.1 81a20.892 20.892 0 0 1-11.063-15.889 17.466 17.466 0 0 1 1.019-8.229c-8.961 2.947-18.633 3.492-16.683 13.9q.128.588.282 1.171c2.627 8.94 15.428 13.759 26.445 9.047" class="cls-1" data-name="Path 2849" transform="translate(-481.115 -56.877)"/>
        </clipPath>
        <clipPath id="clip-path-2">
            <path id="Path_2850" d="M481.436 76.2c-1.95-10.408 7.721-10.953 16.683-13.9 4.579-1.5 8.972-3.637 11.536-8.031a22.2 22.2 0 0 0-.874-23.731l-19.819 19.817a28.069 28.069 0 0 0-7.526 25.845" class="cls-1" data-name="Path 2850" transform="translate(-480.788 -30.538)"/>
        </clipPath>
        <clipPath id="clip-path-3">
            <path id="Path_2851" d="M508 84.368c-11.012 4.716-23.813-.1-26.445-9.047a27.787 27.787 0 0 0 7.245 12.618 28.111 28.111 0 0 0 39.636 0 27.775 27.775 0 0 0 6.6-10.5 28.118 28.118 0 0 0-6.6-29.134l-7.806-7.8a34.662 34.662 0 0 1-.52 32.338q-.588 1.112-1.26 2.154A24.3 24.3 0 0 1 508 84.368" class="cls-1" data-name="Path 2851" transform="translate(-481.559 -40.499)"/>
        </clipPath>
        <clipPath id="clip-path-4">
            <path id="Path_2852" d="M504.514 84.867a20.884 20.884 0 0 0 26.007-7.43 28.118 28.118 0 0 0-6.6-29.134l-7.806-7.8a34.662 34.662 0 0 1-.52 32.338q-.588 1.112-1.26 2.154a24.3 24.3 0 0 1-10.85 9.378q.5.262 1.026.5" class="cls-1" data-name="Path 2852" transform="translate(-503.488 -40.499)"/>
        </clipPath>
        <clipPath id="clip-path-5">
            <path id="Path_2853" d="M505.821 30.538c4.718 18.272-4.508 22.98-9.321 29.338a10.589 10.589 0 0 0-1.341 2.425c4.579-1.5 8.972-3.637 11.536-8.031a22.2 22.2 0 0 0-.874-23.731" class="cls-1" data-name="Path 2853" transform="translate(-495.159 -30.538)"/>
        </clipPath>
        <clipPath id="clip-path-6">
            <path id="Path_2857" d="M488.709 65.134c4.476-14.382 18.2-14.137 20.071-34.6l-19.818 19.821a28.069 28.069 0 0 0-7.526 25.845c-1.246-6.647 2.249-9.272 7.273-11.068" class="cls-1" data-name="Path 2857" transform="translate(-480.788 -30.538)"/>
        </clipPath>
    </defs>
    <g id="logo2" transform="translate(-1139 -1228)">
        <path id="Path_2848" d="M488.962 89.99a28.111 28.111 0 0 0 39.636 0 27.775 27.775 0 0 0 6.6-10.5 28.118 28.118 0 0 0-6.6-29.134l-7.806-7.8a34.662 34.662 0 0 1-.52 32.338q-.588 1.112-1.26 2.154a24.3 24.3 0 0 1-10.85 9.378A20.892 20.892 0 0 1 497.1 70.53a17.466 17.466 0 0 1 1.019-8.229c4.579-1.5 8.972-3.637 11.536-8.031a22.189 22.189 0 0 0-.874-23.731l-19.819 19.816a28.094 28.094 0 0 0 0 39.635" class="cls-2" data-name="Path 2848" transform="translate(676.013 1197.462)"/>
        <g id="Group_3173" data-name="Group 3173" transform="translate(1157.195 1259.763)">
            <g id="Group_3172" class="cls-3" data-name="Group 3172">
                <path id="Rectangle_560" d="M0 0h28.677v28.834H0z" class="cls-4" data-name="Rectangle 560" transform="translate(-1.697 .001)"/>
            </g>
        </g>
        <g id="Group_3175" data-name="Group 3175" transform="translate(1156.8 1228)">
            <g id="Group_3174" class="cls-5" data-name="Group 3174">
                <path id="Rectangle_561" d="M0 0h34.255v45.664H0z" class="cls-4" data-name="Rectangle 561" transform="translate(-1.318)"/>
            </g>
        </g>
        <g id="Group_3177" data-name="Group 3177" transform="translate(1157.73 1240.012)">
            <g id="Group_3176" class="cls-6" data-name="Group 3176">
                <path id="Rectangle_562" d="M0 0h56.922v58.339H0z" class="cls-4" data-name="Rectangle 562" transform="translate(0 -.001)"/>
            </g>
        </g>
        <g id="Group_3179" data-name="Group 3179" transform="translate(1184.175 1240.012)">
            <g id="Group_3178" class="cls-7" data-name="Group 3178">
                <path id="Rectangle_563" d="M0 0h30.477v48.599H0z" class="cls-4" data-name="Rectangle 563" transform="translate(0 -.001)"/>
            </g>
        </g>
        <g id="Group_3181" data-name="Group 3181" transform="translate(1174.131 1228)">
            <g id="Group_3180" class="cls-8" data-name="Group 3180">
                <path id="Rectangle_564" d="M0 0h15.605v31.764H0z" class="cls-4" data-name="Rectangle 564"/>
            </g>
        </g>
        <g id="Group_3189" data-name="Group 3189" transform="translate(1156.8 1228)">
            <g id="Group_3188" class="cls-9" data-name="Group 3188">
                <path id="Rectangle_570" d="M0 0h29.311v45.664H0z" class="cls-4" data-name="Rectangle 570" transform="translate(-1.318)"/>
            </g>
        </g>
        <path id="Path_2859" d="M546.368 97.657h2.393l3.373 5.782 3.17-5.782h2.308l-4.414 7.8v4.2h-2.221v-4.2zm-13.193 12v-12h2.225l6.335 8.743v-8.743h2.138v12h-2.225l-6.332-8.927v8.927zm-8.438-9.709l-3.952 9.709H518.5l5.1-12h2.39l5.2 12h-2.39zm-30.932 9.709v-12h2.307l4.07 9.1 3.986-9.1h2.222v12h-2.056V101.3l-3.256 8.357h-1.9l-3.318-8.357v8.357zm-15.085-5.984c-.089-4.064 2.007-6.1 6.025-6.1q5.928 0 5.932 6.1 0 6.067-5.932 6.066c-3.837 0-5.938-2.02-6.024-6.065zm2.308-.048q0 4.184 3.717 4.185 3.621 0 3.623-4.185 0-4.119-3.623-4.121-3.721-.004-3.716 4.121zm31.565-4.012h2.007a1.943 1.943 0 1 1 0 3.885h-2.442v-3.885zm2.009 5.841a3.9 3.9 0 0 0 0-7.8h-4.665v12h2.223v-4.2zm-38.592 3.7a9.862 9.862 0 0 1-3.522.587q-6.461 0-6.461-6.248 0-5.917 6.461-5.917a9.942 9.942 0 0 1 3.522.587v2.014a8.367 8.367 0 0 0-3.357-.67q-4.316 0-4.318 3.987 0 4.32 4.318 4.318a8.367 8.367 0 0 0 3.357-.67z" class="cls-4" data-name="Path 2859" transform="translate(672.973 1211.266)"/>
        <path id="Path_2860" d="M537.435 112h1.165v.533h-1.164zm1.357-1.507v.566h-1.9v2.426h1.96v.566h-2.56v-3.557zm-5.245 1.816a1.1 1.1 0 0 0 .691-.157.633.633 0 0 0 .184-.506.536.536 0 0 0-.189-.478 1.241 1.241 0 0 0-.67-.13h-.763v1.271zm1.489-.661a1.031 1.031 0 0 1-.767 1.109l.931 1.293h-.763l-.85-1.2h-.787v1.2h-.6v-3.557h1.323a1.908 1.908 0 0 1 1.164.275 1.048 1.048 0 0 1 .349.881zm-5.415.352h1.164v.533h-1.164zm1.358-1.507v.566h-1.9v2.426h1.958v.566h-2.559v-3.557zm-6.842 3.557v-3.557h.6v1.542h1.763v-1.542h.6v3.557h-.6v-1.45h-1.765v1.456zm-3.913-3.088a.794.794 0 0 0-.431.106.357.357 0 0 0-.168.323.374.374 0 0 0 .168.33 2.522 2.522 0 0 0 .716.247 1.964 1.964 0 0 1 .824.371.884.884 0 0 1 .277.7.933.933 0 0 1-.351.756 1.4 1.4 0 0 1-.921.289 2.161 2.161 0 0 1-1.481-.575l.376-.452a1.7 1.7 0 0 0 1.12.468.761.761 0 0 0 .459-.124.392.392 0 0 0 .17-.33.371.371 0 0 0-.159-.321 1.707 1.707 0 0 0-.552-.209 4.8 4.8 0 0 1-.6-.174 1.306 1.306 0 0 1-.361-.206.857.857 0 0 1-.316-.732.893.893 0 0 1 .358-.761 1.449 1.449 0 0 1 .889-.268 2.124 2.124 0 0 1 .677.113 1.754 1.754 0 0 1 .58.315l-.321.452a1.231 1.231 0 0 0-.427-.234 1.671 1.671 0 0 0-.526-.083zM516.572 112h1.163v.533h-1.163zm1.356-1.507v.566h-1.9v2.426h1.958v.566h-2.556v-3.557zm-4.186 3.067a1.953 1.953 0 0 1-2.666 0 1.872 1.872 0 0 1 0-2.626 1.95 1.95 0 0 1 2.666 0 1.869 1.869 0 0 1 0 2.626zm-.44-2.226a1.244 1.244 0 0 0-1.785 0 1.326 1.326 0 0 0 0 1.826 1.246 1.246 0 0 0 1.785 0 1.326 1.326 0 0 0 0-1.826zm-4.315.986h.6v1.216a1.844 1.844 0 0 1-1.44.555 1.815 1.815 0 0 1-1.32-.519 1.884 1.884 0 0 1 .011-2.635 1.8 1.8 0 0 1 1.31-.531 1.864 1.864 0 0 1 1.277.449l-.321.458a1.244 1.244 0 0 0-.42-.247 1.593 1.593 0 0 0-.491-.069 1.263 1.263 0 0 0-.906.349 1.334 1.334 0 0 0-.01 1.827 1.191 1.191 0 0 0 .862.342 1.54 1.54 0 0 0 .847-.218zm-6.432-.32h1.164v.533h-1.164zm1.357-1.507v.566h-1.9v2.426h1.96v.566h-2.56v-3.557zm-4.476 0h.6v3.557h-.651l-2.015-2.6v2.6h-.6v-3.557h.6l2.066 2.657zm-4.644 0h.6v3.557h-.6zm-3.271 3.557v-3.557h.6v2.987h1.622v.57zm-1.778-1.73h.6v1.216a1.843 1.843 0 0 1-1.44.555 1.811 1.811 0 0 1-1.319-.519 1.883 1.883 0 0 1 .01-2.635 1.8 1.8 0 0 1 1.31-.531 1.859 1.859 0 0 1 1.277.449l-.32.458a1.248 1.248 0 0 0-.421-.247 1.579 1.579 0 0 0-.49-.069 1.264 1.264 0 0 0-.907.349 1.334 1.334 0 0 0-.01 1.827 1.193 1.193 0 0 0 .862.342 1.541 1.541 0 0 0 .848-.218zm-4.589.367l-.646-1.465-.646 1.465zm-1.536.555l-.356.809h-.642l1.567-3.557h.642l1.567 3.557h-.64l-.357-.809zm-2.624-2.2v3.008h-.6v-3.008h-1.079v-.55h2.759v.55z" class="cls-4" data-name="Path 2860" transform="translate(675.709 1213.909)"/>
    </g>
</svg>
