<svg xmlns="http://www.w3.org/2000/svg" width="507.478" height="635.453" viewBox="0 0 507.478 635.453">
    <defs>
        <style>
            .cls-1{fill:#d1e7f4}.cls-2{fill:#ffdd4d}.cls-3{fill:#f0a32f}.cls-4{fill:#ffd22e}.cls-5{fill:#f8c22e}.cls-6{fill:#70403e}.cls-7{fill:#4f2d2b}.cls-8{fill:url(#linear-gradient)}.cls-10,.cls-9{fill:#f2c777}.cls-9{opacity:.45}.cls-10{opacity:.25}.cls-11{fill:#45446c}.cls-12{fill:#bc9371}.cls-13{fill:#ceab8b}.cls-14{fill:#ffaa81}.cls-15{fill:#d64377}.cls-16{fill:#bc4074}.cls-17{fill:#492817}.cls-18{fill:#fe912a}.cls-19{fill:#fcbd24}.cls-20{fill:#52517b}.cls-21{fill:#60c0fd}.cls-22{fill:#4040a0}.cls-23{fill:#47b6f4}.cls-24{fill:#915151}.cls-25{fill:#7a8eff}.cls-26{fill:#6984f4}.cls-27{fill:#2a2a4f}.cls-28{fill:#a7c4e4}.cls-29{fill:#f4946e}
        </style>
        <linearGradient id="linear-gradient" x1="-4.91" x2="-3.91" y1=".5" y2=".5" gradientUnits="objectBoundingBox">
            <stop offset="0" stop-color="#f2c777"/>
            <stop offset=".547" stop-color="#f4ab48"/>
            <stop offset="1" stop-color="#f7931e"/>
        </linearGradient>
    </defs>
    <g id="mission" transform="translate(-880.719 -102.111)">
        <ellipse id="Ellipse_80" cx="129.209" cy="7.817" class="cls-1" data-name="Ellipse 80" rx="129.209" ry="7.817" transform="translate(920.166 721.93)"/>
        <path id="Path_4419" d="M1376.412 956.894c0 2.664-18.841 4.824-42.084 4.824s-42.084-2.16-42.084-4.824 18.841-4.825 42.084-4.825 42.084 2.16 42.084 4.825z" class="cls-1" data-name="Path 4419" transform="translate(-109.978 -227.147)"/>
        <path id="Path_4420" d="M1521.08 956.894c0 2.664-18.842 4.824-42.085 4.824s-42.084-2.16-42.084-4.824 18.842-4.825 42.084-4.825 42.085 2.16 42.085 4.825z" class="cls-1" data-name="Path 4420" transform="translate(-148.639 -227.147)"/>
        <g id="Group_3905" data-name="Group 3905" transform="translate(880.719 243.356)">
            <g id="Group_3902" data-name="Group 3902" transform="translate(0 10.606)">
                <path id="Path_4421" d="M979.4 463.651c-56.957-14.144-80.7-53.091-90.6-83.272a165.361 165.361 0 0 1-7.694-61.836 10.216 10.216 0 0 1 10.166-9.2h44.952v20.432h-35.049a149.223 149.223 0 0 0 7.261 44.873c12.143 36.409 37.677 59.681 75.894 69.171z" class="cls-2" data-name="Path 4421" transform="translate(-880.719 -309.344)"/>
                <path id="Path_4422" d="M1216.445 463.651l-4.925-19.831c38.217-9.49 63.75-32.762 75.894-69.171a149.2 149.2 0 0 0 7.262-44.873h-35.059v-20.432h44.952a10.215 10.215 0 0 1 10.165 9.2 165.37 165.37 0 0 1-7.694 61.836c-9.892 30.18-33.64 69.128-90.595 83.271z" class="cls-3" data-name="Path 4422" transform="translate(-969.124 -309.344)"/>
            </g>
            <path id="Path_4423" d="M1138.358 721.445h-67.809l6.85-113.858h54.109z" class="cls-4" data-name="Path 4423" transform="translate(-931.45 -378.442)"/>
            <path id="Path_4424" d="M1089.125 638.6c7.083 13.678 26.566 29.107 40.327 32.041 9.5 1.971 7.73-11.585 7.5-16.38l-2.827-46.984c-17.53 0-36.55-2.077-53.792.251.976 9.332 3.255 20.546 8.792 31.072z" class="cls-3" data-name="Path 4424" transform="translate(-934.063 -378.131)"/>
            <path id="Rectangle_712" d="M0 0h139.2v28.554H0z" class="cls-5" data-name="Rectangle 712" transform="translate(103.403 328.726)"/>
            <path id="Path_4425" d="M1124.361 766.78c.093.044.188.086.281.129q9.056 2.653 18.177 5.131h33.832v-28.554h-96.381c14.717 7.704 29.054 16.208 44.091 23.294z" class="cls-3" data-name="Path 4425" transform="translate(-934.048 -414.76)"/>
            <rect id="Rectangle_713" width="197.735" height="135.351" class="cls-6" data-name="Rectangle 713" rx="4.537" transform="translate(74.136 349.585)"/>
            <path id="Path_4426" d="M1166.931 873.923c-30.559-12.749-59.639-27.895-88.3-44.441-25.893-14.948-96.74-54.851-96.74-53.016v128.7a3.324 3.324 0 0 0 3.324 3.324H1176.3a3.324 3.324 0 0 0 3.324-3.324V881.21a3.323 3.323 0 0 0-2.156-3.108q-5.293-2.002-10.537-4.179z" class="cls-7" data-name="Path 4426" transform="translate(-907.757 -423.558)"/>
            <g id="Group_3904" data-name="Group 3904" transform="translate(126.421 370.678)">
                <circle id="Ellipse_81" cx="46.582" cy="46.582" r="46.582" class="cls-3" data-name="Ellipse 81"/>
                <g id="Group_3903" data-name="Group 3903" transform="translate(13.133 12.237)">
                    <path id="Path_4427" d="M1103.833 818.157l-8.449 17.12a3.755 3.755 0 0 1-2.827 2.054l-18.893 2.745a1.29 1.29 0 0 0-.715 2.2l13.671 13.324a3.755 3.755 0 0 1 1.079 3.323l-3.227 18.816a1.29 1.29 0 0 0 1.872 1.36l16.9-8.884a3.754 3.754 0 0 1 3.495 0l16.9 8.884a1.29 1.29 0 0 0 1.872-1.36l-3.227-18.816a3.752 3.752 0 0 1 1.079-3.323l13.671-13.326a1.291 1.291 0 0 0-.715-2.2l-18.893-2.745a3.755 3.755 0 0 1-2.827-2.054l-8.449-17.12a1.29 1.29 0 0 0-2.317.002z" class="cls-8" data-name="Path 4427" transform="translate(-1071.541 -817.438)"/>
                    <path id="Path_4428" d="M1104.8 819.842l-5 17.722a6.114 6.114 0 0 1-6.121 4.447l-18.4-.717a.736.736 0 0 0-.438 1.348l15.308 10.234a6.114 6.114 0 0 1 2.338 7.2l-6.368 17.278a.736.736 0 0 0 1.147.833l14.464-11.4a6.113 6.113 0 0 1 7.566 0l14.465 11.4a.736.736 0 0 0 1.147-.833l-6.368-17.278a6.114 6.114 0 0 1 2.338-7.2l15.308-10.234a.737.737 0 0 0-.438-1.348l-18.4.717a6.114 6.114 0 0 1-6.121-4.447l-5-17.722a.737.737 0 0 0-1.427 0z" class="cls-2" data-name="Path 4428" transform="translate(-1072.063 -817.937)"/>
                    <path id="Path_4429" d="M1071.292 848.875a.4.4 0 0 1 .224-.689l9.418-1.369c5.79 8.512 18.967 23.956 43.467 34.492l1.038 6.055a.4.4 0 0 1-.586.426l-18.9-9.936a2.87 2.87 0 0 0-2.67 0l-18.9 9.936a.4.4 0 0 1-.586-.426l3.61-21.045a2.869 2.869 0 0 0-.825-2.539z" class="cls-9" data-name="Path 4429" transform="translate(-1071.17 -825.289)"/>
                    <path id="Path_4430" d="M1084.5 846.474l6.467-.939c8.3 12.291 23.606 19.677 34.99 23.713l2.01 11.718c-24.504-10.536-37.681-25.979-43.467-34.492z" class="cls-10" data-name="Path 4430" transform="translate(-1074.731 -824.947)"/>
                </g>
            </g>
            <path id="Path_4431" d="M953.639 294.87a5.191 5.191 0 0 0-5.2 5.178v.052c0 129.923 55.239 235.247 123.378 235.247S1195.2 430.023 1195.2 300.1v-.052a5.191 5.191 0 0 0-5.2-5.178z" class="cls-2" data-name="Path 4431" transform="translate(-898.817 -294.87)"/>
            <path id="Path_4432" d="M1190 294.87H996.638a5.192 5.192 0 0 0-5.2 5.389c1.853 45.4 8.866 91.323 30.8 131.412 8.193 14.972-14.682 28.32-22.866 13.365-24.289-44.384-32.372-94.987-34.415-145.162a5.2 5.2 0 0 0-5.191-5h-6.135a5.191 5.191 0 0 0-5.2 5.178v.052c0 129.923 55.239 235.247 123.378 235.247S1195.2 430.023 1195.2 300.1v-.052a5.191 5.191 0 0 0-5.2-5.178z" class="cls-4" data-name="Path 4432" transform="translate(-898.817 -294.87)"/>
            <path id="Path_4433" d="M1215.6 294.87h-54.152a344.8 344.8 0 0 1 .985 72.611c-2.984 30.458-8.052 63.012-23.984 89.784-14.313 24.053-36.358 40.817-62.823 49.394a131.44 131.44 0 0 1-31.395 5.76c16.106 14.694 34.142 22.929 53.188 22.929 68.141 0 123.379-105.324 123.379-235.247v-.052a5.191 5.191 0 0 0-5.198-5.179z" class="cls-5" data-name="Path 4433" transform="translate(-924.417 -294.87)"/>
        </g>
        <g id="Group_3907" data-name="Group 3907" transform="translate(1281.444 418.355)">
            <path id="Path_4434" d="M1526.421 947.089c-2.451.417-3.769-.657-5.376-1.825v.832s-10.787 4.254-12.163 6.234-.056 2.9 5.282 3.67 14.221-1.1 14.221-1.1c.623-1.47.125-5.655-.632-7.537-.453.16-.853-.354-1.332-.274z" class="cls-11" data-name="Path 4434" transform="translate(-1449.182 -643.683)"/>
            <path id="Path_4435" d="M1470.038 731.491s3.352 56.482 4.907 70.117 4.485 82.352 4.485 82.352l4.456 1.534 4.046-1.534s2.872-50.263 4.338-61.191 7.177-72.783 7.584-83.776-20.813-43.986-29.816-7.502z" class="cls-12" data-name="Path 4435" transform="translate(-1438.937 -582.086)"/>
            <path id="Path_4436" d="M1500.2 735.2s6.251 50.891 8.607 64.411 10.051 83.974 10.051 83.974l3.361 2.248 3.367-1.106s.964-56.375 1.782-67.371 1.161-75.637.92-86.634-21.248-32.477-28.088 4.478z" class="cls-13" data-name="Path 4436" transform="translate(-1446.999 -581.999)"/>
            <path id="Path_4437" d="M1481.99 947.929c-.618.141-6.566-.906-8.418-2.266-.055.3.025 2.269.025 2.269a89.674 89.674 0 0 0-16.905 2.864c-8.581 2.4-14.947 5.879 2.423 5.437s22.375-.949 22.682-4.078a52.69 52.69 0 0 0 .193-4.226z" class="cls-11" data-name="Path 4437" transform="translate(-1433.078 -643.789)"/>
            <path id="Path_4438" d="M1506.99 620.152c1.4.314 2.829.357 4.166.616a14.268 14.268 0 0 0 3.983.4c0-2.23.144-4.671.086-6.724-2.7 1.888-5.524.851-8.266-.441.053 2.004.108 4.131.031 6.149z" class="cls-14" data-name="Path 4438" transform="translate(-1448.803 -555.154)"/>
            <path id="Path_4439" d="M1518.416 689.053c-2.761-10.53-3.684-24.466-1.2-32.254 4.939-15.5 2.425-26.445-5.685-31.174a26.829 26.829 0 0 0-4.974-2.266 13.122 13.122 0 0 1-.387-1.087 12.419 12.419 0 0 1-.5-2.971c-.021-.5-1.345-.026-1.723.026a20.559 20.559 0 0 1-2.121.18 17.4 17.4 0 0 1-5.279-.783 11.356 11.356 0 0 1-.867 3.637l-.027.055a25.953 25.953 0 0 0-10.653 4.473c-9.206 8.482-5.719 24.825-10.6 46.2-5.833 25.528-4.416 32.729-4.416 32.729s33.842 6.9 50.192-.687c-.002.004.786-6.37-1.76-16.078z" class="cls-15" data-name="Path 4439" transform="translate(-1438.881 -556.416)"/>
            <path id="Path_4440" d="M1507.018 706.461c8.345-6.352 10.871-15.765 10.914-25.9.018-4.128-.388-8.239-.6-12.359a23.549 23.549 0 0 1 1.024-9.771c2.306-8.888 5.267-18.1 3.415-27.245 5.705 5.509 7.031 15.51 2.75 28.945-2.482 7.788-1.559 21.724 1.2 32.254 2.546 9.708 1.759 16.082 1.759 16.082-7.938 3.684-19.995 3.95-30.3 3.251a38.213 38.213 0 0 0 9.838-5.257z" class="cls-16" data-name="Path 4440" transform="translate(-1446.19 -559.746)"/>
            <path id="Path_4441" d="M1497.467 580.3a62.677 62.677 0 0 1-.656 10.01c-.767 4.44-2.686 15.494 4.874 15.987s11.153-.16 12.86-2.047 8.257-13.4 5.059-19.363-16.758-14.087-22.137-4.587z" class="cls-14" data-name="Path 4441" transform="translate(-1445.88 -544.983)"/>
            <path id="Path_4442" d="M1521.767 586.087c.007-3.323-1.186-7.22-4.358-8.21-.7-.218-2.449-3.463-3.246-4.149a13.4 13.4 0 0 0-4.9-2.672c-2.55-.761-6.66-1.413-9.295-.6a6.662 6.662 0 0 0-4.539 5.551c-.575 4.665 3.73 5.34 7.373 5.317a18.114 18.114 0 0 1 6.491.866 7.592 7.592 0 0 1 4.641 4.368c.659 1.912.276 3.954-.1 5.975a23.26 23.26 0 0 1-1.885 4.255 4.532 4.532 0 0 1-3.649 1c-1.894-.237-7.979-2.365-11.258-1.8l-.985-.273a.969.969 0 0 0-.815.019c-.736.5-.76 2.789-.5 3.617a6.877 6.877 0 0 0 1.264 2.121c1.338 2.226 3.464 3.015 6.053 3.294 1.618.175 4.4.909 5.941.139a3.056 3.056 0 0 0 1.58-2.254 15.226 15.226 0 0 0 1.573-1.937q1.255-1.54 2.4-3.162a9.1 9.1 0 0 0 1.406-2.576 9.861 9.861 0 0 0 .3-1.738l.084-.752a3.649 3.649 0 0 0 .113-.566c.116-1.106.256-2.5 1.309-2.858 1.119 1.879.461 4.287-.39 6.3-.092.218-.188.439-.282.659a1.444 1.444 0 0 0-.538.349 4.067 4.067 0 0 0-.719 1.119 24.011 24.011 0 0 0-2.027 5.657.694.694 0 0 0 .069.61c.241.266.673.034.944-.2a18.858 18.858 0 0 0 2.587-2.582c.064-.072.128-.144.185-.217a23.761 23.761 0 0 0 5.173-14.67z" class="cls-17" data-name="Path 4442" transform="translate(-1445.497 -543.417)"/>
            <path id="Path_4443" d="M1482.774 943.742c0 1.048.05 1.7.041 1.962a6.468 6.468 0 0 0 8.437 1.712c.012-.329.076-2.082.092-2.414a10.329 10.329 0 0 1-8.57-1.26z" class="cls-14" data-name="Path 4443" transform="translate(-1442.34 -643.276)"/>
            <path id="Path_4444" d="M1525.6 944.64c0 .171.052 1.117.048 1.29 0 0 3.042 2.309 5.626 1.617.365-.1.722-.228 1.081-.352.052-.5.02-1.175.067-1.7a9.591 9.591 0 0 1-6.822-.855z" class="cls-14" data-name="Path 4444" transform="translate(-1453.785 -643.516)"/>
            <path id="Path_4445" d="M1519.5 630.25c-2.883 4.82 1.279 15.466 8.175 20.539.6.444 3.07 2.618 5.412 4.9 5.979 5.936 11.046 13.443 12.408 17.1 4.52 12.154-17.745 29.107-17.745 29.107a16.693 16.693 0 0 0-2.133 2.532c-1.4 2.014-1.37 4.8.31 3.779 2.369-1.443 5.448-3.351 8.31-5.263 6.083-4.065 29.147-17.41 23.56-34.369-2.151-6.53-7.757-14.582-13.678-21.152-3.012-4.431-5.757-8.915-7.866-11.336-7.469-8.559-14.182-10.142-16.753-5.837z" class="cls-15" data-name="Path 4445" transform="translate(-1451.907 -558.879)"/>
            <path id="Path_4446" d="M1489.209 616.745c-.532-5.592-10.192-11.7-18.753-11.706-.749 0-4.024-.289-7.265-.744-8.334-1.241-16.863-4.287-20.127-6.43-10.841-7.114-2.946-33.962-2.946-33.962a16.141 16.141 0 0 1 1.79-3.478c1.5-1.941-4.191-4.468-4.939-2.649-1.054 2.565-3.1 5.614-4.269 8.85-2.493 6.878-11.6 31.568 2.949 41.922 5.6 3.987 14.887 7.154 23.55 8.94 5.052 1.785 9.919 3.773 13.053 4.473 11.087 2.477 17.432-.224 16.957-5.216z" class="cls-15" data-name="Path 4446" transform="translate(-1427.594 -539.961)"/>
            <path id="Path_4447" d="M1512.517 738.341a1.527 1.527 0 0 1-1.288.051 1.053 1.053 0 0 1-.229-.132.613.613 0 0 1-.19-.232.649.649 0 0 1-.009-.465c.048-.144.15-.259.207-.393-.146-.009-.285.1-.435.117a1.015 1.015 0 0 1-.544-.081.677.677 0 0 1-.409-.379c-.1-.346.267-.692.47-.927a5.714 5.714 0 0 1 .753-.725 1.174 1.174 0 0 1-.457-.073.548.548 0 0 1-.182-.107.688.688 0 0 1-.038-.747 4.422 4.422 0 0 1 1.824-2.016c.816-.5 1.573-1.1 2.393-1.6a8.834 8.834 0 0 1 1.173-.718 3.909 3.909 0 0 1 1.536-.169 23.5 23.5 0 0 1 5.357.568c.187.046.361.1.531.158l2.37-1.593 2.561 3.593-2.5 1.611v.067a2.656 2.656 0 0 1-1.17 1.756 6.247 6.247 0 0 1-1.9.805 4.353 4.353 0 0 1-1 .163 11.89 11.89 0 0 1-2.176-.128 5.845 5.845 0 0 0-.969-.117.811.811 0 0 0-.637.251 11.334 11.334 0 0 1-1.493 1.074 1.3 1.3 0 0 1-.306.145 5.4 5.4 0 0 1-2.233.481 1.153 1.153 0 0 1-.559-.178c-.092-.062-.135-.162-.265-.14a.639.639 0 0 0-.186.08z" class="cls-14" data-name="Path 4447" transform="translate(-1449.51 -585.854)"/>
            <g id="Group_3906" data-name="Group 3906" transform="translate(9.608)">
                <path id="Path_4448" d="M1440.706 551.4c.919-2.4.39-4.17.509-4.873a33.472 33.472 0 0 1 3.6-9.413 10.315 10.315 0 0 1 1.568-2.54 1.389 1.389 0 0 1 .472-.4.488.488 0 0 1 .661.21.826.826 0 0 1 .027.108c.023-.052.042-.106.067-.158a1.387 1.387 0 0 1 .348-.51.489.489 0 0 1 .693.023 1.145 1.145 0 0 1 .212.518 1.35 1.35 0 0 1 .312-.513.488.488 0 0 1 .693-.016 1.959 1.959 0 0 1 .328 1.231c.018.011.038.021.056.033a.925.925 0 0 1 .153-.2.488.488 0 0 1 .693-.016 2.82 2.82 0 0 1 .317 1.839 4.1 4.1 0 0 1-.007 1.188l-.329 2.865c-.01.109-.023.219-.038.33l-.182 1.578c.432-.03 1.957-1.841 3.092.182-3.294 1.863-4.761 7.677-7.067 9.194a4.92 4.92 0 0 0-1.578 1.693c-1.735.672-3.69-.88-4.6-2.353z" class="cls-14" data-name="Path 4448" transform="translate(-1440.706 -533.692)"/>
            </g>
        </g>
        <g id="Group_3911" data-name="Group 3911" transform="translate(1160.117 461.545)">
            <path id="Path_4449" d="M1305.521 638.483a.555.555 0 0 1 .366.448.135.135 0 0 1-.008.076c-.024.052-.092.066-.15.083-.311.092-.465.414-.582.7-.06.149-.121.3-.182.447a.878.878 0 0 1-.123.233.935.935 0 0 1-.543.259.6.6 0 0 1-.5-.043c-.172-.138-.119-.4-.05-.6a2.491 2.491 0 0 1 .717-1.241c.251-.192.726-.479 1.055-.362z" class="cls-14" data-name="Path 4449" transform="translate(-1273.152 -604.88)"/>
            <path id="Path_4450" d="M1289.414 642.49c.277-.514.523-1 .756-1.478a29.617 29.617 0 0 1 4.984 2.272c-.818 1.09-1.344 1.78-1.344 1.78s-4.214 16.378-3.154 21.988a1.556 1.556 0 0 0-.147.306c10.773-4.194 29.238-14.332 29.238-14.332s6.908.083 7.6 5.186-7.727 9.527-7.727 9.527-16.946 10.458-30.19 13.087c-.335-.048-.67-.089-1-.151a12.928 12.928 0 0 1-6.146-2.541 5.852 5.852 0 0 1-2.047-4.283c-3.537-9.732 6.396-26.201 9.177-31.361z" class="cls-14" data-name="Path 4450" transform="translate(-1266.685 -605.563)"/>
            <path id="Path_4451" d="M1292.957 639.959c0-.221-.051-.444-.07-.667a4.047 4.047 0 0 1 .532-2.088 27.214 27.214 0 0 1 1.489-2.71 2.2 2.2 0 0 1 .9-.915 1 1 0 0 1 1.271.424 1.125 1.125 0 0 1 1.714.36c.221-.278.426-.355 1-.056a1.419 1.419 0 0 1 .552.714 1.014 1.014 0 0 1 1.251.384 3.194 3.194 0 0 1 .338 1.8 8.7 8.7 0 0 1-.572 2.093 7.815 7.815 0 0 1-.436 1.006c-.148.283-.286.644-.566.765s-.644.065-.963.162a2.67 2.67 0 0 0-1.241.645 4.054 4.054 0 0 0-1.006 1.259c-.064.18-.29 1.115-.383 1.068-1.147-.58-4.566-2.41-4.256-3.03a2.748 2.748 0 0 0 .446-1.214z" class="cls-14" data-name="Path 4451" transform="translate(-1270.16 -603.552)"/>
            <path id="Path_4452" d="M1289.331 631.981l1.537-5.356a2.122 2.122 0 0 1 2.6-1.427l10.952 2.981a2.052 2.052 0 0 1 1.465 2.534l-1.537 5.356a2.122 2.122 0 0 1-2.6 1.427l-10.953-2.981a2.053 2.053 0 0 1-1.464-2.534zm3.725-5.343a.578.578 0 0 0-.709.389l-1.537 5.356a.559.559 0 0 0 .4.691l10.953 2.981a.578.578 0 0 0 .709-.389l1.536-5.356a.559.559 0 0 0-.4-.691z" class="cls-18" data-name="Path 4452" transform="translate(-1269.295 -601.316)"/>
            <g id="Group_3909" data-name="Group 3909">
                <path id="Path_4453" d="M1279.515 600.04l2.532 1.321-6.134 21.385-2.862-.172z" class="cls-19" data-name="Path 4453" transform="translate(-1264.965 -594.613)"/>
                <path id="Path_4454" d="M1326.015 630.628a21.6 21.6 0 0 0 1.84-6.414c.062-.708.01-1.172-.175-1.236l.958.329c.394.135.169 2.127-.5 4.451s-1.534 4.137-1.94 4.049l-.991-.216c.193.042.485-.328.808-.963z" class="cls-5" data-name="Path 4454" transform="translate(-1278.904 -600.743)"/>
                <path id="Path_4455" d="M1325.75 627.109c-.689 2.4-.917 4.416-.516 4.5s1.264-1.752 1.939-4.106.914-4.367.53-4.5-1.265 1.707-1.953 4.106z" class="cls-18" data-name="Path 4455" transform="translate(-1278.858 -600.75)"/>
                <g id="Group_3908" data-name="Group 3908" transform="translate(10.947 6.748)">
                    <path id="Path_4456" d="M1327.869 624.169l-.974 3.394a17.442 17.442 0 0 0 .69-3.541z" class="cls-18" data-name="Path 4456" transform="translate(-1290.302 -607.77)"/>
                    <path id="Path_4457" d="M1325.28 632.586l-.421-.026a15.187 15.187 0 0 0 1.492-3.706z" class="cls-18" data-name="Path 4457" transform="translate(-1289.758 -609.062)"/>
                    <path id="Path_4458" d="M1286.233 614.577a53.257 53.257 0 0 1-3.691 9.583l6.564.4 18.944 1.141 4.353.262a4.42 4.42 0 0 0 .434-.706 21.582 21.582 0 0 0 1.884-6.566c.012-.153.019-.292.021-.423l-26.557-13.855a52.714 52.714 0 0 1-1.952 10.164z" class="cls-5" data-name="Path 4458" transform="translate(-1278.449 -602.529)"/>
                    <path id="Path_4459" d="M1312.826 629.24l4.963.3a5.045 5.045 0 0 0 .495-.805 24.586 24.586 0 0 0 2.147-7.485c.015-.175.022-.333.024-.481l-4.427-2.31-.191-.1a30.766 30.766 0 0 1-3.011 10.881z" class="cls-18" data-name="Path 4459" transform="translate(-1286.542 -606.257)"/>
                    <path id="Path_4460" d="M1283.091 601.843l3.6 1.88a52.715 52.715 0 0 1-1.953 10.169 53.248 53.248 0 0 1-3.691 9.583l-4.093-.246z" class="cls-18" data-name="Path 4460" transform="translate(-1276.956 -601.843)"/>
                    <path id="Path_4461" d="M1324.932 627.095a18.761 18.761 0 0 0 .68-3.356c.012-.153.019-.292.021-.423l.081.043.909.475a17.441 17.441 0 0 1-.69 3.541 15.187 15.187 0 0 1-1.492 3.706l-.926-.056-.221-.013a4.422 4.422 0 0 0 .434-.706 18.753 18.753 0 0 0 1.204-3.211z" class="cls-5" data-name="Path 4461" transform="translate(-1289.34 -607.582)"/>
                </g>
                <path id="Path_4462" d="M1278.141 594.877l-.641 2.234-.282.984-6.464 22.534-.489 1.7-.435 1.515-5.375-.753.8-2.8 7.1-24.74.8-2.795z" class="cls-5" data-name="Path 4462" transform="translate(-1262.668 -592.669)"/>
                <path id="Path_4463" d="M1271.494 609.03c-2.376 8.281-2.466 15.252-.278 15.559 2.107.3 5.558-5.745 7.777-13.482s2.486-14.659.533-15.488c-2.026-.861-5.656 5.13-8.032 13.411z" class="cls-5" data-name="Path 4463" transform="translate(-1264.054 -593.41)"/>
                <path id="Path_4464" d="M1263.9 606.715c-2.491 8.684-2.493 16.007-.093 16.343 2.307.324 5.995-5.979 8.315-14.068s2.525-15.355.385-16.263c-2.228-.943-6.118 5.304-8.607 13.988z" class="cls-5" data-name="Path 4464" transform="translate(-1262.016 -592.634)"/>
                <path id="Path_4465" d="M1265.275 607.1c-2.322 8.091-2.791 14.862-1.095 15.115 1.651.247 4.744-5.794 6.95-13.486s2.78-14.434 1.243-15.074c-1.58-.655-4.773 5.359-7.098 13.445z" class="cls-3" data-name="Path 4465" transform="translate(-1262.323 -592.895)"/>
            </g>
            <path id="Path_4466" d="M1295.115 636.571a7.474 7.474 0 0 1 .529-1.862c.018-.049.045-.093.063-.141a21.255 21.255 0 0 0 6.738 2.087v.032a1.387 1.387 0 0 0 .114.7c-.3.558-.613 1.1-.944 1.608a2 2 0 0 1-.833.815.949.949 0 0 1-1.176-.378 1.063 1.063 0 0 1-1.586-.321c-.205.248-.393.316-.922.05-.107-.054-.487-.4-.511-.636a.963.963 0 0 1-1.157-.342 2.751 2.751 0 0 1-.315-1.612z" class="cls-14" data-name="Path 4466" transform="translate(-1270.859 -603.841)"/>
            <path id="Path_4467" d="M1329.24 881.5c.214-.008.427-.023.641-.026a8.711 8.711 0 0 0 3.165-.391c.348-.136.653-.291.954-.443-2.12-18.164-5.386-59.961 1.9-74.814 4.237-8.637 16.545-35 23.379-59.479l-29.3-6.38c-.665 31.523-20.739 59.57-19.987 73.414.609 11.211 10.319 49.428 15.039 67.475 1.426.264 2.819.508 4.209.644z" class="cls-11" data-name="Path 4467" transform="translate(-1274.833 -632.01)"/>
            <path id="Path_4468" d="M1371.392 878.334a13.4 13.4 0 0 0 7.736-2.319c-.851-4.9-1.74-9.115-2.261-10.853q-1.1-3.65-2.106-7.323-.5-1.837-.983-3.681c-.231-.887-1.042-2.589-.877-3.478-2.445-10-4.584-20.353-4.52-30.677.026-4.2.358-8.75 2.23-12.606 7.939-16.756 16.22-39.573 18.346-65.316l-30.746-2.65c-1.016 7.435-12.168 62.629-8.979 76.327 2.6 11.157 5.084 21.769 9.541 32.3q4.244 10.03 8.66 19.991a108.018 108.018 0 0 1 3.959 10.285z" class="cls-20" data-name="Path 4468" transform="translate(-1285.172 -631.865)"/>
            <path id="Path_4469" d="M1381.953 936.547a87.828 87.828 0 0 0-2.277-8.391 26.04 26.04 0 0 0 7.751-2.251 212.74 212.74 0 0 1 1.564 10.5q-3.533-.06-7.038.142z" class="cls-14" data-name="Path 4469" transform="translate(-1293.46 -681.699)"/>
            <path id="Path_4470" d="M1340.945 654.159c-1.519-4.931-.849-6.862-.849-6.862s-14.464 8.319-22.071 13.7c-.556 2.42.221 5.338 1.118 7.471a14.4 14.4 0 0 0 3.867 5.274 140.405 140.405 0 0 1 12.713-7.677s6.74-6.975 5.222-11.906z" class="cls-21" data-name="Path 4470" transform="translate(-1276.934 -607.242)"/>
            <path id="Path_4471" d="M1320.715 663.485a111.82 111.82 0 0 0-2.691 1.841c-.556 2.42.221 5.338 1.118 7.471a14.4 14.4 0 0 0 3.867 5.274 134.74 134.74 0 0 1 2.7-1.781c-3.166-3.303-4.654-8.205-4.994-12.805z" class="cls-22" data-name="Path 4471" transform="translate(-1276.934 -611.569)"/>
            <path id="Path_4472" d="M1380.343 680.157c-5.663-23.7-.242-26.833-6.977-30.412-7.958-3.429-20.239-5.408-28.455-2.868-2.166.669-10.593 17.226-8.591 28.4 2.372 13.241-.464 43.043-.464 43.043 20.483 11.112 49.948.964 49.948.964s-.017-16.339-5.461-39.127z" class="cls-21" data-name="Path 4472" transform="translate(-1281.75 -606.823)"/>
            <path id="Path_4473" d="M1387.936 681.767c-5.663-23.7.4-26.439-6.339-30.017-.012-.005-3.882.522-3.949 2.5-.578 17.2-4.184 34.032-6.605 51.011a52.624 52.624 0 0 1-6.774 19.822 90.413 90.413 0 0 0 29.128-4.185s-.017-16.343-5.461-39.131z" class="cls-23" data-name="Path 4473" transform="translate(-1289.343 -608.433)"/>
            <path id="Path_4474" d="M1354.755 645.71s-4.756 4.256-4.268 7.8c.489 1.466 6.717-2.321 6.717-2.321s4.518 3.909 5.74 4.03 4.087-6.164 3.577-8.745c0-.003-7.727-2.013-11.766-.764z" class="cls-22" data-name="Path 4474" transform="translate(-1285.65 -606.709)"/>
            <g id="Group_3910" data-name="Group 3910" transform="translate(28.986 248.635)">
                <path id="Path_4475" d="M1333.485 942.638l-.3-.9s-1.154-3.766-2.7-9.687a28.127 28.127 0 0 0 9-.1c.607 3.829.838 6.613 1.079 7.895 0 0 .177.775.4 1.891q-3.732.529-7.479.901z" class="cls-14" data-name="Path 4475" transform="translate(-1309.301 -931.95)"/>
                <path id="Path_4476" d="M1332.7 941.73a24.734 24.734 0 0 1-7.942.234c.4 1.515 1.613 5.129 1.613 5.129a89.416 89.416 0 0 0-16.453 2.742c-8.351 2.288-14.542 5.6 2.367 5.152s21.815-.879 21.835-3.861a52.638 52.638 0 0 0-1.284-8.668c-.036-.201-.087-.458-.136-.728z" class="cls-7" data-name="Path 4476" transform="translate(-1301.574 -934.564)"/>
            </g>
            <path id="Path_4477" d="M1378.858 938.27a88.918 88.918 0 0 1 1.139 5.551s-9.569 5.833-10.535 7.918.39 2.022 5.637 1.817 11.512-2.746 11.512-2.747c.526-2.32.078-7.81-.717-13.7a24.218 24.218 0 0 1-7.036 1.161z" class="cls-7" data-name="Path 4477" transform="translate(-1290.654 -684.694)"/>
            <path id="Path_4478" d="M1388.812 741.3q.135-.187.275-.367c.835-1.073 1.616-2.223 2.411-3.33a111.578 111.578 0 0 0 5.708-8.761c3.388-5.8 7.19-12.837 6.867-19.724-.051-1.1-5.869-26.538-8.633-32.166-3.874 2.167-6.162 3.365-10.481 4.091 2.646 8.249 7.284 29.1 6.182 38.012-.5 4.007-2.041 7.821-3.544 11.578-1.341 3.351-3.005 10.136-7.525 10.292-.487.017-.994-.159-1.467-.1a2.247 2.247 0 0 0-1.138.742 9.82 9.82 0 0 0-1.049 1.1 10.216 10.216 0 0 0-1.681 2.452 2.622 2.622 0 0 0 .018 2.214c.649.939 1.972.395 1.962.469-.04.3.478.727.635.791.755.306 1.07.218 1.465-.083a1.5 1.5 0 0 0 2.137.322 1.058 1.058 0 0 0 1.371.361 3.519 3.519 0 0 0 1.224-.872q1.153-1.146 2.2-2.392c1.13-1.359 1.977-3.129 3.063-4.629z" class="cls-14" data-name="Path 4478" transform="translate(-1292.077 -615.168)"/>
            <path id="Path_4479" d="M1394.854 659.778c-3.654-6.64-9.84-9.9-11.823-8.055-.769.438-.769 1.059-.769 1.8.508 9.254 3.055 18.3 3.823 27.482 7.819 1.1 11.02-2.186 14.844-4.11-2.595-8.303-3.974-13.295-6.075-17.117z" class="cls-21" data-name="Path 4479" transform="translate(-1294.151 -608.289)"/>
            <path id="Path_4480" d="M1387.031 685.91c.128 1.044.242 2.09.329 3.137 7.819 1.1 11.02-2.186 14.844-4.11-.4-1.293-.776-2.5-1.129-3.638-3.906 2.975-9.242 5.329-14.044 4.611z" class="cls-22" data-name="Path 4480" transform="translate(-1295.426 -616.329)"/>
            <path id="Path_4481" d="M1346.929 616.122a37.667 37.667 0 0 0 .307-7.013c4.9-13.055 18.2-4.689 21.595.809s-2.419 16.71-3.988 18.576a4.72 4.72 0 0 1-1.315 1.06c-.022.632-.1 1.251-.146 1.62a5.735 5.735 0 0 0-.041 2.795c.28.691-3.825 5.721-7.045 4.938-.644-.157-2.183-3.071-1.6-3.752.973-1.13.422-2.665-.068-4.118a89.55 89.55 0 0 1-2.2 0c-7.366-.114-6.028-10.674-5.499-14.915z" class="cls-14" data-name="Path 4481" transform="translate(-1284.589 -595.182)"/>
            <path id="Path_4482" d="M1372.309 608.316a5.211 5.211 0 0 0-.227-4.974 13.043 13.043 0 0 0-3.574-3.8 7.492 7.492 0 0 0-2.321-1.369c-2.552-.793-5.356.987-7.945.313a19.294 19.294 0 0 1-2.1-.846 12.074 12.074 0 0 0-3.667-.7 10.077 10.077 0 0 0-3.606.306c-.142.013-.284.02-.425.042a3.756 3.756 0 0 0-2.555 1.469 2.232 2.232 0 0 1-.509.655.522.522 0 0 1-.742-.09c-.18-.352.306-.686.385-1.073a.743.743 0 0 0-.64-.79 1.7 1.7 0 0 0-1.1.251 4.48 4.48 0 0 0-1.641 6.124 5.3 5.3 0 0 0 1.442 1.468 6.558 6.558 0 0 0 3.656 1.148 11.2 11.2 0 0 0 6.985 3.7c1.61.265 3.5.485 4.635 1.473a3.433 3.433 0 0 1 1.579.755c.015.013.025.028.04.041a13.137 13.137 0 0 0-.1 3.436 4.254 4.254 0 0 0 .329 2.189.832.832 0 0 0 .7.5.8.8 0 0 0 .555-.352c.679-.881.438-2.156.842-3.171.007.011.017.021.023.032.037-.01.072-.027.11-.036a2.049 2.049 0 0 1 2.027.662 2.336 2.336 0 0 1 .127 2.368 1.228 1.228 0 0 1-.117.219c-.254 1.617-3.087 2.58-3.444 4.26a3.383 3.383 0 0 0 .775 2.767 4.581 4.581 0 0 0 2.746 3.778.847.847 0 0 0 .492.087c.385-.083.481-.607.311-.953-.507-1.035-1.088-1.438-.985-2.492l.027-.015c.867-.548 1.288-2.174 1.913-2.989.8-1.041 1.825-1.871 2.562-2.97a11.646 11.646 0 0 0 1.975-6.68 7.056 7.056 0 0 1 .193-2.747 17.223 17.223 0 0 1 1.269-1.996z" class="cls-24" data-name="Path 4482" transform="translate(-1283.133 -593.775)"/>
        </g>
        <g id="Group_3916" data-name="Group 3916" transform="translate(962.771 102.112)">
            <path id="Path_4483" d="M1075.655 190.025c-2.366-4.61 2.1-14.161 8.755-18.419.582-.373 2.984-2.226 5.276-4.19 5.86-5.107 10.974-11.715 12.446-15 4.426-9.886-12.31-24.906-15.513-27.657a.927.927 0 0 1-.229-1.115c.494-1 1.633-2.778 3.563-3.01a.549.549 0 0 1 .447.157c.72.7 2.417 2.577 3.174 3.193 5.356 4.106 25.791 17.771 19.632 33.049-2.367 5.873-8 12.938-13.831 18.628a.62.62 0 0 0-.05.056c-3.029 3.889-5.815 7.839-7.9 9.935-7.383 7.434-13.656 8.489-15.77 4.373z" class="cls-11" data-name="Path 4483" transform="translate(-1014.695 -107.06)"/>
            <path id="Path_4484" d="M1047.9 187.216c-.155-5.179-8.682-11.383-16.564-11.9-.689-.045-3.687-.508-6.642-1.12-7.6-1.64-15.268-4.955-18.145-7.123-9.554-7.2-.679-31.441-.679-31.441a14.874 14.874 0 0 1 1.855-3.1c1.494-1.7-3.591-4.364-4.388-2.734-1.124 2.3-3.187 4.983-4.459 7.892-2.707 6.183-12.567 28.366.206 38.769 4.917 4.005 13.277 7.476 21.145 9.639 4.544 1.946 8.906 4.068 11.748 4.9 10.064 2.951 16.066.843 15.923-3.782z" class="cls-11" data-name="Path 4484" transform="translate(-992.696 -109.377)"/>
            <g id="Group_3912" data-name="Group 3912" transform="translate(10.867 4.496)">
                <path id="Path_4485" d="M1007.526 124.092a11.156 11.156 0 0 0 .759-4.454 30.848 30.848 0 0 1 3.876-8.451 9.534 9.534 0 0 1 1.6-2.245 1.284 1.284 0 0 1 .459-.336.45.45 0 0 1 .6.232.856.856 0 0 1 .018.1c.024-.047.045-.1.071-.141a1.278 1.278 0 0 1 .351-.448.449.449 0 0 1 .636.064 1.047 1.047 0 0 1 .165.489 1.254 1.254 0 0 1 .317-.454.45.45 0 0 1 .639.027 1.811 1.811 0 0 1 .229 1.153l.05.034a.847.847 0 0 1 .153-.174.45.45 0 0 1 .639.027 2.6 2.6 0 0 1 .182 1.711 3.77 3.77 0 0 1-.078 1.093l-.475 2.618c-.015.1-.033.2-.055.3l-.262 1.442c.4 0 1.912-1.578 2.835.352-3.144 1.518-4.842 6.782-7.057 8.041a4.563 4.563 0 0 0-1.553 1.465c-1.643.514-3.35-1.031-4.099-2.445z" class="cls-14" data-name="Path 4485" transform="translate(-1007.526 -108.248)"/>
            </g>
            <g id="Group_3913" data-name="Group 3913" transform="translate(61.947)">
                <path id="Path_4486" d="M1090.679 116.747a.952.952 0 0 0-.073-.876 12.309 12.309 0 0 1-1.293-3.857 30.857 30.857 0 0 0-5.334-7.614 9.523 9.523 0 0 0-1.973-1.921 1.285 1.285 0 0 0-.512-.249.45.45 0 0 0-.545.336.8.8 0 0 0 0 .1c-.032-.042-.062-.085-.1-.126a1.273 1.273 0 0 0-.426-.378.45.45 0 0 0-.615.177 1.047 1.047 0 0 0-.073.511 1.25 1.25 0 0 0-.394-.389.449.449 0 0 0-.624.141 1.808 1.808 0 0 0-.018 1.175c-.014.015-.029.028-.042.043a.85.85 0 0 0-.182-.144.45.45 0 0 0-.624.141 2.606 2.606 0 0 0 .129 1.717 3.8 3.8 0 0 0 .274 1.061l.938 2.489c.032.1.069.191.108.288l.517 1.371c-.355.063-1.833-.971-2.529.344a.462.462 0 0 0 .225.651c3.164 1.192 5.665 5.7 7.968 6.5a4.435 4.435 0 0 1 1.668 1.046.478.478 0 0 0 .289.13c1.454.07 2.662-1.319 3.241-2.667z" class="cls-14" data-name="Path 4486" transform="translate(-1077.236 -102.112)"/>
            </g>
            <path id="Path_4487" d="M1040.739 210.607l.781-5.945c.214-1.627-.551-12.46-3.3-14.085.019-.013.034-.031.053-.043a3.269 3.269 0 0 1 1.306-.4 66.765 66.765 0 0 1 11.667-.667 23.153 23.153 0 0 1 9.307-.373 26.517 26.517 0 0 1 5.259 1.243c2.247.165 6.186-.676 8.432-.511-1.543 3.623-.244 7.6-.309 7.681 1.039 3.678 4.509 29.027 5.808 37.5.994 6.485 1.984 13.146.593 19.557-.414 1.91.327 3.886-.939 5.374-1.882 2.212-4.83 3.171-7.667 3.788-12.335 2.685-23.24.651-34.237-5.55-1.21-.684-.44-34.061 3.246-47.569z" class="cls-25" data-name="Path 4487" transform="translate(-1004.526 -125.278)"/>
            <path id="Path_4488" d="M1079.74 235.37c-1.3-8.471-4.769-33.82-5.808-37.5.065-.079-1.234-4.058.309-7.681-1.789-.131-4.65.374-6.877.5a89.835 89.835 0 0 1-1.059 18.855c-1.037 7.174-2.433 14.507-5.351 21.174-4.612 10.542-13.6 17.294-23.993 20.706.007 4.166.19 6.922.528 7.113 11 6.2 21.9 8.235 34.236 5.55 2.837-.618 5.786-1.576 7.668-3.788 1.266-1.488.525-3.464.939-5.374 1.392-6.41.401-13.07-.592-19.555z" class="cls-26" data-name="Path 4488" transform="translate(-1004.526 -125.644)"/>
            <g id="Group_3914" data-name="Group 3914" transform="translate(21.789 113.979)">
                <path id="Path_4489" d="M1080.691 261.748s-9.338 11.593-45.614.625l.275 22.01h46.556z" class="cls-27" data-name="Path 4489" transform="translate(-1025.812 -258.752)"/>
                <path id="Path_4490" d="M1030.479 285.877a29.573 29.573 0 0 1-5.12-18.328 7.4 7.4 0 0 1 1.013-3.8c1.282-1.864 1.734-2.7 3.99-2.521 2.633.2 7.312 1.452 9.484 2.955 4.909 3.4 7.619 9.569 13 12.163a12.193 12.193 0 0 0 12.927-1.688c4.745-4.073 9.335-13.842 15.294-15.74 4.041-1.287 5.907 3.368 7.023 7.459.958 3.511-.577 7.169-2.079 10.484a85.15 85.15 0 0 1-4.422 9.019z" class="cls-11" data-name="Path 4490" transform="translate(-1023.201 -257.937)"/>
                <path id="Path_4491" d="M1086.148 363.274c-.432 4.3-1.74 11.659-.9 13.251 2.021 3.83 4.168 2.236 5.228-1.213.731-2.381 1.479-8.5 2.178-11.277a23.484 23.484 0 0 1-6.506-.761z" class="cls-28" data-name="Path 4491" transform="translate(-1039.146 -285.885)"/>
                <path id="Path_4492" d="M1033.577 363.1c.577 4.075 1.622 13.088 3.3 14.182 2.6 1.7 2.965 1.751 3.749-1.666.358-1.564-.761-10.567-.91-13.615a29.137 29.137 0 0 1-6.139 1.099z" class="cls-28" data-name="Path 4492" transform="translate(-1025.411 -285.546)"/>
                <path id="Path_4493" d="M1101.6 257.756c-7.577-1.2-7.981 9.07-9.1 16.945q-1.711 12.02-2.929 24.126c-.975 9.59-2.187 18.36-3.213 29.208-.157 1.665-.573 4.56-.938 7.675a30.4 30.4 0 0 0 7.965.977c1.106-4.537 2.025-8.71 2.468-10.624 4.38-18.957 11.436-42.4 12.727-55.708.591-6.117-1.767-11.774-6.98-12.599z" class="cls-20" data-name="Path 4493" transform="translate(-1039.265 -257.66)"/>
                <path id="Path_4494" d="M1030.231 337.87a36.352 36.352 0 0 0 7.309-1.017c-.978-15.537-.541-33.342-.756-48.886-.025-1.832-.022-3.782-.072-5.76-.114-4.523-.5-9.193-2.144-12.922-1.8-4.094-4.449-7.553-8.079-4.789-2.771 2.109-3.626 6.665-3.888 10.71-1.35 20.867 5.781 40.7 7.506 61.4.028.337.07.769.124 1.264z" class="cls-20" data-name="Path 4494" transform="translate(-1022.432 -259.221)"/>
                <path id="Path_4495" d="M1080.826 380.869a19.877 19.877 0 0 1 2.057-7.535 6.814 6.814 0 0 1 1.5-2.442c1.087-.955 2.52-.788 3.812-.58a1.968 1.968 0 0 1 1.143.452c1.892 1.866 2.35 10.231.181 12.219-1.619 1.478-8.728.567-8.693-2.114z" class="cls-24" data-name="Path 4495" transform="translate(-1038.038 -287.723)"/>
                <path id="Path_4496" d="M1043.068 380.254a3.856 3.856 0 0 1 .24 1.484 2.484 2.484 0 0 1-2.39 2.039l-6.061.964a1.111 1.111 0 0 1-.524 0c-.623-.206-.755-1.323-.755-2.218 0-2.886.116-5.778.355-8.658a4.819 4.819 0 0 1 .462-1.995c1.119-1.9 4.238-1.708 5.422-.375 1.533 1.725 2.492 6.284 3.251 8.759z" class="cls-24" data-name="Path 4496" transform="translate(-1025.411 -287.807)"/>
            </g>
            <path id="Path_4497" d="M1056.452 189.376s2.132 4.575 5.259 4.828 6.953.872 9.307-3.958a20.89 20.89 0 0 0-14.566-.87z" class="cls-11" data-name="Path 4497" transform="translate(-1009.735 -125.19)"/>
            <g id="Group_3915" data-name="Group 3915" transform="translate(42.626 27.431)">
                <path id="Path_4498" d="M1072.2 169.574a7.538 7.538 0 0 1-2.39 3.5c-1.76 1.258-4.215 1.2-6.455 1.088-2.582-.131-5.407-.355-7.278-2.013a7.7 7.7 0 0 1-2.077-3.514 16.248 16.248 0 0 1 1.666-13.444 6.032 6.032 0 0 1 1.717-1.934 6.417 6.417 0 0 1 3.407-.867 13.932 13.932 0 0 1 8.512 2.675 12.027 12.027 0 0 1 4.62 6.942c.489 2.406-.842 5.367-1.722 7.567z" class="cls-17" data-name="Path 4498" transform="translate(-1051.501 -142.979)"/>
                <path id="Path_4499" d="M1069.29 187.246a44.516 44.516 0 0 1-.977-9.3c-2.659 4.754-4.936 1.9-7.1-1.611-.181 3.237-1.28 6.772-2.186 10.241.004.003 4.839 5.76 10.263.67z" class="cls-14" data-name="Path 4499" transform="translate(-1053.05 -149.379)"/>
                <path id="Path_4500" d="M1068.481 182.1a7.415 7.415 0 0 1-.942 1.575 4.707 4.707 0 0 1-2.823 1.762 4.075 4.075 0 0 1-3.554-1.371c-.306-.3-.6-.611-.879-.931a35.248 35.248 0 0 0 1.268-6.8c2.161 3.513 4.438 6.365 7.1 1.611a3.951 3.951 0 0 0-.021 1.438c.011.531.069 1.059.088 1.589a2.76 2.76 0 0 1-.237 1.127z" class="cls-29" data-name="Path 4500" transform="translate(-1053.385 -149.379)"/>
                <path id="Path_4501" d="M1072.916 164.776a17.246 17.246 0 0 1-2.918 7 8.253 8.253 0 0 1-6.53 3.417c-3.227-.1-5.962-2.677-7.214-5.652s-1.307-6.3-1.279-9.529c.024-2.745.137-5.64 1.589-7.969a6.041 6.041 0 0 1 2.1-2.09 7.061 7.061 0 0 1 2-.709 11.443 11.443 0 0 1 8.7 1.548c4.936 3.308 4.673 8.819 3.552 13.984z" class="cls-14" data-name="Path 4501" transform="translate(-1051.965 -142.068)"/>
                <path id="Path_4502" d="M1052.038 149.694a4.755 4.755 0 0 1-1.166-3.2c.018-.388.32-.9.659-.707l.15.745c.51.185 1.028-.22 1.42-.6.465-.443.929-.889 1.373-1.353a11.141 11.141 0 0 1 .944-1.072c.061-.077.122-.152.182-.231a16.635 16.635 0 0 1 1.644-2.1c1.825-1.736 4.649-1.781 7.154-1.518a13.238 13.238 0 0 1 4.515 1.1 5.505 5.505 0 0 1 3 3.391 3.783 3.783 0 0 1 .094.544 9.924 9.924 0 0 1 3.588 10.772c-.43 1.3-1.151 2.6-.968 3.953a37.001 37.001 0 0 0-.4 2.317 1.458 1.458 0 0 1-2.074.254 2.254 2.254 0 0 1-.364-1.674l.259-5.195a2.027 2.027 0 0 0-.1-.95 2.292 2.292 0 0 0-.654-.72 8.89 8.89 0 0 1-2.354-3.207 11.747 11.747 0 0 1-3.712 2.063 15.839 15.839 0 0 1-7.439.182 16.919 16.919 0 0 1-2.025-.488l-.9 7.175c-.111.883-.388 1.962-1.257 2.158a1.489 1.489 0 0 1-1.51-.778 4.185 4.185 0 0 1-.445-1.745 26.84 26.84 0 0 1 .339-8.918c.009-.06.03-.129.047-.198z" class="cls-17" data-name="Path 4502" transform="translate(-1050.868 -139.547)"/>
                <path id="Path_4503" d="M1078.134 170.425c.191-1.332.6-2.729.71-4.071a1.131 1.131 0 0 1 .589-.128 1.017 1.017 0 0 1 .64.154 1.606 1.606 0 0 1 .493 1.106 8.285 8.285 0 0 1-.319 4.075 4.395 4.395 0 0 1-2.644 2.745.574.574 0 0 1-.41.015 19.265 19.265 0 0 0 .941-3.896z" class="cls-29" data-name="Path 4503" transform="translate(-1057.904 -146.677)"/>
                <path id="Path_4504" d="M1052.623 165.648a1.6 1.6 0 0 1 .632-1.032 1.017 1.017 0 0 1 .655-.07 2.067 2.067 0 0 1 1.268.831.591.591 0 0 1 .142.087c-.083.783-.126 1.572-.179 2.372a24.361 24.361 0 0 0-.091 4.037 11.133 11.133 0 0 0 .191 1.126 1.572 1.572 0 0 1-.563-.2 4.393 4.393 0 0 1-2.266-3.064 8.267 8.267 0 0 1 .211-4.087z" class="cls-29" data-name="Path 4504" transform="translate(-1051.236 -146.222)"/>
            </g>
            <path id="Path_4505" d="M1033.621 387.178a10.544 10.544 0 0 0 4.384.107c2.028-.493 3.807-.9 4.326-1.578s1.108-.552.988-.02-.3 1.71-2.789 2.1a16.008 16.008 0 0 1-4.947.932 1.443 1.443 0 0 1-1.962-1.541z" class="cls-17" data-name="Path 4505" transform="translate(-1003.633 -177.777)"/>
            <path id="Path_4506" d="M1080.823 383.64a7.429 7.429 0 0 0 3.945 2.315c2.253.338 4.649.352 5.366-.331 0 0-.232 2.317-5.475 1.493s-3.836-3.477-3.836-3.477z" class="cls-17" data-name="Path 4506" transform="translate(-1016.201 -177.349)"/>
        </g>
    </g>
</svg>
