<svg xmlns="http://www.w3.org/2000/svg" width="159.489" height="130.85" viewBox="0 0 159.489 130.85">
    <defs>
        <style>
            .cls-1{opacity:.628}.cls-2,.cls-4{fill:#009bdb}.cls-2{opacity:.078}.cls-3{fill:#e1efff;opacity:.413}
        </style>
    </defs>
    <g id="mob" transform="translate(-435 -807.15)">
        <g id="Group_3125" class="cls-1" data-name="Group 3125" transform="translate(-611.772 335.284)">
            <path id="Path_970" d="M115.731 82.126c-10.687-5.074-23.133-7.441-34.454-4.008-13.791 4.182-23.669 16-32.619 27.3-6.336 8-12.738 16.22-16.107 25.851s-3.226 21.084 2.892 29.249c4.5 6 11.51 9.462 17.76 13.615 10.761 7.15 19.848 16.861 31.465 22.514a52.776 52.776 0 0 0 35.871 3.625c10.939-2.81 20.617-9.049 30.536-14.452 9.074-4.943 18.658-9.362 26.079-16.552 7.345-7.116 12.21-16.93 12.651-27.147s-3.766-20.7-11.649-27.213a40.066 40.066 0 0 0-12.111-6.788c-4.112-1.452-39.618-20.915-50.314-25.994z" class="cls-2" data-name="Path 970" transform="translate(1016.425 399.873)"/>
            <path id="Path_981" d="M103.362 89.107c-11.522-2.686-24.186-2.353-34.519 3.409-12.587 7.018-19.726 20.668-26.07 33.608-4.491 9.162-9 18.558-10.243 28.685s1.33 21.288 9.044 27.965c5.674 4.911 13.259 6.8 20.249 9.528C73.859 197 84.8 204.557 97.356 207.611a52.776 52.776 0 0 0 35.821-4.084c10.092-5.072 18.222-13.225 26.765-20.614 7.815-6.759 16.242-13.115 21.964-21.717 5.664-8.515 8.331-19.139 6.59-29.216s-8.081-19.424-17.168-24.115a40.062 40.062 0 0 0-13.277-4.058c-4.325-.542-43.158-12.007-54.689-14.7z" class="cls-3" data-name="Path 981" transform="translate(1016.9 384.381)"/>
        </g>
        <g id="coding" transform="translate(387.548 803)">
            <path id="Path_2808" d="M136.058 35h-36.2a10.419 10.419 0 0 0-10.406 10.407v79.186A10.419 10.419 0 0 0 99.859 135h36.2a10.419 10.419 0 0 0 10.407-10.407v-10.4h12.017a6.338 6.338 0 0 0 6.331-6.331v-40.7a1.357 1.357 0 0 0-.436-1l-12.75-11.8a1.357 1.357 0 0 0-.922-.362h-4.24v-8.593A10.419 10.419 0 0 0 136.058 35zm0 97.285h-36.2a7.7 7.7 0 0 1-7.692-7.692v-5.883h51.584v5.882a7.7 7.7 0 0 1-7.692 7.692zM143.751 116H92.167V51.29h36.878a1.357 1.357 0 1 0 0-2.715H92.167v-3.168a7.7 7.7 0 0 1 7.692-7.692h36.2a7.7 7.7 0 0 1 7.692 7.692v3.167h-3.167a1.357 1.357 0 1 0 0 2.715h3.167V54h-18.309a6.338 6.338 0 0 0-6.331 6.331v47.525a6.338 6.338 0 0 0 6.331 6.331h18.308zm14.732-4.522h-33.04a3.62 3.62 0 0 1-3.616-3.616v-47.53a3.62 3.62 0 0 1 3.616-3.616h23.905v7.952a3.848 3.848 0 0 0 3.844 3.844h8.908v39.345a3.62 3.62 0 0 1-3.618 3.617zm-6.419-53.009l7.926 7.331h-6.8a1.131 1.131 0 0 1-1.129-1.129z" class="cls-4" data-name="Path 2808"/>
            <path id="Path_2809" d="M279.5 97.715h2.515a1.357 1.357 0 0 0 0-2.715H279.5a1.357 1.357 0 0 0 0 2.715z" class="cls-4" data-name="Path 2809" transform="translate(-146.003 -46.425)"/>
            <path id="Path_2810" d="M199.2 414a4.751 4.751 0 1 0 4.751 4.751A4.751 4.751 0 0 0 199.2 414zm0 6.787a2.036 2.036 0 1 1 2.036-2.036 2.036 2.036 0 0 1-2.036 2.036z" class="cls-4" data-name="Path 2810" transform="translate(-81.244 -293.253)"/>
            <path id="Path_2811" d="M306.677 175.564a1.357 1.357 0 0 0 1.913-.164l2.836-3.369a1.357 1.357 0 0 0 0-1.748l-2.836-3.369a1.357 1.357 0 1 0-2.077 1.748l2.1 2.495-2.1 2.5a1.357 1.357 0 0 0 .164 1.907z" class="cls-4" data-name="Path 2811" transform="translate(-167.705 -101.695)"/>
            <path id="Path_2812" d="M256.186 175.4a1.357 1.357 0 1 0 2.077-1.748l-2.1-2.494 2.1-2.495a1.357 1.357 0 1 0-2.077-1.748l-2.836 3.369a1.357 1.357 0 0 0 0 1.748z" class="cls-4" data-name="Path 2812" transform="translate(-126.57 -101.698)"/>
            <path id="Path_2813" d="M283.241 170.436a1.355 1.355 0 0 0 1.547-1.137l1.715-11.228a1.358 1.358 0 1 0-2.684-.41l-1.719 11.228a1.357 1.357 0 0 0 1.137 1.547z" class="cls-4" data-name="Path 2813" transform="translate(-149.053 -94.018)"/>
            <path id="Path_2814" d="M263.71 305.05h-9.321a1.357 1.357 0 0 0 0 2.715h9.321a1.357 1.357 0 0 0 0-2.715z" class="cls-4" data-name="Path 2814" transform="translate(-126.57 -208.953)"/>
            <path id="Path_2815" d="M321.285 305.05a1.357 1.357 0 0 0 0 2.715h1.939a1.357 1.357 0 0 0 0-2.715z" class="cls-4" data-name="Path 2815" transform="translate(-178.332 -208.953)"/>
            <path id="Path_2816" d="M361.675 305.05h-6.448a1.357 1.357 0 1 0 0 2.715h6.448a1.357 1.357 0 1 0 0-2.715z" class="cls-4" data-name="Path 2816" transform="translate(-204.595 -208.953)"/>
            <path id="Path_2817" d="M256.278 337.9h-1.89a1.357 1.357 0 1 0 0 2.715h1.89a1.357 1.357 0 1 0 0-2.715z" class="cls-4" data-name="Path 2817" transform="translate(-126.57 -234.371)"/>
            <path id="Path_2818" d="M323.1 337.9h-8.381a1.357 1.357 0 1 0 0 2.715h8.381a1.357 1.357 0 1 0 0-2.715z" class="cls-4" data-name="Path 2818" transform="translate(-173.249 -234.371)"/>
            <path id="Path_2819" d="M288.638 337.9h-.2a1.357 1.357 0 1 0 0 2.715h.2a1.357 1.357 0 1 0 0-2.715z" class="cls-4" data-name="Path 2819" transform="translate(-152.916 -234.371)"/>
            <path id="Path_2820" d="M378.621 337.9h-1.493a1.357 1.357 0 1 0 0 2.715h1.493a1.357 1.357 0 1 0 0-2.715z" class="cls-4" data-name="Path 2820" transform="translate(-221.54 -234.371)"/>
            <path id="Path_2821" d="M254.388 237.69h4.367a1.357 1.357 0 1 0 0-2.715h-4.367a1.357 1.357 0 0 0 0 2.715z" class="cls-4" data-name="Path 2821" transform="translate(-126.57 -154.732)"/>
            <path id="Path_2822" d="M298.029 236.332a1.357 1.357 0 0 0 1.357 1.357h9.371a1.357 1.357 0 1 0 0-2.715h-9.371a1.357 1.357 0 0 0-1.357 1.358z" class="cls-4" data-name="Path 2822" transform="translate(-161.388 -154.732)"/>
            <path id="Path_2823" d="M366.177 237.69h3.971a1.357 1.357 0 0 0 0-2.715h-3.971a1.357 1.357 0 1 0 0 2.715z" class="cls-4" data-name="Path 2823" transform="translate(-213.068 -154.732)"/>
            <path id="Path_2824" d="M254.388 270.538h6.844a1.357 1.357 0 0 0 0-2.715h-6.844a1.357 1.357 0 1 0 0 2.715z" class="cls-4" data-name="Path 2824" transform="translate(-126.57 -180.148)"/>
            <path id="Path_2825" d="M335.257 269.18a1.357 1.357 0 0 0 1.357 1.357h5.9a1.357 1.357 0 0 0 0-2.715h-5.9a1.357 1.357 0 0 0-1.357 1.358z" class="cls-4" data-name="Path 2825" transform="translate(-190.193 -180.148)"/>
            <path id="Path_2826" d="M310.537 270.538a1.357 1.357 0 0 0 0-2.715h-.2a1.357 1.357 0 1 0 0 2.715z" class="cls-4" data-name="Path 2826" transform="translate(-169.86 -180.148)"/>
            <path id="Path_2827" d="M384.711 267.823h-.984a1.357 1.357 0 1 0 0 2.715h.984a1.357 1.357 0 0 0 0-2.715z" class="cls-4" data-name="Path 2827" transform="translate(-226.647 -180.148)"/>
        </g>
    </g>
</svg>
