<svg xmlns="http://www.w3.org/2000/svg" xmlns:xlink="http://www.w3.org/1999/xlink" width="1249.942" height="810.118" viewBox="0 0 1249.942 810.118">
    <defs>
        <style>
            .cls-1{fill:#595959}.cls-2{fill:#fff}.cls-3{fill:#c2c2c2}.cls-4{fill:#009bdb}.cls-5{fill:#3c57ab}.cls-6{fill:#535373}.cls-11,.cls-13,.cls-16,.cls-19,.cls-20,.cls-35,.cls-36,.cls-38,.cls-39,.cls-40,.cls-42,.cls-7{opacity:.3}.cls-8{fill:#594000}.cls-9{fill:#52586e}.cls-10,.cls-22,.cls-34,.cls-43,.cls-44{fill:none}.cls-10,.cls-22,.cls-34,.cls-44{stroke:#fff}.cls-10,.cls-22,.cls-34,.cls-43{stroke-miterlimit:10}.cls-10{stroke-width:.247px}.cls-11{fill:url(#linear-gradient)}.cls-12{fill:#333745}.cls-13{fill:url(#linear-gradient-2)}.cls-14{fill:#74783f}.cls-15{fill:#ff927d}.cls-16{fill:url(#linear-gradient-3)}.cls-17{fill:#414657}.cls-18{fill:#0063b0}.cls-19{fill:url(#linear-gradient-4)}.cls-21{fill:#a2a658}.cls-22,.cls-43{stroke-width:.942px}.cls-23{fill:#002e7f}.cls-24{fill:#ffb700}.cls-25{fill:url(#linear-gradient-5)}.cls-26,.cls-28{opacity:.2}.cls-27{fill:#ff6344}.cls-29{fill:url(#linear-gradient-6)}.cls-30{fill:url(#linear-gradient-8)}.cls-31{fill:#ffdb82}.cls-32{fill:url(#linear-gradient-9)}.cls-33{fill:#fcd2c5}.cls-34{stroke-width:.236px}.cls-35{fill:url(#linear-gradient-11)}.cls-36{fill:url(#linear-gradient-12)}.cls-37{fill:#a1b8ff}.cls-38{fill:url(#linear-gradient-13)}.cls-39{fill:url(#linear-gradient-14)}.cls-40{fill:url(#linear-gradient-15)}.cls-41{fill:#5f9e7a}.cls-42{fill:url(#linear-gradient-16)}.cls-43{stroke:#333745}.cls-44{stroke-linecap:round;stroke-linejoin:round;stroke-width:1.884px}
        </style>
        <linearGradient id="linear-gradient" x1=".398" x2="1.416" y1=".39" y2=".912" gradientUnits="objectBoundingBox">
            <stop offset="0"/>
            <stop offset="1" stop-opacity="0"/>
        </linearGradient>
        <linearGradient id="linear-gradient-2" x2="1" y1=".5" y2=".5" xlink:href="#linear-gradient"/>
        <linearGradient id="linear-gradient-3" x1=".566" x2=".407" y1="-.101" y2="1.222" xlink:href="#linear-gradient"/>
        <linearGradient id="linear-gradient-4" x1=".355" x2=".811" y1=".309" y2="1.282" xlink:href="#linear-gradient"/>
        <linearGradient id="linear-gradient-5" x1=".5" x2=".5" y2="1" gradientUnits="objectBoundingBox">
            <stop offset="0" stop-color="#009bdb"/>
            <stop offset="1" stop-color="#0063b0"/>
        </linearGradient>
        <linearGradient id="linear-gradient-6" x1=".5" x2=".5" y1=".957" y2="-.085" xlink:href="#linear-gradient"/>
        <linearGradient id="linear-gradient-8" x1=".5" x2=".5" y1=".95" y2="-.084" xlink:href="#linear-gradient"/>
        <linearGradient id="linear-gradient-9" x1=".5" x2=".5" y1="-.288" y2="1.913" xlink:href="#linear-gradient"/>
        <linearGradient id="linear-gradient-11" x1=".963" x2="-.187" y1=".149" y2=".954" xlink:href="#linear-gradient"/>
        <linearGradient id="linear-gradient-12" x1=".5" x2=".5" y1="-.212" y2="1.418" xlink:href="#linear-gradient"/>
        <linearGradient id="linear-gradient-13" x1=".629" x2="-.145" y1=".416" y2="1.909" xlink:href="#linear-gradient"/>
        <linearGradient id="linear-gradient-14" x1=".477" x2=".839" y1="-.076" y2="1.132" xlink:href="#linear-gradient"/>
        <linearGradient id="linear-gradient-15" x1=".617" x2="-.002" y1=".387" y2="1.907" xlink:href="#linear-gradient"/>
        <linearGradient id="linear-gradient-16" x1=".505" x2=".493" y1=".039" y2="1.085" xlink:href="#linear-gradient"/>
    </defs>
    <g id="mobile" transform="translate(-394.445 -153.375)">
        <g id="Group_652" data-name="Group 652" transform="translate(588.137 410.624)">
            <path id="Rectangle_344" d="M6.567 0h715.766a6.567 6.567 0 0 1 6.567 6.567v477.77H0V6.567A6.567 6.567 0 0 1 6.567 0z" class="cls-1" data-name="Rectangle 344" transform="translate(45.338)"/>
            <rect id="Rectangle_345" width="444.306" height="688.87" class="cls-2" data-name="Rectangle 345" rx="2.673" transform="rotate(90 367.104 387.119)"/>
            <g id="Group_647" data-name="Group 647" transform="translate(88.471 93.528)">
                <path id="Path_507" d="M673.451 289.378h-240.76A27.586 27.586 0 0 1 405.1 261.8a27.589 27.589 0 0 1 27.587-27.587h240.76a27.586 27.586 0 0 1 27.587 27.587 27.582 27.582 0 0 1-27.583 27.578z" class="cls-3" data-name="Path 507" transform="translate(-405.104 -234.208)"/>
            </g>
            <path id="Path_508" d="M1076.989 217.42H411.533a11.707 11.707 0 0 0-11.709 11.7v18.483h688.87v-18.478a11.7 11.7 0 0 0-11.705-11.705z" class="cls-4" data-name="Path 508" transform="translate(-334.474 -197.405)"/>
            <g id="Group_648" data-name="Group 648" transform="translate(79.529 28.716)">
                <path id="Path_509" d="M415.848 225.8a6.393 6.393 0 1 1-6.393-6.393 6.4 6.4 0 0 1 6.393 6.393z" class="cls-5" data-name="Path 509" transform="translate(-403.062 -219.407)"/>
                <path id="Path_510" d="M422.641 225.8a6.393 6.393 0 1 1-6.393-6.393 6.4 6.4 0 0 1 6.393 6.393z" class="cls-5" data-name="Path 510" transform="translate(-380.109 -219.407)"/>
                <path id="Path_511" d="M429.434 225.8a6.393 6.393 0 1 1-6.393-6.393 6.4 6.4 0 0 1 6.393 6.393z" class="cls-5" data-name="Path 511" transform="translate(-357.156 -219.407)"/>
            </g>
            <g id="Group_649" data-name="Group 649" transform="translate(88.471 186.194)">
                <path id="Path_512" d="M619.21 265.188H410.017a4.91 4.91 0 0 1-4.913-4.909 4.91 4.91 0 0 1 4.913-4.909H619.21a4.909 4.909 0 0 1 4.909 4.909 4.909 4.909 0 0 1-4.909 4.909z" class="cls-6" data-name="Path 512" transform="translate(-405.104 -255.37)"/>
                <path id="Path_513" d="M619.21 271.714H410.017a4.91 4.91 0 0 1-4.913-4.909 4.914 4.914 0 0 1 4.913-4.913H619.21a4.913 4.913 0 0 1 4.909 4.913 4.909 4.909 0 0 1-4.909 4.909z" class="cls-6" data-name="Path 513" transform="translate(-405.104 -233.333)"/>
                <path id="Path_514" d="M619.21 278.233H410.017a4.91 4.91 0 0 1-4.913-4.909 4.908 4.908 0 0 1 4.913-4.909H619.21a4.907 4.907 0 0 1 4.909 4.909 4.909 4.909 0 0 1-4.909 4.909z" class="cls-6" data-name="Path 514" transform="translate(-405.104 -211.289)"/>
                <path id="Path_515" d="M491.237 284.756h-81.22a4.91 4.91 0 0 1-4.913-4.909 4.91 4.91 0 0 1 4.913-4.909h81.22a4.91 4.91 0 0 1 4.913 4.909 4.91 4.91 0 0 1-4.913 4.909z" class="cls-6" data-name="Path 515" transform="translate(-405.104 -189.248)"/>
            </g>
            <path id="Rectangle_346" d="M0 0h819.576v31.275a5.233 5.233 0 0 1-5.233 5.233H5.233A5.233 5.233 0 0 1 0 31.275V0z" class="cls-3" data-name="Rectangle 346" transform="translate(0 484.338)"/>
            <g id="Group_650" data-name="Group 650" transform="translate(417.16 93.529)">
                <path id="Rectangle_347" d="M0 0h124.18v124.18H0z" class="cls-3" data-name="Rectangle 347"/>
            </g>
            <g id="Group_651" data-name="Group 651" transform="translate(417.16 255.543)">
                <path id="Rectangle_348" d="M0 0h124.18v124.18H0z" class="cls-3" data-name="Rectangle 348"/>
            </g>
        </g>
        <path id="Rectangle_349" d="M0 0h42.498v484.338H0z" class="cls-7" data-name="Rectangle 349" transform="rotate(180 525.905 447.481)"/>
        <g id="Group_656" data-name="Group 656" transform="translate(394.445 349.978)">
            <path id="Path_516" d="M395.189 348.9l9.528-27.972h-44.792l-19.258 48.442h16.951l1.41-4.274a4.358 4.358 0 0 1 8.276 2.737l-.508 1.537h69.335c2.028-13.176-40.942-20.47-40.942-20.47z" class="cls-8" data-name="Path 516" transform="translate(-340.667 212.977)"/>
            <path id="Path_517" d="M431.405 348.9l-.039-27.972h-44.792l-9.686 48.444h16.946l1.41-4.274a4.358 4.358 0 0 1 8.276 2.737l-.508 1.537h69.335c2.028-13.178-40.942-20.472-40.942-20.472z" class="cls-8" data-name="Path 517" transform="translate(-218.28 212.977)"/>
            <path id="Path_518" d="M531.555 255.854l25.437 125.88a265.4 265.4 0 0 1 5.1 61.773L557.469 576.9H497.36s6.63-17.025 6.63-34.86-3.994-38.977 1.217-56.75c6.892-23.51-.81-37.295 8.105-65.263 0 0-20.673-68.569-28.778-112.284l-26.177 115.551a88.825 88.825 0 0 1-2.991 10.3L404.274 576.9h-63.236s13.075-13.592 15-31.62c3.24-30.4 17.6-39.1 22.293-55.126 5.9-20.143 12.655-50.515 25.135-67.7 0 0 18.895-97.211 20.572-111.268 1.883-15.834-3.954-42.869 12.918-60.2z" class="cls-9" data-name="Path 518" transform="translate(-339.413 -23.333)"/>
            <path id="Path_519" d="M375.088 259.367l35.134 132.346-8.513 159.306" class="cls-10" data-name="Path 519" transform="translate(-224.362 4.977)"/>
            <path id="Path_520" d="M428.174 252.655L400.2 418.649l-54.719 152.618" class="cls-10" data-name="Path 520" transform="translate(-324.401 -17.703)"/>
            <path id="Path_521" d="M381.559 257.612l-7.751 27.749c8.105 43.715 28.778 112.284 28.778 112.284l1.1-60.643c.533-28.989-22.127-79.39-22.127-79.39z" class="cls-11" data-name="Path 521" transform="translate(-228.687 -.954)"/>
            <path id="Path_522" d="M372.565 250.989c-11.171 11.473-12.379 27.193-12.471 41.109 24.662-6.5 30.3-29.509 31.576-40.128z" class="cls-12" data-name="Path 522" transform="translate(-275.025 -23.333)"/>
            <path id="Path_523" d="M468.787 281.716l-5.229-25.862-94.6-4.865a38.476 38.476 0 0 0-7.794 11.849z" class="cls-7" data-name="Path 523" transform="translate(-271.417 -23.333)"/>
            <path id="Path_527" d="M395.384 220.614l-5.926 22-.451 24.977 27.836-41.146z" class="cls-13" data-name="Path 527" transform="translate(-177.33 -125.967)"/>
            <path id="Path_529" d="M397.248 220.614h94.724s-10.785 65.412-12.716 129.252a12.3 12.3 0 0 1-12.3 11.928h-88.8c-15.847 0-21.916-11.311-14.765-25.932 10.645-21.763 6.161-26.335 8.061-36.66 4.414-23.913 25.796-57.337 25.796-78.588z" class="cls-14" data-name="Path 529" transform="translate(-273.917 -125.967)"/>
            <path id="Path_530" d="M435.721 217.4s-4.69 18.032-3.245 25.424l-4.869-1.625s-2.658 10.684-3.56 14.109c-1.353 5.141-7.6 7.908-14.45 2.68 0 0-4.348 13.242-6.511 20.537a33.129 33.129 0 0 1-26.685 0s7.672-20.774 9.515-28.691c0 0-6.814-37.842 6.533-44.7s43.272 12.266 43.272 12.266z" class="cls-15" data-name="Path 530" transform="translate(-219.929 -183.275)"/>
            <path id="Path_531" d="M388.634 213.028S375.393 202.58 379.071 226s19.4 21.439 19.4 21.439c2.058-6.525 4.278-13.286 4.278-13.286a13.788 13.788 0 0 0 4.944 2.5c-5.852-2.405-19.059-23.625-19.059-23.625z" class="cls-16" data-name="Path 531" transform="translate(-213.085 -159.446)"/>
            <path id="Path_532" d="M384.778 265.556c-22.07-43.666 8.285-54.408 8.285-54.408 21.934-28.831 64.948.644 59.076 16.508-6.428 17.371-45.83-.521-45.83-.521l-6.94 15.707s-.048-10.522-5.7-8.714c-6.31 2.014-6.958 13.29.67 18.453a55.3 55.3 0 0 1-9.561 12.975z" class="cls-17" data-name="Path 532" transform="translate(-218.792 -199)"/>
            <path id="Path_533" d="M650.6 283.076H409.846a27.583 27.583 0 0 1-27.587-27.583 27.587 27.587 0 0 1 27.587-27.587H650.6a27.587 27.587 0 0 1 27.587 27.587 27.583 27.583 0 0 1-27.587 27.583z" class="cls-18" data-name="Path 533" transform="translate(-200.132 -101.328)"/>
            <path id="Path_535" d="M401.207 257.66l-8.815-24.2-22.477 21.94 8.263 17.043a24.159 24.159 0 0 0 1.493 2.553c8.2-3.8 19.013-8.789 26.046-12.033a10.029 10.029 0 0 1-4.51-5.303z" class="cls-19" data-name="Path 535" transform="translate(-241.841 -82.555)"/>
            <path id="Path_536" d="M395.883 220.723l31.392 80.716h-38.333s-16.114-30.552-21.584-40.356-11.927-42.93 28.525-40.36z" class="cls-14" data-name="Path 536" transform="translate(-264.192 -126.076)"/>
            <g id="Group_653" class="cls-20" data-name="Group 653" transform="translate(140.005 117.072)">
                <path id="Path_537" d="M391.665 275.028l-19.025-48.919.958-.374 19.026 48.919z" data-name="Path 537" transform="translate(-372.64 -225.735)"/>
            </g>
            <path id="Path_538" d="M373.584 247.968h41.354l-4.878-11.376h-42.493a9796.807 9796.807 0 0 1 6.017 11.376z" class="cls-21" data-name="Path 538" transform="translate(-249.775 -71.979)"/>
            <g id="Group_654" data-name="Group 654" transform="translate(432.272 140.815)">
                <path id="Path_539" d="M456.338 234.064a9.933 9.933 0 1 1-14.047 0 9.94 9.94 0 0 1 14.047 0z" class="cls-22" data-name="Path 539" transform="translate(-439.384 -231.157)"/>
                <path id="Line_85" d="M0 0l9.746 9.746" class="cls-22" data-name="Line 85" transform="translate(16.953 16.953)"/>
            </g>
            <g id="Group_655" class="cls-20" data-name="Group 655" transform="translate(108.7 145.78)">
                <path id="Path_540" d="M375.73 251.99l-10.24-19.215.91-.483 10.24 19.215z" data-name="Path 540" transform="translate(-365.491 -232.291)"/>
            </g>
        </g>
        <g id="Group_658" data-name="Group 658" transform="translate(662.099 758.653)">
            <path id="Rectangle_350" d="M2.747 0h140.4a2.747 2.747 0 0 1 2.753 2.747V65.57H0V2.747A2.747 2.747 0 0 1 2.747 0z" class="cls-23" data-name="Rectangle 350" transform="translate(3.349)"/>
            <path id="Rectangle_351" d="M1.1 0h119.6a1.1 1.1 0 0 1 1.1 1.1v53.361H0V1.1A1.1 1.1 0 0 1 1.1 0z" class="cls-7" data-name="Rectangle 351" transform="translate(15.401 11.11)"/>
            <path id="Path_541" d="M476.963 345.552h7.422V330.27h-7.422a5.714 5.714 0 0 1-4.042-9.756l5.246-5.25-10.8-10.8-5.246 5.246a5.717 5.717 0 0 1-9.761-4.042v-7.422h-15.28v7.422a5.717 5.717 0 0 1-9.76 4.042l-5.25-5.246-10.8 10.8 5.246 5.25a5.714 5.714 0 0 1-4.042 9.756h-7.418v15.282h7.418a5.714 5.714 0 0 1 4.042 9.756l-5.246 5.25 10.8 10.8 5.25-5.246a5.717 5.717 0 0 1 9.76 4.042v7.422h15.278v-7.422a5.717 5.717 0 0 1 9.761-4.042l5.246 5.246 10.8-10.8-5.246-5.25a5.714 5.714 0 0 1 4.044-9.756zm-32.246 4.773a12.414 12.414 0 1 1 12.414-12.414 12.413 12.413 0 0 1-12.414 12.414z" class="cls-24" data-name="Path 541" transform="translate(-390.767 -272.341)"/>
            <path id="Path_542" d="M449.807 367.789l36.883-36.883a11.572 11.572 0 0 1 8.688-3.494 15.085 15.085 0 0 0 15.733-16.868 1.292 1.292 0 0 0-2.189-.744l-8.153 8.158a4.98 4.98 0 0 1-4.808 1.288l-2.549-.683a4.976 4.976 0 0 1-3.516-3.521l-.683-2.549a4.973 4.973 0 0 1 1.288-4.8l8.162-8.162a1.286 1.286 0 0 0-.731-2.181 15.058 15.058 0 0 0-16.876 15.768 11.676 11.676 0 0 1-3.6 8.745l-36.7 36.7a11.678 11.678 0 0 1-8.74 3.6 15.063 15.063 0 0 0-15.773 16.876 1.288 1.288 0 0 0 2.185.731l8.158-8.162a4.98 4.98 0 0 1 4.808-1.287l2.549.683a4.97 4.97 0 0 1 3.516 3.521l.683 2.549a4.973 4.973 0 0 1-1.287 4.8l-8.154 8.154a1.292 1.292 0 0 0 .74 2.194 15.085 15.085 0 0 0 16.867-15.733 11.575 11.575 0 0 1 3.499-8.7z" class="cls-24" data-name="Path 542" transform="translate(-353.308 -275.744)"/>
            <path id="Rectangle_352" d="M0 0h152.594v67.881a2.508 2.508 0 0 1-2.508 2.508H2.508A2.508 2.508 0 0 1 0 67.881V0z" class="cls-18" data-name="Rectangle 352" transform="translate(0 65.57)"/>
            <g id="Group_657" class="cls-20" data-name="Group 657" transform="translate(25.286 65.57)">
                <path id="Path_543" d="M414.024 340.354a6.457 6.457 0 0 1-6.459-6.459V307.3h12.922v26.6a6.461 6.461 0 0 1-6.463 6.454z" data-name="Path 543" transform="translate(-407.565 -307.302)"/>
                <path id="Path_544" d="M434.372 340.354a6.457 6.457 0 0 1-6.459-6.459V307.3h12.922v26.6a6.461 6.461 0 0 1-6.463 6.454z" data-name="Path 544" transform="translate(-338.811 -307.302)"/>
            </g>
            <path id="Rectangle_353" d="M0 0h145.896v7.647H0z" class="cls-7" data-name="Rectangle 353" transform="translate(3.349 57.924)"/>
        </g>
        <g id="Group_664" data-name="Group 664" transform="translate(1016.466 217.879)">
            <rect id="Rectangle_354" width="406.78" height="714.638" class="cls-25" data-name="Rectangle 354" rx="15.256"/>
            <path id="Path_545" d="M811.289 172.45h-59.562a12.77 12.77 0 0 0-12.344 9.493l-1.9 7.142a13.729 13.729 0 0 1-13.273 10.207h-99.02a13.729 13.729 0 0 1-13.272-10.207l-1.9-7.142a12.769 12.769 0 0 0-12.344-9.493h-59.558a50.958 50.958 0 0 0-50.957 50.962v581.031a50.961 50.961 0 0 0 50.957 50.957h273.178a50.961 50.961 0 0 0 50.957-50.961V223.412a50.962 50.962 0 0 0-50.962-50.962z" class="cls-2" data-name="Path 545" transform="translate(-467.707 -156.608)"/>
            <path id="Path_546" d="M581.637 179.978h-56a2.645 2.645 0 0 1-2.645-2.645 2.648 2.648 0 0 1 2.645-2.645h56a2.648 2.648 0 0 1 2.645 2.645 2.645 2.645 0 0 1-2.645 2.645z" class="cls-26" data-name="Path 546" transform="translate(-346.638 -149.046)"/>
            <path id="Path_547" d="M527.388 178.505a4.167 4.167 0 1 1-4.169-4.164 4.168 4.168 0 0 1 4.169 4.164z" class="cls-26" data-name="Path 547" transform="translate(-359.934 -150.219)"/>
            <path id="Rectangle_355" d="M0 0h25.002v11.593H0z" class="cls-9" data-name="Rectangle 355" transform="translate(291.721 25.135)"/>
            <path id="Path_548" d="M567.877 186.165l-10.108-11.593h20.216z" class="cls-9" data-name="Path 548" transform="translate(-229.123 -149.437)"/>
            <rect id="Rectangle_356" width="92.334" height="92.334" class="cls-3" data-name="Rectangle 356" rx="3.305" transform="translate(46.919 92.856)"/>
            <rect id="Rectangle_357" width="92.334" height="92.334" class="cls-3" data-name="Rectangle 357" rx="3.305" transform="translate(160.831 92.856)"/>
            <rect id="Rectangle_358" width="92.334" height="92.334" class="cls-3" data-name="Rectangle 358" rx="3.305" transform="translate(274.743 92.856)"/>
            <g id="Group_660" data-name="Group 660" transform="translate(46.919 220.918)">
                <rect id="Rectangle_359" width="320.158" height="64.405" class="cls-15" data-name="Rectangle 359" rx="2.39"/>
                <path id="Path_549" d="M604.581 219.283h-52.389v64.4h52.389a10.465 10.465 0 0 0 10.466-10.466v-43.468a10.465 10.465 0 0 0-10.466-10.466z" class="cls-27" data-name="Path 549" transform="translate(-294.886 -219.282)"/>
                <g id="Group_659" data-name="Group 659" transform="translate(19.619 13.133)">
                    <path id="Path_550" d="M678.787 229.363H501.455a3.54 3.54 0 0 1-3.543-3.538 3.541 3.541 0 0 1 3.543-3.543h177.332a3.54 3.54 0 0 1 3.538 3.543 3.539 3.539 0 0 1-3.538 3.538z" class="cls-27" data-name="Path 550" transform="translate(-497.912 -222.282)"/>
                    <path id="Path_551" d="M678.787 232.905H501.455a3.541 3.541 0 0 1-3.543-3.538 3.538 3.538 0 0 1 3.543-3.538h177.332a3.537 3.537 0 0 1 3.538 3.538 3.539 3.539 0 0 1-3.538 3.538z" class="cls-27" data-name="Path 551" transform="translate(-497.912 -210.297)"/>
                    <path id="Path_552" d="M574.534 236.456h-73.079a3.541 3.541 0 0 1-3.543-3.543 3.54 3.54 0 0 1 3.543-3.538h73.079a3.54 3.54 0 0 1 3.538 3.538 3.54 3.54 0 0 1-3.538 3.543z" class="cls-27" data-name="Path 552" transform="translate(-497.912 -198.315)"/>
                </g>
                <circle id="Ellipse_25" cx="11.882" cy="11.882" r="11.882" class="cls-2" data-name="Ellipse 25" transform="translate(276.849 20.32)"/>
            </g>
            <g id="Group_661" data-name="Group 661" transform="translate(46.919 331.742)">
                <rect id="Rectangle_360" width="320.158" height="64.405" class="cls-3" data-name="Rectangle 360" rx="2.39"/>
            </g>
            <g id="Group_663" data-name="Group 663" transform="translate(46.919 442.565)">
                <rect id="Rectangle_361" width="320.158" height="64.404" class="cls-4" data-name="Rectangle 361" rx="2.39"/>
                <path id="Path_553" d="M604.581 269.9h-52.389v64.4h52.389a10.465 10.465 0 0 0 10.466-10.466v-43.468a10.465 10.465 0 0 0-10.466-10.466z" class="cls-18" data-name="Path 553" transform="translate(-294.886 -269.9)"/>
                <g id="Group_662" data-name="Group 662" transform="translate(19.619 13.132)">
                    <path id="Path_554" d="M678.787 279.98H501.455a3.54 3.54 0 0 1-3.543-3.538 3.541 3.541 0 0 1 3.543-3.543h177.332a3.54 3.54 0 0 1 3.538 3.543 3.539 3.539 0 0 1-3.538 3.538z" class="cls-18" data-name="Path 554" transform="translate(-497.912 -272.899)"/>
                    <path id="Path_555" d="M678.787 283.526H501.455a3.54 3.54 0 0 1-3.543-3.538 3.541 3.541 0 0 1 3.543-3.543h177.332a3.54 3.54 0 0 1 3.538 3.543 3.539 3.539 0 0 1-3.538 3.538z" class="cls-18" data-name="Path 555" transform="translate(-497.912 -260.917)"/>
                    <path id="Path_556" d="M574.534 287.073h-73.079a3.541 3.541 0 0 1-3.543-3.543 3.54 3.54 0 0 1 3.543-3.538h73.079a3.54 3.54 0 0 1 3.538 3.538 3.541 3.541 0 0 1-3.538 3.543z" class="cls-18" data-name="Path 556" transform="translate(-497.912 -248.932)"/>
                </g>
                <circle id="Ellipse_26" cx="11.882" cy="11.882" r="11.882" class="cls-2" data-name="Ellipse 26" transform="translate(276.849 20.32)"/>
            </g>
        </g>
        <g id="Group_665" class="cls-28" data-name="Group 665" transform="translate(1153.615 539.921)">
            <rect id="Rectangle_362" width="302.992" height="60.951" data-name="Rectangle 362" rx="2.262" transform="rotate(-8.063 301.5 21.25)"/>
        </g>
        <g id="Group_666" class="cls-28" data-name="Group 666" transform="translate(1302.731 323.206)">
            <rect id="Rectangle_363" width="92.334" height="92.334" data-name="Rectangle 363" rx="3.305" transform="rotate(9.68 7.763 91.68)"/>
        </g>
        <g id="Group_670" data-name="Group 670" transform="translate(827.875 757.315)">
            <path id="Rectangle_364" d="M0 0h276.997v205.706H0z" class="cls-18" data-name="Rectangle 364"/>
            <g id="Group_667" class="cls-20" data-name="Group 667" transform="translate(26.14 51.372)">
                <path id="Path_557" d="M557.783 340.554l8.67-8.67-17.853-17.857-8.675 8.674a9.448 9.448 0 0 1-16.128-6.682v-12.265H498.55v12.265a9.451 9.451 0 0 1-16.132 6.682l-8.67-8.674-17.857 17.857 8.675 8.67a9.448 9.448 0 0 1-6.682 16.128h-12.266v25.253h12.265a9.447 9.447 0 0 1 6.682 16.127l-8.675 8.67 17.857 17.857 8.67-8.675a9.451 9.451 0 0 1 16.133 6.686v12.265h25.25V422.6a9.448 9.448 0 0 1 16.128-6.682l8.675 8.675 17.853-17.857-8.675-8.67a9.448 9.448 0 0 1 6.682-16.127h12.265v-25.257h-12.267a9.446 9.446 0 0 1-6.678-16.128zm-46.609 49.267a20.515 20.515 0 1 1 20.515-20.515 20.512 20.512 0 0 1-20.515 20.515z" class="cls-29" data-name="Path 557" transform="translate(-445.618 -303.754)"/>
                <path id="Path_558" d="M507.577 330.11a17.043 17.043 0 0 0-.906-26.041 1.458 1.458 0 0 0-2.343 1.156v13.032a5.62 5.62 0 0 1-2.811 4.865l-2.584 1.489a5.6 5.6 0 0 1-5.618 0l-2.584-1.489a5.631 5.631 0 0 1-2.811-4.869v-13.037a1.451 1.451 0 0 0-2.325-1.161 17.018 17.018 0 0 0-.884 26.081 13.2 13.2 0 0 1 4.112 9.857v58.629a13.2 13.2 0 0 1-4.112 9.857 17.018 17.018 0 0 0 .884 26.081 1.453 1.453 0 0 0 2.325-1.16v-13.04a5.629 5.629 0 0 1 2.811-4.865l2.583-1.495a5.622 5.622 0 0 1 5.618 0l2.584 1.493a5.62 5.62 0 0 1 2.811 4.865v13.032a1.458 1.458 0 0 0 2.343 1.156 17.043 17.043 0 0 0 .906-26.041 13.087 13.087 0 0 1-4.151-9.734v-58.927a13.087 13.087 0 0 1 4.152-9.734z" class="cls-29" data-name="Path 558" transform="translate(-332.613 -303.753)"/>
                <path id="Path_559" d="M509.14 387.7a3.466 3.466 0 0 1-.144-6.923l-.132-6.323h-4.909v-52.1l3.389-2.032-4.8-16.57h-4.154l-4.8 16.57 3.394 2.032v52.1h-4.909l-.131 6.323a3.466 3.466 0 0 1-.144 6.923l-1.007 48.045h19.359z" class="cls-30" data-name="Path 559" transform="translate(-292.993 -303.754)"/>
            </g>
            <path id="Rectangle_365" d="M0 0h276.997v29.336H0z" class="cls-23" data-name="Rectangle 365"/>
            <g id="Group_668" data-name="Group 668" transform="translate(29.923 51.372)">
                <path id="Path_560" d="M565.325 381.935h12.265v-25.253h-12.265a9.448 9.448 0 0 1-6.682-16.128l8.675-8.67-17.858-17.857-8.67 8.674a9.451 9.451 0 0 1-16.132-6.682v-12.265H499.41v12.265a9.448 9.448 0 0 1-16.128 6.682l-8.675-8.674-17.853 17.857 8.67 8.67a9.446 9.446 0 0 1-6.678 16.128h-12.264v25.253h12.265a9.446 9.446 0 0 1 6.678 16.127l-8.67 8.67 17.853 17.857 8.675-8.675a9.448 9.448 0 0 1 16.127 6.686v12.265h25.249V422.6a9.451 9.451 0 0 1 16.132-6.682l8.67 8.675 17.857-17.857-8.675-8.67a9.447 9.447 0 0 1 6.682-16.131zm-53.291 7.886a20.515 20.515 0 1 1 20.515-20.515 20.515 20.515 0 0 1-20.515 20.515z" class="cls-2" data-name="Path 560" transform="translate(-446.482 -303.754)"/>
                <path id="Path_561" d="M504.292 398.77v-58.927a13.083 13.083 0 0 1 4.147-9.734 17.035 17.035 0 0 0-.906-26.041 1.458 1.458 0 0 0-2.343 1.156v13.032a5.611 5.611 0 0 1-2.811 4.865l-2.579 1.489a5.609 5.609 0 0 1-5.622 0l-2.578-1.49a5.622 5.622 0 0 1-2.811-4.869v-13.036a1.452 1.452 0 0 0-2.325-1.161 17.009 17.009 0 0 0-.885 26.081 13.192 13.192 0 0 1 4.107 9.857v58.629a13.2 13.2 0 0 1-4.107 9.857 17.009 17.009 0 0 0 .885 26.081 1.452 1.452 0 0 0 2.325-1.16v-13.04a5.62 5.62 0 0 1 2.811-4.865l2.577-1.494a5.63 5.63 0 0 1 5.622 0l2.579 1.493a5.611 5.611 0 0 1 2.811 4.865v13.032a1.458 1.458 0 0 0 2.343 1.156 17.035 17.035 0 0 0 .906-26.041 13.083 13.083 0 0 1-4.146-9.735z" class="cls-3" data-name="Path 561" transform="translate(-333.48 -303.752)"/>
                <path id="Path_562" d="M501.249 303.754h-4.159l-4.8 16.57 3.393 2.029v52.1h6.972v-52.1l3.393-2.029z" class="cls-3" data-name="Path 562" transform="translate(-291.698 -303.754)"/>
                <path id="Path_563" d="M506.628 329.669a3.476 3.476 0 0 1 3.232-3.446l-.131-6.323h-16.8l-.131 6.323a3.466 3.466 0 0 1-.144 6.923l-1 48.045h19.355l-1-48.045a3.488 3.488 0 0 1-3.381-3.477z" class="cls-12" data-name="Path 563" transform="translate(-293.857 -249.198)"/>
                <path id="Path_564" d="M485.511 378.9a2.19 2.19 0 0 1-2.19-2.189v-63.55a2.194 2.194 0 0 1 2.19-2.194 2.195 2.195 0 0 1 2.194 2.194v63.551a2.191 2.191 0 0 1-2.194 2.188z" class="cls-2" data-name="Path 564" transform="translate(-322.003 -279.382)"/>
            </g>
            <g id="Group_669" data-name="Group 669" transform="translate(26.142 9.045)">
                <circle id="Ellipse_27" cx="5.623" cy="5.623" r="5.623" class="cls-2" data-name="Ellipse 27"/>
                <circle id="Ellipse_28" cx="5.623" cy="5.623" r="5.623" class="cls-2" data-name="Ellipse 28" transform="translate(27.236)"/>
                <path id="Path_565" d="M469.3 299.71a5.622 5.622 0 1 1-5.622-5.622 5.623 5.623 0 0 1 5.622 5.622z" class="cls-2" data-name="Path 565" transform="translate(-403.587 -294.087)"/>
            </g>
        </g>
        <g id="Group_673" data-name="Group 673" transform="translate(1137.802 787.804)">
            <g id="Group_671" class="cls-28" data-name="Group 671">
                <path id="Path_566" d="M510.426 474.2h238.019l12.638-154.168a19.461 19.461 0 0 0-19.394-21.049H542.716a19.461 19.461 0 0 0-19.394 17.87z" data-name="Path 566" transform="translate(-510.426 -298.985)"/>
            </g>
            <g id="Group_672" data-name="Group 672" transform="translate(15.369)">
                <path id="Path_567" d="M766.9 474.2H528.877l-14.888-161.772a12.312 12.312 0 0 1 12.261-13.443h213.287a12.312 12.312 0 0 1 12.263 11.188z" class="cls-24" data-name="Path 567" transform="translate(-513.936 -298.985)"/>
                <path id="Path_568" d="M526.707 314.867c1.813 19.714 19.263 35.692 38.977 35.692s34.217-15.979 32.4-35.692a38.153 38.153 0 0 0-5.224-15.882h-63.853a33.775 33.775 0 0 0-2.3 15.882z" class="cls-31" data-name="Path 568" transform="translate(-471.288 -298.985)"/>
                <path id="Path_569" d="M546.576 322.106l-30.547 33.643 5.78 62.754h160.145L575.24 320.784a20.248 20.248 0 0 0-28.664 1.322z" class="cls-18" data-name="Path 569" transform="translate(-506.863 -243.286)"/>
                <path id="Path_570" d="M529.941 449.025h182.876l-10.934-118.808L681.6 311.65a19.85 19.85 0 0 0-28.108 1.3z" class="cls-4" data-name="Path 570" transform="translate(-459.856 -273.808)"/>
            </g>
        </g>
        <g id="Group_675" data-name="Group 675" transform="translate(871.448 291.072)">
            <ellipse id="Ellipse_29" cx="80.405" cy="80.405" class="cls-7" data-name="Ellipse 29" rx="80.405" ry="80.405" transform="rotate(-80.835 93.212 79.379)"/>
            <circle id="Ellipse_30" cx="76.819" cy="76.819" r="76.819" class="cls-27" data-name="Ellipse 30" transform="translate(18.951 7.78)"/>
            <g id="Group_674" data-name="Group 674" transform="translate(46.577 53.872)">
                <path id="Path_571" d="M460.236 219.148a2.6 2.6 0 0 1 .53-1.655 6.192 6.192 0 0 1 1.52-1.309l23.309-15.751a1.958 1.958 0 0 1 .46-.175 1.459 1.459 0 0 1 1.8 1.445v3.179a2.56 2.56 0 0 1-.744 1.839 8.233 8.233 0 0 1-1.515 1.27l-18.65 12.642 18.65 12.642a8.444 8.444 0 0 1 1.515 1.274 2.55 2.55 0 0 1 .744 1.835v3.179a1.426 1.426 0 0 1-.425 1.06 1.443 1.443 0 0 1-1.06.425 1.414 1.414 0 0 1-.315-.035 1.957 1.957 0 0 1-.46-.175l-23.309-15.751a6.191 6.191 0 0 1-1.52-1.309 2.607 2.607 0 0 1-.53-1.66z" class="cls-2" data-name="Path 571" transform="translate(-460.236 -189.835)"/>
                <path id="Path_572" d="M498.619 257.114a1.776 1.776 0 0 1 .14.635 1.562 1.562 0 0 1-1.55 1.554h-2.119a2.885 2.885 0 0 1-2.12-.7 4.264 4.264 0 0 1-.99-1.414l-23.874-57.14a1.723 1.723 0 0 1-.144-.635 1.585 1.585 0 0 1 1.559-1.559h2.33a2.856 2.856 0 0 1 2.045.674 4.74 4.74 0 0 1 1.064 1.445z" class="cls-2" data-name="Path 572" transform="translate(-434.131 -197.85)"/>
                <path id="Path_573" d="M504.016 222.116a2.581 2.581 0 0 1-.53 1.66 6.33 6.33 0 0 1-1.515 1.309l-23.313 15.751a1.955 1.955 0 0 1-.46.175 1.513 1.513 0 0 1-1.375-.39 1.426 1.426 0 0 1-.425-1.06v-3.179a2.583 2.583 0 0 1 .74-1.835 8.472 8.472 0 0 1 1.52-1.274l18.65-12.642-18.65-12.642a8.26 8.26 0 0 1-1.52-1.27 2.593 2.593 0 0 1-.74-1.839v-3.18a1.451 1.451 0 0 1 1.484-1.48 1.443 1.443 0 0 1 .315.035 1.956 1.956 0 0 1 .46.175l23.313 15.751a6.331 6.331 0 0 1 1.515 1.309 2.577 2.577 0 0 1 .53 1.655z" class="cls-2" data-name="Path 573" transform="translate(-405.626 -189.835)"/>
            </g>
        </g>
        <g id="Group_677" data-name="Group 677" transform="translate(710.009 227.066)">
            <circle id="Ellipse_31" cx="64.996" cy="64.996" r="64.996" class="cls-7" data-name="Ellipse 31" transform="rotate(-45 110.956 45.96)"/>
            <circle id="Ellipse_32" cx="64.997" cy="64.997" r="64.997" class="cls-27" data-name="Ellipse 32" transform="translate(33.27 21.422)"/>
            <g id="Group_676" data-name="Group 676" transform="translate(70.186 49.156)">
                <path id="Path_574" d="M485.471 209.66a10.594 10.594 0 0 0-6.792 2.5l-28.7-16.574a10.438 10.438 0 0 0 .18-1.787 10.7 10.7 0 1 0-10.7 10.7 10.579 10.579 0 0 0 6.786-2.499l28.7 16.574a8.975 8.975 0 0 0 0 3.573l-28.7 16.57a10.655 10.655 0 1 0 3.91 8.206 10.482 10.482 0 0 0-.18-1.787l28.7-16.57a10.68 10.68 0 1 0 6.792-18.908z" class="cls-7" data-name="Path 574" transform="translate(-428.76 -178.973)"/>
                <path id="Path_575" d="M485.471 208.718a10.594 10.594 0 0 0-6.792 2.5l-28.7-16.574a10.438 10.438 0 0 0 .18-1.787 10.818 10.818 0 1 0-3.91 8.206l28.7 16.574a8.975 8.975 0 0 0 0 3.573l-28.7 16.57a10.655 10.655 0 1 0 3.91 8.206 10.481 10.481 0 0 0-.18-1.786l28.7-16.57a10.68 10.68 0 1 0 6.792-18.908z" class="cls-2" data-name="Path 575" transform="translate(-428.76 -182.156)"/>
            </g>
        </g>
        <g id="Group_683" data-name="Group 683" transform="translate(1156.137 331.8)">
            <g id="Group_678" data-name="Group 678" transform="translate(301.608 572.698)">
                <path id="Rectangle_366" d="M0 0h16.399v58.523H0z" class="cls-5" data-name="Rectangle 366"/>
                <path id="Rectangle_367" d="M0 0h16.399v58.523H0z" class="cls-5" data-name="Rectangle 367" transform="translate(117.909)"/>
            </g>
            <g id="Group_679" class="cls-20" data-name="Group 679" transform="translate(301.608 572.698)">
                <path id="Rectangle_368" d="M0 0h16.399v25.346H0z" class="cls-32" data-name="Rectangle 368"/>
                <path id="Rectangle_369" d="M0 0h16.399v25.346H0z" class="cls-32" data-name="Rectangle 369" transform="translate(117.909)"/>
            </g>
            <path id="Path_576" d="M738.433 339.873h-150.1a8.617 8.617 0 0 1-8.618-8.618 8.617 8.617 0 0 1 8.618-8.618h150.1a8.617 8.617 0 0 1 8.617 8.618 8.617 8.617 0 0 1-8.617 8.618z" class="cls-23" data-name="Path 576" transform="translate(-294.624 236.94)"/>
            <path id="Path_577" d="M635.2 313.059l-4.309 30.722s5.741 9.717 3.972 13.693-52.017 4.488-52.884 1.033c-1.406-5.622 30.8-16.048 30.8-16.048l-.07-29.4z" class="cls-33" data-name="Path 577" transform="translate(-287.147 204.573)"/>
            <path id="Path_578" d="M634.858 333.511c1.077-2.422-.631-6.967-2.133-10.155-15.685 2.833-22.148-.666-24.789-3.205-8.928 3.166-27.022 10.146-25.958 14.393.863 3.456 51.116 2.943 52.88-1.033z" class="cls-27" data-name="Path 578" transform="translate(-287.144 228.537)"/>
            <path id="Path_579" d="M639.063 310.728l9.112 30.508s8.083 7.878 7.413 12.178-49.039 17.918-50.778 14.814c-2.824-5.062 25.542-23.541 25.542-23.541l-13-28.082z" class="cls-33" data-name="Path 579" transform="translate(-210.51 196.697)"/>
            <path id="Path_580" d="M655.586 327.609c.407-2.619-2.43-6.56-4.712-9.244-14.4 6.831-21.553 5.145-24.763 3.381-7.794 5.391-23.436 16.854-21.3 20.673 1.736 3.108 50.11-10.519 50.775-14.81z" class="cls-27" data-name="Path 580" transform="translate(-210.507 222.502)"/>
            <path id="Path_581" d="M619.708 242.671s-43.955 174.184-31.861 311.974h38.158s15.729-71.087 9.09-141.438l26.515-170.076z" class="cls-18" data-name="Path 581" transform="translate(-274.275 -33.26)"/>
            <path id="Path_582" d="M621.4 263.042s-30.608 81.885-30.608 213.09" class="cls-34" data-name="Path 582" transform="translate(-257.202 35.571)"/>
            <path id="Path_583" d="M609.147 242.671s-10.847 42.983-20.279 103.123c5.824 38 16.8 86.352 37.05 119.053a411.886 411.886 0 0 0-1.384-51.64l26.514-170.076z" class="cls-35" data-name="Path 583" transform="translate(-263.714 -33.26)"/>
            <path id="Path_584" d="M600.674 242.671S579.69 408.889 638.2 554.645h37.519s-.232-104.931-24.522-145.668c0 0 11.381-131.857-13-165.549z" class="cls-18" data-name="Path 584" transform="translate(-236.193 -33.26)"/>
            <path id="Path_585" d="M602.478 244.353S595.213 420.849 643 540.879" class="cls-34" data-name="Path 585" transform="translate(-219.062 -27.577)"/>
            <path id="Path_586" d="M656.689 243.428l-14.669-.3-22.849-.46-.026.21-19.022-.21s-3.661 14.525-8.579 38.469c37.961 8.351 64.357-4.659 75.032-11.573-2.342-10.954-5.539-20.123-9.887-26.136z" class="cls-36" data-name="Path 586" transform="translate(-254.685 -33.26)"/>
            <path id="Path_587" d="M611.148 326.394h37.518s-.018-6.218-.386-16.171h-43.262q2.91 8.118 6.13 16.171z" class="cls-37" data-name="Path 587" transform="translate(-209.145 194.991)"/>
            <path id="Path_588" d="M585.961 310.223c.306 5.434.679 10.833 1.152 16.171h38.149s1.323-5.99 3.039-16.171z" class="cls-37" data-name="Path 588" transform="translate(-273.536 194.991)"/>
            <path id="Path_589" d="M599.891 211.2c-4.375 11.495-6.875 28.638-3.127 44.9s8.123 35.938 9.682 55.306 6.765 58.992 47.454 66.761c15.878 3.03 24.561-10.26 29.785-20.082s-26.374-81.855-26.374-81.855l-24.627-73.526z" class="cls-12" data-name="Path 589" transform="translate(-243.209 -168.298)"/>
            <path id="Path_590" d="M719.452 259.331l-71.542 7.19-57.092-38.946s-5.732-17.459-18.658-18.877l-1.922 20.108 58.909 51.964a36.379 36.379 0 0 0 27.644 8.92l64.1-6.354z" class="cls-33" data-name="Path 590" transform="translate(-326.666 -148.051)"/>
            <path id="Path_591" d="M588.772 250.7a36.359 36.359 0 0 0 5.39-.083l64.1-6.354-1.436-24-55.008 5.526z" class="cls-38" data-name="Path 591" transform="translate(-264.038 -108.981)"/>
            <g id="Group_680" data-name="Group 680" transform="translate(152.97)">
                <rect id="Rectangle_370" width="92.334" height="92.334" class="cls-4" data-name="Rectangle 370" rx="3.305" transform="rotate(9.68 7.763 91.68)"/>
                <path id="Path_592" d="M583.863 203.031l3.468 13.938a1.332 1.332 0 0 0 .946.968l13.855 3.8a1.337 1.337 0 0 1 .355 2.422L590.3 231.77a1.335 1.335 0 0 0-.631 1.2l.67 14.35a1.337 1.337 0 0 1-2.194 1.086l-11-9.239a1.346 1.346 0 0 0-1.331-.228L562.367 244a1.334 1.334 0 0 1-1.708-1.752l5.386-13.316a1.348 1.348 0 0 0-.2-1.34l-8.972-11.214a1.338 1.338 0 0 1 1.134-2.172l14.332 1.012a1.341 1.341 0 0 0 1.209-.6l7.9-12a1.34 1.34 0 0 1 2.415.413z" class="cls-2" data-name="Path 592" transform="translate(-525.789 -170.624)"/>
            </g>
            <path id="Path_593" d="M568.555 209.91l11.554 18.5 3.155-18.5z" class="cls-39" data-name="Path 593" transform="translate(-332.35 -143.958)"/>
            <path id="Path_594" d="M586.054 209.351s-17.892.578-17.735 2.452 11.088 2.185 11.088 2.185 3.919 12.922 17.892 11.381c.001 0-3.345-11.595-11.245-16.018z" class="cls-33" data-name="Path 594" transform="translate(-333.147 -145.845)"/>
            <g id="Group_682" data-name="Group 682" transform="translate(0 199.009)">
                <rect id="Rectangle_371" width="302.992" height="60.951" class="cls-37" data-name="Rectangle 371" rx="2.262" transform="rotate(-8.063 301.5 21.25)"/>
                <rect id="Rectangle_372" width="302.992" height="60.951" class="cls-4" data-name="Rectangle 372" rx="2.262" transform="rotate(-8.063 301.5 21.25)"/>
                <path id="Path_595" d="M618.76 240.689l-49.087 6.954 8.548 60.35 49.092-6.954a9.91 9.91 0 0 0 8.416-11.2l-5.771-40.737a9.9 9.9 0 0 0-11.198-8.413z" class="cls-18" data-name="Path 595" transform="translate(-328.572 -239.299)"/>
                <g id="Group_681" data-name="Group 681" transform="translate(20.565 28.159)">
                    <path id="Path_596" d="M689.3 253.395l-166.17 23.536a3.347 3.347 0 0 1-3.788-2.846 3.352 3.352 0 0 1 2.846-3.788l166.167-23.537a3.349 3.349 0 0 1 3.788 2.846 3.355 3.355 0 0 1-2.843 3.789z" class="cls-18" data-name="Path 596" transform="translate(-519.309 -246.726)"/>
                    <path id="Path_597" d="M689.763 256.718L523.6 280.254a3.35 3.35 0 0 1-3.788-2.846 3.349 3.349 0 0 1 2.846-3.788l166.166-23.537a3.342 3.342 0 0 1 3.783 2.846 3.349 3.349 0 0 1-2.844 3.789z" class="cls-18" data-name="Path 597" transform="translate(-517.719 -235.498)"/>
                    <path id="Path_598" d="M592.549 263.2l-68.477 9.7a3.355 3.355 0 0 1-3.788-2.846 3.352 3.352 0 0 1 2.851-3.788l68.477-9.7a3.345 3.345 0 0 1 3.783 2.846 3.346 3.346 0 0 1-2.846 3.788z" class="cls-18" data-name="Path 598" transform="translate(-516.13 -213.593)"/>
                </g>
                <path id="Path_599" d="M597.185 255.239a11.244 11.244 0 1 1-12.708-9.555 11.246 11.246 0 0 1 12.708 9.555z" class="cls-2" data-name="Path 599" transform="translate(-311.23 -222.47)"/>
            </g>
            <path id="Path_600" d="M641.554 240.689l-78.627 11.14.666 8.491 92.507 12.423-3.35-23.637a9.9 9.9 0 0 0-11.196-8.417z" class="cls-40" data-name="Path 600" transform="translate(-351.365 -40.29)"/>
            <path id="Path_601" d="M607.129 203.734s-5.469 12.891-11.061 17.993l4.077 1.611-2.545 12.239a7.207 7.207 0 0 0 5.894 8.583l6.393 1.047a6.876 6.876 0 0 1 5.636 5.434l4.458 22.118h28.778l-3.3-67.413z" class="cls-33" data-name="Path 601" transform="translate(-239.386 -164.824)"/>
            <path id="Path_602" d="M638.228 217.836a30.843 30.843 0 0 0-23.029 12.27 2646.553 2646.553 0 0 0-15.6 20.957 21.846 21.846 0 0 0 1.62 27.823 12.517 12.517 0 0 1 3.1 11.368l-12.476 53.352a157.606 157.606 0 0 0 35.259 4.685 7.443 7.443 0 0 0 7.2-5.176l2.754-8.675 3.048 7.646a7.4 7.4 0 0 0 8.2 4.567 145.056 145.056 0 0 0 17.879-4.716s-9.358-52.45 1.559-121.69a115.144 115.144 0 0 0-29.514-2.411z" class="cls-41" data-name="Path 602" transform="translate(-253.648 -117.666)"/>
            <path id="Path_603" d="M604.357 260.611c-.022.118-.008.236-.035.355l-12.476 53.352s3.026.832 8.014 1.791c28.655-25.958 50.87-89.75 50.87-89.75z" class="cls-42" data-name="Path 603" transform="translate(-253.648 -88.377)"/>
            <path id="Path_604" d="M752.582 223.708c-6.1-4.4-14.73-2.584-19.329 3.367l-48.435 62.649-79.018 16.645-14.384-2.269a22.428 22.428 0 0 0-16.4 3.814l-14.091 9.922 3.508 6a9.667 9.667 0 0 0 10.763 4.484l15.527-4 15.611-3.937 80.541-6.748a28.317 28.317 0 0 0 19.578-10.317l48.768-59.776a13.728 13.728 0 0 0-2.639-19.834z" class="cls-33" data-name="Path 604" transform="translate(-358.14 -105.563)"/>
            <path id="Path_605" d="M596.068 223.208l24.145 4.926a11.892 11.892 0 0 1 9.52 12.344c-1.677 27.758-1.331 104.174 50.13 129.615 0 0 8.2-13.167 4.7-39.5-4.374-32.907-25.757-32.583-22.841-64.011 2.461-26.523 6.766-58.734-22.678-66.095-20.744-5.182-37.791 5.227-42.976 22.721z" class="cls-17" data-name="Path 605" transform="translate(-239.386 -180.304)"/>
        </g>
        <path id="Line_86" d="M0 0h843.489" class="cls-43" data-name="Line 86" transform="translate(767.653 963.022)"/>
        <g id="Group_684" data-name="Group 684" transform="translate(864.729 195.58)">
            <path id="Path_606" d="M466.281 172.848a9.108 9.108 0 1 1-9.108-9.108 9.11 9.11 0 0 1 9.108 9.108z" class="cls-2" data-name="Path 606" transform="translate(-448.065 -163.74)"/>
            <path id="Path_607" d="M475.115 172.848a9.11 9.11 0 1 1-9.108-9.108 9.113 9.113 0 0 1 9.108 9.108z" class="cls-2" data-name="Path 607" transform="translate(-418.233 -163.74)"/>
            <circle id="Ellipse_33" cx="9.109" cy="9.109" r="9.109" class="cls-2" data-name="Ellipse 33" transform="translate(77.326)"/>
            <path id="Path_608" d="M492.774 172.848a9.11 9.11 0 1 1-9.108-9.108 9.111 9.111 0 0 1 9.108 9.108z" class="cls-2" data-name="Path 608" transform="translate(-358.565 -163.74)"/>
        </g>
        <g id="Group_685" data-name="Group 685" transform="translate(1037.759 154.317)">
            <path id="Line_87" d="M0 0v41.263" class="cls-44" data-name="Line 87" transform="translate(20.632)"/>
            <path id="Line_88" d="M41.264 0H0" class="cls-44" data-name="Line 88" transform="translate(0 20.632)"/>
        </g>
        <g id="Group_686" data-name="Group 686" transform="translate(1602.182 763.924)">
            <path id="Line_89" d="M0 0v41.263" class="cls-44" data-name="Line 89" transform="translate(20.632)"/>
            <path id="Line_90" d="M41.263 0H0" class="cls-44" data-name="Line 90" transform="translate(0 20.632)"/>
        </g>
        <g id="Group_687" data-name="Group 687" transform="translate(1460.665 248.814)">
            <path id="Line_91" d="M0 0l.768 41.256" class="cls-44" data-name="Line 91" transform="translate(20.244)"/>
            <path id="Line_92" d="M41.256 0L0 .768" class="cls-44" data-name="Line 92" transform="translate(0 20.244)"/>
        </g>
        <g id="Group_688" data-name="Group 688" transform="translate(413.015 528.992)">
            <path id="Line_93" d="M0 0l.768 41.256" class="cls-44" data-name="Line 93" transform="translate(20.244)"/>
            <path id="Line_94" d="M41.256 0L0 .768" class="cls-44" data-name="Line 94" transform="translate(0 20.244)"/>
        </g>
    </g>
</svg>
