<svg xmlns="http://www.w3.org/2000/svg" xmlns:xlink="http://www.w3.org/1999/xlink" width="24" height="24" viewBox="0 0 24 24">
  <defs>
    <clipPath id="clip-path">
      <rect id="Rectangle_880" data-name="Rectangle 880" width="24" height="24" transform="translate(-1106 2729)" fill="#fff"/>
    </clipPath>
    <radialGradient id="radial-gradient" cx="7.205" cy="2.219" r="29.972" gradientTransform="translate(3.417 1.052) scale(0.526)" gradientUnits="userSpaceOnUse">
      <stop offset="0" stop-color="#fff"/>
      <stop offset="0.5" stop-color="#4c6b97"/>
      <stop offset="1" stop-color="#231f20"/>
    </radialGradient>
  </defs>
  <g id="php-active" transform="translate(1106 -2729)" clip-path="url(#clip-path)">
    <g id="php-seeklogo.com" transform="translate(-1106 2735)">
      <ellipse id="Ellipse_106" data-name="Ellipse 106" cx="12" cy="6.309" rx="12" ry="6.309" transform="translate(0 0)" fill="url(#radial-gradient)"/>
      <ellipse id="Ellipse_107" data-name="Ellipse 107" cx="11.531" cy="5.841" rx="11.531" ry="5.841" transform="translate(0.469 0.469)" fill="#6181b6"/>
      <g id="Group_5271" data-name="Group 5271" transform="translate(3.465 1.65)">
        <path id="Path_11903" data-name="Path 11903" d="M47.833,24.153l.572-2.944a1.5,1.5,0,0,0-.319-1.472,2.528,2.528,0,0,0-1.716-.45h-.994l.281-1.462a.2.2,0,0,0-.037-.159.169.169,0,0,0-.141-.066H44.111a.192.192,0,0,0-.187.15l-.609,3.122a1.668,1.668,0,0,0-.413-.9,2.381,2.381,0,0,0-1.884-.694H38.383a.192.192,0,0,0-.187.15l-1.228,6.337a.2.2,0,0,0,.037.159.169.169,0,0,0,.141.066h1.378a.192.192,0,0,0,.188-.15l.3-1.528h1.022a4.491,4.491,0,0,0,1.341-.169,2.658,2.658,0,0,0,.984-.591,3.027,3.027,0,0,0,.581-.722L42.7,24.1a.2.2,0,0,0,.037.159.169.169,0,0,0,.141.066h1.369a.192.192,0,0,0,.188-.15L45.1,20.7h.938c.4,0,.516.075.553.112s.084.141.019.488l-.544,2.8a.2.2,0,0,0,.037.159.169.169,0,0,0,.141.066h1.406A.262.262,0,0,0,47.833,24.153ZM41.5,21.716a1.488,1.488,0,0,1-.478.938,1.891,1.891,0,0,1-1.125.272h-.609l.441-2.269h.787c.581,0,.816.122.909.225A1.074,1.074,0,0,1,41.5,21.716Z" transform="translate(-36.964 -17.6)" fill="#fff"/>
        <path id="Path_11904" data-name="Path 11904" d="M157.72,36.194a2.381,2.381,0,0,0-1.884-.694h-2.653a.192.192,0,0,0-.187.15l-1.228,6.328a.2.2,0,0,0,.038.159.169.169,0,0,0,.141.066h1.378a.192.192,0,0,0,.188-.15l.3-1.528h1.022a4.491,4.491,0,0,0,1.341-.169,2.658,2.658,0,0,0,.984-.591,3.019,3.019,0,0,0,.6-.75,3.122,3.122,0,0,0,.328-.9A2.167,2.167,0,0,0,157.72,36.194Zm-1.434,1.744a1.488,1.488,0,0,1-.478.938,1.891,1.891,0,0,1-1.125.272h-.609l.441-2.269h.788c.581,0,.816.122.909.225A1,1,0,0,1,156.286,37.938Z" transform="translate(-141.001 -33.822)" fill="#fff"/>
      </g>
      <g id="Group_5272" data-name="Group 5272" transform="translate(3.656 1.837)">
        <path id="Path_11905" data-name="Path 11905" d="M42.356,38.5a1.406,1.406,0,0,1,1.05.291,1.129,1.129,0,0,1,.122.994,1.664,1.664,0,0,1-.553,1.05,2.039,2.039,0,0,1-1.237.309H40.9l.516-2.644ZM39,43.828h1.378l.328-1.678h1.181a4.1,4.1,0,0,0,1.284-.169,2.462,2.462,0,0,0,.919-.553,2.813,2.813,0,0,0,.563-.7,2.735,2.735,0,0,0,.3-.844,1.961,1.961,0,0,0-.328-1.753,2.189,2.189,0,0,0-1.744-.628H40.228Z" transform="translate(-39 -35.822)" fill="#000004"/>
        <path id="Path_11906" data-name="Path 11906" d="M101.428,19.6H102.8l-.328,1.678h1.219a2.335,2.335,0,0,1,1.584.4,1.346,1.346,0,0,1,.263,1.3l-.572,2.944h-1.388l.544-2.8a.75.75,0,0,0-.066-.647.967.967,0,0,0-.684-.178h-1.1l-.7,3.628H100.2Z" transform="translate(-94.463 -19.6)" fill="#000004"/>
        <path id="Path_11907" data-name="Path 11907" d="M157.056,38.5a1.406,1.406,0,0,1,1.05.291,1.129,1.129,0,0,1,.122.994,1.664,1.664,0,0,1-.553,1.05,2.039,2.039,0,0,1-1.237.309H155.6l.516-2.644ZM153.7,43.828h1.378l.328-1.678h1.181a4.1,4.1,0,0,0,1.284-.169,2.462,2.462,0,0,0,.919-.553,2.813,2.813,0,0,0,.563-.7,2.736,2.736,0,0,0,.3-.844,1.961,1.961,0,0,0-.328-1.753,2.189,2.189,0,0,0-1.744-.628h-2.653Z" transform="translate(-142.947 -35.822)" fill="#000004"/>
      </g>
    </g>
  </g>
</svg>
