<svg xmlns="http://www.w3.org/2000/svg" xmlns:xlink="http://www.w3.org/1999/xlink" width="24" height="24" viewBox="0 0 24 24">
  <defs>
    <clipPath id="clip-path">
      <rect id="Rectangle_426" data-name="Rectangle 426" width="24" height="24" transform="translate(-1121 2729)" fill="#fff"/>
    </clipPath>
  </defs>
  <g id="php" transform="translate(1121 -2729)" clip-path="url(#clip-path)">
    <g id="php-seeklogo.com" transform="translate(-1121 2734.691)">
      <ellipse id="Ellipse_70" data-name="Ellipse 70" cx="12" cy="6.309" rx="12" ry="6.309" transform="translate(0 0)" fill="#ababab"/>
      <ellipse id="Ellipse_71" data-name="Ellipse 71" cx="11.531" cy="5.841" rx="11.531" ry="5.841" transform="translate(0.469 0.469)" fill="#bcbcbc"/>
      <g id="Group_3486" data-name="Group 3486">
        <path id="Path_3757" data-name="Path 3757" d="M14.334,8.2l.572-2.944a1.5,1.5,0,0,0-.319-1.472,2.528,2.528,0,0,0-1.716-.45h-.994l.281-1.463a.2.2,0,0,0-.037-.159.169.169,0,0,0-.141-.066H10.613a.192.192,0,0,0-.187.15L9.816,4.922a1.668,1.668,0,0,0-.413-.9,2.381,2.381,0,0,0-1.884-.694H4.884a.192.192,0,0,0-.187.15L3.469,9.816a.2.2,0,0,0,.038.159.169.169,0,0,0,.141.066H5.025a.192.192,0,0,0,.188-.15l.3-1.528H6.534a4.492,4.492,0,0,0,1.341-.169A2.658,2.658,0,0,0,8.859,7.6a3.027,3.027,0,0,0,.581-.722L9.2,8.147a.2.2,0,0,0,.038.159.169.169,0,0,0,.141.066h1.369a.192.192,0,0,0,.188-.15l.675-3.469h.938c.4,0,.516.075.553.112s.084.141.019.488l-.544,2.8a.2.2,0,0,0,.037.159.169.169,0,0,0,.141.066h1.406A.262.262,0,0,0,14.334,8.2ZM8,5.766a1.488,1.488,0,0,1-.478.938,1.891,1.891,0,0,1-1.125.272H5.784l.441-2.269h.787c.581,0,.816.122.909.225A1.074,1.074,0,0,1,8,5.766Z" fill="#ababab"/>
        <path id="Path_3758" data-name="Path 3758" d="M20.184,4.022A2.381,2.381,0,0,0,18.3,3.328H15.647a.192.192,0,0,0-.187.15L14.231,9.806a.2.2,0,0,0,.037.159.169.169,0,0,0,.141.066h1.378a.192.192,0,0,0,.188-.15l.3-1.528H17.3a4.492,4.492,0,0,0,1.341-.169,2.658,2.658,0,0,0,.984-.591,3.019,3.019,0,0,0,.6-.75,3.122,3.122,0,0,0,.328-.9A2.167,2.167,0,0,0,20.184,4.022ZM18.75,5.766a1.488,1.488,0,0,1-.478.938,1.891,1.891,0,0,1-1.125.272h-.609l.441-2.269h.787c.581,0,.816.122.909.225A1,1,0,0,1,18.75,5.766Z" fill="#ababab"/>
      </g>
      <g id="Group_3487" data-name="Group 3487">
        <path id="Path_3759" data-name="Path 3759" d="M7.013,4.519a1.406,1.406,0,0,1,1.05.291,1.129,1.129,0,0,1,.122.994,1.664,1.664,0,0,1-.553,1.05,2.039,2.039,0,0,1-1.238.309H5.559l.516-2.644ZM3.656,9.844H5.034l.328-1.678H6.544A4.1,4.1,0,0,0,7.828,8a2.462,2.462,0,0,0,.919-.553,2.813,2.813,0,0,0,.563-.7,2.735,2.735,0,0,0,.3-.844,1.961,1.961,0,0,0-.328-1.753,2.189,2.189,0,0,0-1.744-.628H4.884Z" fill="#716e6e"/>
        <path id="Path_3760" data-name="Path 3760" d="M10.622,1.838h1.369l-.328,1.678h1.219a2.335,2.335,0,0,1,1.584.4,1.346,1.346,0,0,1,.263,1.3l-.572,2.944H12.769l.544-2.8a.75.75,0,0,0-.066-.647.967.967,0,0,0-.684-.178h-1.1l-.7,3.628H9.394Z" fill="#716e6e"/>
        <path id="Path_3761" data-name="Path 3761" d="M17.766,4.519a1.406,1.406,0,0,1,1.05.291,1.129,1.129,0,0,1,.122.994,1.664,1.664,0,0,1-.553,1.05,2.039,2.039,0,0,1-1.238.309h-.834l.516-2.644ZM14.409,9.844h1.378l.328-1.678H17.3A4.1,4.1,0,0,0,18.581,8a2.462,2.462,0,0,0,.919-.553,2.813,2.813,0,0,0,.563-.7,2.735,2.735,0,0,0,.3-.844,1.961,1.961,0,0,0-.328-1.753,2.189,2.189,0,0,0-1.744-.628H15.637Z" fill="#716e6e"/>
      </g>
    </g>
  </g>
</svg>
