<svg xmlns="http://www.w3.org/2000/svg" xmlns:xlink="http://www.w3.org/1999/xlink" width="24" height="24" viewBox="0 0 24 24">
  <defs>
    <clipPath id="clip-path">
      <rect id="Rectangle_871" data-name="Rectangle 871" width="24" height="24" transform="translate(-1121 2333)" fill="#0063b0"/>
    </clipPath>
  </defs>
  <g id="prototype-active" transform="translate(1121 -2333)" clip-path="url(#clip-path)">
    <g id="application" transform="translate(-1121.023 2333)">
      <path id="Path_3664" data-name="Path 3664" d="M7.6,21.562a.469.469,0,1,0,.331.137.469.469,0,0,0-.331-.137Zm0,0" fill="#0063b0"/>
      <path id="Path_3665" data-name="Path 3665" d="M8.947,8.812h3a.469.469,0,0,0,.469-.469v-3a.469.469,0,0,0-.469-.469h-3a.469.469,0,0,0-.469.469v3a.469.469,0,0,0,.469.469Zm.469-3h2.062V7.875H9.416Zm0,0" fill="#0063b0"/>
      <path id="Path_3666" data-name="Path 3666" d="M3.7,8.812h3a.469.469,0,0,0,.469-.469v-3A.469.469,0,0,0,6.7,4.875h-3a.469.469,0,0,0-.469.469v3a.469.469,0,0,0,.469.469Zm.469-3H6.226V7.875H4.164Zm0,0" fill="#0063b0"/>
      <path id="Path_3667" data-name="Path 3667" d="M3.226,13.5a.469.469,0,0,0,.469.469h3a.469.469,0,0,0,.469-.469v-3a.469.469,0,0,0-.469-.469h-3a.469.469,0,0,0-.469.469Zm.937-2.531H6.226v2.062H4.164Zm0,0" fill="#0063b0"/>
      <path id="Path_3668" data-name="Path 3668" d="M3.226,18.656a.469.469,0,0,0,.469.469h3a.469.469,0,0,0,.469-.469v-3a.469.469,0,0,0-.469-.469h-3a.469.469,0,0,0-.469.469Zm.937-2.531H6.226v2.062H4.164Zm0,0" fill="#0063b0"/>
      <path id="Path_3669" data-name="Path 3669" d="M23.886,14.2l-2.229-2.229a1.594,1.594,0,0,0-2.65.655,1.595,1.595,0,0,0-2.3,1.43,1.593,1.593,0,0,0-1.489,1.031l-.011-.011V1.969A1.971,1.971,0,0,0,13.242,0H1.992A1.971,1.971,0,0,0,.023,1.969V14.855s.21.469.469.469a.469.469,0,0,0,.469-.469V3.937H14.273v10.2L12.731,12.6a1.6,1.6,0,0,0-.316-.245V10.5a.469.469,0,0,0-.469-.469h-3a.469.469,0,0,0-.469.469v3a.469.469,0,0,0,.469.469h1.082a1.587,1.587,0,0,0,.448.886l.333.333H8.947a.469.469,0,0,0-.469.469v3a.469.469,0,0,0,.469.469h3a.469.469,0,0,0,.469-.469V16.793l1.858,1.858v1.411H.961V14.109a.469.469,0,0,0-.937,0v7.922A1.971,1.971,0,0,0,1.992,24h11.25a1.959,1.959,0,0,0,1.239-.44l1.186.414a.469.469,0,1,0,.309-.885l-1.317-.459a.712.712,0,0,1,.4-1.365l2.536.615a.469.469,0,0,0,.442-.787l-5.724-5.724a.471.471,0,0,0-.081-.081l-1.1-1.1a.657.657,0,1,1,.929-.929l6.185,6.185a.469.469,0,1,0,.663-.663l-2.668-2.668h0a.657.657,0,1,1,.93-.928l2.78,2.78a.469.469,0,0,0,.663-.662l-2.78-2.781a.657.657,0,1,1,.929-.929l2.8,2.8a.469.469,0,0,0,.663-.663l-2.168-2.168a.657.657,0,1,1,.929-.929l2.229,2.229a.469.469,0,1,0,.663-.663ZM.961,3V1.969A1.032,1.032,0,0,1,1.992.937h11.25a1.032,1.032,0,0,1,1.031,1.031V3ZM11.478,18.187H9.416V16.125h2.062ZM1.992,23.062A1.032,1.032,0,0,1,.961,22.031V21H13.547a1.655,1.655,0,0,0,.066,1.993,1.03,1.03,0,0,1-.371.069Zm13.291-2.709-.073-.016v-.749l.986.986ZM10.477,12.6a1.587,1.587,0,0,0-.307.431H9.415V10.969h2.062v1.17a1.588,1.588,0,0,0-1,.461Zm0,0" fill="#0063b0"/>
    </g>
  </g>
</svg>
