<svg xmlns="http://www.w3.org/2000/svg" width="916.117" height="738.318" viewBox="0 0 916.117 738.318">
  <g id="register" transform="translate(-216.059 -460.237)">
    <path id="Path_2640" data-name="Path 2640" d="M729.5,2067.733c-40.672-24.769-2.8-137.075-44.2-159.46-20.674-11.178-43.232,9.737-58.306-5.135-14.885-14.687,4.132-38.026-7.723-69.811-11.964-32.079-37.739-25.475-68.859-64.958-30.112-38.2-27.038-71.1-45.176-73.88-15.574-2.384-35.524,19.164-44.215,42.2-27.274,72.288,60.216,148.886,29.843,195.207-12.888,19.656-32.882,12.331-38.451,29.321-14.8,45.14,118.737,120.026,104.931,152.306-6.657,15.565-39.9,3.282-48.274,19.192C493.483,2162.31,571.458,2275.19,672.5,2278.26c7.178.218,63.782,1.02,107.276-42.648,55.226-55.448,61.326-154.491,31.1-175.116C787.675,2044.663,756.234,2084.015,729.5,2067.733Z" transform="translate(-188.032 -1093.169)" fill="#e9f4ff"/>
    <path id="Path_2641" data-name="Path 2641" d="M2955.087,1704.943c-1.218,37.8-93.327,179.163-32.394,151.752,76.374-34.358,187.265-8.848,134.63,55.307-38.216,46.581-166.292,46.835-172.215,65.057s165.222,32.159,161.981,77.141c-5.264,73.067-142.749,62.52-189.258,60.557-45.336-1.913-85.932,90.107-102.1,110.181-1.77,2.2-84.1-48.741-84.1-48.741-2.676-1.551-5.339-2.859-2.926-5.707,19.875-23.466,89.888-103.231,59.885-132.851-36.865-36.393-113.181-136.168-78.469-175.111,27.389-30.727,101.431,42.8,131.453,75.188,2.365,2.551,6.805-1,5.658-4.522q-1.319-4.057-2.788-9.062c-5.7-19.543-84.276-143.771-79.481-181.378s55.467-62.184,79.816-7.813a482.655,482.655,0,0,0,44.59,77.89c3.023,4.306,13.757,15.215,13.058,9.524-6.412-52.241,17.44-186.673,59.915-183.412C2955.877,1643.052,2956.091,1673.805,2955.087,1704.943Z" transform="translate(-1938.83 -1048.86)" fill="#e9f4ff"/>
    <g id="Group_3024" data-name="Group 3024" transform="translate(216.058 487.941)">
      <ellipse id="Ellipse_60" data-name="Ellipse 60" cx="8.194" cy="8.194" rx="8.194" ry="8.194" transform="matrix(0.162, -0.987, 0.987, 0.162, 58.895, 23.321)" fill="#e9f4ff"/>
      <ellipse id="Ellipse_61" data-name="Ellipse 61" cx="8.194" cy="8.194" rx="8.194" ry="8.194" transform="matrix(0.987, -0.162, 0.162, 0.987, 92.541, 40.397)" fill="#e9f4ff"/>
      <ellipse id="Ellipse_62" data-name="Ellipse 62" cx="8.194" cy="8.194" rx="8.194" ry="8.194" transform="translate(130.664 15.964) rotate(-76.95)" fill="#e9f4ff"/>
      <g id="Group_3022" data-name="Group 3022" transform="translate(0 7.886)">
        <path id="Path_2642" data-name="Path 2642" d="M218.161,1257.734l-2.1-1.777L284,1175.6l33.338,32.512,38.9-38.9,23.858,23.858-1.946,1.946L356.24,1173.1l-38.877,38.878-33.169-32.347Z" transform="translate(-216.058 -1169.209)" fill="#e9f4ff"/>
      </g>
      <g id="Group_3023" data-name="Group 3023" transform="translate(169.191 39.043)">
        <rect id="Rectangle_516" data-name="Rectangle 516" width="2.753" height="36.012" transform="translate(0 1.946) rotate(-45)" fill="#e9f4ff"/>
      </g>
    </g>
    <g id="Group_3034" data-name="Group 3034" transform="translate(963.394 885.094)">
      <g id="Group_3025" data-name="Group 3025" transform="translate(52.474 176.608)">
        <path id="Path_2643" data-name="Path 2643" d="M4204.963,4006.624l-.946-.222c.112-.476,2.8-11.714,8.152-15.665l.577.782C4207.677,3995.258,4204.99,4006.511,4204.963,4006.624Z" transform="translate(-4204.017 -3990.737)" fill="#689cff"/>
      </g>
      <g id="Group_3026" data-name="Group 3026" transform="translate(60.281 166.4)">
        <path id="Path_2644" data-name="Path 2644" d="M4255.615,3949.217a22.813,22.813,0,0,1-12.266,1.653.465.465,0,0,1-.334-.239.477.477,0,0,1-.009-.483,22.773,22.773,0,0,1,9.046-8.439,22.518,22.518,0,0,1,11.552-1.739.893.893,0,0,1,.686.5.905.905,0,0,1-.014.917A22.488,22.488,0,0,1,4255.615,3949.217Z" transform="translate(-4242.945 -3939.841)" fill="#689cff"/>
        <path id="Path_2645" data-name="Path 2645" d="M4255.9,3951.714a22.808,22.808,0,0,1-12.266,1.653.464.464,0,0,1-.334-.239s8.337-3.061,11-4.331,10.279-5.832,10.279-5.832a.907.907,0,0,1-.015.917A22.487,22.487,0,0,1,4255.9,3951.714Z" transform="translate(-4243.226 -3942.339)" fill="#4988ff"/>
      </g>
      <g id="Group_3027" data-name="Group 3027" transform="translate(38.992 60.89)">
        <path id="Path_2646" data-name="Path 2646" d="M4137.007,3556.428c-.009-.218-.868-22.172.917-53.15a135.256,135.256,0,0,1,6.557-33.346,201.348,201.348,0,0,1,11.825-28.6,213.5,213.5,0,0,1,16.4-27.578l1.566,1.151a211.59,211.59,0,0,0-16.245,27.333c-7.542,15.022-16.816,37.825-18.16,61.153-1.779,30.875-.925,52.741-.916,52.959Z" transform="translate(-4136.792 -3413.753)" fill="#689cff"/>
      </g>
      <g id="Group_3028" data-name="Group 3028" transform="translate(74.698 0)">
        <path id="Path_2647" data-name="Path 2647" d="M4344.787,3146.943c-9.233,14.524-23.158,22.943-28.161,25.638a1.22,1.22,0,0,1-1.8-1.142c.317-5.673,2.029-21.857,11.262-36.382,8.252-12.981,20.255-21.087,26.282-24.585a2.351,2.351,0,0,1,3.521,2.238C4355.284,3119.651,4353.04,3133.96,4344.787,3146.943Z" transform="translate(-4314.827 -3110.148)" fill="#689cff"/>
        <path id="Path_2648" data-name="Path 2648" d="M4347.417,3148.209c-9.233,14.524-23.158,22.943-28.161,25.638a1.209,1.209,0,0,1-1.14.011s16.589-22.115,21.493-29.88,17.744-32.246,17.744-32.246a2.322,2.322,0,0,1,1.171,2.243C4357.914,3120.917,4355.669,3135.226,4347.417,3148.209Z" transform="translate(-4317.457 -3111.414)" fill="#4988ff"/>
      </g>
      <g id="Group_3029" data-name="Group 3029" transform="translate(54.495 65.886)">
        <path id="Path_2649" data-name="Path 2649" d="M4252.688,3465.68c-15.505,7.469-31.776,7.276-37.448,6.927a1.219,1.219,0,0,1-.924-1.919c3.261-4.652,13.253-17.5,28.759-24.968,13.858-6.676,28.331-7.23,35.3-7.023a2.351,2.351,0,0,1,1.811,3.759C4276,3448.032,4266.547,3459,4252.688,3465.68Z" transform="translate(-4214.091 -3438.664)" fill="#689cff"/>
        <path id="Path_2650" data-name="Path 2650" d="M4253.382,3470.74c-15.505,7.469-31.776,7.276-37.448,6.927a1.208,1.208,0,0,1-.975-.592s25.759-10.037,34.021-14.047,32.083-18.035,32.083-18.035a2.322,2.322,0,0,1-.188,2.524C4276.7,3453.092,4267.241,3464.063,4253.382,3470.74Z" transform="translate(-4214.786 -3443.723)" fill="#4988ff"/>
      </g>
      <path id="Path_2651" data-name="Path 2651" d="M4027.637,4076.542l-17.8,77.548a10.11,10.11,0,0,1-9.963,7.667h-29.5a10.107,10.107,0,0,1-9.962-7.667l-1.6-6.973-16.2-70.575c-1.4-6.086,3.448-11.851,9.964-11.851h65.1C4024.189,4064.692,4029.034,4070.456,4027.637,4076.542Z" transform="translate(-3942.374 -3873.252)" fill="#689cff"/>
      <g id="Group_3030" data-name="Group 3030" transform="translate(20.777 34.513)">
        <path id="Path_2652" data-name="Path 2652" d="M4052.818,3319.848c7.371,15.552,20.15,25.625,24.782,28.916a1.219,1.219,0,0,0,1.925-.912c.386-5.669.683-21.941-6.688-37.493-6.587-13.9-17.5-23.425-23.048-27.64a2.351,2.351,0,0,0-3.771,1.786C4045.768,3291.47,4046.23,3305.947,4052.818,3319.848Z" transform="translate(-4045.968 -3282.237)" fill="#689cff"/>
        <path id="Path_2653" data-name="Path 2653" d="M4052.818,3320.6c7.371,15.552,20.15,25.625,24.782,28.916a1.209,1.209,0,0,0,1.13.151s-13.734-23.992-17.643-32.3-13.63-34.188-13.63-34.188a2.323,2.323,0,0,0-1.439,2.081C4045.768,3292.22,4046.23,3306.7,4052.818,3320.6Z" transform="translate(-4045.968 -3282.986)" fill="#4988ff"/>
      </g>
      <g id="Group_3031" data-name="Group 3031" transform="translate(41.725 112.61)">
        <path id="Path_2654" data-name="Path 2654" d="M4189.017,3698.656c-15.5,7.469-31.776,7.276-37.448,6.927a1.22,1.22,0,0,1-.925-1.919c3.261-4.652,13.254-17.5,28.759-24.968,13.858-6.676,28.332-7.231,35.3-7.023a2.351,2.351,0,0,1,1.812,3.759C4212.331,3681.007,4202.876,3691.979,4189.017,3698.656Z" transform="translate(-4150.42 -3671.639)" fill="#689cff"/>
        <path id="Path_2655" data-name="Path 2655" d="M4189.712,3703.715c-15.5,7.469-31.776,7.276-37.448,6.927a1.207,1.207,0,0,1-.974-.592s25.758-10.037,34.021-14.047,32.083-18.035,32.083-18.035a2.323,2.323,0,0,1-.188,2.524C4213.026,3686.067,4203.571,3697.039,4189.712,3703.715Z" transform="translate(-4151.116 -3676.698)" fill="#4988ff"/>
      </g>
      <g id="Group_3032" data-name="Group 3032" transform="translate(53.097 156.986)">
        <path id="Path_2656" data-name="Path 2656" d="M4215.639,3901.8a19.419,19.419,0,0,1-.531,11.268.474.474,0,0,1-.29.274.493.493,0,0,1-.47-.047,19.364,19.364,0,0,1-6.6-9.135,19.094,19.094,0,0,1,.325-10.633.91.91,0,0,1,.6-.562.929.929,0,0,1,.885.117A19.05,19.05,0,0,1,4215.639,3901.8Z" transform="translate(-4207.123 -3892.901)" fill="#689cff"/>
        <path id="Path_2657" data-name="Path 2657" d="M4221.814,3901.8a19.423,19.423,0,0,1-.531,11.268.474.474,0,0,1-.29.274s-1.516-7.88-2.284-10.427-3.862-9.95-3.862-9.95a.929.929,0,0,1,.885.117A19.05,19.05,0,0,1,4221.814,3901.8Z" transform="translate(-4213.298 -3892.901)" fill="#4988ff"/>
      </g>
      <g id="Group_3033" data-name="Group 3033" transform="translate(2.217 78.475)">
        <path id="Path_2658" data-name="Path 2658" d="M3964.231,3538.309c9.1,14.608,22.947,23.154,27.925,25.895a1.219,1.219,0,0,0,1.808-1.126c-.265-5.675-1.829-21.875-10.929-36.483-8.132-13.056-20.061-21.272-26.056-24.825a2.351,2.351,0,0,0-3.542,2.205C3953.984,3510.922,3956.1,3525.251,3964.231,3538.309Z" transform="translate(-3953.43 -3501.435)" fill="#689cff"/>
        <path id="Path_2659" data-name="Path 2659" d="M3964.231,3539.532c9.1,14.608,22.947,23.154,27.925,25.895a1.207,1.207,0,0,0,1.14.021s-16.386-22.265-21.219-30.075-17.448-32.406-17.448-32.406a2.323,2.323,0,0,0-1.192,2.232C3953.984,3512.146,3956.1,3526.474,3964.231,3539.532Z" transform="translate(-3953.43 -3502.659)" fill="#4988ff"/>
      </g>
      <path id="Path_2660" data-name="Path 2660" d="M4093.167,4076.542l-17.8,77.548a10.11,10.11,0,0,1-9.963,7.667h-29.5a10.107,10.107,0,0,1-9.962-7.667l-1.6-6.973s21.936-9.321,31.455-36.331c6.576-18.656,9.594-46.095,9.594-46.095h17.814C4089.719,4064.692,4094.564,4070.456,4093.167,4076.542Z" transform="translate(-4007.903 -3873.252)" fill="#4988ff"/>
    </g>
    <path id="Path_2663" data-name="Path 2663" d="M2314.781,2193.219c.13-.415-26.96,1.4-28.18-2.165-.811-2.371,29.146-.363,28-3.636-.211-.607-24.911,2.529-26.509-2.025-.652-1.859,10.152-1.035,22.2-2.629,3.174-.419,7.262-1.629,6.483-2.221-3.073-2.334-25.5.718-22.483-4.329.925-1.549,29.48-5.545,41.776-2.137,0,0,1.6,17.1,1.1,19.469-.153.727-10.754,3.24-22.96,4.6-12.345,1.378-22.971.022-23.863-1.431C2289.026,2194.552,2314.041,2195.585,2314.781,2193.219Z" transform="translate(-1655.269 -1475.647)" fill="#f0733e"/>
    <g id="Group_3035" data-name="Group 3035" transform="translate(676.475 600.172)">
      <path id="Path_2664" data-name="Path 2664" d="M2630.257,2108.577c-8.041-7.169-12.482-16.641-22.086-21.959-17.659,5.975-97.478,11.482-96.4,15.28,1.065,3.764,1.187,25.557,5.383,27.474,5.673,2.592,79.888,8.674,116.4-6.884a38.581,38.581,0,0,0,8.867-5.379A78.217,78.217,0,0,1,2630.257,2108.577Z" transform="translate(-2511.756 -2006.971)" fill="#a082ff"/>
      <path id="Path_2665" data-name="Path 2665" d="M3043.241,1689.5c-8.4-1.013-35.229,40.591-49.693,72.8-.159.355-1.9,6.121-6.419,7.029,7.076,7,14.8,11.291,20.079,19.525a75.93,75.93,0,0,0,11.293,13.112c9.791-5.034,20.008-14.938,25.484-31.8C3055.124,1735.884,3064.933,1692.121,3043.241,1689.5Z" transform="translate(-2891.79 -1689.487)" fill="#a082ff"/>
    </g>
    <path id="Path_2666" data-name="Path 2666" d="M3256.762,1128.3c0,8-1.9,25.137-10.028,31.918-.274.229-.043.71-.063,1.061a176.734,176.734,0,0,0,.112,25.542c-3.959,4.041-26.5,13.848-30.82,10.839,0,0,1.731-33.976,1.56-33.994-26.742-2.807-25.321-35.48-22.709-55.658,2.416-18.639,21.3-24.408,36.479-21.743C3262.941,1091.818,3256.762,1118.859,3256.762,1128.3Z" transform="translate(-2380.289 -606.578)" fill="#f0733e"/>
    <path id="Path_2667" data-name="Path 2667" d="M3342.555,1484.059c-1.892,0-29.789-23.139-29.26-23.156,0-.069,22.357,2.662,29.211-3.448A179.1,179.1,0,0,0,3342.555,1484.059Z" transform="translate(-2476.06 -903.819)" fill="#d16436"/>
    <path id="Path_2668" data-name="Path 2668" d="M3256.483,1046.982c1.65,6.2,4.338,34.657-13.234,39.309-13.922,3.685-12.972,1.216-18.5-3.48-3.327-2.826,8.728-.883,3.535-12.967-1.107-2.577-5.224-3.085-6.706-2.421-4.04,1.811-7.854,9.163-9.932,5.561-4.132-7.158,1.042-13.692-.819-17.914-3.193-7.247-36.846,10.354-25.954-14.843C3193.016,1021.391,3242.458,994.264,3256.483,1046.982Z" transform="translate(-2371.673 -551.105)" fill="#401561"/>
    <g id="Group_3038" data-name="Group 3038" transform="translate(759.283 1144.038)">
      <g id="Group_3036" data-name="Group 3036" transform="translate(30.412 0)">
        <path id="Path_2669" data-name="Path 2669" d="M3092.02,4402.913c-1.944-.13-3.872-.287-5.821-.345a60.165,60.165,0,0,1-6.213-.4,14.926,14.926,0,0,1-3.7-.892q.458,19.037,1.173,40.208c5.607.487,11.031-.169,15.018-2.528,3.846-2.273,6.351-6.135,6.39-12.076.051-7.832.421-15.788,1.02-23.767C3097.262,4403.062,3094.637,4403.087,3092.02,4402.913Z" transform="translate(-3076.283 -4401.277)" fill="#f0733e"/>
      </g>
      <g id="Group_3037" data-name="Group 3037" transform="translate(0 22.353)">
        <path id="Path_2670" data-name="Path 2670" d="M2968.4,4521.314c-.226.138-.453.279-.681.426-.113.072-.226.145-.341.221s-.214.14-.322.212c-.691.462-1.388.952-2.1,1.468q-.525.379-1.064.778-.18.13-.363.265-.544.4-1.107.817-.494.363-1,.736c-.316.231-.637.463-.964.7l-.362.26c-.808.575-1.648,1.155-2.531,1.736-.147.1-.3.195-.444.29-.1.067-.207.135-.311.2s-.186.12-.279.179l-.322.2q-.631.4-1.294.789-.21.125-.425.25l-.027.016c-.146.085-.3.172-.447.257s-.3.169-.449.254q-.469.26-.953.52c-12.5,6.674-27.7,3.079-27.456,4.253a2.427,2.427,0,0,0,.072.276,2.949,2.949,0,0,1-.552-2.227c.886-7.149,11.15-12.625,20.437-16.794l.838-.375c.934-.414,1.853-.813,2.748-1.2l.845-.364c2.286-.988,4.389-1.889,6.117-2.711C2956.47,4512.359,2959.733,4522.8,2968.4,4521.314Z" transform="translate(-2924.646 -4512.733)" fill="#ff1a70"/>
        <path id="Path_2671" data-name="Path 2671" d="M2971.764,4542.317c-12.407,3.956-39.985,10.384-44.526,4.369-.029-.094-.054-.187-.073-.277-.246-1.173,14.956,2.422,27.457-4.252,6.893-3.681,11.331-7.861,15.787-10.573a10.5,10.5,0,0,0,9.246-6.006C2979.754,4528.175,2981.959,4539.066,2971.764,4542.317Z" transform="translate(-2926.657 -4523.002)" fill="#c41058"/>
      </g>
    </g>
    <path id="Path_2672" data-name="Path 2672" d="M3055.268,2371.962s-29.224,128.751-24.7,251.232c2.018,54.64,3.7,156.764,3.7,156.764a57.916,57.916,0,0,0,16.864,4.263c8.986.778,19.751,1.264,19.751,1.264s20.268-154.156,20.882-189.778,24.138-218.174,24.138-218.174Z" transform="translate(-2249.662 -1634.915)" fill="#682381"/>
    <g id="Group_3040" data-name="Group 3040" transform="translate(816.724 938.212)">
      <path id="Path_2673" data-name="Path 2673" d="M3327.534,3609.964a13.939,13.939,0,0,1-3.655-.609,9.364,9.364,0,0,0-1.177-7.21c-30.39-43.368-129.118-183.375-108.956-225.156,5.32-11.023,43.705,24.535,72.948,85.971,10.812,22.716,23.315,65.244,45.385,109.633,3.209,6.456,6.842,16.949,10.47,23.23C3336.715,3601.078,3335.035,3610.216,3327.534,3609.964Z" transform="translate(-3211.054 -3374.998)" fill="#f0733e"/>
      <g id="Group_3039" data-name="Group 3039" transform="translate(87.644 215.525)">
        <path id="Path_2674" data-name="Path 2674" d="M3683.418,4492.912c-.218.322-.432.649-.642.983-.1.154-.2.308-.292.465-.72,1.158-1.424,2.391-2.156,3.685-.094.168-.189.338-.287.508-.582,1.036-1.185,2.109-1.828,3.218s-1.333,2.265-2.083,3.445q-.427.676-.884,1.363-.305.461-.626.927c-.062.092-.125.184-.191.277-.12.173-.242.349-.366.523s-.251.352-.378.529q-.379.531-.783,1.066c-8.946,11.907-24.106,15.721-23.454,16.674a2.613,2.613,0,0,0,.168.218,2.64,2.64,0,0,1-1.318-1.772c-1.926-7.383,8.324-17.729,15.567-26.368.193-.23.384-.46.571-.686.644-.777,1.257-1.539,1.832-2.279q.276-.356.538-.706a29.265,29.265,0,0,0,2.785-4.32.093.093,0,0,1,.087-.057C3670.539,4490.53,3676.389,4498.074,3683.418,4492.912Z" transform="translate(-3648.061 -4482.389)" fill="#ff1a70"/>
        <path id="Path_2675" data-name="Path 2675" d="M3696.711,4469.992c-9.855,9.388-35.319,27.412-41.653,24.049a2.741,2.741,0,0,1-.168-.218c-.653-.953,14.508-4.766,23.455-16.674,4.934-6.566,7.448-12.443,10.515-16.99,6.2-3.5,5.811-10.522,5.811-10.522C3697.6,4452.538,3704.81,4462.277,3696.711,4469.992Z" transform="translate(-3653.504 -4449.636)" fill="#c41058"/>
      </g>
    </g>
    <path id="Path_2676" data-name="Path 2676" d="M3247.5,1655.084c3.513-68.208-9.619-78.117-31.073-90.48-3.724,2.667-7.969,4.448-12.266,6.451a82.266,82.266,0,0,1-9.666,3.987,17.333,17.333,0,0,1-8.867.366c-27.96,22.268-30.029,54.189-27.413,85.612,2.313,27.783-1.34,55.638-2.612,65.5-.368,2.851,19.19,2.877,34.246,4.829,14.74,1.913,60.413,8.719,62.213,2.5C3257.1,1716.424,3246.363,1677.2,3247.5,1655.084Z" transform="translate(-2349.998 -989.478)" fill="#c7abff"/>
    <path id="Path_2677" data-name="Path 2677" d="M3347.835,1764.152c-.032,2.424,47.415,8.461,56.1-9.825,27.242-57.325-12.395-123.6-15.231-132.42-6.109-18.994-20.68-20.769-33.392-8.876-16.929,15.838-14.135,49.2-13.571,56.487C3345.25,1714.792,3348.193,1737.453,3347.835,1764.152Z" transform="translate(-2498.397 -1022.204)" fill="#a082ff"/>
    <path id="Path_2678" data-name="Path 2678" d="M3168.852,2408.461s-27.248,140.1-12.7,196.566,101.143,194.658,101.143,194.658a72.479,72.479,0,0,0,19.372-6.422,183.025,183.025,0,0,0,18.575-11.389s-79.28-159.683-74.275-188.549,27.115-143.715,27.729-169.51.393-30.326.393-30.326l-76.829-3.765Z" transform="translate(-2347.021 -1649.115)" fill="#4f1b68"/>
    <path id="Path_2679" data-name="Path 2679" d="M3245.491,2386.505l-98.141-6.794,1.669-7.749,96.449,7.327Z" transform="translate(-2343.403 -1634.916)" fill="#c41058"/>
    <path id="Path_2680" data-name="Path 2680" d="M3235.846,1618.253s-13.862,29.47-12.634,57.153,2.457,38.739,2.457,38.739l-7.166,10.237-7.78-10.237s-2.661-34.268-1.229-47.946,18.925-47.959,18.925-47.959Z" transform="translate(-2392.746 -1032.357)" fill="#c42f71"/>
    <path id="Path_2681" data-name="Path 2681" d="M3342.363,1564.56s2.149-4.914,5.7-7.371,17.536-6.225,17.536-6.225l.2,3.291s-9.2,6.415-13.469,7.916A67.285,67.285,0,0,1,3342.363,1564.56Z" transform="translate(-2499.305 -978.573)" fill="#987bf2"/>
    <path id="Path_2682" data-name="Path 2682" d="M3305.946,1583.832l.316,6.9-.927.047Z" transform="translate(-2469.703 -1004.849)" fill="#a082ff"/>
    <path id="Path_2683" data-name="Path 2683" d="M3370.773,1557.188l3.463,8.24,18.84-9-4.767-5.469s-8.45,2.045-11.267,2.991A32.735,32.735,0,0,0,3370.773,1557.188Z" transform="translate(-2522.017 -978.573)" fill="#a082ff"/>
    <path id="Path_2684" data-name="Path 2684" d="M3295.344,1583.832l-3.271,7.363,2.66-.379Z" transform="translate(-2459.1 -1004.849)" fill="#987bf2"/>
    <g id="Group_3047" data-name="Group 3047" transform="translate(809.065 843.773)">
      <path id="Path_2685" data-name="Path 2685" d="M3319.681,3035.295v79.487c0,10.465-7.36,18.949-16.439,18.949H3189.31c-9.079,0-16.439-8.484-16.439-18.949v-79.487c0-10.465,7.36-18.953,16.439-18.953h113.932C3312.321,3016.342,3319.681,3024.83,3319.681,3035.295Z" transform="translate(-3172.87 -2993.833)" fill="#f1166a"/>
      <g id="Group_3042" data-name="Group 3042" transform="translate(50.917 0)">
        <g id="Group_3041" data-name="Group 3041">
          <path id="Path_2686" data-name="Path 2686" d="M3473.587,2926.622h-4.077v-11.39c0-2.787-1.524-5.055-3.4-5.055h-31.89c-1.874,0-3.4,2.268-3.4,5.055v11.39h-4.077v-11.39c0-6.131,3.353-11.12,7.474-11.12h31.89c4.122,0,7.474,4.989,7.474,11.12Z" transform="translate(-3426.748 -2904.112)" fill="#ffcd40"/>
        </g>
      </g>
      <path id="Path_2687" data-name="Path 2687" d="M3363.938,3071.952H3262.559c-3.909,0-7.079-3.653-7.079-8.159v-47.442h115.537v47.442C3371.017,3068.3,3367.847,3071.952,3363.938,3071.952Z" transform="translate(-3238.912 -2993.841)" fill="#c41058"/>
      <g id="Group_3044" data-name="Group 3044" transform="translate(31.77 67.963)">
        <g id="Group_3043" data-name="Group 3043">
          <path id="Path_2688" data-name="Path 2688" d="M3342.232,3269.465h-6.117c-2.67,0-4.835-2.5-4.835-5.573V3248.56c0-3.078,2.165-5.573,4.835-5.573h6.117c2.67,0,4.835,2.5,4.835,5.573v15.333C3347.067,3266.97,3344.9,3269.465,3342.232,3269.465Z" transform="translate(-3331.28 -3242.987)" fill="#ffcd40"/>
        </g>
      </g>
      <path id="Path_2689" data-name="Path 2689" d="M3337.058,3249.457h-15a3.268,3.268,0,0,1,0-6.47h15a3.268,3.268,0,0,1,0,6.47Z" transform="translate(-3289.896 -3175.023)" fill="#f1166a"/>
      <path id="Path_2690" data-name="Path 2690" d="M3319.681,3483.787v4.69c0,10.465-7.36,18.949-16.439,18.949H3189.31c-9.079,0-16.439-8.484-16.439-18.949v-4.69Z" transform="translate(-3172.87 -3367.53)" fill="#c41058"/>
      <g id="Group_3046" data-name="Group 3046" transform="translate(100.355 67.963)">
        <g id="Group_3045" data-name="Group 3045">
          <path id="Path_2691" data-name="Path 2691" d="M3684.207,3269.465h-6.117c-2.67,0-4.835-2.5-4.835-5.573V3248.56c0-3.078,2.165-5.573,4.835-5.573h6.117c2.67,0,4.835,2.5,4.835,5.573v15.333C3689.042,3266.97,3686.877,3269.465,3684.207,3269.465Z" transform="translate(-3673.255 -3242.987)" fill="#ffcd40"/>
        </g>
      </g>
      <path id="Path_2692" data-name="Path 2692" d="M3679.033,3249.457h-15a3.268,3.268,0,0,1,0-6.47h15a3.268,3.268,0,0,1,0,6.47Z" transform="translate(-3563.286 -3175.023)" fill="#f1166a"/>
    </g>
    <g id="Group_3057" data-name="Group 3057" transform="translate(366.992 460.237)">
      <g id="Group_3048" data-name="Group 3048" transform="translate(91.296 128.472)">
        <path id="Path_2693" data-name="Path 2693" d="M1982.233,2643.413c-1.247,2.944-16.049-19.928-18.978-18.892-2.882,1.021,16.726,20.593,12.7,22.621-1.569.791-16.566-19.157-19.662-20.955-4-2.319,13.427,17.719,10.321,19.116-1.987.894-25.115-25.711-29.266-34.856-1.2-2.637,12.238-10.159,13.742-11.231,2.07-1.476,10.3,5.512,19.995,15.864,7.05,7.531,16.047,21.193,13.794,23.963-.793.976-15.257-20.815-16.718-18.689C1967.5,2621.322,1983.59,2640.211,1982.233,2643.413Z" transform="translate(-1834.304 -2405.143)" fill="#efb6ae"/>
        <path id="Path_2694" data-name="Path 2694" d="M1464.695,1747.1c-5.576,6.04-12.172.875-19.759,4.271a30.276,30.276,0,0,1-7.329,2.2c-8.187-8.638-12.624,2.934-13.686-42.536-.883-37.779,6.214-83.008,28.642-78.373,22.5,4.649,20.15,109.428,20.437,109.7C1468.076,1745.03,1468.357,1743.128,1464.695,1747.1Z" transform="translate(-1423.849 -1632.33)" fill="#4988ff"/>
        <path id="Path_2695" data-name="Path 2695" d="M1435.032,2147.677c8.008,1.075,16.115-.355,23.9-2.214,5.433-1.3,11.572-4.212,17.329-3.476,6.6,14.378,71.648,89.691,68.779,91.555-3.008,1.954-14.149,11.3-15.437,11.339-5.914.185-81.891-53.223-99.488-90.923a39.463,39.463,0,0,1-2.754-8.335A31.125,31.125,0,0,0,1435.032,2147.677Z" transform="translate(-1426.653 -2039.678)" fill="#4988ff"/>
      </g>
      <g id="Group_3050" data-name="Group 3050" transform="translate(155.268 351.695)">
        <path id="Path_2696" data-name="Path 2696" d="M1742.822,2876.535v79.487c0,10.465,7.36,18.949,16.439,18.949h113.932c9.079,0,16.439-8.484,16.439-18.949v-79.487c0-10.465-7.36-18.953-16.439-18.953H1759.261C1750.182,2857.582,1742.822,2866.07,1742.822,2876.535Z" transform="translate(-1742.822 -2835.074)" fill="#365ff5"/>
        <g id="Group_3049" data-name="Group 3049" transform="translate(49.055)">
          <path id="Path_2697" data-name="Path 2697" d="M1987.417,2767.863h4.077v-11.39c0-2.787,1.524-5.054,3.4-5.054h31.89c1.873,0,3.4,2.268,3.4,5.054v11.39h4.076v-11.39c0-6.131-3.353-11.12-7.474-11.12h-31.89c-4.121,0-7.474,4.988-7.474,11.12Z" transform="translate(-1987.417 -2745.353)" fill="#c41058"/>
        </g>
        <path id="Path_2698" data-name="Path 2698" d="M1823.229,2872.9h101.379c3.909,0,7.078-1.006,7.078-2.246v-13.062H1816.151v13.063C1816.151,2871.9,1819.32,2872.9,1823.229,2872.9Z" transform="translate(-1801.445 -2835.083)" fill="#2035af"/>
        <path id="Path_2699" data-name="Path 2699" d="M1742.822,3325.028v4.691c0,10.465,7.36,18.949,16.439,18.949h113.932c9.079,0,16.439-8.484,16.439-18.949v-4.691Z" transform="translate(-1742.822 -3208.77)" fill="#2035af"/>
      </g>
      <path id="Path_2700" data-name="Path 2700" d="M1379,1136.62c-.06.741.5,12.5.969,21.973.012.219.02.438.032.654.112,2.26.219,4.369.307,6.139a.767.767,0,0,0,.008.1c.012.327.028.642.044.941,0,.1.012.2.016.3.119,2.36.2,3.851.2,3.851-.949.662-2.775.706-5.091.327-8.228-1.343-22.642-8.008-25.731-11.166,0,0,.008-.064.016-.191s.036-.367.06-.666c.012-.143.024-.3.036-.474.008-.088.012-.179.02-.275.016-.2.028-.4.044-.626s.028-.454.044-.7v-.044c.024-.371.048-.777.068-1.22,0-.052,0-.108.008-.16.008-.187.02-.379.028-.578,0-.072,0-.143.008-.219v-.044c.024-.49.044-1.016.06-1.571v-.036c.012-.311.02-.626.032-.957v-.028c.056-2.2.084-4.827.044-7.833,0-.068,0-.14,0-.207-.02-1.595-.064-3.3-.131-5.095q-.06-1.465-.132-3.013c-.028-.522-.056-1.057-.088-1.595v-.012c-.02-.351.211-.829-.064-1.06-5.708-4.763-8.343-14.634-9.407-22.861a72.826,72.826,0,0,1-.618-9.057c0-9.435-6.179-36.478,25.468-42.035,14.458-2.535,32.289,2.579,36.028,19.194.188.821.335,1.67.45,2.551.351,2.7.678,5.621.921,8.666.279,3.512.446,7.187.4,10.87-.223,16.985-4.991,34.123-24.029,36.12C1379,1136.584,1379,1136.6,1379,1136.62Z" transform="translate(-1264.946 -1045.169)" fill="#efb6ae"/>
      <path id="Path_2701" data-name="Path 2701" d="M1391.464,1456.979c1.892,0,29.789-23.139,29.26-23.155,0-.07-22.357,2.661-29.211-3.448A179.1,179.1,0,0,1,1391.464,1456.979Z" transform="translate(-1306.663 -1342.408)" fill="#da9590"/>
      <path id="Path_2702" data-name="Path 2702" d="M1290.123,1021.963c-8.965,26,7.628,38.946,24.9,39.478,4.363.134-8.886-8.558-.781-19.985,1.623-2.287,7.707-3.056,10.782.948,2.7,3.511,8.89-8.131,10.751-12.353,2.794-6.341,35.533,1.4,30.247-15.944-1.222-4.01-10.52.329-7.4-8.953,2.392-7.115-14.082,0-8.869-8.909C1355,987.272,1301.214,989.792,1290.123,1021.963Z" transform="translate(-1223.637 -991.754)" fill="#682381"/>
      <g id="Group_3053" data-name="Group 3053" transform="translate(121.708 483.172)">
        <g id="Group_3051" data-name="Group 3051">
          <path id="Path_2703" data-name="Path 2703" d="M1614.206,3636.318c-5.607.487-11.031-.169-15.017-2.528-3.846-2.273-6.351-6.135-6.39-12.076-.384-59.4-19.112-125.92-17.172-155.6q.077-1.168.148-2.285c2.763-42.8.857-25.9,12.465-44.723,1.09-1.77.932-8.986.4-18.193a15.511,15.511,0,0,0,9.965,4.758c.382.022.612-.465.442-.824-.108-.229-.22-.448-.333-.671a45.515,45.515,0,0,0,6.329,2.2c3.945,4.714,6.365,10.908,8.207,17.01C1614.556,3427.7,1618.937,3497.491,1614.206,3636.318Z" transform="translate(-1575.485 -3400.912)" fill="#efb6ae"/>
        </g>
        <g id="Group_3052" data-name="Group 3052" transform="translate(17.041 217.552)">
          <path id="Path_2704" data-name="Path 2704" d="M1751.13,4509.061c-.019.09-.044.183-.073.277a2.954,2.954,0,0,0,.552-2.227c-1.263-10.2-21.613-16.99-30.986-21.446-.809-.384-4.073,10.061-12.737,8.571,4.456,2.712,8.894,6.892,15.787,10.573C1736.174,4511.483,1751.377,4507.888,1751.13,4509.061Z" transform="translate(-1698.373 -4485.654)" fill="#365ff5"/>
          <path id="Path_2705" data-name="Path 2705" d="M1668.612,4515.237c12.407,3.956,39.985,10.384,44.526,4.368.029-.094.054-.187.073-.277.246-1.173-14.956,2.422-27.457-4.252-6.893-3.68-11.331-7.861-15.787-10.573a10.5,10.5,0,0,1-9.246-6.005C1660.622,4501.095,1658.417,4511.986,1668.612,4515.237Z" transform="translate(-1660.454 -4495.922)" fill="#2035af"/>
        </g>
      </g>
      <path id="Path_2706" data-name="Path 2706" d="M1453.382,2344.883s29.224,128.75,24.7,251.232c-2.018,54.64-.252,156.244-.252,156.244s-7.564,4.909-20.195,6.047a122.251,122.251,0,0,1-19.864,0s-20.268-154.156-20.882-189.778-24.138-218.174-24.138-218.174Z" transform="translate(-1307.692 -2073.505)" fill="#682381"/>
      <g id="Group_3055" data-name="Group 3055" transform="translate(0 472.543)">
        <path id="Path_2707" data-name="Path 2707" d="M999,3582.885a13.928,13.928,0,0,0,3.655-.61,9.363,9.363,0,0,1,1.177-7.209c30.39-43.369,129.118-183.375,108.957-225.156-5.32-11.023-43.706,24.535-72.948,85.971-10.812,22.716-23.315,65.244-45.385,109.633-3.21,6.456-6.842,16.949-10.47,23.23C989.815,3574,991.495,3583.136,999,3582.885Z" transform="translate(-980.903 -3347.918)" fill="#efb6ae"/>
        <g id="Group_3054" data-name="Group 3054" transform="translate(0 215.525)">
          <path id="Path_2708" data-name="Path 2708" d="M1060.3,4499.49c-.05.073-.107.146-.168.218a2.641,2.641,0,0,0,1.316-1.771c2.577-9.876-16.637-25.059-21.292-34.36-.421-.841-6.479,7.645-13.826,2.249,3.067,4.547,5.582,10.424,10.516,16.99C1045.8,4494.724,1060.955,4498.537,1060.3,4499.49Z" transform="translate(-1014.76 -4455.303)" fill="#365ff5"/>
          <path id="Path_2709" data-name="Path 2709" d="M972.354,4442.912c9.855,9.388,35.319,27.412,41.653,24.05.061-.072.118-.145.168-.218.653-.954-14.507-4.767-23.455-16.675-4.934-6.566-7.448-12.442-10.516-16.99-6.2-3.495-5.811-10.522-5.811-10.522C971.467,4425.458,964.256,4435.2,972.354,4442.912Z" transform="translate(-968.633 -4422.556)" fill="#2035af"/>
        </g>
      </g>
      <path id="Path_2710" data-name="Path 2710" d="M1213.268,1628c-3.512-68.208,9.619-78.117,31.074-90.48,3.724,2.667,7.969,4.448,12.266,6.451a82.285,82.285,0,0,0,9.666,3.987c2.982.951,6.77,1.687,9.771,1.1,27.96,22.268,29.125,53.458,26.509,84.881-2.313,27.783,1.34,55.638,2.612,65.5.368,2.851-19.19,2.877-34.246,4.829-14.74,1.913-60.413,8.719-62.213,2.5C1203.666,1689.344,1214.407,1650.123,1213.268,1628Z" transform="translate(-1159.476 -1428.067)" fill="#689cff"/>
      <path id="Path_2711" data-name="Path 2711" d="M1339.927,1774.815c-15.06,1.495-35.191,8.157-59.939,3.835-14.765-2.578-22.022-72.962-25.013-88.61-6.428-33.627-1.9-45.488.938-54.3,6.109-18.994,52.459,9.127,64.133,45.912,7.012,22.1-16.606-5.59-17.17,1.7C1299.372,1728.62,1342.518,1774.558,1339.927,1774.815Z" transform="translate(-1194.928 -1501.7)" fill="#4988ff"/>
      <path id="Path_2712" data-name="Path 2712" d="M1118.373,2381.381s27.248,140.1,12.7,196.566S1029.933,2772.6,1029.933,2772.6s-8.487-.012-19.731-5.471a69.509,69.509,0,0,1-16.208-11.4s77.272-160.626,72.267-189.491-27.115-143.715-27.729-169.51-.393-30.326-.393-30.326l76.829-3.765Z" transform="translate(-988.908 -2087.703)" fill="#4f1b68"/>
      <path id="Path_2713" data-name="Path 2713" d="M1213.991,2359.426l98.141-6.794-1.668-7.749-96.45,7.327Z" transform="translate(-1164.783 -2073.504)" fill="#2035af"/>
      <path id="Path_2714" data-name="Path 2714" d="M1415.673,1538.635s-2.921-6.07-6.47-8.527-17.536-6.225-17.536-6.225l-.2,3.291s9.2,6.415,13.469,7.916S1415.673,1538.635,1415.673,1538.635Z" transform="translate(-1306.663 -1417.161)" fill="#4d91e8"/>
      <path id="Path_2715" data-name="Path 2715" d="M1537.438,1556.752s-.214,2.52-.76,5.25a12.456,12.456,0,0,0-.454,2.666l1.767-.042Z" transform="translate(-1422.385 -1443.438)" fill="#4988ff"/>
      <path id="Path_2716" data-name="Path 2716" d="M1391.006,1530.109l-3.464,8.24-18.84-9,4.767-5.469s8.332,2.235,11.151,2.969A24.933,24.933,0,0,1,1391.006,1530.109Z" transform="translate(-1288.466 -1417.161)" fill="#4988ff"/>
      <path id="Path_2717" data-name="Path 2717" d="M1542.3,1556.752l4.03,8.493-4.03-.6Z" transform="translate(-1427.249 -1443.438)" fill="#4d91e8"/>
      <path id="Path_2718" data-name="Path 2718" d="M1508.11,1591.224s13.862,29.47,12.634,57.153-2.457,38.739-2.457,38.739l7.166,10.237,7.78-10.237s2.662-34.268,1.229-47.946-20.708-46.944-20.708-46.944Z" transform="translate(-1399.915 -1470.997)" fill="#2035af"/>
      <g id="Group_3056" data-name="Group 3056" transform="translate(59.064 130.913)">
        <path id="Path_2719" data-name="Path 2719" d="M2248.578,2190.5c.73,3.112-24.717-6.619-26.469-4.054-1.724,2.524,25.655,6.756,23.6,10.767-.8,1.564-24.679-5.691-28.24-5.316-4.594.485,21.3,6.383,19.613,9.343-1.077,1.894-35.448-5.937-44.2-10.871-2.522-1.422,3.886-15.424,4.467-17.177.322-.971,2.26-1.425,5.37-1.448,4.615-.034,11.81.88,20.133,2.457,10.136,1.919,25.461,7.641,25.277,11.207-.065,1.256-24.6-7.8-24.525-5.223C2223.645,2181.36,2247.784,2187.113,2248.578,2190.5Z" transform="translate(-2005.953 -2066.001)" fill="#efb6ae"/>
        <path id="Path_2720" data-name="Path 2720" d="M1346.429,1732.477c-.937,8.167-9.31,7.889-13.432,15.108a30.269,30.269,0,0,1-4.617,6.1c-11.707-2.143-8.46,9.818-36.15-26.265-23.005-29.979-40.666-72.706-19.824-82.2,20.907-9.523,77.541,78.48,77.935,78.531C1347.94,1728.814,1347.044,1727.113,1346.429,1732.477Z" transform="translate(-1263.135 -1644.502)" fill="#689cff"/>
        <path id="Path_2721" data-name="Path 2721" d="M1498.314,2036.167c7.1-3.857,12.8-9.8,17.985-15.888,3.62-4.254,6.857-10.229,11.939-13.032,13.814,7.712,110.769,30.132,109.553,33.33-1.275,3.353-4.755,17.471-5.772,18.264-4.665,3.639-97.52,5.354-133.973-14.7a39.452,39.452,0,0,1-7.142-5.1A31.114,31.114,0,0,0,1498.314,2036.167Z" transform="translate(-1445.225 -1934.496)" fill="#689cff"/>
      </g>
    </g>
    <path id="Path_2722" data-name="Path 2722" d="M1567.8,1221.538c0,5.421-2.7,9.816-6.029,9.816s-6.029-4.395-6.029-9.816,1.834-8.244,5.164-8.244S1567.8,1216.116,1567.8,1221.538Z" transform="translate(-1070.998 -708.625)" fill="#da9590"/>
    <path id="Path_2723" data-name="Path 2723" d="M1629.641,1218.486a3.084,3.084,0,0,1-2.332,1.232c-2.192,0-4.172-2.194-4.507-5.746-.456-4.833,1.5-7.773,3.691-7.773a6.153,6.153,0,0,1,2.749,1.417C1629.521,1211.127,1629.689,1214.8,1629.641,1218.486Z" transform="translate(-1124.559 -702.953)" fill="#da9590"/>
    <g id="Group_3058" data-name="Group 3058" transform="translate(466.427 501.037)">
      <path id="Path_2724" data-name="Path 2724" d="M1557.981,1227.274c-3.586,0-6.5-3.886-6.5-8.663s2.917-8.663,6.5-8.663,6.5,3.886,6.5,8.663S1561.567,1227.274,1557.981,1227.274Zm0-16.042c-2.878,0-5.219,3.31-5.219,7.379s2.341,7.38,5.219,7.38,5.219-3.31,5.219-7.38S1560.859,1211.231,1557.981,1211.231Z" transform="translate(-1534.021 -1206.988)" fill="#682381"/>
      <path id="Path_2725" data-name="Path 2725" d="M1633.367,1210.252a4.186,4.186,0,0,1-2.811-1.157,8.734,8.734,0,0,1-2.513-6.385c0-4.148,2.543-7.523,5.669-7.523,2.626,0,4.023,3.694,4.21,7.126.2,3.693-1,7.573-4.14,7.915A3.833,3.833,0,0,1,1633.367,1210.252Zm.345-13.781c-2.418,0-4.386,2.8-4.386,6.239a7.535,7.535,0,0,0,2.086,5.429,2.9,2.9,0,0,0,2.23.814c2.3-.251,3.166-3.481,3-6.57C1636.46,1199.068,1635.174,1196.472,1633.712,1196.472Z" transform="translate(-1595.229 -1195.188)" fill="#682381"/>
      <rect id="Rectangle_517" data-name="Rectangle 517" width="4.37" height="1.283" transform="translate(29.083 7.546) rotate(-15.069)" fill="#682381"/>
      <rect id="Rectangle_518" data-name="Rectangle 518" width="18.1" height="1.283" transform="translate(0 7.524)" fill="#682381"/>
    </g>
    <path id="Path_2726" data-name="Path 2726" d="M1092.487,2798.558l-.81-.354c.728-1.662,72.941-166.489,86.358-194.262,3.06-6.333,3.628-20.746,1.69-42.835-1.555-17.724-4.723-40.375-9.414-67.324-7.989-45.894-17.761-88.91-17.859-89.34l.862-.2c.1.429,9.875,43.468,17.868,89.385,4.7,26.973,7.866,49.649,9.424,67.4,1.953,22.25,1.356,36.818-1.775,43.3C1165.421,2632.084,1093.215,2796.9,1092.487,2798.558Z" transform="translate(-700.008 -1660.725)" fill="#682381"/>
    <g id="Group_3060" data-name="Group 3060" transform="translate(862.721 585.883)">
      <g id="Group_3059" data-name="Group 3059" transform="translate(0 0)">
        <path id="Path_2727" data-name="Path 2727" d="M3497.519,2793.669c2.748,1.634,1.133-25.563,4.106-26.461,2.927-.884-1.285,26.5,3.158,25.75,1.733-.292,2.007-25.247,3.437-28.529,1.846-4.234-.328,22.229,3,21.516,2.131-.456,5.015-35.59,2.945-45.418-.6-2.833-15.878-.94-17.725-.914-2.542.036-5.039,10.542-6.719,24.623-1.223,10.243-.383,26.58,3.073,27.478,1.217.316-.03-25.808,2.406-24.959C3496.313,2767.141,3494.529,2791.892,3497.519,2793.669Z" transform="translate(-3479.408 -2514.2)" fill="#f0733e"/>
        <path id="Path_2728" data-name="Path 2728" d="M3466.43,1732.573c6.84,4.56,12.036-2.011,20.209-.495a30.273,30.273,0,0,0,7.641.418c5.927-10.321,12.96-.117,3.3-44.562-8.025-36.927-29.233-78.009-49.943-68.231-20.775,9.809,9.821,109.887,9.606,110.221C3462.658,1731.361,3461.938,1729.578,3466.43,1732.573Z" transform="translate(-3440.404 -1618.24)" fill="#c7abff"/>
        <path id="Path_2729" data-name="Path 2729" d="M3552.6,2051.552c-5.816,5.608-13.2,9.256-20.568,12.365-5.147,2.171-11.819,3.458-16.023,7.46,3.194,15.495-4.63,114.7-1.214,114.5,3.581-.206,18.092.728,19.155,0,4.875-3.352,34.478-91.379,26.335-132.179a39.472,39.472,0,0,0-2.716-8.347A31.123,31.123,0,0,1,3552.6,2051.552Z" transform="translate(-3499.174 -1959.692)" fill="#c7abff"/>
      </g>
      <ellipse id="Ellipse_63" data-name="Ellipse 63" cx="2.351" cy="2.351" rx="2.351" ry="2.351" transform="translate(31.733 218.983) rotate(-80.783)" fill="#a082ff"/>
    </g>
    <path id="Path_2730" data-name="Path 2730" d="M3031.282,4538.677l-.684.563-3.9-4.752.838-.375Z" transform="translate(-2246.944 -3363.433)" fill="#fff"/>
    <path id="Path_2731" data-name="Path 2731" d="M3049.389,4531.128l-.685.561-4.129-5.024.845-.364Z" transform="translate(-2261.24 -3357.188)" fill="#fff"/>
    <g id="Group_3061" data-name="Group 3061" transform="translate(920.172 1166.331)">
      <path id="Path_2732" data-name="Path 2732" d="M3732.181,4530.339l-.476.746L3726.86,4528c.193-.229.384-.459.571-.686Z" transform="translate(-3726.86 -4524.33)" fill="#fff"/>
      <path id="Path_2733" data-name="Path 2733" d="M3745.292,4516.192l-.476.746-5.974-3.8q.276-.355.538-.706Z" transform="translate(-3736.439 -4512.431)" fill="#fff"/>
    </g>
  </g>
</svg>
