<svg xmlns="http://www.w3.org/2000/svg" width="24" height="24" viewBox="0 0 24 24">
  <g id="rest-api" transform="translate(-5491 1243)">
    <g id="Rest_Api-595b40b65ba036ed117d3735" data-name="Rest Api-595b40b65ba036ed117d3735" transform="translate(5489.812 -1244)">
      <path id="Subtraction_1" data-name="Subtraction 1" d="M-5241.492,1267.369h-2.935l-.71-2.843-.18-.049a9.117,9.117,0,0,1-4.087-2.351l-.132-.132-2.807.8-1.467-2.542,2.105-2.037-.047-.179a9.094,9.094,0,0,1-.319-2.355,9.17,9.17,0,0,1,.318-2.355l.049-.179-2.107-2.037,1.467-2.542,2.809.8.13-.132a9.122,9.122,0,0,1,4.089-2.351l.18-.049.71-2.841h2.935l.711,2.843.179.047a9.107,9.107,0,0,1,4.087,2.352l.132.132,2.807-.8,1.469,2.542-2.107,2.037.047.179a9.089,9.089,0,0,1,.319,2.354,9.154,9.154,0,0,1-.318,2.355l-.049.181,2.107,2.036-1.467,2.542-2.807-.8-.132.132a9.11,9.11,0,0,1-4.089,2.351l-.178.049-.712,2.842Zm-5.583-9.79h1.293l.265,1.263h1.293l-1.334-6.316h-1.6l-1.487,6.316h1.293l.276-1.262Zm7.9-5.053v6.316h1.263v-6.316Zm-3.142,0a6.454,6.454,0,0,0-1.279.121v6.194h1.263V1256.5a2.129,2.129,0,0,0,.243.009,2.16,2.16,0,0,0,1.53-.605,2.12,2.12,0,0,0,.531-1.512,1.817,1.817,0,0,0-.541-1.38A2.42,2.42,0,0,0-5242.312,1252.526Zm-3.643,3.79h-.932l.231-1.193c.048-.244.11-.624.165-.96l.007-.044c.025-.155.05-.3.071-.431h.03l.038.257.007.044c.055.372.124.834.179,1.134l.2,1.192Zm3.833-.794a1.477,1.477,0,0,1-.206-.009v-1.95a.9.9,0,0,1,.3-.047c.689,0,.792.614.792.98C-5241.236,1255.147-5241.559,1255.522-5242.122,1255.522Z" transform="translate(5256.396 -1242.684)" fill="#bcbcbc"/>
    </g>
    <rect id="Rectangle_887" data-name="Rectangle 887" width="24" height="24" transform="translate(5491 -1243)" fill="none"/>
  </g>
</svg>
