<svg xmlns="http://www.w3.org/2000/svg" width="24" height="24" viewBox="0 0 24 24">
  <g id="rest-api-active" transform="translate(-5491 1243)">
    <g id="Rest_Api-595b40b65ba036ed117d3735" data-name="Rest Api-595b40b65ba036ed117d3735" transform="translate(5489.812 -1244)">
      <g id="Group_5212" data-name="Group 5212" transform="translate(2.188 1)">
        <path id="Path_12592" data-name="Path 12592" d="M12.2,24.868l-.711-2.843-.179-.048a9.115,9.115,0,0,1-4.088-2.352l-.131-.131-2.807.8L2.817,17.755l2.106-2.037-.048-.179a8.861,8.861,0,0,1,0-4.71l.048-.179L2.816,8.613,4.284,6.071l2.807.8.131-.131A9.116,9.116,0,0,1,11.311,4.39l.179-.048L12.2,1.5h2.935l.711,2.843.179.048a9.11,9.11,0,0,1,4.088,2.352l.131.131,2.807-.8,1.468,2.542L22.415,10.65l.048.179a8.861,8.861,0,0,1,0,4.71l-.048.179,2.106,2.036L23.054,20.3l-2.807-.8-.131.131a9.112,9.112,0,0,1-4.088,2.352l-.179.048-.711,2.843Z" transform="translate(-2.419 -1.184)" fill="#98ccfd"/>
        <path id="Path_12593" data-name="Path 12593" d="M14.659,1.632l.606,2.423.09.361.359.1a8.8,8.8,0,0,1,3.946,2.27l.263.263.357-.1,2.392-.684,1.221,2.115L22.1,10.11l-.267.258.1.359a8.536,8.536,0,0,1,0,4.546l-.1.359.267.258,1.8,1.736-1.221,2.115-2.392-.684-.357-.1-.263.263a8.8,8.8,0,0,1-3.946,2.27l-.359.1-.09.361-.605,2.423H12.217l-.606-2.423-.09-.361-.359-.1a8.8,8.8,0,0,1-3.946-2.27l-.263-.263-.357.1L4.2,19.741,2.982,17.626l1.8-1.736.267-.258-.1-.359a8.536,8.536,0,0,1,0-4.546l.1-.359-.267-.258-1.8-1.736L4.2,6.259,6.6,6.943l.357.1.263-.263a8.8,8.8,0,0,1,3.946-2.27l.359-.1.09-.361.605-2.423h2.442M15.152,1H11.723L11,3.9A9.416,9.416,0,0,0,6.768,6.335L3.9,5.515,2.189,8.484l2.151,2.079a9.158,9.158,0,0,0,0,4.873L2.188,17.515,3.9,20.484l2.866-.82A9.419,9.419,0,0,0,11,22.1l.726,2.9h3.429l.725-2.9a9.419,9.419,0,0,0,4.23-2.433l2.866.82,1.714-2.969-2.151-2.079a9.165,9.165,0,0,0,0-4.872l2.151-2.079L22.973,5.516l-2.866.82A9.416,9.416,0,0,0,15.878,3.9L15.152,1Z" transform="translate(-2.188 -1)" fill="#4788c7"/>
      </g>
      <path id="Path_12594" data-name="Path 12594" d="M19,15.121A6.41,6.41,0,0,1,20.278,15a2.476,2.476,0,0,1,1.748.485,1.813,1.813,0,0,1,.541,1.381,2.1,2.1,0,0,1-.531,1.511,2.155,2.155,0,0,1-1.53.606,2.081,2.081,0,0,1-.243-.009v2.342H19V15.121Zm1.263,2.864a1.422,1.422,0,0,0,.205.009c.616,0,.887-.439.887-1.026,0-.551-.224-.98-.793-.98a.907.907,0,0,0-.3.047Z" transform="translate(-6.194 -5.158)" fill="#fff"/>
      <path id="Path_12595" data-name="Path 12595" d="M26,15h1.263v6.316H26Z" transform="translate(-8.773 -5.158)" fill="#fff"/>
      <path id="Path_12596" data-name="Path 12596" d="M14.128,21.316h1.293L14.087,15h-1.6L11,21.316h1.293l.275-1.263h1.293Zm-.9-5.154h.03c.061.412.153,1.05.224,1.434l.2,1.194h-.932l.231-1.194C13.058,17.23,13.159,16.583,13.231,16.161Z" transform="translate(-3.247 -5.158)" fill="#fff"/>
    </g>
    <rect id="Rectangle_887" data-name="Rectangle 887" width="24" height="24" transform="translate(5491 -1243)" fill="none"/>
  </g>
</svg>
