<svg xmlns="http://www.w3.org/2000/svg" width="618.025" height="668" viewBox="0 0 618.025 668">
    <defs>
        <style>
            .cls-1{opacity:.163}.cls-2{opacity:.187}.cls-3{fill:#8094f9}.cls-4{fill:#3062ef}.cls-5{fill:#1e43c6}.cls-6{fill:#eaeaea}.cls-7{fill:#ffbc48}.cls-8{fill:#929fff}.cls-9{fill:#a2b1fc}.cls-10{fill:#6988f7}.cls-11{fill:#b2c1f9}.cls-12{fill:#647df9}.cls-13{fill:#b8c2ff}.cls-14{fill:#f9a935}.cls-15{fill:#a1b1ff}.cls-16{fill:#a9b8ff}.cls-17{fill:#0a0189}.cls-18{fill:#6774ff}.cls-19{fill:#5e71fc}.cls-20{fill:#1730a4}.cls-21{fill:#445bfc}.cls-22{fill:#2f69ea}
        </style>
    </defs>
    <g id="search" transform="translate(-592.96 -241.536)">
        <path id="Path_11371" d="M667.092 340.351s-85.568 43.722-53.074 76.56 48.742 40.712 16.247 70.352-90.052 100.637 69.787 111.174 218.039-54.709 218.039-54.709z" class="cls-1" data-name="Path 11371" transform="translate(0 34.018)"/>
        <path id="Path_11372" d="M914.494 268.221s190.632-51.991 194.965-10.832-82.318 93.445-48.741 122.689 19.782 87.022-34.425 110.032C932.8 529.79 887.415 380.078 887.415 380.078z" class="cls-1" data-name="Path 11372" transform="translate(101.369)"/>
        <path id="Path_11373" d="M841 586.139a424.608 424.608 0 0 0-172.192 24.872c-44.23 16.248-78.713 37.1-39.72 55.511 77.986 36.827 62.823 39.191 37.909 54.256s-39.7 54.058 138.288 67.056 183.4-15.163 156.327-28.161-18.423-27.079 29.239-28.162 273.295-23.654 160.31-84.484C1075.7 606.394 929.666 591.531 841 586.139z" class="cls-2" data-name="Path 11373" transform="translate(6.592 118.356)"/>
        <path id="Path_11374" d="M645.463 614.336l11.32 52.826h33.96l9.322-52.826z" class="cls-3" data-name="Path 11374" transform="translate(18.075 128.34)"/>
        <path id="Path_11375" d="M674.947 648.37s-6.216-17.978 4-32.183 16.8-15.325 18.2-23.972c2.443-15.038-5.394-19.271-4.384-27.846 1.5-12.709 15.241-8.052 13.984-23.15-1-11.985 6.2-33.929-15.372-22.583-19.336 10.171-24.416 39.4-27.412 67.7s1.832 62.038 1.832 62.038z" class="cls-4" data-name="Path 11375" transform="translate(24.105 94.306)"/>
        <path id="Path_11376" d="M665.733 645.291s5.653-16.352-3.634-29.271-15.277-13.937-16.555-21.8c-2.221-13.678 4.907-17.528 3.987-25.327-1.362-11.559-13.862-7.323-12.718-21.055.909-10.9-5.638-30.86 13.98-20.54 17.587 9.25 22.207 35.833 24.932 61.573s-1.666 56.424-1.666 56.424z" class="cls-5" data-name="Path 11376" transform="translate(14.977 97.386)"/>
        <g id="Group_4698" data-name="Group 4698" transform="translate(691.259 630.199)">
            <path id="Path_11377" d="M668.772 643.474a.333.333 0 0 1-.323-.249 81.2 81.2 0 0 1-2.362-16.5c-.136-8.192 5.545-31.527 13.363-40.675 5.2-6.083 3.525-13.831 1.752-22.034-.929-4.3-1.89-8.753-1.832-13.046.167-12.324 9.015-20.145 9.1-20.223a.334.334 0 0 1 .437.5c-.087.075-8.712 7.709-8.875 19.728-.058 4.217.9 8.629 1.817 12.9 1.807 8.369 3.515 16.274-1.9 22.608-7.724 9.039-13.338 32.124-13.2 40.231a80.5 80.5 0 0 0 2.34 16.346.332.332 0 0 1-.237.406.305.305 0 0 1-.08.008z" class="cls-6" data-name="Path 11377" transform="translate(-666.085 -530.664)"/>
        </g>
        <g id="Group_4699" data-name="Group 4699" transform="translate(657.101 628.867)">
            <path id="Path_11378" d="M668.864 643.816h-.024a.334.334 0 0 1-.309-.355c.022-.3 2.007-29.738-1.032-37.591-.648-1.675-1.609-3.569-2.628-5.576-3.518-6.934-7.9-15.564-5.655-25.911 1.735-8.006-2.5-13.75-6.236-18.82-2.374-3.219-4.425-6-4.425-8.791 0-7.774-7.716-16.457-7.794-16.544a.333.333 0 0 1 .5-.445c.324.363 7.963 8.964 7.963 16.989 0 2.572 1.991 5.271 4.3 8.4 3.631 4.924 8.149 11.054 6.35 19.353-2.191 10.117 2.128 18.63 5.6 25.47 1.026 2.022 1.995 3.932 2.655 5.636 3.093 7.992 1.16 36.659 1.075 37.876a.333.333 0 0 1-.34.309z" class="cls-6" data-name="Path 11378" transform="translate(-640.675 -529.673)"/>
        </g>
        <path id="Path_11379" d="M939.187 627.142l10.723 50.041h32.169l8.831-50.041z" class="cls-7" data-name="Path 11379" transform="translate(119.192 132.749)"/>
        <path id="Path_11380" d="M967.115 659.381s-5.886-17.03 3.786-30.487 15.911-14.515 17.24-22.707c2.313-14.245-5.109-18.256-4.152-26.378 1.42-12.039 14.439-7.627 13.246-21.929-.946-11.354 5.873-32.14-14.56-21.393-18.317 9.634-23.128 37.319-25.967 64.128s1.734 58.766 1.734 58.766z" class="cls-5" data-name="Path 11380" transform="translate(124.905 100.51)"/>
        <path id="Path_11381" d="M958.387 656.465s5.356-15.49-3.441-27.728-14.472-13.2-15.681-20.653c-2.1-12.956 4.647-16.6 3.776-23.991-1.291-10.95-13.132-6.938-12.047-19.945.86-10.327-5.342-29.234 13.242-19.458 16.659 8.763 21.036 33.944 23.617 58.326s-1.577 53.449-1.577 53.449z" class="cls-8" data-name="Path 11381" transform="translate(116.258 103.426)"/>
        <g id="Group_4700" data-name="Group 4700" transform="translate(1084.639 653.344)">
            <path id="Path_11382" d="M961.267 654.744a.316.316 0 0 1-.305-.235 76.857 76.857 0 0 1-2.238-15.634c-.129-7.759 5.253-29.864 12.659-38.529 4.924-5.763 3.339-13.1 1.66-20.872a56.289 56.289 0 0 1-1.735-12.358c.157-11.676 8.539-19.083 8.623-19.157a.315.315 0 0 1 .414.476c-.083.073-8.254 7.3-8.407 18.689a55.7 55.7 0 0 0 1.722 12.215c1.711 7.928 3.33 15.416-1.8 21.417-7.315 8.562-12.633 30.429-12.507 38.109a76.107 76.107 0 0 0 2.218 15.484.315.315 0 0 1-.226.385.273.273 0 0 1-.078.01z" class="cls-6" data-name="Path 11382" transform="translate(-958.721 -547.881)"/>
        </g>
        <g id="Group_4701" data-name="Group 4701" transform="translate(1052.282 652.082)">
            <path id="Path_11383" d="M961.353 655.067h-.022a.316.316 0 0 1-.293-.337c.019-.281 1.9-28.169-.979-35.608-.613-1.586-1.524-3.381-2.49-5.282-3.332-6.568-7.481-14.742-5.357-24.545 1.644-7.584-2.367-13.025-5.907-17.826-2.249-3.051-4.193-5.686-4.193-8.329 0-7.364-7.309-15.588-7.383-15.671a.315.315 0 1 1 .469-.421c.308.343 7.544 8.49 7.544 16.092 0 2.436 1.886 4.994 4.07 7.955 3.439 4.665 7.719 10.47 6.016 18.333-2.077 9.583 2.015 17.648 5.3 24.125.972 1.917 1.889 3.725 2.515 5.341 2.929 7.57 1.1 34.726 1.019 35.878a.317.317 0 0 1-.309.295z" class="cls-6" data-name="Path 11383" transform="translate(-934.651 -546.943)"/>
        </g>
        <rect id="Rectangle_777" width="445.46" height="309.525" class="cls-9" data-name="Rectangle 777" rx="12.945" transform="translate(667.092 268.221)"/>
        <path id="Rectangle_778" d="M12.945 0h419.57a12.945 12.945 0 0 1 12.945 12.945v20.239H0V12.945A12.945 12.945 0 0 1 12.945 0z" class="cls-8" data-name="Rectangle 778" transform="translate(667.092 268.221)"/>
        <path id="Path_11384" d="M686.564 277.585h-20.941a3.07 3.07 0 0 1-3.07-3.069 3.07 3.07 0 0 1 3.07-3.069h20.941a3.069 3.069 0 0 1 3.069 3.069 3.069 3.069 0 0 1-3.069 3.069z" class="cls-4" data-name="Path 11384" transform="translate(23.958 10.297)"/>
        <path id="Path_11385" d="M723.72 277.585h-20.942a3.07 3.07 0 0 1-3.069-3.069 3.07 3.07 0 0 1 3.069-3.069h20.942a3.069 3.069 0 0 1 3.069 3.069 3.069 3.069 0 0 1-3.069 3.069z" class="cls-4" data-name="Path 11385" transform="translate(36.75 10.297)"/>
        <path id="Path_11386" d="M758.18 277.585h-20.942a3.069 3.069 0 0 1-3.069-3.069 3.069 3.069 0 0 1 3.069-3.069h20.942a3.069 3.069 0 0 1 3.069 3.069 3.069 3.069 0 0 1-3.069 3.069z" class="cls-4" data-name="Path 11386" transform="translate(48.613 10.297)"/>
        <path id="Path_11387" d="M898.166 282.8h-109.4a7.221 7.221 0 0 1-7.221-7.221 7.221 7.221 0 0 1 7.221-7.221h109.4a7.221 7.221 0 0 1 7.221 7.221 7.221 7.221 0 0 1-7.221 7.221z" class="cls-9" data-name="Path 11387" transform="translate(64.921 9.234)"/>
        <path id="Path_11388" d="M950.591 274.562a3.25 3.25 0 1 1-3.249-3.25 3.249 3.249 0 0 1 3.249 3.25z" class="cls-5" data-name="Path 11388" transform="translate(120.881 10.251)"/>
        <circle id="Ellipse_92" cx="3.25" cy="3.25" r="3.25" class="cls-4" data-name="Ellipse 92" transform="translate(1080.747 281.563)"/>
        <path id="Path_11389" d="M973.344 274.562a3.25 3.25 0 1 1-3.249-3.25 3.249 3.249 0 0 1 3.249 3.25z" class="cls-7" data-name="Path 11389" transform="translate(128.714 10.251)"/>
        <rect id="Rectangle_779" width="81.109" height="81.109" class="cls-10" data-name="Rectangle 779" rx="9.992" transform="translate(691.336 338.79)"/>
        <g id="Group_4702" data-name="Group 4702" transform="translate(708.607 430.378)">
            <path id="Path_11390" d="M724.836 383.461h-45.123a.723.723 0 1 1 0-1.445h45.123a.723.723 0 0 1 0 1.445z" class="cls-10" data-name="Path 11390" transform="translate(-678.99 -382.016)"/>
        </g>
        <g id="Group_4703" data-name="Group 4703" transform="translate(695.874 439.527)">
            <path id="Path_11391" d="M740.828 390.266h-70.587a.722.722 0 1 1 0-1.444h70.587a.722.722 0 1 1 0 1.444z" class="cls-10" data-name="Path 11391" transform="translate(-669.518 -388.822)"/>
        </g>
        <rect id="Rectangle_780" width="81.109" height="81.109" class="cls-10" data-name="Rectangle 780" rx="9.992" transform="translate(691.336 461.609)"/>
        <g id="Group_4704" data-name="Group 4704" transform="translate(708.607 553.197)">
            <path id="Path_11392" d="M724.836 474.826h-45.123a.722.722 0 1 1 0-1.444h45.123a.722.722 0 1 1 0 1.444z" class="cls-10" data-name="Path 11392" transform="translate(-678.99 -473.382)"/>
        </g>
        <g id="Group_4705" data-name="Group 4705" transform="translate(695.874 562.345)">
            <path id="Path_11393" d="M740.828 481.631h-70.587a.722.722 0 1 1 0-1.444h70.587a.722.722 0 1 1 0 1.444z" class="cls-10" data-name="Path 11393" transform="translate(-669.518 -480.187)"/>
        </g>
        <rect id="Rectangle_781" width="81.109" height="81.109" class="cls-10" data-name="Rectangle 781" rx="9.992" transform="translate(814.155 461.609)"/>
        <g id="Group_4706" data-name="Group 4706" transform="translate(831.427 553.197)">
            <path id="Path_11394" d="M816.2 474.826h-45.122a.722.722 0 0 1 0-1.444H816.2a.722.722 0 1 1 0 1.444z" class="cls-10" data-name="Path 11394" transform="translate(-770.356 -473.382)"/>
        </g>
        <g id="Group_4707" data-name="Group 4707" transform="translate(818.694 562.345)">
            <path id="Path_11395" d="M832.193 481.631h-70.587a.722.722 0 1 1 0-1.444h70.587a.722.722 0 1 1 0 1.444z" class="cls-10" data-name="Path 11395" transform="translate(-760.884 -480.187)"/>
        </g>
        <path id="Path_11396" d="M870.841 538.161a3.972 3.972 0 0 1-3.972-3.972V317.855a3.972 3.972 0 0 1 3.972-3.972 3.972 3.972 0 0 1 3.971 3.972v216.333a3.972 3.972 0 0 1-3.971 3.973z" class="cls-11" data-name="Path 11396" transform="translate(94.296 24.906)"/>
        <path id="Path_11397" d="M871.849 412.86a6.86 6.86 0 0 1-6.86-6.86v-19.137a6.86 6.86 0 0 1 6.86-6.861 6.861 6.861 0 0 1 6.861 6.861V406a6.861 6.861 0 0 1-6.861 6.86z" class="cls-12" data-name="Path 11397" transform="translate(93.649 47.668)"/>
        <rect id="Rectangle_782" width="85.337" height="226.146" class="cls-12" data-name="Rectangle 782" rx="12.489" transform="translate(1004.971 338.79)"/>
        <circle id="Ellipse_93" cx="22.386" cy="22.386" r="22.386" class="cls-5" data-name="Ellipse 93" transform="translate(1025.253 357.205)"/>
        <g id="Group_4708" data-name="Group 4708" transform="translate(1033.468 412.061)">
            <path id="Path_11398" d="M948.276 369.835h-26.9a.723.723 0 0 1 0-1.445h26.9a.723.723 0 1 1 0 1.445z" class="cls-5" data-name="Path 11398" transform="translate(-920.655 -368.39)"/>
        </g>
        <g id="Group_4709" data-name="Group 4709" transform="translate(1026.531 422.924)">
            <path id="Path_11399" d="M956.99 377.916h-40.773a.723.723 0 0 1 0-1.445h40.773a.723.723 0 0 1 0 1.445z" class="cls-5" data-name="Path 11399" transform="translate(-915.495 -376.471)"/>
        </g>
        <g id="Group_4710" data-name="Group 4710" transform="translate(1020.869 432.461)">
            <path id="Path_11400" d="M964.1 385.01H912a.722.722 0 0 1 0-1.444h52.1a.722.722 0 0 1 0 1.444z" class="cls-5" data-name="Path 11400" transform="translate(-911.283 -383.566)"/>
        </g>
        <path id="Path_11401" d="M904.884 676.918c-.535 5.675-12.616 10.413-33.045-.816-20.589-11.324-20.177-14.638-14.53-15.888 3.445-.765 11.648-.692 18.415-.476 1.328.043 2.606.094 3.776.144 3.827.159 6.557.332 6.557.332l16.565 7.315s3.07.723 2.262 9.389z" class="cls-7" data-name="Path 11401" transform="translate(89.859 143.92)"/>
        <path id="Path_11402" d="M929.359 670.893c-.505 5.425-11.934 9.952-31.259-.78-19.476-10.821-19.086-13.988-13.744-15.182 3.259-.733 11.018-.663 17.419-.456 1.257.04 2.465.089 3.573.137 3.62.152 6.2.319 6.2.319l15.67 6.99s2.906.692 2.141 8.972z" class="cls-7" data-name="Path 11402" transform="translate(99.232 142.111)"/>
        <path id="Path_11403" d="M881.465 561s-2.39 13.088-2.752 38.724-.9 103.265-.9 103.265 2.347 2.753 7.763 2.933a23.407 23.407 0 0 0 8.845-1.218s7.763-88.612 8.966-101.369 5.541-36.806 5.541-36.806l-14.448-14.942z" class="cls-13" data-name="Path 11403" transform="translate(98.063 106.738)"/>
        <path id="Path_11404" d="M874.458 659.845s-.527 5.38-4.376 5.922c-3 .426-.542-1.675.116-3.422a5.346 5.346 0 0 0 .484-2.643c1.328.042 2.607.098 3.776.143z" class="cls-14" data-name="Path 11404" transform="translate(94.902 143.958)"/>
        <path id="Path_11405" d="M907.205 560.117s-2.261 12.508-2.6 37.007-.855 98.689-.855 98.689 2.221 2.632 7.344 2.8a21.94 21.94 0 0 0 8.368-1.164s7.344-84.686 8.482-96.878 5.241-38.294 5.241-38.294l-13.666-11.165z" class="cls-13" data-name="Path 11405" transform="translate(106.992 106.576)"/>
        <path id="Path_11406" d="M900.578 654.577s-.5 5.142-4.14 5.659c-2.835.407-.512-1.6.109-3.271a5.151 5.151 0 0 0 .453-2.525c1.262.04 2.47.089 3.578.137z" class="cls-14" data-name="Path 11406" transform="translate(104.002 142.147)"/>
        <path id="Path_11407" d="M941.674 455.02s11.565 16.317 9.038 26.908-14.683 22.506-14.683 22.506-9.629-7.221-12.878-10.47-1.686-17.932-1.686-17.932l10.575-17.453z" class="cls-13" data-name="Path 11407" transform="translate(112.962 73.494)"/>
        <path id="Path_11408" d="M929.355 469.111s7.315 7.278 6.091 12.41-7.116 10.909-7.116 10.909-4.667-3.5-6.243-5.075-.816-8.692-.816-8.692l5.126-8.458z" class="cls-15" data-name="Path 11408" transform="translate(112.962 78.345)"/>
        <path id="Path_11409" d="M931.373 435.2l12.093 21.176a19.254 19.254 0 0 1-6.047 11.313c-5.388 4.814-9.25 6.311-9.25 6.311s-6.728-4.025-7.209-5.83.241-13.24 1.323-16.127 9.09-16.843 9.09-16.843z" class="cls-5" data-name="Path 11409" transform="translate(112.865 66.671)"/>
        <path id="Path_11410" d="M901.031 432.759s-17.692 17.451-17.931 27.562 6.018 5.776 4.814 24.792-18.294 106.875-18.294 106.875 11.8 20.461 47.42 17.572 42.606-10.11 42.606-10.11-1.565-56.807-5.9-84.971-10.11-38.092-8.125-45.855 3.791-9.025 3.972-21.3a55.393 55.393 0 0 0-3.972-21.483l-38.994 1.083z" class="cls-4" data-name="Path 11410" transform="translate(95.243 63.448)"/>
        <path id="Path_11411" d="M896.836 417.117a33.42 33.42 0 0 1 0 9.179c-.72 4.694-3.85 12.4-3.85 12.4s10.953-.362 18.9-3.972 8.822-13.359 8.822-13.359L914.65 408.6l-17.09.481z" class="cls-16" data-name="Path 11411" transform="translate(103.287 57.515)"/>
        <path id="Path_11412" d="M899.078 386.558s-4.3 5.416-7.1 15.706a153.244 153.244 0 0 0-3.334 16.712 5.968 5.968 0 0 0 5.975 6.842c6.141-.059 15.023-.781 20.648-4.057 9.3-5.416 6.59-24.1 6.59-24.1l-9.568-13.991z" class="cls-13" data-name="Path 11412" transform="translate(101.769 48.931)"/>
        <path id="Path_11413" d="M896.389 389.018s14.864.9 15.044 16.067-16.97 29.607-2.107 43.508c12.135 11.348 39.056 7.763 44.276-5.235 6.231-15.511-2.551-23.453-7.853-26.649a5.417 5.417 0 0 1-2.471-5.788c1.612-7.391 3.5-22.851-7.052-28.763-28.344-15.887-39.837 6.86-39.837 6.86z" class="cls-17" data-name="Path 11413" transform="translate(104.459 46.47)"/>
        <path id="Path_11414" d="M913.6 435.2s5.472-.007 6.194 9.622-10.23 35.865-10.23 35.865a8.55 8.55 0 0 1-6.62-1.745l-2.889-2.467z" class="cls-5" data-name="Path 11414" transform="translate(105.722 66.671)"/>
        <path id="Path_11415" d="M919.735 489.232s-15.767 33.193-30.691 17.426-33.459-52.956-38.153-57.288-6.138-6.981-6.379-12.878 4.092-7.552 3.189-11.043-5.987-11.284-3.339-11.824c3.232-.661 9.724 12.568 14.9 16.9 4.255 3.562 1.5 14.753 5.592 18.965s29.844 37.991 32.117 37.8 4.536-6.272 4.536-6.272l5.05-1.23z" class="cls-13" data-name="Path 11415" transform="translate(86.288 59.235)"/>
        <path id="Path_11416" d="M916.333 434.611s-11.339-3.432-17.958 11.612a140.71 140.71 0 0 1-13 23.229s.77 7.114 9.388 10.47c9.267 3.611 13.841 1.686 13.841 1.686s9.777-22.414 12.035-29.848c4.936-16.241-4.306-17.149-4.306-17.149z" class="cls-4" data-name="Path 11416" transform="translate(100.667 66.352)"/>
        <path id="Path_11417" d="M1009.8 382.061v43.813a4.115 4.115 0 0 1-4.115 4.116h-43.809a4.115 4.115 0 0 1-4.115-4.116l-6.361-1.641a1.6 1.6 0 0 1-.641-2.766l7-6v-33.406a4.114 4.114 0 0 1 4.115-4.115h43.813a4.114 4.114 0 0 1 4.113 4.115z" class="cls-7" data-name="Path 11417" transform="translate(122.983 46.961)"/>
        <path id="Path_11418" d="M977.509 393.914a14.362 14.362 0 0 1 1.168-1.214 6.079 6.079 0 0 1 9.923 3.527 6.3 6.3 0 0 1-.964 4.545 17.044 17.044 0 0 1-3.362 3.931 38.358 38.358 0 0 1-6.557 4.693.28.28 0 0 1-.327.017 35.92 35.92 0 0 1-7.892-6.01 12.879 12.879 0 0 1-2.625-3.779 6 6 0 0 1 4.37-8.259 5.89 5.89 0 0 1 6.127 2.369z" class="cls-4" data-name="Path 11418" transform="translate(128.554 51.528)"/>
        <path id="Path_11419" d="M699.047 677.5s-6.038 7.522-3.271 15.466 14.8 6.5 20.34 4.213 28.765-19.679 28.765-19.679-3.73-8.243-9.027-10.05-15.767 3.937-15.767 3.937z" class="cls-5" data-name="Path 11419" transform="translate(35.146 146.503)"/>
        <path id="Path_11420" d="M728.37 677.489s-6.038 7.522-3.271 15.466 14.8 6.5 20.34 4.212c4.564-1.885 21.421-12.926 27.2-16.744a2.705 2.705 0 0 0 .916-3.5c-1.549-3.021-4.677-8.224-8.376-9.485-5.295-1.805-15.767 3.937-15.767 3.937z" class="cls-5" data-name="Path 11420" transform="translate(45.24 146.501)"/>
        <path id="Path_11421" d="M698.024 670.995v6.75s2.051 4.01 10.991 4.093c9.148.085 10.05-4.514 10.05-4.514v-5.692s-11.674.035-12.276-.266-5.416-4.994-5.416-4.994z" class="cls-18" data-name="Path 11421" transform="translate(36.17 146.254)"/>
        <path id="Path_11422" d="M727.346 670.987v6.751s2.051 4.009 10.991 4.092c9.148.085 10.05-4.513 10.05-4.513v-5.692s-11.673.035-12.276-.266-5.416-5-5.416-5z" class="cls-18" data-name="Path 11422" transform="translate(46.264 146.252)"/>
        <path id="Path_11423" d="M687.771 531.176s-2.891 10.835 0 29.129 4.817 62.585 5.779 95.32 0 56.808 0 56.808 3.972 6.258 18.414 6.5 18.174-3.37 18.174-3.37V538.4z" class="cls-7" data-name="Path 11423" transform="translate(32.198 99.712)"/>
        <path id="Path_11424" d="M712.043 540.094s-1.311 19.415 1.518 32.414 9.165 34.769 9.165 34.769 16.206-42.713 16.85-44.518-8.021-35.023-8.021-35.023l-10.11-6.138z" class="cls-14" data-name="Path 11424" transform="translate(40.891 96.414)"/>
        <path id="Path_11425" d="M717.495 531.176s-2.89 10.835 0 29.129 4.816 62.585 5.78 95.32 0 56.808 0 56.808 3.971 6.258 18.414 6.5 18.174-3.37 18.174-3.37v-179.7z" class="cls-7" data-name="Path 11425" transform="translate(42.43 99.712)"/>
        <path id="Path_11426" d="M752.341 504.133s2.8 9.035 6.051 14.811a108.586 108.586 0 0 0 6.86 10.591l-3.73 12.518-7.824-3.972-7.341-14.322z" class="cls-3" data-name="Path 11426" transform="translate(52.808 90.402)"/>
        <path id="Path_11427" d="M777.309 541.966c2.4 9.511-1.206 25.158-1.206 25.158a202.766 202.766 0 0 1-49.589 7.945c-26.719.722-38.272-11.078-38.272-11.078s-3.127-10.832-3.127-27.2 6.982-31.535 6.737-36.351 2.65-29.845 14.2-48.26c6.217-9.907 17.346-13.857 26.3-15.388a62.452 62.452 0 0 1 13.779-.86 74.45 74.45 0 0 1 15.741 3.264c7.489 2.492 15.353 6.774 17.837 14.068 2.18 6.391-.109 27.311-2.512 44.859a1304.993 1304.993 0 0 1-2.578 17.707c-.606 4.072-1.054 7.018-1.17 8.2-.595 6.143 1.451 8.432 3.86 17.936z" class="cls-5" data-name="Path 11427" transform="translate(31.726 66.897)"/>
        <path id="Path_11428" d="M748.841 436.368a59.061 59.061 0 0 0 .938 8.2 74.449 74.449 0 0 0-15.741-3.264 62.452 62.452 0 0 0-13.779.86c.527-2.983 1.422-6.947 2.671-8.984 2.167-3.517 6.774-6.767 6.774-6.767l12.457-6.138 8.847 8.269a16.312 16.312 0 0 0-2.167 7.824z" class="cls-19" data-name="Path 11428" transform="translate(43.824 61.532)"/>
        <path id="Path_11429" d="M759.923 494.679a1304.993 1304.993 0 0 1-2.578 17.707c-5.958-6.009-14.1-17.635-19.945-38.375-8.3-29.485 10.809-28.134 10.809-28.134z" class="cls-20" data-name="Path 11429" transform="translate(49.005 70.343)"/>
        <path id="Path_11430" d="M805.026 463.575c-1.249 2.715-5.192 5.43-5.315 5.43 0 0-7.95-2.765-8.224-4.527s-.751-6.08-.751-6.08a.007.007 0 0 0 .007-.007l1.178-1.437a.575.575 0 0 0-.375-.94 33.237 33.237 0 0 0-5.157.116l-2.664-6.051s.672-3.82 7.041-4.542c5.733-.643 9.106.591 12.456 3.69 4.151 3.833 3.067 11.596 1.804 14.348z" class="cls-18" data-name="Path 11430" transform="translate(65.672 70.172)"/>
        <path id="Path_11431" d="M790.059 455.877l1.178-1.437a.575.575 0 0 0-.375-.94 33.237 33.237 0 0 0-5.157.116s5.1-1.444 7.489-.765c2.332.665-2.859 2.911-3.135 3.026z" class="cls-21" data-name="Path 11431" transform="translate(66.355 72.685)"/>
        <path id="Path_11432" d="M767.385 450.106a70.773 70.773 0 0 1 10.016-3.429c3.882-.812-4.6 5.778-4.6 5.778l-3.34 2.3-3.159-2.213z" class="cls-18" data-name="Path 11432" transform="translate(59.674 70.598)"/>
        <path id="Path_11433" d="M755.814 451.491l12.379-5.235s2.347 1.9 4.874 8.622a65.449 65.449 0 0 1 3.34 12.772l-11.251 5.7-6.982-1.364z" class="cls-20" data-name="Path 11433" transform="translate(56.064 70.477)"/>
        <path id="Path_11434" d="M802.277 418.464l-12.551 131.312s-3.581 2.559-13.4 1.62c-10.007-.956-12.851-4.13-12.851-4.13l12.55-131.313z" class="cls-13" data-name="Path 11434" transform="translate(58.701 60.045)"/>
        <path id="Path_11435" d="M891.408 379.277a86.96 86.96 0 0 1-33.745 68.861A87.138 87.138 0 0 0 738.18 322.481a87.136 87.136 0 0 1 153.228 56.8z" class="cls-22" data-name="Path 11435" transform="translate(49.994 17.417)"/>
        <path id="Path_11436" d="M884.121 388.246a86.777 86.777 0 0 1-21.065 56.8A87.138 87.138 0 0 1 743.573 319.39a87.142 87.142 0 0 1 140.548 68.856z" class="cls-5" data-name="Path 11436" transform="translate(44.601 20.508)"/>
        <path id="Path_11437" d="M850.842 333.754v63.7a8.14 8.14 0 0 1-8.14 8.145h-85.875a8.145 8.145 0 0 1-8.145-8.145V332.6a65.17 65.17 0 0 1 102.16 1.156z" class="cls-12" data-name="Path 11437" transform="translate(53.609 23.043)"/>
        <path id="Path_11438" d="M868.21 367.473a65.179 65.179 0 1 1-115.8-41.054v64.855a8.145 8.145 0 0 0 8.145 8.145h85.875a8.14 8.14 0 0 0 8.14-8.145v-63.7a64.852 64.852 0 0 1 13.64 39.899z" class="cls-11" data-name="Path 11438" transform="translate(49.881 29.222)"/>
        <path id="Path_11439" d="M776.5 509.383a2.482 2.482 0 1 1-2.483-2.483 2.483 2.483 0 0 1 2.483 2.483z" class="cls-5" data-name="Path 11439" transform="translate(61.476 91.354)"/>
        <path id="Path_11440" d="M756.554 447.352a11.428 11.428 0 0 0-17.477 7.768c-1.109 6.841-.428 16.788 5.606 30.453 10.444 23.654 19.495 38.754 35.622 26.719s35.2-37.431 35.2-37.431 1.445-4.452-2.347-10.351a16.229 16.229 0 0 0-8.558-6.81s-21.625 27.818-27.42 26.374-6.131-14.8-10.109-24.011a28.4 28.4 0 0 0-10.517-12.711z" class="cls-5" data-name="Path 11440" transform="translate(50.151 70.215)"/>
        <path id="Path_11441" d="M747.921 396.075s5.175 5.144 9.058 16.608c3.3 9.761 3.339 22.748 3.339 22.748s-7.221 5.506-21.062 1.083c-16.866-5.391-18.775-17.332-18.775-17.332l3.37-17.091 15.887-9.868z" class="cls-18" data-name="Path 11441" transform="translate(43.901 51.876)"/>
        <path id="Path_11442" d="M752.9 378.234s6.259 14.173.151 22.658-13.87 8.213-11.433 14.8 4.623 5.688 6.825 8.847.847 7.763.847 7.763-2.617-4.558-6-5.416-11.719 5.416-3.475 9.688 9.724 5.592 9.267 8.545c-.663 4.272-22.143 10.427-34.783-3.069-14.2-15.165-6.74-26.84-6.74-26.84s-5.372-16.526 8.665-26.237c14.44-9.989 21.621-1.153 28.766-3.129 5.65-1.562 7.91-7.61 7.91-7.61z" class="cls-17" data-name="Path 11442" transform="translate(38.776 47.06)"/>
        <g id="Group_4711" data-name="Group 4711" transform="translate(836.79 436.396)">
            <path id="Path_11443" d="M807.994 389.082h-32.353a1.295 1.295 0 1 1 0-2.589h32.354a1.295 1.295 0 1 1 0 2.589z" class="cls-12" data-name="Path 11443" transform="translate(-774.346 -386.493)"/>
        </g>
        <g id="Group_4712" data-name="Group 4712" transform="translate(827.661 442.956)">
            <path id="Path_11444" d="M819.461 393.961h-50.612a1.294 1.294 0 1 1 0-2.588h50.611a1.294 1.294 0 1 1 0 2.588z" class="cls-12" data-name="Path 11444" transform="translate(-767.555 -391.373)"/>
        </g>
        <path id="Path_11445" d="M850.842 363.2v23.953a8.14 8.14 0 0 1-8.14 8.145h-85.875a8.145 8.145 0 0 1-8.145-8.145v-9.568l23.433-23.433 19.078 19.078 34.837-34.842z" class="cls-8" data-name="Path 11445" transform="translate(53.609 33.342)"/>
        <circle id="Ellipse_94" cx="5.687" cy="5.687" r="5.687" class="cls-8" data-name="Ellipse 94" transform="translate(839.332 366.493)"/>
    </g>
</svg>
