<svg xmlns="http://www.w3.org/2000/svg" width="1920" height="677" viewBox="0 0 1920 677">
  <g id="services-bg" transform="translate(0 -1193)">
    <g id="responsive" transform="translate(814 1161.467)">
      <g id="Group_2498" data-name="Group 2498" transform="translate(0 32)">
        <g id="Group_2497" data-name="Group 2497">
          <path id="Path_1163" data-name="Path 1163" d="M277.4,158.533h-4.867V56.333A24.363,24.363,0,0,0,248.2,32H43.8A24.363,24.363,0,0,0,19.467,56.333v73H14.6A14.6,14.6,0,0,0,0,143.933V270.467a14.6,14.6,0,0,0,14.6,14.6H199.533A4.867,4.867,0,0,0,204.4,280.2a24.363,24.363,0,0,0-24.333-24.333h-14.6v-29.2h58.4v43.8a14.6,14.6,0,0,0,14.6,14.6H277.4a14.6,14.6,0,0,0,14.6-14.6V173.133A14.6,14.6,0,0,0,277.4,158.533ZM107.067,270.467a4.867,4.867,0,0,1-4.867,4.867H14.6a4.867,4.867,0,0,1-4.867-4.867V265.6h97.333Zm0-14.6H9.733V143.933a4.867,4.867,0,0,1,4.867-4.867h87.6a4.867,4.867,0,0,1,4.867,4.867Zm73,9.733a14.629,14.629,0,0,1,13.768,9.733H115.9a14.433,14.433,0,0,0,.9-4.867V265.6ZM116.8,255.867v-29.2h9.733v29.2Zm19.467,0v-29.2h19.467v29.2Zm87.6-38.933H116.8v-29.2H223.867Zm0-43.8V178H116.8V143.933a14.426,14.426,0,0,0-1.664-6.624c.073-.068.17-.088.238-.161l48.18-48.18a4.867,4.867,0,0,0-6.881-6.881l-48.18,48.18c-.117.122-.165.277-.268.4a14.417,14.417,0,0,0-6.025-1.338h-73v-73a14.6,14.6,0,0,1,14.6-14.6H248.2a14.6,14.6,0,0,1,14.6,14.6v102.2H238.467A14.6,14.6,0,0,0,223.867,173.133Zm58.4,97.333a4.867,4.867,0,0,1-4.867,4.867H238.467a4.867,4.867,0,0,1-4.867-4.867V265.6h48.667Zm0-14.6H233.6V173.133a4.867,4.867,0,0,1,4.867-4.867H277.4a4.867,4.867,0,0,1,4.867,4.867Z" transform="translate(0 -32)" fill="rgba(0,155,219,0.05)"/>
        </g>
      </g>
      <g id="Group_2500" data-name="Group 2500" transform="translate(29.14 187.146)">
        <g id="Group_2499" data-name="Group 2499">
          <path id="Path_1164" data-name="Path 1164" d="M76.913,288.459a4.867,4.867,0,0,0-6.881,0L49.387,309.1a4.867,4.867,0,0,0,6.762,7c.041-.039.08-.079.119-.119L76.913,295.34C77.782,293.834,76.036,290.972,76.913,288.459Z" transform="translate(-47.902 -287.034)" fill="rgba(0,155,219,0.05)"/>
        </g>
      </g>
      <g id="Group_2502" data-name="Group 2502" transform="translate(58.34 187.204)">
        <g id="Group_2501" data-name="Group 2501">
          <path id="Path_1165" data-name="Path 1165" d="M124.794,288.5a4.867,4.867,0,0,0-6.762,0L97.387,309.141a4.867,4.867,0,0,0,6.762,7c.041-.039.08-.079.119-.119l20.644-20.644A4.867,4.867,0,0,0,124.794,288.5Z" transform="translate(-95.902 -287.13)" fill="rgba(0,155,219,0.05)"/>
        </g>
      </g>
      <g id="Group_2504" data-name="Group 2504" transform="translate(136.693 80.727)">
        <g id="Group_2503" data-name="Group 2503">
          <path id="Path_1166" data-name="Path 1166" d="M281.13,113.465a4.867,4.867,0,0,0-6.762,0l-48.18,48.18a4.867,4.867,0,0,0,6.762,7c.041-.039.08-.079.12-.12l48.18-48.18A4.866,4.866,0,0,0,281.13,113.465Z" transform="translate(-224.702 -112.098)" fill="rgba(0,155,219,0.05)"/>
        </g>
      </g>
      <g id="Group_2506" data-name="Group 2506" transform="translate(246.125 200.378)">
        <g id="Group_2505" data-name="Group 2505">
          <path id="Path_1167" data-name="Path 1167" d="M426.6,310.152a4.866,4.866,0,0,0-6.762,0l-13.763,13.763a4.867,4.867,0,1,0,6.762,7c.04-.039.08-.079.119-.119l13.763-13.763A4.866,4.866,0,0,0,426.6,310.152Z" transform="translate(-404.59 -308.786)" fill="rgba(0,155,219,0.05)"/>
        </g>
      </g>
      <g id="Group_2508" data-name="Group 2508" transform="translate(141.206 197.467)">
        <g id="Group_2507" data-name="Group 2507">
          <path id="Path_1168" data-name="Path 1168" d="M237.011,304h-.049a4.891,4.891,0,1,0,.049,0Z" transform="translate(-232.12 -304)" fill="rgba(0,155,219,0.05)"/>
        </g>
      </g>
      <g id="Group_2510" data-name="Group 2510" transform="translate(131.4 51.467)">
        <g id="Group_2509" data-name="Group 2509">
          <path id="Path_1169" data-name="Path 1169" d="M240.333,64H220.867a4.867,4.867,0,0,0,0,9.733h19.467a4.867,4.867,0,0,0,0-9.733Z" transform="translate(-216 -64)" fill="rgba(0,155,219,0.05)"/>
        </g>
      </g>
    </g>
    <rect id="Rectangle_627" data-name="Rectangle 627" width="1920" height="677" transform="translate(0 1193)" fill="none"/>
  </g>
</svg>
