<svg xmlns="http://www.w3.org/2000/svg" width="90.434" height="120" viewBox="0 0 90.434 120">
    <defs>
        <style>
            .cls-1{fill:#009bdb}
        </style>
    </defs>
    <g id="coding" transform="translate(-89.452 -35)">
        <path id="Path_2808" d="M145.38 35h-43.439a12.5 12.5 0 0 0-12.489 12.489v95.023A12.5 12.5 0 0 0 101.941 155h43.439a12.5 12.5 0 0 0 12.489-12.489v-12.485h14.42a7.606 7.606 0 0 0 7.6-7.6v-48.84a1.629 1.629 0 0 0-.523-1.195l-15.3-14.155a1.629 1.629 0 0 0-1.106-.434h-5.088V47.489A12.5 12.5 0 0 0 145.38 35zm0 116.742h-43.439a9.241 9.241 0 0 1-9.231-9.231v-7.059h61.9v7.059a9.241 9.241 0 0 1-9.231 9.231zm9.231-19.548H92.71V54.548h44.253a1.629 1.629 0 0 0 0-3.258H92.71v-3.8a9.241 9.241 0 0 1 9.231-9.231h43.439a9.241 9.241 0 0 1 9.231 9.231v3.8h-3.8a1.629 1.629 0 1 0 0 3.258h3.8V57.8h-21.97a7.606 7.606 0 0 0-7.6 7.6v57.03a7.606 7.606 0 0 0 7.6 7.6h21.97zm17.678-5.426h-39.648a4.344 4.344 0 0 1-4.339-4.339V65.4a4.344 4.344 0 0 1 4.339-4.339h28.687V70.6a4.618 4.618 0 0 0 4.613 4.613h10.687v47.214a4.344 4.344 0 0 1-4.34 4.341zm-7.7-63.611l9.512 8.8h-8.161a1.357 1.357 0 0 1-1.355-1.355z" class="cls-1" data-name="Path 2808"/>
        <path id="Path_2809" d="M279.775 98.258h3.018a1.629 1.629 0 0 0 0-3.258h-3.018a1.629 1.629 0 0 0 0 3.258z" class="cls-1" data-name="Path 2809" transform="translate(-137.465 -43.71)"/>
        <path id="Path_2810" d="M200.153 414a5.7 5.7 0 1 0 5.7 5.7 5.7 5.7 0 0 0-5.7-5.7zm0 8.145a2.443 2.443 0 1 1 2.447-2.445 2.443 2.443 0 0 1-2.447 2.445z" class="cls-1" data-name="Path 2810" transform="translate(-76.493 -276.104)"/>
        <path id="Path_2811" d="M306.774 177.39a1.629 1.629 0 0 0 2.3-.2l3.4-4.042a1.629 1.629 0 0 0 0-2.1l-3.4-4.042a1.629 1.629 0 1 0-2.492 2.1l2.52 2.993-2.521 2.995a1.629 1.629 0 0 0 .193 2.296z" class="cls-1" data-name="Path 2811" transform="translate(-157.898 -95.748)"/>
        <path id="Path_2812" d="M256.817 177.2a1.629 1.629 0 1 0 2.492-2.1l-2.52-2.993 2.519-2.993a1.629 1.629 0 1 0-2.492-2.1l-3.4 4.042a1.629 1.629 0 0 0 0 2.1z" class="cls-1" data-name="Path 2812" transform="translate(-119.169 -95.751)"/>
        <path id="Path_2813" d="M283.472 173.222a1.626 1.626 0 0 0 1.856-1.364l2.058-13.474a1.629 1.629 0 1 0-3.221-.492l-2.058 13.474a1.629 1.629 0 0 0 1.365 1.856z" class="cls-1" data-name="Path 2813" transform="translate(-140.337 -88.52)"/>
        <path id="Path_2814" d="M265.845 305.05H254.66a1.629 1.629 0 0 0 0 3.258h11.186a1.629 1.629 0 0 0 0-3.258z" class="cls-1" data-name="Path 2814" transform="translate(-119.168 -196.733)"/>
        <path id="Path_2815" d="M321.557 305.05a1.629 1.629 0 0 0 0 3.258h2.327a1.629 1.629 0 0 0 0-3.258z" class="cls-1" data-name="Path 2815" transform="translate(-167.903 -196.733)"/>
        <path id="Path_2816" d="M363.237 305.05H355.5a1.629 1.629 0 1 0 0 3.258h7.738a1.629 1.629 0 1 0 0-3.258z" class="cls-1" data-name="Path 2816" transform="translate(-192.63 -196.733)"/>
        <path id="Path_2817" d="M256.928 337.9h-2.268a1.629 1.629 0 1 0 0 3.258h2.268a1.629 1.629 0 0 0 0-3.258z" class="cls-1" data-name="Path 2817" transform="translate(-119.168 -220.665)"/>
        <path id="Path_2818" d="M325.044 337.9h-10.057a1.629 1.629 0 0 0 0 3.258h10.057a1.629 1.629 0 1 0 0-3.258z" class="cls-1" data-name="Path 2818" transform="translate(-163.117 -220.665)"/>
        <path id="Path_2819" d="M288.949 337.9h-.24a1.629 1.629 0 0 0 0 3.258h.24a1.629 1.629 0 0 0 0-3.258z" class="cls-1" data-name="Path 2819" transform="translate(-143.973 -220.665)"/>
        <path id="Path_2820" d="M379.191 337.9H377.4a1.629 1.629 0 1 0 0 3.258h1.792a1.629 1.629 0 0 0 0-3.258z" class="cls-1" data-name="Path 2820" transform="translate(-208.585 -220.665)"/>
        <path id="Path_2821" d="M254.66 238.233h5.24a1.629 1.629 0 1 0 0-3.258h-5.24a1.629 1.629 0 1 0 0 3.258z" class="cls-1" data-name="Path 2821" transform="translate(-119.168 -145.683)"/>
        <path id="Path_2822" d="M298.029 236.6a1.629 1.629 0 0 0 1.629 1.629H310.9a1.629 1.629 0 1 0 0-3.258h-11.242a1.629 1.629 0 0 0-1.629 1.629z" class="cls-1" data-name="Path 2822" transform="translate(-151.95 -145.683)"/>
        <path id="Path_2823" d="M366.449 238.233h4.765a1.629 1.629 0 1 0 0-3.258h-4.765a1.629 1.629 0 1 0 0 3.258z" class="cls-1" data-name="Path 2823" transform="translate(-200.607 -145.683)"/>
        <path id="Path_2824" d="M254.66 271.081h8.213a1.629 1.629 0 1 0 0-3.258h-8.213a1.629 1.629 0 1 0 0 3.258z" class="cls-1" data-name="Path 2824" transform="translate(-119.168 -169.613)"/>
        <path id="Path_2825" d="M335.257 269.452a1.629 1.629 0 0 0 1.629 1.629h7.084a1.629 1.629 0 0 0 0-3.258h-7.084a1.629 1.629 0 0 0-1.629 1.629z" class="cls-1" data-name="Path 2825" transform="translate(-179.071 -169.613)"/>
        <path id="Path_2826" d="M310.848 271.081a1.629 1.629 0 0 0 0-3.258h-.24a1.629 1.629 0 1 0 0 3.258z" class="cls-1" data-name="Path 2826" transform="translate(-159.927 -169.613)"/>
        <path id="Path_2827" d="M385.18 267.823H384a1.629 1.629 0 1 0 0 3.258h1.181a1.629 1.629 0 1 0 0-3.258z" class="cls-1" data-name="Path 2827" transform="translate(-213.393 -169.613)"/>
    </g>
</svg>
