<svg xmlns="http://www.w3.org/2000/svg" width="24" height="24" viewBox="0 0 24 24">
  <g id="sqlite" transform="translate(2)">
    <path id="Path_11894" data-name="Path 11894" d="M16.894,9.952H1.835A1.841,1.841,0,0,0,0,11.787V28.395A1.84,1.84,0,0,0,1.835,30.23h9.918c-.113-4.935,1.573-14.513,5.141-20.278Z" transform="translate(0 -8.887)" fill="#bcbcbc"/>
    <path id="Path_11896" data-name="Path 11896" d="M110.084.521c-1.031-.92-2.28-.55-3.513.544-.183.163-.366.343-.547.535a21.769,21.769,0,0,0-4.673,9.544,8.715,8.715,0,0,1,.544,1.561c.031.12.059.233.082.329.054.227.082.374.082.374s-.019-.071-.1-.3l-.051-.146c-.008-.023-.02-.051-.033-.08-.137-.32-.518-.994-.685-1.288-.143.422-.27.818-.376,1.175a10.4,10.4,0,0,1,.778,2.4s-.026-.1-.147-.441a16.334,16.334,0,0,0-.772-1.464,3.46,3.46,0,0,0-.226,1.478,5.153,5.153,0,0,1,.422,1.186c.286,1.1.485,2.439.485,2.439s.006.089.017.225a22.4,22.4,0,0,0,.056,2.747,9.739,9.739,0,0,0,.5,2.657l.154-.084a11.881,11.881,0,0,1-.41-3.967,30.232,30.232,0,0,1,1.661-8.3c1.723-4.55,4.113-8.2,6.3-9.944-1.994,1.8-4.692,7.629-5.5,9.787a39.13,39.13,0,0,0-1.932,6.858,5.323,5.323,0,0,1,2.821-2.913s1.057-1.3,2.292-3.166a22.472,22.472,0,0,0-2.362.629c-.6.252-.762.338-.762.338a20.517,20.517,0,0,1,3.612-1.72C110.1,7.9,112.6,2.767,110.084.521" transform="translate(-89.677 0)" fill="#aaa"/>
    <rect id="Rectangle_883" data-name="Rectangle 883" width="24" height="24" transform="translate(-2)" fill="none"/>
  </g>
</svg>
