<svg xmlns="http://www.w3.org/2000/svg" width="1000.635" height="941.9" viewBox="0 0 1000.635 941.9">
    <defs>
        <style>
            .cls-1{fill:#e5e9ed}.cls-2{fill:#fbfbfb}.cls-3{fill:#bec8d2}.cls-10,.cls-11,.cls-18,.cls-20,.cls-34,.cls-35,.cls-37,.cls-4,.cls-5,.cls-7,.cls-8,.cls-9{fill:none}.cls-11,.cls-18,.cls-20,.cls-34,.cls-35,.cls-37,.cls-4,.cls-5,.cls-7,.cls-8{stroke-miterlimit:10}.cls-10,.cls-11,.cls-18,.cls-5{stroke:#174159}.cls-10,.cls-5,.cls-8,.cls-9{stroke-linecap:round}.cls-6{fill:#f2f2f2}.cls-7,.cls-8,.cls-9{stroke:#bec8d2}.cls-10,.cls-9{stroke-linejoin:round}.cls-11{stroke-width:.75px}.cls-12,.cls-39{fill:#174159}.cls-13{fill:#fae54e}.cls-14{fill:#2d80ea}.cls-15{fill:#e148be}.cls-16,.cls-33{fill:url(#linear-gradient)}.cls-17{fill:#009bdb}.cls-19{fill:#002e7f}.cls-20{stroke:#f2f2f2}.cls-20,.cls-34,.cls-35,.cls-37{stroke-width:.5px}.cls-21{fill:#0063b0}.cls-22{fill:#2a2a2a}.cls-23{opacity:.2}.cls-24,.cls-32{fill:url(#linear-gradient-3)}.cls-25{fill:#085b9b}.cls-26{fill:#fee43f}.cls-27{fill:#2e546a}.cls-28{fill:#fcd2c5}.cls-29{fill:#428dec}.cls-30{fill:#f8c6b7}.cls-31{fill:#f9cec1}.cls-32,.cls-33{stroke:rgba(0,0,0,0)}.cls-34{stroke:#000}.cls-35{stroke:#5620d8}.cls-36{fill:#5799ee}.cls-37{stroke:#2d80ea}.cls-38,.cls-39{stroke:none}.cls-40{filter:url(#Rectangle_21)}.cls-41{filter:url(#Rectangle_17)}.cls-42{filter:url(#Rectangle_16)}
        </style>
        <linearGradient id="linear-gradient" x1=".5" x2=".5" y2="1" gradientUnits="objectBoundingBox">
            <stop offset="0" stop-color="#009bdb"/>
            <stop offset="1" stop-color="#0064b0"/>
        </linearGradient>
        <filter id="Rectangle_16" width="113.067" height="32.32" x="162.008" y="766.796" filterUnits="userSpaceOnUse">
            <feOffset dx="1" dy="1"/>
            <feGaussianBlur result="blur"/>
            <feFlood flood-opacity=".2"/>
            <feComposite in2="blur" operator="in"/>
            <feComposite in="SourceGraphic"/>
        </filter>
        <filter id="Rectangle_17" width="113.067" height="32.32" x="291.066" y="766.796" filterUnits="userSpaceOnUse">
            <feOffset dx="1" dy="1"/>
            <feGaussianBlur result="blur-2"/>
            <feFlood flood-opacity=".2"/>
            <feComposite in2="blur-2" operator="in"/>
            <feComposite in="SourceGraphic"/>
        </filter>
        <filter id="Rectangle_21" width="248.379" height="46.616" x="169.031" y="579.234" filterUnits="userSpaceOnUse">
            <feOffset dx="2" dy="1"/>
            <feGaussianBlur result="blur-3"/>
            <feFlood flood-opacity=".2"/>
            <feComposite in2="blur-3" operator="in"/>
            <feComposite in="SourceGraphic"/>
        </filter>
        <linearGradient id="linear-gradient-3" x1=".5" x2=".5" y2="1" gradientUnits="objectBoundingBox">
            <stop offset="0" stop-color="#009bdb"/>
            <stop offset="1" stop-color="#0063b0"/>
        </linearGradient>
    </defs>
    <g id="ui" transform="translate(-124.077 -51.39)">
        <path id="Path_1" d="M1060.561 412.342c0 6.159-224 11.156-500.317 11.156s-500.317-5-500.317-11.156 224-11.158 500.317-11.158 500.317 4.996 500.317 11.158z" class="cls-1" data-name="Path 1" transform="translate(64.15 569.792)"/>
        <g id="Group_56" data-name="Group 56" transform="translate(218.839 52.097)">
            <path id="Rectangle_1" d="M0 0h801.399v513.717H0z" class="cls-2" data-name="Rectangle 1" transform="translate(4.856 314.081)"/>
            <g id="Group_12" data-name="Group 12" transform="translate(4.856 334.66)">
                <path id="Rectangle_2" d="M0 0h801.399v45.049H0z" class="cls-3" data-name="Rectangle 2"/>
                <g id="Group_6" data-name="Group 6" transform="translate(19.65 14.072)">
                    <g id="Path_21" class="cls-4" data-name="Path 21">
                        <path d="M125.772 201.488H114.85a1.9 1.9 0 0 1-1.671-2.056v-7.046a2.283 2.283 0 0 1 .587-1.564l5.459-5.746a1.441 1.441 0 0 1 2.172 0l5.462 5.746a2.281 2.281 0 0 1 .584 1.564v7.046a1.894 1.894 0 0 1-1.671 2.056z" class="cls-38" transform="translate(-92.275 -184.582)"/>
                        <path d="M125.772 200.488c.317 0 .671-.452.671-1.056v-7.046c0-.345-.115-.671-.31-.875l-5.462-5.747c-.078-.083-.204-.182-.359-.182-.156 0-.283.1-.362.183l-5.46 5.747c-.195.204-.311.531-.311.874v7.046c0 .604.355 1.056.671 1.056h10.922m0 1H114.85c-.92 0-1.671-.921-1.671-2.056v-7.046c0-.6.216-1.174.587-1.564l5.46-5.746c.312-.329.7-.494 1.086-.494.387 0 .773.165 1.085.494l5.462 5.746c.37.39.584.964.584 1.564v7.046c0 1.135-.747 2.056-1.671 2.056z" class="cls-39" transform="translate(-92.275 -184.582)"/>
                    </g>
                    <g id="Group_5" data-name="Group 5" transform="translate(0 3.586)">
                        <path id="Path_22" d="M123.94 195.676l6.3-4.059a.872.872 0 0 0 0-1.614l-6.3-4.059" class="cls-5" data-name="Path 22" transform="translate(-74.711 -185.945)"/>
                        <path id="Path_23" d="M112.083 195.676l-6.3-4.059a.872.872 0 0 1 0-1.614l6.3-4.059" class="cls-5" data-name="Path 23" transform="translate(-105.237 -185.945)"/>
                    </g>
                </g>
                <g id="Group_10" data-name="Group 10" transform="translate(95.701 8.53)">
                    <g id="Group_7" data-name="Group 7">
                        <rect id="Rectangle_3" width="619.851" height="27.989" class="cls-6" data-name="Rectangle 3" rx="2.603"/>
                    </g>
                    <path id="Rectangle_4" d="M0 0h204.223v8.453H0z" class="cls-3" data-name="Rectangle 4" transform="translate(207.814 9.768)"/>
                    <g id="Group_8" data-name="Group 8" transform="translate(11.582 8.017)">
                        <path id="Path_24" d="M148.733 187.274a5.977 5.977 0 1 1-8.455 0 5.98 5.98 0 0 1 8.455 0z" class="cls-7" data-name="Path 24" transform="translate(-138.53 -185.523)"/>
                        <path id="Line_1" d="M0 0l3.591 3.591" class="cls-8" data-name="Line 1" transform="translate(10.203 10.204)"/>
                    </g>
                    <g id="Group_9" data-name="Group 9" transform="translate(598.606 6.346)">
                        <path id="Path_25" d="M373.5 191.5a5.978 5.978 0 1 1-5.978-5.978" class="cls-8" data-name="Path 25" transform="translate(-361.543 -183.852)"/>
                        <path id="Path_26" d="M363.814 184.888l3.18 2.148-3.18 2.148z" class="cls-9" data-name="Path 26" transform="translate(-357.836 -184.888)"/>
                    </g>
                </g>
                <path id="Path_27" d="M384.918 184.573l2.1 6.476h6.809l-5.509 4 2.1 6.476-5.509-4-5.509 4 2.1-6.476-5.509-4h6.809z" class="cls-10" data-name="Path 27" transform="translate(356.37 -170.526)"/>
                <g id="Group_11" data-name="Group 11" transform="translate(764.597 15.422)">
                    <path id="Line_2" d="M0 0h22.241" class="cls-10" data-name="Line 2"/>
                    <path id="Line_3" d="M0 0h22.241" class="cls-10" data-name="Line 3" transform="translate(0 7.103)"/>
                    <path id="Line_4" d="M0 0h22.241" class="cls-10" data-name="Line 4" transform="translate(0 14.205)"/>
                </g>
            </g>
            <path id="Path_28" d="M899.172 171.418v513.718h-801.4" class="cls-11" data-name="Path 28" transform="translate(-92.916 142.663)"/>
            <g id="Group_14" data-name="Group 14" transform="translate(4.856 314.081)">
                <path id="Rectangle_5" d="M0 0h801.399v20.579H0z" class="cls-12" data-name="Rectangle 5"/>
                <g id="Group_13" data-name="Group 13" transform="translate(11.239 5.469)">
                    <circle id="Ellipse_1" cx="4.82" cy="4.82" r="4.82" class="cls-13" data-name="Ellipse 1" transform="translate(0 .001)"/>
                    <circle id="Ellipse_2" cx="4.82" cy="4.82" r="4.82" class="cls-14" data-name="Ellipse 2" transform="translate(13.232 .001)"/>
                    <path id="Path_29" d="M121.735 178.316a4.82 4.82 0 1 1-4.82-4.82 4.819 4.819 0 0 1 4.82 4.82z" class="cls-15" data-name="Path 29" transform="translate(-85.631 -173.496)"/>
                </g>
            </g>
            <g id="Group_27" data-name="Group 27" transform="translate(65.843 401.498)">
                <path id="Rectangle_6" d="M0 0h277.045v31.32H0z" class="cls-16" data-name="Rectangle 6" transform="translate(401.649 364.591)"/>
                <g id="Group_19" data-name="Group 19">
                    <g id="Group_17" data-name="Group 17">
                        <circle id="Ellipse_3" cx="36.515" cy="36.515" r="36.515" class="cls-16" data-name="Ellipse 3"/>
                        <g id="Group_16" data-name="Group 16" transform="translate(91.207 21.188)">
                            <path id="Rectangle_7" d="M0 0h142.767v12.392H0z" class="cls-17" data-name="Rectangle 7"/>
                            <path id="Rectangle_8" d="M0 0h104.948v12.392H0z" class="cls-17" data-name="Rectangle 8" transform="translate(0 18.263)"/>
                        </g>
                    </g>
                    <g id="Group_18" data-name="Group 18" transform="translate(429.089 21.188)">
                        <path id="Rectangle_9" d="M0 0h71.383v12.392H0z" class="cls-3" data-name="Rectangle 9"/>
                        <path id="Rectangle_10" d="M0 0h71.383v12.392H0z" class="cls-3" data-name="Rectangle 10" transform="translate(89.111)"/>
                    </g>
                    <path id="Line_5" d="M0 0h676.619" class="cls-18" data-name="Line 5" transform="translate(1.403 86.755)"/>
                </g>
                <g id="Group_21" data-name="Group 21" transform="translate(1.403 243.762)">
                    <path id="Rectangle_11" d="M0 0h232.572v18.709H0z" class="cls-17" data-name="Rectangle 11"/>
                    <g id="Group_20" data-name="Group 20" transform="translate(0 36.646)">
                        <path id="Rectangle_12" d="M0 0h323.646v8.284H0z" class="cls-3" data-name="Rectangle 12"/>
                        <path id="Rectangle_13" d="M0 0h295.377v8.284H0z" class="cls-3" data-name="Rectangle 13" transform="translate(0 16.036)"/>
                        <path id="Rectangle_14" d="M0 0h271.48v8.284H0z" class="cls-3" data-name="Rectangle 14" transform="translate(0 32.073)"/>
                        <path id="Rectangle_15" d="M0 0h323.646v8.284H0z" class="cls-3" data-name="Rectangle 15" transform="translate(0 48.109)"/>
                    </g>
                </g>
                <g id="Group_22" data-name="Group 22">
                    <g class="cls-42" transform="translate(-160.607 -402.209)">
                        <rect id="Rectangle_16-2" width="112.067" height="31.32" class="cls-17" data-name="Rectangle 16" rx="5.949" transform="translate(162.01 766.8)"/>
                    </g>
                    <g class="cls-41" transform="translate(-160.607 -402.209)">
                        <rect id="Rectangle_17-2" width="112.067" height="31.32" class="cls-12" data-name="Rectangle 17" rx="5.949" transform="translate(291.07 766.8)"/>
                    </g>
                </g>
                <g id="Group_26" data-name="Group 26" transform="translate(1.403 117.801)">
                    <g id="Group_23" data-name="Group 23">
                        <path id="Rectangle_18" d="M0 0h47.254v47.254H0z" class="cls-19" data-name="Rectangle 18"/>
                        <path id="Line_6" d="M0 0l47.254 47.254" class="cls-20" data-name="Line 6"/>
                        <path id="Line_7" d="M47.254 0L0 47.254" class="cls-20" data-name="Line 7"/>
                    </g>
                    <g id="Group_24" data-name="Group 24" transform="translate(66.178)">
                        <path id="Rectangle_19" d="M0 0h47.254v47.254H0z" class="cls-19" data-name="Rectangle 19"/>
                        <path id="Line_8" d="M0 0l47.254 47.254" class="cls-20" data-name="Line 8"/>
                        <path id="Line_9" d="M47.254 0L0 47.254" class="cls-20" data-name="Line 9"/>
                    </g>
                    <g id="Group_25" data-name="Group 25" transform="translate(132.356)">
                        <path id="Rectangle_20" d="M0 0h47.254v47.254H0z" class="cls-19" data-name="Rectangle 20"/>
                        <path id="Line_10" d="M0 0l47.254 47.254" class="cls-20" data-name="Line 10"/>
                        <path id="Line_11" d="M47.254 0L0 47.254" class="cls-20" data-name="Line 11"/>
                    </g>
                </g>
            </g>
            <g class="cls-40" transform="translate(-94.76 -.71)">
                <path id="Rectangle_21-2" d="M0 0h245.745v41.709H0z" class="cls-21" data-name="Rectangle 21" transform="rotate(.91 -36384.091 10974.109)"/>
            </g>
            <g id="Group_49" data-name="Group 49" transform="translate(134.461)">
                <g id="Group_36" data-name="Group 36" transform="translate(202.116 31.72)">
                    <g id="Group_28" data-name="Group 28" transform="translate(226.977)">
                        <path id="Line_12" d="M0 0v205.594" class="cls-8" data-name="Line 12" transform="translate(19.55)"/>
                        <path id="Path_30" d="M341.97 197.211a3.436 3.436 0 0 0-3.319 3.548 9.214 9.214 0 0 1-7.568 9.086 9.588 9.588 0 0 1-3.3-.005 8.054 8.054 0 0 1-3-1.077 9.256 9.256 0 0 1-4.093-4.93 8.754 8.754 0 0 1 .079-6.523c4.875-9.805 14.6-16.051 14.6-25.87a17.941 17.941 0 1 0-12.292-.255c-.626 6.878-8.647 13.053-12.016 22.316a18.929 18.929 0 0 0 .419 13.43 18.568 18.568 0 0 0 8.676 9.563 18.011 18.011 0 0 0 12.269 1.542 16.986 16.986 0 0 0 9.9-6.459 16.375 16.375 0 0 0 3.209-10.818l-.021-.334a3.434 3.434 0 0 0-3.543-3.214zm-12.4-50.144a7.4 7.4 0 0 1 4.248 13.469 6.2 6.2 0 0 0-8.515-.013 7.4 7.4 0 0 1 4.267-13.456z" class="cls-22" data-name="Path 30" transform="translate(-310.025 54.01)"/>
                    </g>
                    <g id="Group_35" data-name="Group 35" transform="translate(0 263.446)">
                        <g id="Group_34" data-name="Group 34" transform="translate(0 117.232)">
                            <g id="Group_29" class="cls-23" data-name="Group 29" transform="translate(26.322 44.748)">
                                <path id="Rectangle_22" d="M0 0h458.862v270.695H0z" data-name="Rectangle 22" transform="rotate(-7.826 456.696 31.238)"/>
                                <path id="Path_31" d="M566.14 267.34L450.458 419.886l-100.027-75.855-103.083 135.932 1.182 8.6 454.589-62.477-8.419-61.26z" data-name="Path 31" transform="translate(-211.673 -157.916)"/>
                                <path id="Path_32" d="M679.385 237.633l33.99 247.314-433.727 59.61-33.99-247.315 433.727-59.61m9-11.864l-454.59 62.477 36.857 268.175 454.587-62.476-36.857-268.175z" data-name="Path 32" transform="translate(-233.795 -225.769)"/>
                                <ellipse id="Ellipse_4" cx="38.188" cy="38.188" data-name="Ellipse 4" rx="38.188" ry="38.188" transform="rotate(-51.17 208.206 -111.914)"/>
                            </g>
                            <g id="Group_33" data-name="Group 33">
                                <g id="Group_32" data-name="Group 32">
                                    <path id="Rectangle_23" d="M0 0h458.862v270.695H0z" class="cls-24" data-name="Rectangle 23" transform="rotate(-7.826 456.696 31.238)"/>
                                    <path id="Path_33" d="M556.14 250.339L440.458 402.886l-100.027-75.855-103.083 135.932 1.182 8.6 454.589-62.477-8.419-61.26z" class="cls-25" data-name="Path 33" transform="translate(-201.674 -140.916)"/>
                                    <g id="Group_30" data-name="Group 30">
                                        <path id="Path_34" d="M669.385 220.632l33.99 247.314-433.727 59.61-33.99-247.315 433.727-59.61m9-11.863l-454.59 62.477 36.857 268.175 454.587-62.476-36.857-268.175z" class="cls-19" data-name="Path 34" transform="translate(-223.795 -208.769)"/>
                                    </g>
                                    <g id="Group_31" data-name="Group 31" transform="translate(164.842 60.93)">
                                        <ellipse id="Ellipse_5" cx="38.188" cy="38.188" class="cls-26" data-name="Ellipse 5" rx="38.188" ry="38.188" transform="rotate(-51.17 62.152 29.76)"/>
                                    </g>
                                </g>
                            </g>
                        </g>
                        <path id="Path_35" d="M247.784 231.355l-20.57 69.545 25.194-70.182" class="cls-9" data-name="Path 35" transform="translate(-218.214 -55.709)"/>
                        <path id="Path_36" d="M382.579 211.081L436.33 275.7l-58.374-65.254" class="cls-9" data-name="Path 36" transform="translate(27.833 -88.8)"/>
                        <path id="Path_37" d="M608.381 285.878L456.406 168.151a9.265 9.265 0 0 0-14.938-.268L236.785 339.241" class="cls-9" data-name="Path 37" transform="translate(-202.592 -164.232)"/>
                    </g>
                </g>
                <g id="Group_37" data-name="Group 37" transform="translate(394.494)">
                    <circle id="Ellipse_6" cx="22.429" cy="22.429" r="22.429" class="cls-8" data-name="Ellipse 6" transform="rotate(-45 38.29 15.86)"/>
                    <circle id="Ellipse_7" cx="8.281" cy="8.281" r="8.281" class="cls-8" data-name="Ellipse 7" transform="translate(23.439 23.439)"/>
                </g>
                <g id="Group_42" data-name="Group 42" transform="translate(473.54 571.563)">
                    <g id="Group_38" data-name="Group 38" transform="translate(117.31 157.747)">
                        <path id="Path_38" d="M375.966 329.166c-8.6 39.115-5.278 89.383 13.74 118.746 15 23.164 41.705 30.318 65.5 48.636L454.1 508l10.484-12.511s-13.193-13.111-51.521-52.687c-9.376-9.684-2.674-47.973-.232-57.541 11.913-15.891-.042-32.5-7.926-56.1z" class="cls-12" data-name="Path 38" transform="translate(-371.477 -329.166)"/>
                        <path id="Path_39" d="M403.972 396.173l-1.106 11.455 10.484-12.511-4.435-4.456s.558 4.762-4.943 5.512z" class="cls-14" data-name="Path 39" transform="translate(-320.242 -228.792)"/>
                    </g>
                    <g id="Group_39" data-name="Group 39" transform="translate(93.609 157.747)">
                        <path id="Path_40" d="M379.667 329.166c-25.127 49.581-24.093 81.368 12.277 197.126l-11.614 7.2h17.71s-.755-122.36 6.362-150.248c11.913-15.893 12.092-30.481 4.206-54.077z" class="cls-27" data-name="Path 40" transform="translate(-362.473 -329.166)"/>
                        <path id="Path_41" d="M369.257 411.254h17.71v-7.2s-3.809 2.24-6.1 0z" class="cls-14" data-name="Path 41" transform="translate(-351.399 -206.929)"/>
                    </g>
                    <path id="Path_42" d="M398.961 302.017c-4.417 13.522-16.87 20.118-23.358 18.9s-9.858-12.277-7.526-24.7 9.418-19.473 15.97-20.287c9.387-1.159 21.045 7.314 14.914 26.087z" class="cls-28" data-name="Path 42" transform="translate(-260.922 -258.48)"/>
                    <path id="Rectangle_24" d="M0 0h12.195v30.61H0z" class="cls-6" data-name="Rectangle 24" transform="translate(123.08 47.274)"/>
                    <path id="Path_43" d="M392.383 296.423c-16.006 2.914-26.772 29.177-28.354 38.577-.94 5.575-.324 11 5.865 21.842 8.615 15.1 7.81 26.672 7.81 26.672h40.113c0-12 7.713-25.454 12.261-44.158s-10.541-47.876-37.695-42.933z" class="cls-14" data-name="Path 43" transform="translate(-266.899 -225.769)"/>
                    <g id="Group_40" data-name="Group 40" transform="translate(139.203)">
                        <path id="Path_44" d="M379.794 326.125c-.055-.005 23.266 2.8 32.848-.613 22.582-8.052 32.379-27.46 33.15-47.465h6.108s8.184 59.073-47.7 80.162z" class="cls-29" data-name="Path 44" transform="translate(-379.794 -254.857)"/>
                        <path id="Path_45" d="M407.141 292.427c-4.075-4.491-1.5-8.194-3.111-11.732s.361-7.583 4.791 2.074l-1.84-13.532s5.288 2.648 6.27 23.19z" class="cls-28" data-name="Path 45" transform="translate(-341.143 -269.237)"/>
                    </g>
                    <g id="Group_41" data-name="Group 41" transform="translate(0 73.509)">
                        <path id="Path_46" d="M438.239 297.436c11.982 2.351 10.516 24.04-3.185 36.6-12.927 11.85-49.41 22.221-98.506 28.568l-1.6-5.383s27.452-5.033 51.357-19.555 34.648-43.623 51.934-40.23z" class="cls-29" data-name="Path 46" transform="translate(-313.782 -297.163)"/>
                        <path id="Path_47" d="M348.081 320.576c-5.262-2.487-8.049.692-11.779.145s-5.57 1.985 4.614 3.514l-14.006 2.024s3.3 3.885 22.766-.3z" class="cls-28" data-name="Path 47" transform="translate(-326.91 -260.52)"/>
                    </g>
                    <path id="Path_48" d="M386.883 281.944c-6.165 10.792 14.072 8.147 14.072 18.726s-22.177 12.545-26.3 26.349c-4.714 15.767 27.449 11.566 22.608 27.928-7.118 24.04-54.19 26.051-36.264 51.526 13.051 18.552 44.887 7.991 41.292 38.3-3.49 29.413 50.22 23.487 54.843-.634 3.074-16.043-26.873-25.793-10.105-37.9 20.521-14.82 46.475-34.68 24.272-51.489-11.224-8.5-41.587-13.764-44.669-27.412s14.856-34.609-6.47-48.562c-21.868-14.312-33.279 3.168-33.279 3.168z" data-name="Path 48" transform="translate(-277.874 -262.863)"/>
                </g>
                <g id="Group_48" data-name="Group 48" transform="translate(0 12.534)">
                    <g id="Group_43" data-name="Group 43" transform="translate(44.014 253.652)">
                        <path id="Path_49" d="M163.731 158.414s10.484 42.669 32.777 42.669c51.076 0 65.677-19.552 86.116-18.2 10.842.716 38.012 18.2 38.012 18.2h15.335l-10.771-6.7s-29.4-38.512-49.1-40.9c-24.951-3.022-58 21.732-75.719 4.933z" class="cls-12" data-name="Path 49" transform="translate(-163.731 -153.223)"/>
                        <path id="Path_50" d="M225.464 175.562l-3.425-2.14s6 .355 7.989-4.564l10.771 6.7z" class="cls-14" data-name="Path 50" transform="translate(-68.559 -127.702)"/>
                    </g>
                    <path id="Path_51" d="M472.741 56.859L235.577 206.447l-34.1 32.491v112.73" class="cls-8" data-name="Path 51" transform="translate(-58.101 -56.859)"/>
                    <g id="Group_44" data-name="Group 44" transform="translate(31.605 176.26)">
                        <path id="Path_52" d="M199.2 132.38c2.116-3.585 7-10.616 9.442-5.954 1.545 2.948.921 8.155-.484 8.673a29.9 29.9 0 0 1-5.054.845z" class="cls-3" data-name="Path 52" transform="translate(-93.435 -122.093)"/>
                        <path id="Path_53" d="M165 126.373c19.429-10.961 50.9 24.124 60.431 25.935 15.417 2.924 37.4-17.328 39.352-18.91l3.9 3.564s-24.069 34.532-46.835 35.183S140.2 140.358 165 126.373z" class="cls-21" data-name="Path 53" transform="translate(-159.017 -123.111)"/>
                        <path id="Path_54" d="M199.2 134.108c.779-3.622 2.09-5.025 4.622-6.381 3.688-1.979 2.911-3.906 4.146-3.906s2.537 3.58-.584 4.843c0 0 .132 6.378-5.386 8z" class="cls-28" data-name="Path 54" transform="translate(-93.435 -123.821)"/>
                        <path id="Path_55" d="M206.752 125.467c.161 1.353-1.324 1.145-2.767 1.084-1.945-.084-3.927-.374-3.6 2.172.518 4-.076 6.259 1.85 6.357s3.256.526 4.514-.14 1.927-6.44.003-9.473z" class="cls-30" data-name="Path 55" transform="translate(-91.549 -121.134)"/>
                    </g>
                    <g id="Group_46" data-name="Group 46" transform="translate(39.826 247.83)">
                        <g id="Group_45" data-name="Group 45">
                            <path id="Path_56" d="M204.858 151.011c25.093 49.5 44.485 100.262 90.957 144.191l13.1-3.809-11.835 13.143s-97.18-56.861-123.553-91.725c-11.9-15.867-14.88-27.262-7.007-50.821z" class="cls-27" data-name="Path 56" transform="translate(-162.14 -151.011)"/>
                        </g>
                        <path id="Path_57" d="M216.73 217.486l11.835-13.143-13.1 3.809a5.755 5.755 0 0 1-4.1 6.141z" class="cls-14" data-name="Path 57" transform="translate(-81.788 -63.961)"/>
                    </g>
                    <path id="Path_58" d="M160.149 132.414c7.239 10.795 19.826 13.506 25.23 10.824s5.622-13.24.492-23.585-13.116-14.788-19.081-13.877c-8.542 1.305-16.69 11.65-6.641 26.638z" class="cls-28" data-name="Path 58" transform="translate(-133.144 22.796)"/>
                    <path id="Path_59" d="M164.574 154.077l17.171-4.844-7.594-26.918-18.6-10.726z" class="cls-31" data-name="Path 59" transform="translate(-133.066 32.471)"/>
                    <path id="Union_2" d="M-3915-956.035s-18.875.2-26.12-57.053c-7.723-61.049 7.931-66.222 26.12-68.517l125.948-26.424 2.974 6.827s-56.261 36.5-93.987 51.723q.889 2.9 1.679 6.1c7.631 31.011 32.271 48.147 32.271 48.147-9.762 36.425-51.968 39.294-65.023 39.294-2.435.003-3.862-.097-3.862-.097z" class="cls-32" data-name="Union 2" transform="translate(3959.54 1257.546)"/>
                    <path id="Path_62" d="M211.781 117.807s5.243-7.144 8.257-6.662 6.994 7.357 5.307 10.008-10.589 3.482-10.589 3.482z" class="cls-28" data-name="Path 62" transform="translate(-41.288 31.709)"/>
                    <path id="Path_63" d="M175.644 163.594a14.491 14.491 0 0 0 8.923-14.248s-4.422 2.308-5.7-7.294c-.584-4.393 3.73-5.272 5.717-.437 2.777 1.021 6.523-.874 5.949-5.965-.927-8.242 9.35-6.857 9.721-16.6.479-12.627-24.709-29.231-29.494-17.712-3.906 9.413-2.756 15.064-14.685 15.183-21.963.211.517 51.479 19.569 47.073z" class="cls-12" data-name="Path 63" transform="translate(-147.01 9.407)"/>
                </g>
            </g>
            <g id="Group_55" data-name="Group 55" transform="translate(0 562.571)">
                <g id="Group_53" data-name="Group 53" transform="translate(0 8.992)">
                    <g id="Group_50" data-name="Group 50" transform="translate(1.312 157.747)">
                        <path id="Path_64" d="M185.046 329.166c8.6 39.115 5.278 89.383-13.74 118.746-15 23.164-41.705 30.318-65.5 48.636L106.91 508l-10.484-12.508s13.193-13.111 51.521-52.687c9.379-9.684 2.674-47.973.234-57.541-11.916-15.891.039-32.5 7.926-56.1z" class="cls-12" data-name="Path 64" transform="translate(-96.426 -329.166)"/>
                        <path id="Path_65" d="M105.807 396.173l1.1 11.455-10.481-12.511 4.435-4.456s-.561 4.762 4.946 5.512z" class="cls-14" data-name="Path 65" transform="translate(-96.426 -228.792)"/>
                    </g>
                    <g id="Group_51" data-name="Group 51" transform="translate(66.572 157.747)">
                        <path id="Path_66" d="M155.573 329.166c25.127 49.581 24.093 81.368-12.277 197.126l11.613 7.2H137.2s.755-122.36-6.362-150.248c-11.914-15.893-12.093-30.481-4.206-54.077z" class="cls-27" data-name="Path 66" transform="translate(-121.218 -329.166)"/>
                        <path id="Path_67" d="M145 411.254h-17.71v-7.2s3.809 2.24 6.1 0z" class="cls-14" data-name="Path 67" transform="translate(-111.308 -206.929)"/>
                    </g>
                    <path id="Path_68" d="M124.983 302.017c4.414 13.522 16.867 20.118 23.356 18.9s9.86-12.277 7.528-24.7-9.421-19.473-15.972-20.287c-9.387-1.159-21.046 7.314-14.912 26.087z" class="cls-28" data-name="Path 68" transform="translate(-51.289 -258.48)"/>
                    <path id="Rectangle_25" d="M0 0h21.405v30.61H0z" class="cls-31" data-name="Rectangle 25" transform="rotate(180 44.325 38.942)"/>
                    <g id="Group_52" data-name="Group 52">
                        <path id="Path_69" d="M168.455 326.125c.055-.005-23.264 2.8-32.848-.613-22.582-8.052-32.379-27.46-33.15-47.465h-6.11s-8.184 59.073 47.7 80.162z" class="cls-16" data-name="Path 69" transform="translate(-95.927 -254.857)"/>
                        <path id="Path_70" d="M102.2 292.427c4.077-4.491 1.5-8.194 3.111-11.732s-.361-7.583-4.791 2.074l.005-13.532s-3.454 2.648-4.435 23.19z" class="cls-28" data-name="Path 70" transform="translate(-95.667 -269.237)"/>
                    </g>
                </g>
                <path id="Union_1" d="M-3800.3-1518.064c0-67.517-21.129-127.5 3.733-128.564 17.078-.729 25.356-2.409 33.688-1 25.791-.12 44.884 14.051 63.713 15.827 21.915 2.07 43.726-12.819 48.117-24.561l9.847-1.708s-14.929 31.535-57.009 45.358a117.017 117.017 0 0 1-35.5 5.737c7.87 37.241 8.829 88.908 8.829 88.908-17.936 4.183-32.29 5.577-43.463 5.577-22.346.003-31.955-5.574-31.955-5.574z" class="cls-33" data-name="Union 1" transform="translate(3848.166 1727.93)"/>
                <path id="Path_72" d="M153.14 326.763c3.7 6.5-17.523 12.177-23.166 5.644s-24.675-11.653-10.695-37.128c6.086-11.09 8.4-27.352 17.42-28.915 21.663-3.756 32.076 12.877 31.589 22.677-.676 13.538-5.946 21.677-11.4 24.356-3.703 1.818-9.488 3.266-3.748 13.366z" data-name="Path 72" transform="translate(-66.014 -265.821)"/>
                <path id="Path_74" d="M171.463 304.944c-3.1-4.614 1.614-9.352 2.266-12.809s2.435-6.009 4.151-6.373c2.927-.621 2.051 3.459 1.108 7.362a.506.506 0 0 0 .695.592c2.266-1.034 8.149-3.456 12.645-3.006 1.542.155 2.49 1.837-3.735 4.951-6.054 3.027-7.283 7.573-7.283 7.573z" class="cls-28" data-name="Path 74" transform="translate(25.654 -233.373)"/>
            </g>
        </g>
        <g id="Group_62" data-name="Group 62" transform="translate(413.496 866.268)">
            <g id="Group_57" class="cls-23" data-name="Group 57" transform="translate(2.632 2.632)">
                <path id="Rectangle_26" d="M0 0h292.844v77.986H0z" data-name="Rectangle 26"/>
                <path id="Rectangle_27" d="M0 0h47.254v47.254H0z" data-name="Rectangle 27" transform="translate(19.672 15.366)"/>
                <path id="Line_13" d="M0 0l47.254 47.254" class="cls-34" data-name="Line 13" transform="translate(19.672 15.366)"/>
                <path id="Line_14" d="M47.254 0L0 47.254" class="cls-34" data-name="Line 14" transform="translate(19.672 15.366)"/>
                <path id="Rectangle_28" d="M0 0h176.487v5.558H0z" data-name="Rectangle 28" transform="translate(83.379 25.822)"/>
                <path id="Rectangle_29" d="M0 0h176.487v5.558H0z" data-name="Rectangle 29" transform="translate(83.379 46.606)"/>
                <path id="Rectangle_30" d="M0 0h157.453v5.558H0z" data-name="Rectangle 30" transform="translate(83.379 36.214)"/>
            </g>
            <g id="Group_61" data-name="Group 61">
                <g id="Group_60" data-name="Group 60">
                    <path id="Rectangle_31" d="M0 0h292.844v77.986H0z" class="cls-21" data-name="Rectangle 31"/>
                    <g id="Group_59" data-name="Group 59" transform="translate(19.672 15.366)">
                        <g id="Group_58" data-name="Group 58">
                            <path id="Rectangle_32" d="M0 0h47.254v47.254H0z" class="cls-19" data-name="Rectangle 32"/>
                            <path id="Line_15" d="M0 0l47.254 47.254" class="cls-35" data-name="Line 15"/>
                            <path id="Line_16" d="M47.254 0L0 47.254" class="cls-35" data-name="Line 16"/>
                        </g>
                        <path id="Rectangle_33" d="M0 0h176.487v5.558H0z" class="cls-36" data-name="Rectangle 33" transform="translate(63.707 10.455)"/>
                        <path id="Rectangle_34" d="M0 0h176.487v5.558H0z" class="cls-36" data-name="Rectangle 34" transform="translate(63.707 31.24)"/>
                        <path id="Rectangle_35" d="M0 0h157.453v5.558H0z" class="cls-36" data-name="Rectangle 35" transform="translate(63.707 20.848)"/>
                    </g>
                </g>
            </g>
        </g>
        <g id="Group_68" data-name="Group 68" transform="translate(364.336 899.849)">
            <g id="Group_63" class="cls-23" data-name="Group 63" transform="translate(2.632 2.632)">
                <path id="Rectangle_36" d="M0 0h292.844v77.986H0z" data-name="Rectangle 36"/>
                <path id="Rectangle_37" d="M0 0h47.254v47.253H0z" data-name="Rectangle 37" transform="translate(19.672 15.366)"/>
                <path id="Line_17" d="M0 0l47.254 47.253" class="cls-34" data-name="Line 17" transform="translate(19.672 15.366)"/>
                <path id="Line_18" d="M47.254 0L0 47.253" class="cls-34" data-name="Line 18" transform="translate(19.672 15.366)"/>
                <path id="Rectangle_38" d="M0 0h176.486v5.558H0z" data-name="Rectangle 38" transform="translate(83.379 25.822)"/>
                <path id="Rectangle_39" d="M0 0h176.486v5.558H0z" data-name="Rectangle 39" transform="translate(83.379 46.606)"/>
                <path id="Rectangle_40" d="M0 0h157.453v5.558H0z" data-name="Rectangle 40" transform="translate(83.379 36.214)"/>
            </g>
            <g id="Group_67" data-name="Group 67">
                <g id="Group_66" data-name="Group 66">
                    <path id="Rectangle_41" d="M0 0h292.844v77.986H0z" class="cls-19" data-name="Rectangle 41"/>
                    <g id="Group_65" data-name="Group 65" transform="translate(19.672 15.366)">
                        <g id="Group_64" data-name="Group 64">
                            <path id="Rectangle_42" d="M0 0h47.254v47.253H0z" data-name="Rectangle 42"/>
                            <path id="Line_19" d="M0 0l47.254 47.253" class="cls-37" data-name="Line 19"/>
                            <path id="Line_20" d="M47.254 0L0 47.253" class="cls-37" data-name="Line 20"/>
                        </g>
                        <path id="Rectangle_43" d="M0 0h176.486v5.558H0z" class="cls-36" data-name="Rectangle 43" transform="translate(63.707 10.455)"/>
                        <path id="Rectangle_44" d="M0 0h176.486v5.558H0z" class="cls-36" data-name="Rectangle 44" transform="translate(63.707 31.24)"/>
                        <path id="Rectangle_45" d="M0 0h157.453v5.558H0z" class="cls-36" data-name="Rectangle 45" transform="translate(63.707 20.848)"/>
                    </g>
                </g>
            </g>
        </g>
    </g>
</svg>
