<svg xmlns="http://www.w3.org/2000/svg" width="159.489" height="130.85" viewBox="0 0 159.489 130.85">
    <defs>
        <style>
            .cls-1{opacity:.628}.cls-2,.cls-4{fill:#009bdb}.cls-2{opacity:.078}.cls-3{fill:#e1efff;opacity:.413}
        </style>
    </defs>
    <g id="uix" transform="translate(-1324.975 -807.15)">
        <g id="Group_3122" class="cls-1" data-name="Group 3122" transform="translate(278.203 335.284)">
            <path id="Path_970" d="M115.731 82.126c-10.687-5.074-23.133-7.441-34.454-4.008-13.791 4.182-23.669 16-32.619 27.3-6.336 8-12.738 16.22-16.107 25.851s-3.226 21.084 2.892 29.249c4.5 6 11.51 9.462 17.76 13.615 10.761 7.15 19.848 16.861 31.465 22.514a52.776 52.776 0 0 0 35.871 3.625c10.939-2.81 20.617-9.049 30.536-14.452 9.074-4.943 18.658-9.362 26.079-16.552 7.345-7.116 12.21-16.93 12.651-27.147s-3.766-20.7-11.649-27.213a40.066 40.066 0 0 0-12.111-6.788c-4.112-1.452-39.618-20.915-50.314-25.994z" class="cls-2" data-name="Path 970" transform="translate(1016.425 399.873)"/>
            <path id="Path_981" d="M103.362 89.107c-11.522-2.686-24.186-2.353-34.519 3.409-12.587 7.018-19.726 20.668-26.07 33.608-4.491 9.162-9 18.558-10.243 28.685s1.33 21.288 9.044 27.965c5.674 4.911 13.259 6.8 20.249 9.528C73.859 197 84.8 204.557 97.356 207.611a52.776 52.776 0 0 0 35.821-4.084c10.092-5.072 18.222-13.225 26.765-20.614 7.815-6.759 16.242-13.115 21.964-21.717 5.664-8.515 8.331-19.139 6.59-29.216s-8.081-19.424-17.168-24.115a40.062 40.062 0 0 0-13.277-4.058c-4.325-.542-43.158-12.007-54.689-14.7z" class="cls-3" data-name="Path 981" transform="translate(1016.9 384.381)"/>
        </g>
        <g id="graphic-design" transform="translate(1354 838)">
            <g id="Group_2422" data-name="Group 2422">
                <path id="Path_1090" d="M98.607 14.181L85.823 1.4a4.782 4.782 0 0 0-6.754 0L55 25.467a1.543 1.543 0 0 0 2.18 2.183L81.251 3.579a1.689 1.689 0 0 1 2.389 0l12.784 12.785a1.689 1.689 0 0 1 0 2.389l-3.137 3.137-8.22-8.22a1.543 1.543 0 0 0-2.183 2.183l8.22 8.22-3.584 3.585-3.613-3.613a1.543 1.543 0 0 0-2.183 2.183l3.613 3.613-3.585 3.585-3.612-3.614a1.543 1.543 0 0 0-2.183 2.183l3.613 3.613-3.585 3.585-8.22-8.221a1.543 1.543 0 1 0-2.183 2.183l8.22 8.221-3.585 3.585-3.613-3.613a1.543 1.543 0 1 0-2.183 2.183l3.613 3.613L65 50.174 49.829 35l2.822-2.822A1.543 1.543 0 0 0 50.469 30l-2.822 2.822L19.176 4.348A10.483 10.483 0 0 0 4.351 19.174l28.47 28.47L1.4 79.062a4.782 4.782 0 0 0 0 6.754L14.188 98.6a4.776 4.776 0 0 0 6.754 0l31.417-31.417 2.241 2.238a1.543 1.543 0 0 0 2.183-2.183l-3.092-3.088a1.51 1.51 0 0 0-.48-.481L19.769 30.227l4.139-4.139 2.559 2.559a1.543 1.543 0 0 0 2.183-2.183l-2.559-2.559 4.139-4.139 16.323 16.325 17.2 17.2a1.389 1.389 0 0 0 .3.3l22.9 22.9-4.139 4.139-23.095-23.096c-.014-.015-.026-.031-.041-.045l-9.215-9.215-.047-.043-16.279-16.278a1.543 1.543 0 0 0-2.183 2.183l48.69 48.69-4.139 4.139L61.838 72.3a1.543 1.543 0 0 0-2.183 2.183l15.759 15.755a1.559 1.559 0 0 0 .533.347l18.648 7.24a2.5 2.5 0 0 0 3.24-3.242l-7.248-18.639a1.561 1.561 0 0 0-.347-.532L67.185 52.358l31.422-31.423a4.781 4.781 0 0 0 0-6.754zM50.177 65l-3.029 3.028-3.613-3.613a1.543 1.543 0 1 0-2.182 2.185l3.613 3.613-3.585 3.587-8.22-8.221a1.543 1.543 0 1 0-2.183 2.183l8.22 8.221-3.585 3.585L32 75.951a1.543 1.543 0 1 0-2.183 2.183l3.613 3.613-3.585 3.585-3.613-3.613a1.543 1.543 0 1 0-2.18 2.181l3.613 3.613L24.08 91.1l-8.22-8.221a1.543 1.543 0 0 0-2.183 2.183l8.22 8.22-3.137 3.136a1.689 1.689 0 0 1-2.389 0L3.586 83.633a1.691 1.691 0 0 1 0-2.389L35 49.827zM6.533 16.992A7.4 7.4 0 0 1 16.994 6.531l4.878 4.878L11.411 21.87zm16.284 5.821l-5.229 5.229-3.992-3.992 10.459-10.458 3.992 3.992zm71.661 71.656l-15.208-5.9 9.3-9.3z" class="cls-4" data-name="Path 1090" transform="translate(-.006)"/>
            </g>
        </g>
    </g>
</svg>
