<svg xmlns="http://www.w3.org/2000/svg" xmlns:xlink="http://www.w3.org/1999/xlink" width="717.345" height="603.441" viewBox="0 0 717.345 603.441">
  <defs>
    <linearGradient id="linear-gradient" y1="0.5" x2="1" y2="0.5" gradientUnits="objectBoundingBox">
      <stop offset="0" stop-color="#f2f2f2"/>
      <stop offset="0.145" stop-color="#f2f2f2"/>
      <stop offset="1" stop-color="#a1dbf4"/>
    </linearGradient>
    <linearGradient id="linear-gradient-2" x1="0.5" y1="1" x2="0.5" gradientUnits="objectBoundingBox">
      <stop offset="0" stop-color="#fbb549"/>
      <stop offset="1" stop-color="#f48254"/>
    </linearGradient>
    <linearGradient id="linear-gradient-3" y1="0.5" x2="1" y2="0.5" gradientUnits="objectBoundingBox">
      <stop offset="0" stop-color="#005679"/>
      <stop offset="0.371" stop-color="#007b9c"/>
      <stop offset="0.781" stop-color="#009fbe"/>
      <stop offset="1" stop-color="#00adcb"/>
    </linearGradient>
    <linearGradient id="linear-gradient-4" y1="0.5" x2="1" y2="0.5" gradientUnits="objectBoundingBox">
      <stop offset="0.145" stop-color="#f2f2f2"/>
      <stop offset="0.255" stop-color="#e9e9e9"/>
      <stop offset="0.402" stop-color="#e6e6e6"/>
      <stop offset="0.586" stop-color="#dfdfdf"/>
      <stop offset="0.832" stop-color="#cecece"/>
      <stop offset="0.866" stop-color="#ccc"/>
    </linearGradient>
    <linearGradient id="linear-gradient-5" y1="0.5" x2="1" y2="0.5" gradientUnits="objectBoundingBox">
      <stop offset="0" stop-color="#006a80"/>
      <stop offset="1" stop-color="#00b5a3"/>
    </linearGradient>
    <linearGradient id="linear-gradient-6" x1="-0.841" y1="0.552" x2="0.24" y2="0.273" gradientUnits="objectBoundingBox">
      <stop offset="0.145" stop-color="#ee3f3a"/>
      <stop offset="0.186" stop-color="#dd3a35"/>
      <stop offset="0.265" stop-color="#b12e2b"/>
      <stop offset="0.377" stop-color="#6a1c19"/>
      <stop offset="0.514" stop-color="#090202"/>
      <stop offset="0.528"/>
    </linearGradient>
    <linearGradient id="linear-gradient-7" x1="0.752" y1="-0.146" x2="0.248" y2="1.146" gradientUnits="objectBoundingBox">
      <stop offset="0.008" stop-color="#053b52"/>
      <stop offset="0.12" stop-color="#034460"/>
      <stop offset="0.308" stop-color="#005172"/>
      <stop offset="0.441" stop-color="#005679"/>
      <stop offset="1" stop-color="#29789d"/>
    </linearGradient>
    <linearGradient id="linear-gradient-8" x1="1" y1="0.5" x2="0" y2="0.5" xlink:href="#linear-gradient-2"/>
    <clipPath id="clip-path">
      <rect width="166.737" height="166.737" fill="none"/>
    </clipPath>
    <linearGradient id="linear-gradient-9" y1="0.5" x2="1" y2="0.5" gradientUnits="objectBoundingBox">
      <stop offset="0" stop-color="#f48254"/>
      <stop offset="1" stop-color="#fbb549"/>
    </linearGradient>
  </defs>
  <g id="Group_5080" data-name="Group 5080" transform="translate(-178.673 -109.32)">
    <path id="Path_11594" data-name="Path 11594" d="M443.555,133.208s41.589-31.8,92.963-22.018,65.442,44.035,77.673,58.714,21.406,52.6,120.485,62.383S850.27,306.9,853.328,319.747s11.62,55.044-14.067,83.177-42.2,35.473-8.562,61.16,37.919,59.938,30.58,84.4-30.58,71.557-78.285,66.053-44.647-14.068-64.218,9.785-29.969,50.152-68.5,56.267S583,657.963,554.867,664.69s-48.928,32.415-62.383,40.366S415.422,723.4,386.065,686.708s-34.25-27.522-44.036-18.348-45.87,28.133-83.177-15.29-38.531-90.517,6.116-136.387,34.862-63,12.844-81.955-63-51.986-64.218-112.534,31.192-110.7,93.575-131.495S353.65,196.2,443.555,133.208Z" transform="translate(-8.609)" fill="url(#linear-gradient)"/>
    <path id="Path_11595" data-name="Path 11595" d="M295.844,270.314s43.272-36.962,84.741-56.794,80.233-26.144,114.49-14.424,89.249,75.726,122.6,82.036,100.067,1.8,139.732,2.7,124.407,18.03,139.732,128.013-48.681,166.777-119.9,165.875-111.786-10.818-220.867,54.992S324.692,739.995,246.262,656.155,167.831,392.016,295.844,270.314Z" transform="translate(-3.414 -20.702)" fill="#f5f5f5" opacity="0.336"/>
    <g id="Group_4986" data-name="Group 4986" transform="translate(213.843 641.007)">
      <g id="Group_4985" data-name="Group 4985">
        <path id="Path_11596" data-name="Path 11596" d="M267.524,825.157H226.9a1.532,1.532,0,0,1-1.531-1.531h0a1.531,1.531,0,0,1,1.531-1.531h40.629Z" transform="translate(-225.364 -816.891)" fill="#e6e6e6"/>
        <path id="Path_11597" data-name="Path 11597" d="M277.28,825.157h47.808a1.532,1.532,0,0,0,1.531-1.531h0a1.531,1.531,0,0,0-1.531-1.531H277.28Z" transform="translate(-238.175 -816.891)" fill="#e6e6e6"/>
        <path id="Path_11598" data-name="Path 11598" d="M277.956,821.41h32.639c-3.51,0-6.356-.483-6.356-1.079h0c0-.6,2.846-1.08,6.356-1.08H277.956Z" transform="translate(-238.342 -816.189)" fill="#e6e6e6"/>
        <path id="Path_11599" data-name="Path 11599" d="M302.077,821.41H269.439c3.509,0,6.355-.483,6.355-1.079h0c0-.6-2.846-1.08-6.355-1.08h32.638Z" transform="translate(-236.24 -816.189)" fill="#e6e6e6"/>
        <path id="Path_11600" data-name="Path 11600" d="M285.257,828.3h32.638c-3.509,0-6.355-.484-6.355-1.08h0c0-.6,2.846-1.079,6.355-1.079H285.257Z" transform="translate(-240.143 -817.888)" fill="#e6e6e6"/>
        <path id="Path_11601" data-name="Path 11601" d="M309.378,828.3H276.739c3.51,0,6.356-.484,6.356-1.08h0c0-.6-2.846-1.079-6.356-1.079h32.639Z" transform="translate(-238.041 -817.888)" fill="#e6e6e6"/>
        <path id="Path_11602" data-name="Path 11602" d="M290.237,818.248H249.608a1.531,1.531,0,0,1-1.531-1.531h0a1.531,1.531,0,0,1,1.531-1.531h40.629Z" transform="translate(-230.969 -815.186)" fill="#e6e6e6"/>
        <path id="Path_11603" data-name="Path 11603" d="M302.021,818.248H342.65a1.531,1.531,0,0,0,1.531-1.531h0a1.531,1.531,0,0,0-1.531-1.531H302.021Z" transform="translate(-244.28 -815.186)" fill="#e6e6e6"/>
        <path id="Path_11604" data-name="Path 11604" d="M304.974,832.071H264.345a1.531,1.531,0,0,1-1.531-1.531h0a1.531,1.531,0,0,1,1.531-1.531h40.629Z" transform="translate(-234.605 -818.597)" fill="#e6e6e6"/>
        <path id="Path_11605" data-name="Path 11605" d="M316.758,832.071h40.629a1.532,1.532,0,0,0,1.531-1.531h0a1.532,1.532,0,0,0-1.531-1.531H316.758Z" transform="translate(-247.916 -818.597)" fill="#e6e6e6"/>
        <path id="Path_11606" data-name="Path 11606" d="M323.788,833.028H301c-1.751,0-3.171.241-3.171.539h0c0,.3,1.42.539,3.171.539h22.787c1.751,0,3.17-.241,3.17-.539h0C326.959,833.269,325.539,833.028,323.788,833.028Z" transform="translate(-243.246 -819.589)" fill="#e6e6e6"/>
      </g>
    </g>
    <g id="Group_4988" data-name="Group 4988" transform="translate(738.473 640.035)">
      <g id="Group_4987" data-name="Group 4987">
        <path id="Path_11607" data-name="Path 11607" d="M969.553,825.174h-45.96a1.732,1.732,0,0,1-1.732-1.732h0a1.732,1.732,0,0,1,1.732-1.732h45.96Z" transform="translate(-921.861 -815.823)" fill="#e6e6e6"/>
        <path id="Path_11608" data-name="Path 11608" d="M980.589,825.174h54.082a1.731,1.731,0,0,0,1.732-1.732h0a1.732,1.732,0,0,0-1.732-1.732H980.589Z" transform="translate(-936.353 -815.823)" fill="#e6e6e6"/>
        <path id="Path_11609" data-name="Path 11609" d="M981.354,820.938h36.921c-3.97,0-7.189-.547-7.189-1.222h0c0-.675,3.219-1.221,7.189-1.221H981.354Z" transform="translate(-936.541 -815.03)" fill="#e6e6e6"/>
        <path id="Path_11610" data-name="Path 11610" d="M1008.64,820.938H971.719c3.97,0,7.189-.547,7.189-1.222h0c0-.675-3.219-1.221-7.189-1.221h36.921Z" transform="translate(-934.164 -815.03)" fill="#e6e6e6"/>
        <path id="Path_11611" data-name="Path 11611" d="M989.612,828.727h36.921c-3.97,0-7.19-.548-7.19-1.222h0c0-.675,3.219-1.222,7.19-1.222H989.612Z" transform="translate(-938.579 -816.952)" fill="#e6e6e6"/>
        <path id="Path_11612" data-name="Path 11612" d="M1016.9,828.727H979.977c3.97,0,7.19-.548,7.19-1.222h0c0-.675-3.219-1.222-7.19-1.222H1016.9Z" transform="translate(-936.202 -816.952)" fill="#e6e6e6"/>
        <path id="Path_11613" data-name="Path 11613" d="M995.247,817.36h-45.96a1.733,1.733,0,0,1-1.733-1.732h0a1.733,1.733,0,0,1,1.733-1.732h45.96Z" transform="translate(-928.201 -813.895)" fill="#e6e6e6"/>
        <path id="Path_11614" data-name="Path 11614" d="M1008.576,817.36h45.961a1.733,1.733,0,0,0,1.732-1.732h0a1.733,1.733,0,0,0-1.732-1.732h-45.961Z" transform="translate(-943.259 -813.895)" fill="#e6e6e6"/>
        <path id="Path_11615" data-name="Path 11615" d="M1011.917,833H965.957a1.731,1.731,0,0,1-1.732-1.732h0a1.732,1.732,0,0,1,1.732-1.732h45.961Z" transform="translate(-932.315 -817.753)" fill="#e6e6e6"/>
        <path id="Path_11616" data-name="Path 11616" d="M1025.247,833h45.96a1.732,1.732,0,0,0,1.732-1.732h0a1.733,1.733,0,0,0-1.732-1.732h-45.96Z" transform="translate(-947.372 -817.753)" fill="#e6e6e6"/>
        <path id="Path_11617" data-name="Path 11617" d="M1033.2,834.079h-25.777c-1.981,0-3.587.273-3.587.609h0c0,.337,1.606.609,3.587.609H1033.2c1.981,0,3.587-.273,3.587-.609h0C1036.786,834.352,1035.18,834.079,1033.2,834.079Z" transform="translate(-942.089 -818.875)" fill="#e6e6e6"/>
      </g>
    </g>
    <g id="Group_4993" data-name="Group 4993" transform="translate(203.876 405.938)">
      <path id="Path_11618" data-name="Path 11618" d="M247.921,534.818s1.03.094,1.1.835a8.92,8.92,0,0,1-.544,3.79c-.545,1.157-.508,2.464-2.565,2.584s-5.759-1.69-5.767-2.514,1.642-2.853,1.642-2.853l1.016-1.449S245.476,532.761,247.921,534.818Z" transform="translate(-219.044 -510.73)" fill="#f6a9a9"/>
      <path id="Path_11619" data-name="Path 11619" d="M259.9,682.579c-.362,7.088-.87,15.957-.008,23.658a37.1,37.1,0,0,0-.213,4.522s4.518,52.05,6.574,62.069c2.175,1.591,5.091-.748,5.091-.748,1.787-9.943,5.486-35.521,5.149-53.048,0-.044,0-.088,0-.133l-.109-8.124a37.521,37.521,0,0,0-.258-3.922C278.435,702.594,260.134,677.936,259.9,682.579Z" transform="translate(-223.8 -547.252)" fill="#dca1c8"/>
      <path id="Path_11620" data-name="Path 11620" d="M258.747,619.3c-1.789,4.831-1.716,10.805-1.968,15.746-.384,7.541.573,42.74,1.491,50.934-.168,1.532,2.763,57.033,4.95,67.694,2.863,2.5,10.2-.179,10.2-.179,3.936-10.5,3.38-65.22,3.22-66.56,2.459-4.533,3.887-37.365,6.442-47,.212-.8.275-17.3.477-18.131C273.078,619.521,269,622.378,258.747,619.3Z" transform="translate(-223.128 -531.779)" fill="#005679"/>
      <path id="Path_11621" data-name="Path 11621" d="M268.6,530.038c-1.986,2.8-4.424,6.59-5.326,7.674a6.815,6.815,0,0,0-1.445,6.319c.9,2.8,6.861,5.326,10.653,4.153s9.118-3.791,9.479-10.111-.27-18.6-.27-18.6l-4.243-2.8S270.589,527.24,268.6,530.038Z" transform="translate(-224.326 -506.457)" fill="#23233b"/>
      <path id="Path_11622" data-name="Path 11622" d="M239.944,541.4c-.2.284,3.686,2.125,3.62,2.242-2.458,4.334-3.823,16.939-4.142,20.53a.482.482,0,0,0,.582.551c4.1-1.082,17.486-21.55,25.023-24.259,1.758-.632,3.074,11.668,2.857,12.013-2.2,3.51-8.047,11.338-11.58,13.609-14.955,9.611-20.275,9.094-23.891,7.288-4.05-2.023-2.18-9.184-1.186-11.756C232.9,557.291,237.147,545.287,239.944,541.4Z" transform="translate(-216.522 -512.322)" fill="#f9a230"/>
      <g id="Group_4989" data-name="Group 4989" transform="translate(30.408 223.525)">
        <path id="Path_11623" data-name="Path 11623" d="M271.859,799.86l.323,5.656-10.676,4.309,5.34-9.483Z" transform="translate(-254.724 -799.86)" fill="#f6a9a9"/>
        <path id="Path_11624" data-name="Path 11624" d="M252.807,814.442l9.9-.273a3.309,3.309,0,0,0,2.3-1.017l3.919-4.086.136,4.927,1.485-.041,1.2-5.6a4.7,4.7,0,0,0-.685-3.594l-.786-1.179a.59.59,0,0,0-.873-.122l-5.573,4.736a7.5,7.5,0,0,1-3.776,1.707l-1.174.171a10.722,10.722,0,0,0-2.456.663l-1.5.6a4.406,4.406,0,0,0-.69.492,5.364,5.364,0,0,0-1.113,1.263l-.569.9A.3.3,0,0,0,252.807,814.442Z" transform="translate(-252.502 -800.713)" fill="#23233b"/>
      </g>
      <path id="Path_11625" data-name="Path 11625" d="M314.052,712.22a39.292,39.292,0,0,1,1.931,5.561l2.181,8.187c.012.046.023.09.032.136,3.569,17.741,7.7,41.217,8.732,52.177,0,0-3.61,1.832-6.131.76-4.556-9.626-21.054-57.157-21.054-57.157a36.044,36.044,0,0,1-1.286-9.663Z" transform="translate(-233.433 -554.709)" fill="#dca1c8"/>
      <g id="Group_4990" data-name="Group 4990" transform="translate(77.441 218.562)">
        <path id="Path_11626" data-name="Path 11626" d="M330.742,793.271l1.242,6.888-6.8,7.89-7.89.118,4.934-3.977a2.918,2.918,0,0,0,1.044-1.78l1.322-7.748Z" transform="translate(-315.524 -793.271)" fill="#f6a9a9"/>
        <path id="Path_11627" data-name="Path 11627" d="M326.982,810.546l1.077-.464a3.486,3.486,0,0,0,1.851-1.891l2.243-5.532,2.057,4.772,1.438-.62-1.012-5.953a4.958,4.958,0,0,0-2.074-3.252l-1.229-.847a.622.622,0,0,0-.9.221l-1.213,4.131c-.7,1.312-1.906,4.1-3.192,4.846l-2.748,1.152c-1.271.325-2.6-.768-3.428-.679l-2.9,1.6c-1.6,1.064-1.95,2.068-2.01,2.867Z" transform="translate(-314.943 -794.104)" fill="#23233b"/>
      </g>
      <path id="Path_11628" data-name="Path 11628" d="M307.5,616.381a51.7,51.7,0,0,1,3.066,33.341c-.484,18.966.4,37.154.7,38.292,0,0,11.279,45.266,11.4,61.191,0,0-6.262,5.01-9.841,2.5-6.978-11.033-19.264-58.807-19.264-58.807-.979-3.677-13.645-72.557-13.6-75.626Z" transform="translate(-228.871 -531.06)" fill="#047396"/>
      <path id="Path_11629" data-name="Path 11629" d="M304.32,603.329s-32.315,9.409-47.754,2.252c0,0,4.131-26.855,3.487-30.954s-5.4-4.771-5.286-9.185c.163-6.431,8.314-15.036,13.093-21.538.581-.775,4.067-4.444,4.365-4.7a23.062,23.062,0,0,1,7.992-.447c6.978.895,11.765,2.729,14.807,6.844,2.868,7.694-2.062,23.678-.656,38.708C298.423,590.275,304.32,603.329,304.32,603.329Z" transform="translate(-222.653 -511.871)" fill="#fbb549"/>
      <path id="Path_11630" data-name="Path 11630" d="M299.575,581.446c-1.073-4.354-5.278-19.413-3.191-27.584,2.117-2.569,7.709,1.118,8.6,3.921.514.548,1.029,6.709.805,10.511-1.029,4.921-2.609,14.076.432,21.65,2.8,5.666,8.268,16.931,8.268,16.931s-10.766,2.87-12.622,3.049c2.266-5.368,4.325-10.013,1.909-16.848C302.342,589.01,299.913,582.89,299.575,581.446Z" transform="translate(-232.781 -515.419)" fill="#f9a230"/>
      <path id="Path_11631" data-name="Path 11631" d="M295.959,544.132s2.729-2.423,6.664.527,11.944,19.393,15.432,22.053c3.168,2.416,18.89-9.6,21.742-11.819a.725.725,0,0,1,.893,0l2.586,2.016a.624.624,0,0,1,.114.87c-2.416,3.189-16.111,20.811-24.381,21.814-6.4.776-8.126-3.271-12.406-8.231s-11.943-17.632-13.13-21.082S295.959,544.132,295.959,544.132Z" transform="translate(-232.146 -513.001)" fill="#fbb549"/>
      <path id="Path_11632" data-name="Path 11632" d="M358.476,559.59l1.439-1.128a2.87,2.87,0,0,1,1.769-.6,22.819,22.819,0,0,1,2.34.376c1.108.263,4.254-.675,4.637-.831.46-.187,2.289-.816,1.786-1.4.655-.329.649-.848.416-.994.323-.191.662-.352.577-.82s-1.072-.326-1.072-.326.728-.736-1.431-.763c-1.933-.025-4.265.188-4.265.188l.612-.493c.463-.282.8-1,.4-.969l-1.9.258a3.25,3.25,0,0,0-.871.247l-3.223,1.427-.29.176-4.168,3.337S355.6,558.775,358.476,559.59Z" transform="translate(-247.445 -515.132)" fill="#f6a9a9"/>
      <path id="Path_11633" data-name="Path 11633" d="M273.98,514.572s-1.118,5.964-1.931,7.228a9.187,9.187,0,0,0-1.29,4.939c.021,1.665.313,2.721,2.744,2.743,2.714.024,2.157-.1,2.157-.1a19.034,19.034,0,0,1-.27,4.694,81.167,81.167,0,0,1-3.973,7.4s1.9,3.341,4.875,2.889,6.771-3.34,6.771-3.34l.632-22.479s-5.236-5.236-6.32-4.875S273.98,514.572,273.98,514.572Z" transform="translate(-226.599 -505.712)" fill="#f6a9a9"/>
      <path id="Path_11634" data-name="Path 11634" d="M282.277,532.361a16,16,0,0,1-5.077,5.211s-.023-1.521,0-3.552A13.722,13.722,0,0,0,282.277,532.361Z" transform="translate(-228.186 -510.327)" fill="#db9195"/>
      <path id="Path_11635" data-name="Path 11635" d="M278.768,527.434s-1.445,5.537-.963,8.185.481,6.259,4.093,8.426,10.351,3.13,14.2.241,5.056-9.389,1.685-12.518-6.5-2.889-6.74-6.741,2.166-6.259-.241-10.111-4.333-4.092-6.982-4.333-2.889-.03-4.333-1.294-4.243-2.167-6.229-1.445-3.431,1.986-3.431,2.347-.451,2.618,3.612,3.973c0,0,1.128,2.166,5.145,2.257a3.308,3.308,0,0,1,2.753,4.062C280.844,522.333,279.129,526.125,278.768,527.434Z" transform="translate(-226.366 -504.214)" fill="#23233b"/>
      <g id="Group_4992" data-name="Group 4992" transform="translate(0)">
        <path id="Rectangle_818" data-name="Rectangle 818" d="M.913,0h.914a.141.141,0,0,1,.141.141V1.686a.141.141,0,0,1-.141.141H.914A.914.914,0,0,1,0,.913v0A.913.913,0,0,1,.913,0Z" transform="translate(34.278 20.406) rotate(-165.038)" fill="#c0272d"/>
        <path id="Path_11636" data-name="Path 11636" d="M231.033,513.222a74.784,74.784,0,0,0,7.671,3.394l-.948,3.549-.14.524-.948,3.549a74.637,74.637,0,0,0-8.341-.884c-3.71-.1-11.354,2.76-11.354,2.76L219.7,515.9l.139-.524,2.729-10.212S227.769,511.455,231.033,513.222Z" transform="translate(-213.327 -503.617)" fill="#ee5758"/>
        <path id="Path_11637" data-name="Path 11637" d="M220.907,515.755c-1.708,6.392-4.812,11.114-6.934,10.547s-2.458-6.208-.749-12.6,4.812-11.114,6.934-10.547S222.614,509.363,220.907,515.755Z" transform="translate(-212.132 -503.109)" fill="#00414f"/>
        <path id="Path_11638" data-name="Path 11638" d="M220.226,515.819c-1.569,5.873-4.208,10.269-5.893,9.819s-1.78-5.576-.211-11.449,4.208-10.268,5.893-9.818S221.8,509.947,220.226,515.819Z" transform="translate(-212.348 -503.412)" fill="#fff"/>
        <g id="Group_4991" data-name="Group 4991" transform="translate(2.627 7.704)">
          <path id="Path_11639" data-name="Path 11639" d="M215.743,517.418l.374-1.4a3.617,3.617,0,0,1,4.428-2.56l.505.135a37.024,37.024,0,0,1-2.241,8.387l-.505-.135A3.617,3.617,0,0,1,215.743,517.418Z" transform="translate(-215.62 -513.336)" fill="#cbcbca"/>
        </g>
        <path id="Path_11640" data-name="Path 11640" d="M247.321,532.442a26.929,26.929,0,0,1-1.784,6.664,7.318,7.318,0,0,1-3.713,3.517,2.671,2.671,0,0,1-1.911-.251,6.622,6.622,0,0,1-2.14-2.41c-.322-.8-.191-1.1.863-1.14s4.088-2.361,3.817-8.021Z" transform="translate(-218.421 -509.942)" fill="#676767"/>
        <path id="Path_11641" data-name="Path 11641" d="M244.134,531.427a1.972,1.972,0,0,1-.008.783,13,13,0,0,1-.669,3.851,11.544,11.544,0,0,1-1.952,3.273,4.565,4.565,0,0,1-2.737,1.7.375.375,0,0,1-.438-.154,2.534,2.534,0,0,1-.713-1.549c.044-.477.649-.495,1.017-.508,1.054-.038,4.088-2.361,3.817-8.021l.987.333a2.569,2.569,0,0,1,.624.2A.237.237,0,0,1,244.134,531.427Z" transform="translate(-218.421 -509.942)" fill="#979797"/>
        <path id="Rectangle_819" data-name="Rectangle 819" d="M4.851,0H9.7a.749.749,0,0,1,.749.749v8.2A.749.749,0,0,1,9.7,9.7H4.851A4.851,4.851,0,0,1,0,4.851v0A4.851,4.851,0,0,1,4.851,0Z" transform="translate(32.12 23.905) rotate(-165.04)" fill="#ee5758"/>
      </g>
      <path id="Path_11642" data-name="Path 11642" d="M245.347,535.246a1.316,1.316,0,0,1,.495.76c.033.307-.272.651-.557.53a1.12,1.12,0,0,1,.638.871c.015.376-.364.755-.72.633a.573.573,0,0,1,.311.757.89.89,0,0,1-.73.492,2.126,2.126,0,0,1-.9-.142.865.865,0,0,1-.475,1,1.6,1.6,0,0,1-1.184.023c-.386-.122-.741-.324-1.116-.477a3.112,3.112,0,0,1-1.067-.548.744.744,0,0,1-.063-1.065c.065-.052.146-.092.179-.168a.414.414,0,0,0-.054-.309,1.129,1.129,0,0,1,.65-1.437.817.817,0,0,1-.057-1.119,1.308,1.308,0,0,1,1.129-.4.812.812,0,0,1-.283-.975C242.2,532.2,244.767,534.7,245.347,535.246Z" transform="translate(-218.954 -510.538)" fill="#f6a9a9"/>
      <path id="Path_11643" data-name="Path 11643" d="M247.362,536.337c-.084.019-.249.433-.3.5a.667.667,0,0,1-.434.338,1.191,1.191,0,0,1-1.411-.685,3.17,3.17,0,0,1-.072-2.214c0-.008,0-.014.006-.02a15.347,15.347,0,0,1,1.67,1.271,1.322,1.322,0,0,1,.534.734A.532.532,0,0,1,247.362,536.337Z" transform="translate(-220.239 -510.794)" fill="#db9195"/>
      <path id="Path_11644" data-name="Path 11644" d="M246.024,535.56a1.461,1.461,0,0,0-.153.8.771.771,0,0,0,.471.628,1.016,1.016,0,0,0,.432.029,2.993,2.993,0,0,0,1.656-.714c.081-.07-.882.483-.038,2.071a.827.827,0,0,0,1.308-.807,10.822,10.822,0,0,1,.292-1.458.884.884,0,0,0-.148-.821,2.6,2.6,0,0,0-.649-.574A1.958,1.958,0,0,0,246.024,535.56Z" transform="translate(-220.455 -510.787)" fill="#f6a9a9"/>
    </g>
    <g id="Group_4999" data-name="Group 4999" transform="translate(731.39 388.307)">
      <g id="Group_4994" data-name="Group 4994" transform="translate(27.949 241.465)">
        <path id="Path_11645" data-name="Path 11645" d="M977.371,800.3l-2.534,13.086s-3.8,2.367-7.188.154l3.45-11.708S977.567,800.024,977.371,800.3Z" transform="translate(-954.026 -800.27)" fill="#23233b"/>
        <path id="Path_11646" data-name="Path 11646" d="M966.518,809.221s-1.462,3.64-3.5,4.43-3.871.069-6.755-1.055c-3.732-1.454-10.969,2.513-3.327,3.858,1.13.2,7.419,1.165,10.878-.52,1.684-.82,3.062-3.48,2.827-4.358Z" transform="translate(-949.564 -802.479)" fill="#23233b"/>
      </g>
      <g id="Group_4996" data-name="Group 4996" transform="translate(87.539 241.961)">
        <g id="Group_4995" data-name="Group 4995">
          <path id="Path_11647" data-name="Path 11647" d="M1039.34,800.955l.344,13.259s-3.666,2.563-7.17.531l.643-11.93S1039.521,800.671,1039.34,800.955Z" transform="translate(-1029.622 -800.929)" fill="#23233b"/>
          <path id="Path_11648" data-name="Path 11648" d="M1033.037,814.743c-2.438-1.131-7.149,3.419-2.16,4.114.739.1,4.843.536,7.095-1.431C1039.068,816.47,1034.922,815.618,1033.037,814.743Z" transform="translate(-1028.675 -804.293)" fill="#23233b"/>
        </g>
      </g>
      <path id="Path_11649" data-name="Path 11649" d="M968.339,682.349c0-.041,1-26.109,4.163-49.226,1.583-3.808,18.305-3.3,18.307-3.3,5.994,3,6.54,13.832,5.344,20.21-1.3,6.939-5.115,36.441-7.107,43.86-2.286,16-5.627,50.384-8.959,63.67a4.945,4.945,0,0,1-5.224,3.8,28.955,28.955,0,0,1-5.2-.673c-.942-.284-2.669-2.028-2.722-3.048C966.291,745.341,967.674,700.676,968.339,682.349Z" transform="translate(-925.861 -516.74)" fill="#006a80"/>
      <path id="Path_11650" data-name="Path 11650" d="M988.7,635.558c-2.336-10.509,24.381-10.084,24.382-10.084,1.75.5,7.113,1.938,7.656,15.7.349,8.853,4.621,39.028,3.533,52.646a294.257,294.257,0,0,1,7.251,60.3,4.149,4.149,0,0,1-2.609,4.077,39.415,39.415,0,0,1-5.016,1.481,3.846,3.846,0,0,1-4.3-2.751c-4.567-13.763-14.3-56.629-14.179-59.035-4.049-9.367-7.527-22.539-10.219-31.974C992.775,657.421,991.3,647.229,988.7,635.558Z" transform="translate(-931.237 -515.672)" fill="#00414f"/>
      <path id="Path_11651" data-name="Path 11651" d="M952.136,532.034a6.153,6.153,0,0,0-.511,1.928l0,.01c-.159-.917-.342-1.95-.437-2.395a28.169,28.169,0,0,0-1.058-3.441c-.212-.44-.612-1.308-1.126-1.2-.361.074-.451.584-.468.983a5.885,5.885,0,0,0-.264-1.008c-.212-.44-.524-1.012-1.039-.907s-.7.89-.686,1.183a8.122,8.122,0,0,0,.054,1.359c-.016-.053-.031-.1-.044-.13-.153-.354-.408-1.021-.817-.956s-.51,1.033-.509,1.264c-.01.188-.021.682,0,1.343-.118-.306-.3-.672-.583-.643-.358.036-.493.853-.5,1.05a17.968,17.968,0,0,0,.166,4.626.1.1,0,0,0-.006.022,8.677,8.677,0,0,0,.343,2.126,9.733,9.733,0,0,0,1.231,2.968,12.285,12.285,0,0,0,1.2,1.353l.172.769,4.583-.645-.1-.833a2.074,2.074,0,0,1,.351-.591,2.987,2.987,0,0,0,.457-.623,8.027,8.027,0,0,0,.923-3.262c.105-.823-.213-3.877-.2-4.383C953.267,531.471,952.833,531.037,952.136,532.034Z" transform="translate(-920.257 -491.124)" fill="#f5a8a9"/>
      <path id="Path_11652" data-name="Path 11652" d="M985.763,543.75c2.04.832,3.59,11.564,2.679,13.869C986.8,561.778,978.2,576.11,978.2,576.11c-12.993,17.846-19.569,11.137-19.569,11.137-3.4-3.2-3.137-7.348,4.206-16.857Z" transform="translate(-923.334 -495.506)" fill="#005679"/>
      <path id="Path_11653" data-name="Path 11653" d="M949.042,546.345l1.826-.357a3.8,3.8,0,0,1,4.215,3.194,82.361,82.361,0,0,0,4.569,14.966l.037.078,2.336,5.416c3.507,8.128,5.354,15.686.479,18.138,0,0-7.822,7.146-12.788-14.266l-1.043-5.853c-.005-.029-.008-.057-.014-.087a155.866,155.866,0,0,1-2.263-17.428A3.508,3.508,0,0,1,949.042,546.345Z" transform="translate(-920.831 -496.044)" fill="#005679"/>
      <g id="Group_4997" data-name="Group 4997" transform="translate(56.145 15.926)">
        <path id="Path_11654" data-name="Path 11654" d="M992.241,504.582s-.809,6.7.812,9.968c0,0,5.511-4.7,5.295-7.214S993.616,500.589,992.241,504.582Z" transform="translate(-988.241 -501.362)" fill="#23233b"/>
        <path id="Path_11655" data-name="Path 11655" d="M1007.2,524.214l1.293,5.923-.892,3.112c-1.417,1.276-11.268,8.921-11.329,6.321l1.445-7.946.517-4.356s-2.847-.328-3.473-2.875c-.685-2.785-2.47-11.93.3-14.941a6.028,6.028,0,0,1,3.7-2.752s5.952-2.5,8.434,1.764a20,20,0,0,1,2.957,8.441C1010.384,518.549,1008.552,523.311,1007.2,524.214Z" transform="translate(-988.617 -502.11)" fill="#f5a8a9"/>
        <path id="Path_11656" data-name="Path 11656" d="M1005.42,515.321l-.719-6s-7.01,2.32-11.576-.637c-8.957-1.831-6.006-5.171-4.049-6.432,3.213-2.071,5.952-1.625,6.733-.162,0,0,13.779-4.477,15.237,9.282,0,0,1.892.493,1.719,3.217s-6.766,8.879-6.766,8.879l.672-3.951s2.365-3.287.783-5.075S1005.42,515.321,1005.42,515.321Z" transform="translate(-986.997 -500.845)" fill="#23233b"/>
        <path id="Path_11657" data-name="Path 11657" d="M999.41,533.918l-1.048,7.868a24.778,24.778,0,0,0,6.1-8.887A7.277,7.277,0,0,1,999.41,533.918Z" transform="translate(-989.801 -508.754)" fill="#d08f8f"/>
      </g>
      <path id="Path_11658" data-name="Path 11658" d="M1016.955,548.074c-2.105-5.688-7.948-7.46-11.339-8.355L1005,536.71a.746.746,0,0,0-1.235-.416c-1.787,1.646-5.862,2.616-11.484.917a1.212,1.212,0,0,0-1.06,1.325c0,.379-.134,1.476-.274,2.521-.068.042-.136.084-.2.128-5.123,3.71-6.65,9.72-8.735,15.621-3.584,10.148-11.607,54-6.046,56.452,4,1.766,31.8,2.238,40.276,1.531,2.523-.211,2.352-3.967,2.352-3.967C1018.368,603.012,1020.08,556.522,1016.955,548.074Z" transform="translate(-927.661 -493.618)" fill="#00adcb"/>
      <path id="Path_11659" data-name="Path 11659" d="M1023.23,543.229c-6.668-.728-2.556,8.906-.374,16,5.878,19.107,3.432,25.233,2.49,27.254-1.17,2.511,2.545,12.492,3.854,12.613,4.55.418,9.007-3.221,10.228-5.884,2.149-4.686,2.524-12.387,2.291-17.368-.29-6.169-2.716-13.68-5.9-20C1034.06,552.349,1028.17,543.769,1023.23,543.229Z" transform="translate(-938.894 -495.368)" fill="#005679"/>
      <g id="Group_4998" data-name="Group 4998">
        <path id="Path_11660" data-name="Path 11660" d="M964.973,640.932A25.871,25.871,0,1,0,995.478,606.1l-13.071-18.437-25-60.843-1.469-14.211c3.859-5.781,5.249-12.021,3.808-16.038-2.264-6.309-16.093-22.344-18-14.978l4.493,14.936-.818,9.221L932.3,511.474l-6.9-6.378-6.3-14.523s-4.235-5.5-6.113,5.144,1.292,23.162,8.442,26.147a47.984,47.984,0,0,0,9.68,3.272l8.44,8.7,25.964,60.778,2.462,21.316A25.826,25.826,0,0,0,964.973,640.932Zm10.947-3.566,2.1-5.566-2.215-5.832,5.652-2.828,2.327-5.314,5.694,2.271,5.705-2.388,2.3,5.671,5.84,2.307-2.292,5.505,2.409,5.893-5.581,2.59-2.4,5.553-5.967-2.116-5.432,2.233L981.35,639.7Z" transform="translate(-912.459 -479.702)" fill="url(#linear-gradient-2)"/>
        <rect id="Rectangle_820" data-name="Rectangle 820" width="10.957" height="70.733" rx="2.559" transform="translate(69.457 117.8) rotate(157.659)" fill="#e6e6e3"/>
      </g>
      <path id="Path_11661" data-name="Path 11661" d="M988.562,590.141c-.2.055-.981.532-.139,1.918s1.154,1.562,1.154,1.562-3.209.022-4.1.068a27.64,27.64,0,0,0-3.509.491c-.46.137-1.366.39-1.344.906.015.363.5.53.882.609a5.723,5.723,0,0,0-1.021.1c-.459.137-1.064.351-1.043.867s.755.82,1.042.852a8.125,8.125,0,0,0,1.329.16,1.219,1.219,0,0,0-.133.023c-.368.093-1.057.237-1.057.645s.924.657,1.149.692c.182.038.661.127,1.3.212-.315.067-.7.182-.716.465-.02.354.752.612.942.654a17.7,17.7,0,0,0,4.521.56.065.065,0,0,0,.02.009,8.518,8.518,0,0,0,2.12,0,9.57,9.57,0,0,0,3.076-.734,12.016,12.016,0,0,0,1.5-.954l.774-.047.088-4.554-1.031-.042a4.412,4.412,0,0,0-.875-.985,15.432,15.432,0,0,0-2.049-1.058,3.065,3.065,0,0,1-1.56-1.195C989.5,590.726,988.764,590.086,988.562,590.141Z" transform="translate(-928.988 -506.953)" fill="#f5a8a9"/>
      <path id="Path_11662" data-name="Path 11662" d="M1000.523,603.274c-.6-.528-2.121-1.606-1.89-2.455.481-1.766,1.051-5.672,1.945-5.6,3.121.249,19.675,4.113,28.373,5.8,4.54.627,5.493,4.5,5.071,5.455-1.458,3.3-3.121,6.949-9.6,6.477C1024.424,612.949,1006.679,608.68,1000.523,603.274Z" transform="translate(-933.717 -508.206)" fill="#005679"/>
    </g>
    <g id="Group_5007" data-name="Group 5007" transform="translate(178.673 563.576)">
      <g id="Group_5006" data-name="Group 5006">
        <g id="Group_5000" data-name="Group 5000" transform="translate(10.234 0.261)">
          <path id="Path_11663" data-name="Path 11663" d="M192.259,720.6a42.858,42.858,0,0,1,4.6-7.862l3.521,17.1A81.545,81.545,0,0,1,192.259,720.6Z" transform="translate(-192.259 -712.735)" fill="#00b3a1"/>
        </g>
        <g id="Group_5001" data-name="Group 5001" transform="translate(20.664 9.533)">
          <path id="Path_11664" data-name="Path 11664" d="M206.106,741.084c2.512-4.03,4.348-11.18,5.383-16.04,1.943,3.525,2.276,7.764,1.358,13.885-1.833,12.215,4.7,8.542,5.845,7.159s3.278-8.25,7.761-6.357a4,4,0,0,1,.658.362c-1.088,12.015-11.369,32.368-13.644,36.749Z" transform="translate(-206.106 -725.044)" fill="#00b3a1"/>
        </g>
        <g id="Group_5002" data-name="Group 5002" transform="translate(1.469 8.823)">
          <path id="Path_11665" data-name="Path 11665" d="M205.039,769.231c-2.084-.653-12.125-4.54-24.416-21.467,3.306-3.1,7.884,2.074,9.458,2.853,1.609.8,9.073,1.485,2.416-8.921-4.525-7.074-5.527-11.936-3.389-17.593a80.738,80.738,0,0,0,8.628,9.656Z" transform="translate(-180.623 -724.102)" fill="#00b3a1"/>
        </g>
        <g id="Group_5003" data-name="Group 5003" transform="translate(15.437 0.186)">
          <path id="Path_11666" data-name="Path 11666" d="M204.2,737.063l-5.029-24.428c4.868,2.9,8.158,5.473,10.127,8.544C208.329,725.8,206.57,732.908,204.2,737.063Z" transform="translate(-199.167 -712.635)" fill="#00b3a1"/>
        </g>
        <path id="Path_11667" data-name="Path 11667" d="M230.17,745.633c3.352,3.147,3.686,12.555,1.241,24.865a89.734,89.734,0,0,1-3.024,11c-1.177,3.517-2.486,6.963-3.878,10.356-1.037,2.531-2.1,5.054-3.254,7.511a2.22,2.22,0,0,1-1.51,1.012l-3.589-17.436C217.576,780.264,228.847,758.678,230.17,745.633Z" transform="translate(-187.922 -720.591)" fill="#00b3a1"/>
        <g id="Group_5004" data-name="Group 5004" transform="translate(0 32.959)">
          <path id="Path_11668" data-name="Path 11668" d="M179.706,756.145c13,17.892,23.57,21.364,25.011,21.767L209.881,803l-.059-.009a2.156,2.156,0,0,1-1-.675c-.647-.675-1.339-1.267-2.023-1.889q-1.694-1.539-3.36-3.121c-2.677-2.543-5.3-5.168-7.835-7.91a91.264,91.264,0,0,1-7.37-8.912l-.1-.133C180.257,769.224,176.768,759.887,179.706,756.145Z" transform="translate(-178.673 -756.145)" fill="#00b3a1"/>
        </g>
        <g id="Group_5005" data-name="Group 5005" transform="translate(1.033)">
          <path id="Path_11669" data-name="Path 11669" d="M180.044,745.348c.07-.088.139-.177.215-.259s.147-.146.221-.215c12.291,16.927,22.331,20.814,24.416,21.467l-7.3-35.472a80.743,80.743,0,0,1-8.628-9.657c.087-.232.182-.465.279-.7a81.53,81.53,0,0,0,8.118,9.236l-3.521-17.1.132-.189c.066-.084.117-.09.213-.044l.261.157L199.477,737c2.374-4.155,4.133-11.265,5.1-15.884.169.264.331.531.482.8-1.034,4.86-2.871,12.01-5.383,16.04l7.361,35.758c2.276-4.382,12.556-24.734,13.644-36.749a4.423,4.423,0,0,1,.579.46c-1.323,13.045-12.594,34.631-14.014,37.307l3.589,17.436a1.712,1.712,0,0,1-.615.027l-5.164-25.085C203.614,766.712,193.044,763.24,180.044,745.348Z" transform="translate(-180.044 -712.388)" fill="#f7f6f4"/>
        </g>
      </g>
    </g>
    <g id="Group_5016" data-name="Group 5016" transform="translate(675.089 574.328)">
      <g id="Group_5015" data-name="Group 5015">
        <g id="Group_5008" data-name="Group 5008" transform="translate(4.115 20.93)">
          <path id="Path_11670" data-name="Path 11670" d="M843.175,768.885c2.954-4.627,6.691-9.65,10.493-14.435a14.764,14.764,0,0,0,11.446.253,55.981,55.981,0,0,1-3.93,7.832,36.963,36.963,0,0,1-3.828,5.2C852.58,770.7,844.839,769.247,843.175,768.885Z" transform="translate(-843.175 -754.45)" fill="#00adcb"/>
        </g>
        <g id="Group_5009" data-name="Group 5009" transform="translate(14.927 0.441)">
          <path id="Path_11671" data-name="Path 11671" d="M857.529,747.338c7.254-9.095,14.673-17.257,17.286-20.089a51.509,51.509,0,0,1-1.724,7.008c-.659,2.526-1.366,5.044-2.168,7.525-.61,1.888-1.277,3.758-2.013,5.588A14.535,14.535,0,0,1,857.529,747.338Z" transform="translate(-857.529 -727.249)" fill="#00adcb"/>
        </g>
        <g id="Group_5010" data-name="Group 5010" transform="translate(7.16 3.766)">
          <path id="Path_11672" data-name="Path 11672" d="M859.331,742.42c-4.037,4.831-8.363,10.268-12.071,15.508-.082-1.982-.273-10.56,2.161-16.177a39.985,39.985,0,0,1,11.906-10.087,52.322,52.322,0,0,0-2.019,10.756Z" transform="translate(-847.219 -731.663)" fill="#00adcb"/>
        </g>
        <g id="Group_5011" data-name="Group 5011" transform="translate(19.701 0.005)">
          <path id="Path_11673" data-name="Path 11673" d="M865.968,730.147q.968-.506,1.949-.941c2.515-1.112,5.592-2.492,8.264-2.536-1.968,2.131-6.839,7.478-12.312,14.006A48.554,48.554,0,0,1,865.968,730.147Z" transform="translate(-863.868 -726.67)" fill="#00adcb"/>
        </g>
        <g id="Group_5012" data-name="Group 5012" transform="translate(0 14.984)">
          <path id="Path_11674" data-name="Path 11674" d="M844.526,762.092l.049-.008a89.385,89.385,0,0,0-6.637,10.751,9.787,9.787,0,0,1-.173-3.415,42.3,42.3,0,0,1,8.433-22.863C843.984,753.029,844.52,762,844.526,762.092Z" transform="translate(-837.713 -746.556)" fill="#00adcb"/>
        </g>
        <g id="Group_5013" data-name="Group 5013" transform="translate(0.458 35.282)">
          <path id="Path_11675" data-name="Path 11675" d="M855.167,773.5a26.81,26.81,0,0,1-6.519,5.035,17.083,17.083,0,0,1-6.916,2.111c-1.844.118-2.885.07-3.412-.693a66.987,66.987,0,0,1,3.367-5.913C842.807,774.308,850,775.862,855.167,773.5Z" transform="translate(-838.32 -773.504)" fill="#00adcb"/>
        </g>
        <g id="Group_5014" data-name="Group 5014" transform="translate(0.225)">
          <path id="Path_11676" data-name="Path 11676" d="M844.649,757.175l-.049.008c-.006-.1-.542-9.062,1.671-15.536q.43-.575.878-1.131c-2.434,5.618-2.243,14.2-2.161,16.177,3.708-5.24,8.035-10.676,12.071-15.508h-.024a52.333,52.333,0,0,1,2.019-10.756c.178-.1.355-.191.533-.284a48.543,48.543,0,0,0-2.1,10.529c5.473-6.528,10.345-11.875,12.313-14.006.079,0,.159-.006.238,0-.01.145-.023.293-.039.441-2.613,2.832-10.032,10.994-17.286,20.089a14.535,14.535,0,0,0,11.381.032q-.125.312-.254.621a14.766,14.766,0,0,1-11.446-.253c-3.8,4.785-7.539,9.808-10.493,14.435,1.664.361,9.405,1.818,14.182-1.152q-.487.549-.992,1.07c-5.163,2.358-12.36.8-13.48.539a66.987,66.987,0,0,0-3.367,5.913,1.9,1.9,0,0,1-.233-.472A89.381,89.381,0,0,1,844.649,757.175Z" transform="translate(-838.011 -726.664)" fill="#e6e6e3"/>
        </g>
      </g>
    </g>
    <g id="Group_5017" data-name="Group 5017" transform="translate(662.248 544.392)">
      <path id="Path_11677" data-name="Path 11677" d="M831.262,759.051a239,239,0,0,1,8.767-24.745,33.157,33.157,0,0,0,18.742-7.3,66.7,66.7,0,0,1-1.891,12.253,49.732,49.732,0,0,1-3.238,8.943C847.585,755.034,834.172,758.389,831.262,759.051Z" transform="translate(-823.28 -696.811)" fill="#f26c3c"/>
      <path id="Path_11678" data-name="Path 11678" d="M843.284,723.9c6.568-16.018,13.939-31,16.559-36.222.91,2.969.892,6.7,1.22,9.772.38,3.548.675,7.116.8,10.7.092,2.729.082,5.474-.065,8.216A32.6,32.6,0,0,1,843.284,723.9Z" transform="translate(-826.247 -687.106)" fill="#f26c3c"/>
      <path id="Path_11679" data-name="Path 11679" d="M842.659,717.338c-3.785,8.631-7.7,18.2-10.715,27.115-1.269-2.385-6.5-12.816-5.77-21.348a64.528,64.528,0,0,1,13.556-20.334c.142,6.8,2.861,14.5,2.89,14.581Z" transform="translate(-822.007 -690.831)" fill="#f26c3c"/>
      <path id="Path_11680" data-name="Path 11680" d="M845.126,698.209q1.284-1.267,2.627-2.453c3.449-3.042,7.656-6.787,11.971-8.619-1.974,3.933-6.821,13.754-11.968,25.427C847.074,710.473,845.1,703.9,845.126,698.209Z" transform="translate(-826.701 -686.973)" fill="#f26c3c"/>
      <path id="Path_11681" data-name="Path 11681" d="M830.252,752.621l.075-.042a112.694,112.694,0,0,0-4.615,17.646,10.469,10.469,0,0,1-2.24-4.089c-4.189-11.159-3.435-22.969.582-33.748C824.173,741.828,830.187,752.505,830.252,752.621Z" transform="translate(-820.665 -698.14)" fill="#f26c3c"/>
      <path id="Path_11682" data-name="Path 11682" d="M851.895,757.767a44.741,44.741,0,0,1-7.7,10.533,35.506,35.506,0,0,1-10.024,7.2c-2.928,1.372-4.647,2.006-5.942,1.418A82.663,82.663,0,0,1,830.3,767.4C832.275,766.978,844.86,764.1,851.895,757.767Z" transform="translate(-822.531 -704.402)" fill="#f26c3c"/>
      <path id="Path_11683" data-name="Path 11683" d="M831.437,741.359l-.075.042c-.066-.115-6.079-10.793-6.2-20.233q.37-.993.777-1.975c-.731,8.533,4.5,18.964,5.77,21.348,3.021-8.915,6.931-18.484,10.715-27.115l-.04.014c-.029-.08-2.747-7.778-2.889-14.581q.349-.356.7-.7c-.03,5.693,1.948,12.264,2.63,14.355,5.147-11.674,9.994-21.494,11.968-25.427.128-.054.256-.113.384-.163.068.186.13.376.19.569-2.62,5.223-9.99,20.2-16.558,36.222a32.6,32.6,0,0,0,18.509-7.531q-.025.467-.056.933a33.159,33.159,0,0,1-18.742,7.3,239.014,239.014,0,0,0-8.767,24.745c2.911-.662,16.323-4.018,22.38-10.851q-.476,1-1,1.976c-7.035,6.337-19.62,9.211-21.591,9.629a82.639,82.639,0,0,0-2.079,9.518,2.624,2.624,0,0,1-.648-.427A112.692,112.692,0,0,1,831.437,741.359Z" transform="translate(-821.775 -686.92)" fill="#e6e6e3"/>
    </g>
    <g id="Group_5026" data-name="Group 5026" transform="translate(179.54 602.732)">
      <g id="Group_5025" data-name="Group 5025" transform="translate(0)">
        <g id="Group_5018" data-name="Group 5018" transform="translate(2.919 0.186)">
          <path id="Path_11684" data-name="Path 11684" d="M183.7,769.838a25.944,25.944,0,0,1,1.834-5.219l4.071,9.788A49.4,49.4,0,0,1,183.7,769.838Z" transform="translate(-183.7 -764.619)" fill="#fab448"/>
        </g>
        <g id="Group_5019" data-name="Group 5019" transform="translate(11.15 4.421)">
          <path id="Path_11685" data-name="Path 11685" d="M194.627,780.426c1.033-2.692,1.3-7.168,1.36-10.185,1.564,1.877,2.253,4.366,2.411,8.122.316,7.495,3.788,4.551,4.311,3.594s1-5.3,3.894-4.685a2.377,2.377,0,0,1,.435.139c.737,7.289-3.046,20.61-3.9,23.485Z" transform="translate(-194.627 -770.241)" fill="#fab448"/>
        </g>
        <g id="Group_5020" data-name="Group 5020" transform="translate(0.503 5.853)">
          <path id="Path_11686" data-name="Path 11686" d="M197.526,797.213c-1.318-.148-7.753-1.308-17.034-9.983,1.613-2.231,4.94.327,5.968.61,1.052.289,5.582-.161.412-5.6-3.515-3.7-4.672-6.479-4.05-10.1a49.152,49.152,0,0,0,6.259,4.763Z" transform="translate(-180.492 -772.143)" fill="#fab448"/>
        </g>
        <g id="Group_5021" data-name="Group 5021" transform="translate(5.106 0.071)">
          <path id="Path_11687" data-name="Path 11687" d="M192.419,778.451,186.6,764.466c3.237,1.17,5.495,2.322,7.023,3.927C193.584,771.258,193.355,775.7,192.419,778.451Z" transform="translate(-186.603 -764.466)" fill="#fab448"/>
        </g>
        <g id="Group_5022" data-name="Group 5022" transform="translate(19.906 11.798)">
          <path id="Path_11688" data-name="Path 11688" d="M210.3,780.036c2.361,1.49,3.646,7.061,3.608,14.682a54.412,54.412,0,0,1-.534,6.907c-.3,2.233-.679,4.439-1.118,6.622-.326,1.629-.671,3.255-1.074,4.852a1.344,1.344,0,0,1-.783.778l-4.151-9.982C206.789,802.137,211.019,787.967,210.3,780.036Z" transform="translate(-206.251 -780.036)" fill="#fab448"/>
        </g>
        <g id="Group_5023" data-name="Group 5023" transform="translate(0 21.273)">
          <path id="Path_11689" data-name="Path 11689" d="M180.122,792.615c9.815,9.168,16.518,10.02,17.424,10.093l5.972,14.361-.035,0a1.308,1.308,0,0,1-.675-.287c-.464-.328-.945-.6-1.424-.893q-1.187-.722-2.363-1.473c-1.89-1.208-3.758-2.469-5.585-3.813a55.391,55.391,0,0,1-5.423-4.463l-.072-.069C181.96,800.349,178.8,795.185,180.122,792.615Z" transform="translate(-179.824 -792.615)" fill="#fab448"/>
        </g>
        <g id="Group_5024" data-name="Group 5024" transform="translate(0.297)">
          <path id="Path_11690" data-name="Path 11690" d="M180.219,785.646c.032-.061.063-.122.1-.18s.071-.1.107-.154c9.281,8.675,15.716,9.835,17.034,9.984l-8.445-20.307a49.139,49.139,0,0,1-6.259-4.763c.026-.148.055-.3.087-.449a49.375,49.375,0,0,0,5.905,4.57l-4.071-9.788c.02-.043.038-.084.057-.128s.059-.067.123-.05l.173.063,5.816,13.985c.936-2.751,1.165-7.193,1.207-10.058.132.138.26.278.38.423-.056,3.017-.326,7.492-1.36,10.185l8.513,20.471c.851-2.874,4.634-16.2,3.9-23.485a2.642,2.642,0,0,1,.4.207c.716,7.931-3.515,22.1-4.052,23.86l4.151,9.982a1.027,1.027,0,0,1-.364.087l-5.972-14.361C196.737,795.666,190.034,794.814,180.219,785.646Z" transform="translate(-180.219 -764.372)" fill="#f7f6f4"/>
        </g>
      </g>
    </g>
    <g id="Group_5027" data-name="Group 5027" transform="translate(774.44 131.059)" opacity="0.75">
      <path id="Path_11691" data-name="Path 11691" d="M971.542,182.808s4.151-.779,5.708-3.633,2.594-16.605,7.264-17.123,4.93,6.486,4.93,6.486.519-30.356,15.307-30.356,15.049,26.983,15.049,26.983-1.038-8.3,5.189-8.822,5.708,13.492,5.708,13.492.519-6.746,5.448-6.746,5.282,8.036,5.449,10.638c.433,6.746,14.789,9.34,14.789,9.34Z" transform="translate(-970.088 -138.181)" fill="url(#linear-gradient-3)"/>
      <path id="Path_11692" data-name="Path 11692" d="M1009.776,176.828a3.953,3.953,0,0,0,2.479-1.577c.676-1.239,1.126-7.211,3.155-7.436s2.141,2.816,2.141,2.816.225-13.182,6.647-13.182,6.534,11.717,6.534,11.717-.45-3.606,2.254-3.831,2.479,5.859,2.479,5.859.225-2.929,2.366-2.929,2.294,3.49,2.366,4.62c.188,2.929,6.422,4.056,6.422,4.056Z" transform="translate(-979.523 -142.936)" fill="#fbb549"/>
      <path id="Path_11693" data-name="Path 11693" d="M969.612,179.64s2.928-.548,4.025-2.561,1.83-11.711,5.123-12.076,3.476,4.574,3.476,4.574.366-21.407,10.8-21.407,10.612,19.028,10.612,19.028-.731-5.855,3.659-6.22,4.025,9.514,4.025,9.514.366-4.757,3.843-4.757,3.914,5.664,3.842,7.5c-.209,5.29,10.428,6.587,10.428,6.587Z" transform="translate(-969.612 -140.646)" fill="#ee3f3a"/>
    </g>
    <g id="Group_5028" data-name="Group 5028" transform="translate(255.571 151.013)">
      <ellipse id="Ellipse_97" data-name="Ellipse 97" cx="77.814" cy="77.814" rx="77.814" ry="77.814" transform="translate(28.996 180.675) rotate(-84.039)" opacity="0.6" fill="url(#linear-gradient-4)"/>
      <path id="Path_11694" data-name="Path 11694" d="M452.209,184.171c-5.643,5.344-11.377,10.591-16.958,16-1.735,1.68-2.923,1.944-5.708.65a90.593,90.593,0,0,0-17.841-6.256c-3.757-.865-5.035-1.467-5.429-4.413-1.015-7.569-2.382-15.09-3.461-22.651-.408-2.864-1.869-3.506-6.233-2.134a48.2,48.2,0,0,1-21.528,1.665c-5.042-.746-6.565-.27-6.63,2.917-.162,7.893-.721,15.778-.869,23.671-.044,2.3-.843,3.237-2.859,4.18-6.32,2.957-12.456,6.31-18.759,9.306a4.241,4.241,0,0,1-3.562-.426c-7.088-4.959-14.06-10.083-21.29-15.318a95.387,95.387,0,0,0-21.5,23.587c-.487.737.221,2.846,1.018,3.75q7.451,8.462,15.25,16.613c2.027,2.107,2.258,3.712.8,6.893a101.446,101.446,0,0,0-5.959,18.085c-.579,2.349-1.417,3.1-3.445,3.413-8.547,1.334-17.072,2.808-26.072,4.31-.138,4.4-.588,8.714-.329,12.981.363,5.964,1.28,11.893,1.908,17.842.257,2.434,1.369,3.393,3.946,3.417,7.89.072,15.783.338,23.662.758a4.541,4.541,0,0,1,3.163,2.172c3.042,6,5.7,12.194,8.8,18.157,1.057,2.03.975,3.281-.349,5.065-5.082,6.842-9.994,13.811-15.137,20.966,6.877,9.291,15.494,16.443,25.248,22.9,6.127-5.786,12.367-11.4,18.246-17.373,2.318-2.355,4.049-2.286,6.909-1.115,6.091,2.493,12.381,4.537,18.682,6.463,2.061.63,3.133,1.176,3.462,3.582,1.165,8.549,2.843,18.265,4.311,27.333l4.128-.373c8.538-.753,17.235-1.564,25.941-2.26,2.763-.221,3.8-1.232,3.81-4.251.017-7.5.612-15,.813-22.5.062-2.308.814-3.393,3.219-4.353a149.71,149.71,0,0,0,17.789-8.53c2.1-1.179,3.384-1.3,5.149.006,6.235,4.617,12.583,9.081,18.811,13.707,2.01,1.494,3.473,1.9,5.555-1.492a77.1,77.1,0,0,1,16.522-18.613c2.7-2.257,2.685-3.719.862-5.618-5.375-5.6-10.565-11.382-15.968-16.955-1.461-1.507-1.6-2.524-.806-4.553,2.637-6.72,5.005-13.561,7.119-20.464.678-2.215,1.311-3.389,3.8-3.768,8.422-1.284,16.8-2.859,25.194-4.323l.735-3.753c-.034-3.793.143-7.6-.151-11.376-.425-5.438-1.244-10.844-1.787-16.276-.211-2.109-1.214-2.668-3.248-2.7-8.766-.137-17.53-.447-25.448-.67-4.092-7.743-7.952-14.874-11.588-22.118a4.559,4.559,0,0,1,.181-3.889c4.4-6.4,8.92-12.721,13.628-18.9,2.187-2.867,1.694-4.66-4.488-7.433a33.591,33.591,0,0,1-14.755-13.246C455.467,181.166,453.979,182.5,452.209,184.171Zm2.629,112.99a65,65,0,1,1-40.7-82.417A65.07,65.07,0,0,1,454.837,297.161Z" transform="translate(-280.762 -164.672)" fill="#fab448"/>
      <path id="Path_11695" data-name="Path 11695" d="M354.106,273.849a60.375,60.375,0,1,0,76.556-37.805A60.442,60.442,0,0,0,354.106,273.849Zm97.679,28.116c-4.122,22.184-26.122,36.949-48.738,32.712-22.285-4.176-37.005-26.054-32.758-48.684,4.221-22.494,25.74-37.024,48.533-32.769C441.542,257.466,456.064,278.939,451.785,301.966Z" transform="translate(-298.071 -181.494)" fill="url(#linear-gradient-5)"/>
      <path id="Path_11696" data-name="Path 11696" d="M391.336,355.4a54.867,54.867,0,0,0,49.648-3.234l-.545-.918a53.607,53.607,0,0,1-76.666-67.28l-.982-.423A54.733,54.733,0,0,0,391.336,355.4Z" transform="translate(-299.9 -194.006)" fill="#05e2c7"/>
      <path id="Path_11697" data-name="Path 11697" d="M401.988,245.359a53.783,53.783,0,0,1,34.68-2.982l.261-1.036a54.847,54.847,0,0,0-35.371,3.042Z" transform="translate(-310.569 -183.19)" fill="#05e2c7"/>
      <path id="Path_11698" data-name="Path 11698" d="M493.848,322.353l.982.423a54.627,54.627,0,0,0-7.463-55.768l-.836.666A53.558,53.558,0,0,1,493.848,322.353Z" transform="translate(-331.537 -189.924)" fill="#05e2c7"/>
      <path id="Path_11699" data-name="Path 11699" d="M353.278,235.579a75.464,75.464,0,0,0-20.968,65.133l1.451-.233a73.725,73.725,0,0,1,124.815-64.031l1.038-1.04A75.277,75.277,0,0,0,353.278,235.579Z" transform="translate(-293.246 -176.722)" fill="#e73233"/>
      <path id="Path_11700" data-name="Path 11700" d="M524.463,309.377a73.974,73.974,0,0,1-13.723,45.862l1.194.858a75.438,75.438,0,0,0,14-46.777Z" transform="translate(-337.511 -200.365)" fill="#e73233"/>
    </g>
    <g id="Group_5034" data-name="Group 5034" transform="translate(640.749 133.914)">
      <g id="Group_5033" data-name="Group 5033" transform="translate(0)">
        <path id="Path_11701" data-name="Path 11701" d="M879.649,234.02c2.281-.7,12.7-4.635,11.946-7.21-1.367-4.649-16.141-22.707-16.141-22.707-9.3-22.434-21.7-22.16-21.7-22.16-3.978,3.119-3.375,12.663,3.615,23.643Z" transform="translate(-806.724 -151.834)" fill="#023444"/>
        <g id="Group_5032" data-name="Group 5032">
          <g id="Group_5029" data-name="Group 5029" transform="translate(92.671 170.701)">
            <path id="Path_11702" data-name="Path 11702" d="M915.463,368.612l-.309,10.266s2.83,2,5.55.435l-.459-9.24A48.91,48.91,0,0,0,915.463,368.612Z" transform="translate(-915.154 -368.592)" fill="#221f1f"/>
            <path id="Path_11703" data-name="Path 11703" d="M921.042,376.052s-.438,2.788,1.105,3.488,2.99.224,5.269-.518c2.949-.96,8.37,2.425,2.4,3.129-.883.1-5.786.575-8.386-.881-1.266-.708-1.487-2.9-1.267-3.567Z" transform="translate(-916.372 -370.433)" fill="#221f1f"/>
          </g>
          <g id="Group_5030" data-name="Group 5030" transform="translate(70.338 171.92)">
            <path id="Path_11704" data-name="Path 11704" d="M885.508,370.233l.274,10.267s2.938,1.833,5.566.119l-.982-9.2A48.907,48.907,0,0,0,885.508,370.233Z" transform="translate(-885.505 -370.211)" fill="#221f1f"/>
            <path id="Path_11705" data-name="Path 11705" d="M891.44,377.333s-.279,2.808,1.3,3.42,3,.054,5.231-.817c2.89-1.125,8.495,1.946,2.576,2.987-.875.154-5.745.9-8.424-.4-1.3-.635-1.649-2.81-1.467-3.489Z" transform="translate(-886.765 -371.968)" fill="#221f1f"/>
          </g>
          <path id="Path_11706" data-name="Path 11706" d="M844.374,179.981c12.06,9.15,13.445,39.007,16.878,60.606a21.315,21.315,0,0,1-.056,4.15c-.969,3.39-8.973,6.553-22.49,6.356-12.062-.176-22.2-3.167-24.694-7.129l-.023-.035c-.056-.09-.107-.182-.154-.273a6.316,6.316,0,0,1-.654-3.518c.647-8.3.6-16.238,2.444-23.162,6.019-31.842,11.342-35.785,11.809-35.692,2.007-1.1,6.335-3.068,9.9-2.511C841.414,179.444,843.925,179.64,844.374,179.981Z" transform="translate(-797.314 -151.027)" fill="#e4e4e1"/>
          <path id="Path_11707" data-name="Path 11707" d="M853.445,179.9a12.145,12.145,0,0,1,3.671,3.368c2.848,4,7.827,15.46,5.151,33.032-2.916,19.153,1.957,29.95,1.338,40.333-.12,2.011.382,9.2,5.175,6.707,2.836-1.478,6.359-3.414,6.864-6.707-.254-1.551-5.073-16.565-3.249-28.618,2.1-13.891-.578-28.723-5.953-37.772-2.615-4.4-7.993-8.133-9.352-9.046A27.757,27.757,0,0,0,853,179.093,1.811,1.811,0,0,1,853.445,179.9Z" transform="translate(-807.145 -151.131)" fill="#023444"/>
          <path id="Path_11708" data-name="Path 11708" d="M829.081,267.626c3.1-6.748,65.719-5.567,73.827-2.195,2.39,1,5.054,4.981,5.4,8.5a40.362,40.362,0,0,1,.515,11.651l-.763,8.551c0,.047-.01.093-.015.14-1.549,18.361-4.382,40.631-6.99,51.008-1.284.944-5.022.274-7.571-.338-1.5-.36-2.616-1.963-2.762-3.988a378.143,378.143,0,0,1-.221-55.358c-12.494,1-29.93,1.081-35.7,1.365-11.271.554-25.38-7.425-25.872-13.183Z" transform="translate(-801.205 -171.767)" fill="url(#linear-gradient-6)"/>
          <path id="Path_11709" data-name="Path 11709" d="M804.362,267.641c2.847-6.744,60.512-5.486,67.981-2.1,1.973.894,4.77,3.548,5.9,8.037a37.559,37.559,0,0,1,1.273,13.25l-.538,8.567c0,.047-.008.093-.011.141-1.067,18.395-3.313,40.732-5.647,51.174-1.259.978-5.013.406-7.577-.139-1.51-.321-2.667-1.894-2.866-3.914a366.643,366.643,0,0,1-1.705-55.592H817.2c-10.487,0-13.108-7.417-12.974-13.272Z" transform="translate(-795.109 -171.783)" fill="#ee3f3a"/>
          <path id="Path_11710" data-name="Path 11710" d="M828.5,232.109c1.564,5.245,7.179,25.859-.215,28.832-8.844,3.557-30.844-.343-27.358-9.666,2.357-6.3,1.009-15.652,1.009-15.652s-.944-17.743,1.338-31.965c1.824-11.375,12.517-21.936,26.276-24.936,1.463.444.612,1.265-.232,1.818a2.768,2.768,0,0,0-1.143,1.74c-1.269,5.2,2.281,9.956.642,16.358C825.5,211.58,826.011,219.5,828.5,232.109Z" transform="translate(-794.204 -151.039)" fill="#023444"/>
          <path id="Path_11711" data-name="Path 11711" d="M802.174,235.292a5.855,5.855,0,0,0,2.341,4.454c1.128.881,2.405,1.836,3.17,2.325,4.326,2.764,8.419,3.916,13.692,5.015,3.282.683,6.114.184,9.474.545-.847-4.018-1.732-9.2-2.188-12.129-7.114-4.651-15.412-4.833-15.959-5.836-1.885-3.456,4.819-15.295,7.569-21.066,7.389-15.508-1.067-19.855-3.726-22.1-6.918,4.845-11.727,11.792-12.9,19.076C801.884,216.6,802.038,229.808,802.174,235.292Z" transform="translate(-794.585 -152.959)" fill="#005679"/>
          <path id="Path_11712" data-name="Path 11712" d="M858.607,160.251a8.951,8.951,0,0,0,2.711-2.971,4.442,4.442,0,0,0,.053-3.246s2.412-1.446,1.047-3.284-9.578-1.7-9.578-1.7Z" transform="translate(-807.106 -143.717)" fill="#023149"/>
          <path id="Path_11713" data-name="Path 11713" d="M838.8,161.537s.657,12.258.778,15.781a3.289,3.289,0,0,0,1.642,2.941,9.631,9.631,0,0,0,5.169,1.254,7.959,7.959,0,0,0,5.441-1.349.681.681,0,0,0,.188-.856c-2.834-5.748-2-12.862-2-12.862l-11.254-4.708" transform="translate(-803.632 -146.799)" fill="#f3a7a8"/>
          <path id="Path_11714" data-name="Path 11714" d="M852.416,181.277a33.738,33.738,0,0,1-2.044-10.27s-9.91-1.444-9.843-1.211C840.765,174.148,843.255,178.426,852.416,181.277Z" transform="translate(-804.068 -148.83)" fill="#db9195"/>
          <path id="Path_11715" data-name="Path 11715" d="M854.707,152.837c1.7,13.782-2.105,18.817-5.4,19.141-8.973.881-12.679-5.667-13.656-11.61s3.656-12.125,8.09-12.854S853.971,146.86,854.707,152.837Z" transform="translate(-802.832 -143.26)" fill="#f3a7a8"/>
          <path id="Path_11716" data-name="Path 11716" d="M857.435,144.034c-1.165-1.519-2.755-3.586-7.443-.351-1.131.78-2.381-1.186-5.81-1.448-5.3-.406-5.452,2.607-8.7,3.291-2.212.466-2.124,2.279-4.51,5.292-1.539,1.944.7,3.824-.509,5.718-1.41,2.216,2.872,3.25,2.745,4.913-.3,3.974,2.977,5.844,3.9,7.457.276.479.679-1.525.817-2.06.618-2.395-.691-4.886-.658-4.988-1.05-.281-3.507-1.467-2.26-5.345,1.342-4.178,3.508.847,3.508.847a7.851,7.851,0,0,0,.631-3.356c-.42-2.8,2.55-3.533,6.322-2.676,1.632.371,2.355-1.657,3.659-1.214,2.15.73,4.28-.32,5.6.807.707.6,1.87-.536,2.7-.822C860.311,149.1,859.393,146.584,857.435,144.034Z" transform="translate(-801.514 -141.97)" fill="#023149"/>
          <path id="Path_11717" data-name="Path 11717" d="M855.893,167.551a5.66,5.66,0,0,0-2.6-1.5c-1.232-.136-4.514-1.094-6.43.684s-2.6,1.094-3.145,0-1.505-7.386-2.326-8.07-.273,5.2-.273,5.2a10.564,10.564,0,0,1,.753,2.462,11.975,11.975,0,0,1,.342,3.146,5.316,5.316,0,0,0,.753,3.557,7.115,7.115,0,0,0,5.4,1.846c3.009-.136,3.967-.136,5.2-1.71A8.881,8.881,0,0,0,855.893,167.551Z" transform="translate(-804.17 -146.075)" fill="#023149"/>
          <path id="Path_11718" data-name="Path 11718" d="M854.425,257.693s5.609-.41,6.976-.41,3.625-.2,4.377.069a23.356,23.356,0,0,1,4.924,2.941c.753.821.958,1.14.73,1.482a.68.68,0,0,1,.114.593.616.616,0,0,1-.752.3s.06.347-.53.347a1.475,1.475,0,0,1-1.146-.359s.085.136-.154.325c-.349.273-1.579,0-2.24-.2a23.337,23.337,0,0,0-2.611-.314c-.342-.068-1.18.433-2.365.5a15.262,15.262,0,0,1-5.636-1.026c-1.824-.775-5.791-.8-5.791-.8s-.251-2.987.114-3.42S852.351,257.579,854.425,257.693Z" transform="translate(-806.464 -170.407)" fill="#f3a7a8"/>
          <path id="Path_11719" data-name="Path 11719" d="M812.026,185.347c2.129-1.029,4.682-2.227,7.288-1.8,7.389,1.226,6.854,8.855,2.635,15.214-11.364,17.129-15.575,30.977-15.066,33.122.633,2.664-6.309,3.793-7.679,3.324s-6.769-1.909-6.781-4.8c-.022-5.661,1.726-15.091,3.016-19.887a47.317,47.317,0,0,1,9.632-18.569C806.958,189.709,809.125,186.75,812.026,185.347Z" transform="translate(-792.198 -152.209)" fill="#023444"/>
          <path id="Path_11720" data-name="Path 11720" d="M840.423,260.3a2.063,2.063,0,0,0,1.729-1.946c-.11-1.886-1.587-5.974-2.907-6.222-4.61-.862-24.222-5.92-36.961-5.887-.132,1.16-9.779-2.376-9.779-2.376-2.188,15.321,5.3,15.646,15.9,17.473C808.406,261.341,829.693,263.375,840.423,260.3Z" transform="translate(-792.124 -167.115)" fill="#023444"/>
          <g id="Group_5031" data-name="Group 5031" transform="translate(21.675 56.828)">
            <path id="Path_11721" data-name="Path 11721" d="M863.594,256.081h49.574a.537.537,0,0,0,.511-.371l12.235-37.592a.537.537,0,0,0-.511-.7H876.681a1.709,1.709,0,0,0-1.625,1.181l-11.972,36.781A.537.537,0,0,0,863.594,256.081Z" transform="translate(-831.302 -217.415)" fill="#ee3f3a"/>
            <rect id="Rectangle_821" data-name="Rectangle 821" width="48.423" height="1.778" rx="0.853" transform="translate(48.423 37.813) rotate(180)" fill="#ee3f3a"/>
            <path id="Path_11722" data-name="Path 11722" d="M864.147,256.081h48.937a2.433,2.433,0,0,0,2.313-1.68l11.526-35.415a1.2,1.2,0,0,0-1.14-1.571H878.432a2.342,2.342,0,0,0-2.227,1.617Z" transform="translate(-831.571 -217.415)" fill="#00b5a3"/>
            <path id="Rectangle_822" data-name="Rectangle 822" d="M0,0H47.388a1.035,1.035,0,0,1,1.035,1.035v.743a0,0,0,0,1,0,0H0a0,0,0,0,1,0,0V0A0,0,0,0,1,0,0Z" transform="translate(48.423 38.666) rotate(180)" fill="#00b5a3"/>
          </g>
        </g>
      </g>
      <path id="Path_11723" data-name="Path 11723" d="M899.182,241.947c0,1.813,2.144,3.283,4.788,3.283s4.787-1.47,4.787-3.283-2.143-3.283-4.787-3.283S899.182,240.134,899.182,241.947Z" transform="translate(-818.541 -165.83)" fill="#e4e4e1"/>
    </g>
    <g id="Group_5068" data-name="Group 5068" transform="translate(348.577 249.421)">
      <g id="Group_5035" data-name="Group 5035">
        <rect id="Rectangle_823" data-name="Rectangle 823" width="69.612" height="76.389" transform="translate(146.376 247.848)" fill="#00b3a1"/>
        <rect id="Rectangle_824" data-name="Rectangle 824" width="69.612" height="28.691" transform="translate(146.376 247.295)" fill="#999" opacity="0.48"/>
        <rect id="Rectangle_825" data-name="Rectangle 825" width="362.364" height="265.977" rx="29.156" fill="url(#linear-gradient-7)"/>
        <rect id="Rectangle_826" data-name="Rectangle 826" width="318.407" height="218.393" transform="translate(21.755 23.792)" fill="#fff"/>
        <path id="Path_11724" data-name="Path 11724" d="M711.034,721.792H513.95l1.457-4.218a39.624,39.624,0,0,1,37.452-26.686H672.125a39.622,39.622,0,0,1,37.451,26.686Z" transform="translate(-431.31 -392.928)" fill="url(#linear-gradient-8)"/>
        <g id="Component_6_8" data-name="Component 6  8" transform="translate(98.508 48.787)" clip-path="url(#clip-path)">
          <circle id="Ellipse_10" data-name="Ellipse 10" cx="83.368" cy="83.368" r="83.368" fill="rgba(0,155,219,0.32)"/>
          <ellipse id="Ellipse_11" data-name="Ellipse 11" cx="64.842" cy="64.842" rx="64.842" ry="64.842" transform="translate(18.526 18.526)" fill="rgba(0,155,219,0.94)"/>
          <path id="Polygon_1" data-name="Polygon 1" d="M26.863,0,53.726,44.463H0Z" transform="translate(108.379 56.505) rotate(90)" fill="#fff"/>
        </g>
      </g>
      <g id="Group_5067" data-name="Group 5067" transform="translate(17.471 324.595)">
        <path id="Path_11725" data-name="Path 11725" d="M753.662,783.985H427.431l27.538-57.736H723.594Z" transform="translate(-427.431 -726.249)" fill="#e5e5e2"/>
        <path id="Path_11726" data-name="Path 11726" d="M741.092,776.543H450.381L470.7,732.548H720.778Z" transform="translate(-433.094 -727.804)" fill="#bfbfbb"/>
        <g id="Group_5066" data-name="Group 5066" transform="translate(28.21 6.47)">
          <g id="Group_5065" data-name="Group 5065">
            <g id="Group_5036" data-name="Group 5036" transform="translate(65.35 30.624)">
              <path id="Path_11727" data-name="Path 11727" d="M688.522,782.827H551.641l2.036-7.333H686.508Z" transform="translate(-551.641 -775.495)" fill="#e5e5e2"/>
            </g>
            <g id="Group_5037" data-name="Group 5037" transform="translate(0 30.624)">
              <path id="Path_11728" data-name="Path 11728" d="M485.427,782.827H464.882l3.258-7.333h20.531Z" transform="translate(-464.882 -775.495)" fill="#e5e5e2"/>
            </g>
            <g id="Group_5038" data-name="Group 5038" transform="translate(4.434 20.703)">
              <path id="Path_11729" data-name="Path 11729" d="M518.279,769.657h-47.51l3.445-7.324,46.357-.008Z" transform="translate(-470.769 -762.324)" fill="#e5e5e2"/>
            </g>
            <g id="Group_5039" data-name="Group 5039" transform="translate(9.164 10.352)">
              <path id="Path_11730" data-name="Path 11730" d="M510.948,755.914h-33.9l3.579-7.32,32.534-.012Z" transform="translate(-477.048 -748.581)" fill="#e5e5e2"/>
            </g>
            <g id="Group_5040" data-name="Group 5040" transform="translate(223.98 10.352)">
              <path id="Path_11731" data-name="Path 11731" d="M799.141,755.914H764.45l-2.214-7.333h33.58Z" transform="translate(-762.237 -748.581)" fill="#e5e5e2"/>
            </g>
            <g id="Group_5041" data-name="Group 5041" transform="translate(54.307 10.352)">
              <path id="Path_11732" data-name="Path 11732" d="M557.012,755.914H536.981l2.029-7.333h19.518Z" transform="translate(-536.981 -748.581)" fill="#e5e5e2"/>
            </g>
            <g id="Group_5042" data-name="Group 5042" transform="translate(14.076)">
              <path id="Path_11733" data-name="Path 11733" d="M503.6,742.171H483.569l3.206-7.332h19.8Z" transform="translate(-483.569 -734.839)" fill="#e5e5e2"/>
            </g>
            <g id="Group_5043" data-name="Group 5043" transform="translate(43.008)">
              <path id="Path_11734" data-name="Path 11734" d="M542.01,742.171H521.979l2.766-7.332h19.416Z" transform="translate(-521.979 -734.839)" fill="#e5e5e2"/>
            </g>
            <g id="Group_5044" data-name="Group 5044" transform="translate(69.459)">
              <path id="Path_11735" data-name="Path 11735" d="M577.127,742.171H557.1l1.953-7.332h19.416Z" transform="translate(-557.096 -734.839)" fill="#e5e5e2"/>
            </g>
            <g id="Group_5045" data-name="Group 5045" transform="translate(96.425)">
              <path id="Path_11736" data-name="Path 11736" d="M612.926,742.171H592.9l1.125-7.332h19.416Z" transform="translate(-592.895 -734.839)" fill="#e5e5e2"/>
            </g>
            <g id="Group_5046" data-name="Group 5046" transform="translate(123.133)">
              <path id="Path_11737" data-name="Path 11737" d="M648.384,742.171H628.353l.3-7.332h19.416Z" transform="translate(-628.353 -734.839)" fill="#e5e5e2"/>
            </g>
            <g id="Group_5047" data-name="Group 5047" transform="translate(149.573)">
              <path id="Path_11738" data-name="Path 11738" d="M684.012,742.171H663.98l-.525-7.332h19.416Z" transform="translate(-663.455 -734.839)" fill="#e5e5e2"/>
            </g>
            <g id="Group_5048" data-name="Group 5048" transform="translate(175.212)">
              <path id="Path_11739" data-name="Path 11739" d="M718.862,742.171H698.831l-1.338-7.332h19.416Z" transform="translate(-697.493 -734.839)" fill="#e5e5e2"/>
            </g>
            <g id="Group_5049" data-name="Group 5049" transform="translate(201.348)">
              <path id="Path_11740" data-name="Path 11740" d="M754.39,742.171H734.358l-2.167-7.332h19.416Z" transform="translate(-732.192 -734.839)" fill="#e5e5e2"/>
            </g>
            <g id="Group_5050" data-name="Group 5050" transform="translate(233.229)">
              <path id="Path_11741" data-name="Path 11741" d="M797.436,742.248l-19.94-.077-2.979-7.332h19.416Z" transform="translate(-774.516 -734.839)" fill="#e5e5e2"/>
            </g>
            <g id="Group_5051" data-name="Group 5051" transform="translate(81.786 10.352)">
              <path id="Path_11742" data-name="Path 11742" d="M593.493,755.914H573.461l1.326-7.333h19.518Z" transform="translate(-573.461 -748.581)" fill="#e5e5e2"/>
            </g>
            <g id="Group_5052" data-name="Group 5052" transform="translate(109.779 10.352)">
              <path id="Path_11743" data-name="Path 11743" d="M630.655,755.914H610.624l.608-7.333h19.518Z" transform="translate(-610.624 -748.581)" fill="#e5e5e2"/>
            </g>
            <g id="Group_5053" data-name="Group 5053" transform="translate(137.162 10.352)">
              <path id="Path_11744" data-name="Path 11744" d="M667.1,755.914H647.074l-.1-7.333H666.5Z" transform="translate(-646.978 -748.581)" fill="#e5e5e2"/>
            </g>
            <g id="Group_5054" data-name="Group 5054" transform="translate(164.188 10.352)">
              <path id="Path_11745" data-name="Path 11745" d="M703.694,755.914H683.663l-.806-7.333h19.518Z" transform="translate(-682.857 -748.581)" fill="#e5e5e2"/>
            </g>
            <g id="Group_5055" data-name="Group 5055" transform="translate(190.963 10.352)">
              <path id="Path_11746" data-name="Path 11746" d="M739.944,755.914H719.913l-1.51-7.333h19.518Z" transform="translate(-718.404 -748.581)" fill="#e5e5e2"/>
            </g>
            <g id="Group_5056" data-name="Group 5056" transform="translate(66.121 20.703)">
              <path id="Path_11747" data-name="Path 11747" d="M575.007,769.657H552.664l2.026-7.333h21.681Z" transform="translate(-552.664 -762.324)" fill="#e5e5e2"/>
            </g>
            <g id="Group_5057" data-name="Group 5057" transform="translate(95.13 20.703)">
              <path id="Path_11748" data-name="Path 11748" d="M612.235,769.657H591.176l1.167-7.333h20.435Z" transform="translate(-591.176 -762.324)" fill="#e5e5e2"/>
            </g>
            <g id="Group_5058" data-name="Group 5058" transform="translate(215.94 20.703)">
              <path id="Path_11749" data-name="Path 11749" d="M801.366,769.657h-47.51l-2.292-7.333h46.484Z" transform="translate(-751.564 -762.324)" fill="#e5e5e2"/>
            </g>
            <g id="Group_5059" data-name="Group 5059" transform="translate(150.386 20.703)">
              <path id="Path_11750" data-name="Path 11750" d="M687.359,769.657H665.017l-.483-7.333h21.681Z" transform="translate(-664.534 -762.324)" fill="#e5e5e2"/>
            </g>
            <g id="Group_5060" data-name="Group 5060" transform="translate(122.619 20.703)">
              <path id="Path_11751" data-name="Path 11751" d="M650.014,769.657H627.671l.353-7.333h21.681Z" transform="translate(-627.671 -762.324)" fill="#e5e5e2"/>
            </g>
            <g id="Group_5061" data-name="Group 5061" transform="translate(178.536 20.703)">
              <path id="Path_11752" data-name="Path 11752" d="M724.307,769.657H703.248l-1.341-7.333h20.435Z" transform="translate(-701.907 -762.324)" fill="#e5e5e2"/>
            </g>
            <g id="Group_5062" data-name="Group 5062" transform="translate(35.303 30.624)">
              <path id="Path_11753" data-name="Path 11753" d="M532.3,782.827H511.751l2.925-7.333h19.937Z" transform="translate(-511.751 -775.495)" fill="#e5e5e2"/>
            </g>
            <g id="Group_5063" data-name="Group 5063" transform="translate(210.186 30.624)">
              <path id="Path_11754" data-name="Path 11754" d="M766.787,782.827H746.242l-2.317-7.333h19.937Z" transform="translate(-743.925 -775.495)" fill="#e5e5e2"/>
            </g>
            <g id="Group_5064" data-name="Group 5064" transform="translate(246.832 30.624)">
              <path id="Path_11755" data-name="Path 11755" d="M816.031,782.827H795.82l-3.245-7.333h19.937Z" transform="translate(-792.576 -775.495)" fill="#e5e5e2"/>
            </g>
          </g>
        </g>
        <path id="Rectangle_827" data-name="Rectangle 827" d="M0,0H326.231a0,0,0,0,1,0,0V.5a6.619,6.619,0,0,1-6.619,6.619H7.117A7.117,7.117,0,0,1,0,0V0A0,0,0,0,1,0,0Z" transform="translate(0.021 57.52)" fill="url(#linear-gradient-9)"/>
      </g>
    </g>
    <g id="Group_5075" data-name="Group 5075" transform="translate(381.104 580.151)">
      <g id="Group_5074" data-name="Group 5074" transform="translate(0)">
        <ellipse id="Ellipse_98" data-name="Ellipse 98" cx="20.743" cy="11.13" rx="20.743" ry="11.13" transform="translate(29.468 3.678)" fill="#60c0fd" opacity="0.5"/>
        <g id="Group_5073" data-name="Group 5073">
          <path id="Path_11767" data-name="Path 11767" d="M506.1,767.471c-13.176,0-23.5-6.327-23.5-14.406s10.322-14.405,23.5-14.405,23.5,6.328,23.5,14.405S519.274,767.471,506.1,767.471Zm0-25.133c-10.743,0-19.819,4.913-19.819,10.727s9.076,10.728,19.819,10.728,19.82-4.913,19.82-10.728S516.841,742.338,506.1,742.338Z" transform="translate(-456.101 -735.446)" fill="#005679"/>
          <path id="Path_11768" data-name="Path 11768" d="M506.1,763.2c-13.176,0-23.5-6.328-23.5-14.406s10.322-14.405,23.5-14.405,23.5,6.328,23.5,14.405S519.274,763.2,506.1,763.2Zm0-25.133c-10.743,0-19.819,4.913-19.819,10.727s9.076,10.728,19.819,10.728,19.82-4.912,19.82-10.728S516.841,738.071,506.1,738.071Z" transform="translate(-456.101 -734.393)" fill="#00abc9"/>
          <g id="Group_5072" data-name="Group 5072" transform="translate(0 24.017)">
            <path id="Path_11769" data-name="Path 11769" d="M476.623,770.941l8.215-4.531s.924-.709,2.708,1.153a1.135,1.135,0,0,1-.35,1.975l-8.847,4.747Z" transform="translate(-454.626 -766.278)" fill="#23233b"/>
            <path id="Path_11770" data-name="Path 11770" d="M476.63,776.148c1.311-1.578.5-4.416-1.818-6.339s-4.5-1.922-6.565-.623l-19.334,11.59,7.609,7.7Z" transform="translate(-447.788 -766.772)" fill="#00abc9"/>
            <path id="Path_11771" data-name="Path 11771" d="M454.61,785.769c2.315,1.922,3.129,4.76,1.818,6.338s-4.25,1.3-6.565-.623-3.128-4.76-1.818-6.339S452.295,783.846,454.61,785.769Z" transform="translate(-447.42 -770.681)" fill="#005679"/>
          </g>
        </g>
      </g>
      <path id="Path_11772" data-name="Path 11772" d="M508.127,748.358c0,1-2.07,1.816-4.623,1.816s-4.623-.813-4.623-1.816,2.07-1.815,4.623-1.815S508.127,747.356,508.127,748.358Z" transform="translate(-460.118 -737.391)" fill="#fff"/>
      <path id="Path_11773" data-name="Path 11773" d="M498.556,752.156c0,.578-1.195,1.048-2.669,1.048s-2.669-.469-2.669-1.048,1.195-1.048,2.669-1.048S498.556,751.576,498.556,752.156Z" transform="translate(-458.721 -738.517)" fill="#fff"/>
    </g>
    <g id="Group_5079" data-name="Group 5079" transform="translate(566.386 579.528)">
      <g id="Group_5076" data-name="Group 5076" transform="translate(42.74 18.544)">
        <path id="Path_11774" data-name="Path 11774" d="M750.141,774.415l4.02.964a7.032,7.032,0,0,0-.11,1.241,7.472,7.472,0,0,0,.9,3.49l-2.122.7v2.926a20.742,20.742,0,0,0,6.4,4.474l3.757-1.69a29.238,29.238,0,0,0,5.084,1.525,35.025,35.025,0,0,0,5.029.655l1.337,2.8q.441.009.884.009a42.451,42.451,0,0,0,9.018-.947v-2.926l-.015-.026a26.862,26.862,0,0,0,4.514-1.635,19.147,19.147,0,0,0,3.664-2.237l4.424.881a11.921,11.921,0,0,0,3.557-5.4v-2.926l-3.971.653c.005-.109.016-.216.016-.325a7.971,7.971,0,0,0-1.793-4.891l3.02-1.952v-2.926l-4.77-.677c-.53-.294-1.078-.577-1.651-.844l-3.467,1.5a28.908,28.908,0,0,0-5.3-1.625,35.067,35.067,0,0,0-5.149-.672l-1.092-2.456q-.5-.011-1.007-.011a42.514,42.514,0,0,0-8.906.922l.273,2.523a26.926,26.926,0,0,0-5.2,1.875,18.5,18.5,0,0,0-3.749,2.388l-4.119-.733a14.027,14.027,0,0,0-2.028,2.337l-1.454.109Zm14.664,2.4c0-3.366,4.816-6.1,10.758-6.1s10.758,2.729,10.758,6.1-4.816,6.1-10.758,6.1S764.805,780.185,764.805,776.819Z" transform="translate(-750.141 -759.143)" fill="#005679"/>
        <path id="Path_11775" data-name="Path 11775" d="M756.027,777.859l-3.2,1.994a20.74,20.74,0,0,0,6.4,4.474l3.757-1.689a29.227,29.227,0,0,0,5.084,1.525,35.008,35.008,0,0,0,5.029.655l1.337,2.8q.441.009.884.009a42.451,42.451,0,0,0,9.018-.947l-.3-2.872a27.047,27.047,0,0,0,4.8-1.715,19.153,19.153,0,0,0,3.664-2.237l4.424.881a11.925,11.925,0,0,0,3.557-5.4l-4.089-1.227a7.122,7.122,0,0,0,.133-1.371,7.971,7.971,0,0,0-1.793-4.892l3.02-1.952a20.9,20.9,0,0,0-6.421-4.446l-3.467,1.5a28.908,28.908,0,0,0-5.3-1.625,35.084,35.084,0,0,0-5.149-.672l-1.092-2.456q-.5-.011-1.007-.011a42.465,42.465,0,0,0-8.906.922l.273,2.523a26.975,26.975,0,0,0-5.2,1.874,18.535,18.535,0,0,0-3.749,2.389l-4.119-.733a11.823,11.823,0,0,0-3.482,5.371l4.02.964a7.032,7.032,0,0,0-.11,1.241A8.079,8.079,0,0,0,756.027,777.859Zm8.778-4.924c0-3.366,4.816-6.1,10.758-6.1s10.758,2.729,10.758,6.1-4.816,6.1-10.758,6.1S764.805,776.3,764.805,772.935Z" transform="translate(-750.141 -758.185)" fill="#00abc9"/>
      </g>
      <g id="Group_5077" data-name="Group 5077" transform="translate(0 20.927)">
        <path id="Path_11776" data-name="Path 11776" d="M693.4,774.26l3.2.767a5.692,5.692,0,0,0-.087.988,5.935,5.935,0,0,0,.713,2.775l-1.688.557v2.328a16.5,16.5,0,0,0,5.094,3.559l2.988-1.344a23.237,23.237,0,0,0,4.043,1.213,27.874,27.874,0,0,0,4,.521l1.064,2.226q.35.007.7.007a33.763,33.763,0,0,0,7.173-.752v-2.328l-.011-.021a21.346,21.346,0,0,0,3.59-1.3,15.245,15.245,0,0,0,2.915-1.779l3.519.7a9.487,9.487,0,0,0,2.829-4.3v-2.328l-3.158.52c0-.087.013-.172.013-.258a6.341,6.341,0,0,0-1.427-3.892l2.4-1.552v-2.327l-3.795-.539c-.422-.234-.857-.459-1.313-.671l-2.758,1.2a23.01,23.01,0,0,0-4.214-1.293,27.946,27.946,0,0,0-4.1-.534l-.869-1.954c-.265-.006-.533-.009-.8-.009a33.783,33.783,0,0,0-7.084.734l.218,2.007a21.388,21.388,0,0,0-4.132,1.491,14.736,14.736,0,0,0-2.982,1.9l-3.277-.582a11.185,11.185,0,0,0-1.613,1.858l-1.157.087Zm11.665,1.913c0-2.678,3.831-4.849,8.558-4.849s8.558,2.171,8.558,4.849-3.832,4.848-8.558,4.848S705.064,778.849,705.064,776.172Z" transform="translate(-693.399 -762.111)" fill="#bf7113"/>
        <path id="Path_11777" data-name="Path 11777" d="M698.08,777l-2.546,1.586a16.5,16.5,0,0,0,5.094,3.56l2.988-1.344a23.174,23.174,0,0,0,4.043,1.213,27.874,27.874,0,0,0,4,.522l1.064,2.225c.234,0,.468.007.7.007a33.762,33.762,0,0,0,7.173-.753l-.237-2.285a21.513,21.513,0,0,0,3.815-1.364,15.234,15.234,0,0,0,2.915-1.78l3.519.7a9.487,9.487,0,0,0,2.829-4.295l-3.252-.975a5.614,5.614,0,0,0,.107-1.091,6.339,6.339,0,0,0-1.427-3.891l2.4-1.552a16.617,16.617,0,0,0-5.108-3.538l-2.758,1.2a22.953,22.953,0,0,0-4.214-1.293,27.846,27.846,0,0,0-4.1-.535l-.869-1.954c-.265-.006-.533-.009-.8-.009a33.791,33.791,0,0,0-7.084.734l.218,2.007a21.4,21.4,0,0,0-4.132,1.491,14.715,14.715,0,0,0-2.982,1.9l-3.277-.583a9.41,9.41,0,0,0-2.77,4.272l3.2.767a5.694,5.694,0,0,0-.087.988A6.424,6.424,0,0,0,698.08,777Zm6.983-3.916c0-2.678,3.831-4.849,8.558-4.849s8.558,2.171,8.558,4.849-3.832,4.849-8.558,4.849S705.064,775.76,705.064,773.082Z" transform="translate(-693.399 -761.349)" fill="#fab448"/>
      </g>
      <g id="Group_5078" data-name="Group 5078" transform="translate(23.976)">
        <path id="Path_11778" data-name="Path 11778" d="M725.23,745.456l2.945.707a5.244,5.244,0,0,0-.08.91,5.473,5.473,0,0,0,.657,2.556l-1.554.514v2.143a15.19,15.19,0,0,0,4.69,3.278l2.752-1.238a21.32,21.32,0,0,0,3.724,1.117,25.653,25.653,0,0,0,3.684.481l.979,2.05c.216,0,.431.007.648.007a31.081,31.081,0,0,0,6.606-.694v-2.143l-.011-.02a19.673,19.673,0,0,0,3.306-1.2,14.034,14.034,0,0,0,2.685-1.639l3.241.645a8.738,8.738,0,0,0,2.606-3.955v-2.144l-2.909.478c0-.079.011-.158.011-.238a5.843,5.843,0,0,0-1.314-3.584l2.213-1.43v-2.144l-3.495-.5c-.388-.215-.789-.423-1.209-.618l-2.54,1.1a21.236,21.236,0,0,0-3.881-1.191,25.6,25.6,0,0,0-3.771-.492l-.8-1.8c-.245-.006-.49-.008-.737-.008a31.179,31.179,0,0,0-6.525.675l.2,1.848a19.712,19.712,0,0,0-3.806,1.373,13.535,13.535,0,0,0-2.746,1.75l-3.018-.537a10.334,10.334,0,0,0-1.485,1.712l-1.066.08Zm10.743,1.761c0-2.465,3.529-4.465,7.881-4.465s7.881,2,7.881,4.465-3.529,4.465-7.881,4.465S735.973,749.683,735.973,747.217Z" transform="translate(-725.23 -734.268)" fill="#ee3f3a"/>
        <path id="Path_11779" data-name="Path 11779" d="M729.542,747.978,727.2,749.44a15.193,15.193,0,0,0,4.69,3.278l2.752-1.238a21.393,21.393,0,0,0,3.724,1.117,25.653,25.653,0,0,0,3.684.481l.979,2.05c.216,0,.431.006.648.006a31.1,31.1,0,0,0,6.606-.693l-.218-2.1a19.783,19.783,0,0,0,3.513-1.257,14,14,0,0,0,2.685-1.639l3.241.646a8.741,8.741,0,0,0,2.606-3.955l-3-.9a5.193,5.193,0,0,0,.1-1,5.841,5.841,0,0,0-1.314-3.583l2.213-1.43a15.315,15.315,0,0,0-4.7-3.258l-2.54,1.1a21.113,21.113,0,0,0-3.881-1.191,25.634,25.634,0,0,0-3.771-.492l-.8-1.8q-.367-.008-.737-.008a31.121,31.121,0,0,0-6.525.676l.2,1.848a19.712,19.712,0,0,0-3.806,1.373,13.529,13.529,0,0,0-2.746,1.75l-3.018-.537a8.67,8.67,0,0,0-2.551,3.935l2.945.707a5.24,5.24,0,0,0-.08.909A5.917,5.917,0,0,0,729.542,747.978Zm6.431-3.606c0-2.466,3.529-4.465,7.881-4.465s7.881,2,7.881,4.465-3.529,4.465-7.881,4.465S735.973,746.838,735.973,744.372Z" transform="translate(-725.23 -733.566)" fill="#f48154"/>
      </g>
    </g>
  </g>
</svg>
