<svg xmlns="http://www.w3.org/2000/svg" xmlns:xlink="http://www.w3.org/1999/xlink" width="555" height="597.219" viewBox="0 0 555 597.219">
    <defs>
        <style>
            .cls-1{fill:none}.cls-2{fill:#ffd22e}.cls-3{fill:#efdba5;opacity:.5}.cls-4{fill:#fe912a}.cls-5{fill:#60c0fd}.cls-6{fill:#4eb2ea}.cls-7{fill:#8db0da}.cls-8{fill:#52517b}.cls-9{fill:#45446c}.cls-10{clip-path:url(#clip-path)}.cls-11{fill:#bc9371}.cls-12{fill:#ceab8b}.cls-13{fill:#ffc2b0}.cls-14{fill:#492817}.cls-15{fill:#2c2b57}.cls-16{fill:#f8c22e}.cls-17{fill:#87c0f4}.cls-18{fill:#915151}.cls-19{fill:#a7c4e4}.cls-20{fill:#d1e7f4}.cls-21{fill:url(#linear-gradient)}.cls-22{fill:url(#linear-gradient-2)}.cls-23{fill:url(#linear-gradient-3)}
        </style>
        <clipPath id="clip-path">
            <path id="Rectangle_710" d="M0 0h199.152v164.447H0z" class="cls-1" data-name="Rectangle 710"/>
        </clipPath>
        <linearGradient id="linear-gradient" x1="-1.073" x2="-1.073" y1="1" gradientUnits="objectBoundingBox">
            <stop offset="0" stop-color="#85d0ee"/>
            <stop offset=".19" stop-color="#9bd8f1"/>
            <stop offset=".532" stop-color="#bde5f5"/>
            <stop offset=".814" stop-color="#d2eef8"/>
            <stop offset="1" stop-color="#daf1fa"/>
        </linearGradient>
        <linearGradient id="linear-gradient-2" x1="-.943" x2=".057" y1=".5" y2=".5" xlink:href="#linear-gradient"/>
        <linearGradient id="linear-gradient-3" x1="1.943" x2=".943" y1=".5" y2=".5" xlink:href="#linear-gradient"/>
    </defs>
    <g id="vision" transform="translate(-246.631 -98.926)">
        <g id="Group_3893" data-name="Group 3893" transform="translate(309.693 98.926)">
            <g id="Group_3886" data-name="Group 3886">
                <path id="Path_4193" d="M462.074 99v-.071c.318.008.634.026.953.036.318-.01.634-.028.953-.036V99c71.3 2.78 130.232 64.16 128.887 117.713-2.138 85.083-67.916 147.41-69.647 158.464-.271 1.727-6.036 3.471-6.045 5.218l-53.2.371v.012l-.953-.007-.953.007v-.012l-53.2-.371c-.009-1.747-5.774-3.491-6.044-5.218-1.732-11.055-67.509-73.382-69.647-158.464C331.841 163.157 390.77 101.777 462.074 99z" class="cls-2" data-name="Path 4193" transform="translate(-333.164 -98.926)"/>
                <path id="Path_4194" d="M445.162 125.312q-1.28.8-2.521 1.675a84.859 84.859 0 0 0-17 15.483c-9.943 12.16-16.891 25.837-22.062 40.639a210.172 210.172 0 0 0-9.269 39.734c-2.684 18.856-1.291 37.855 2.418 56.489 6.746 33.9 21.837 66.08 39.213 95.836l-19.488-.136c-.009-1.564-5.171-3.126-5.414-4.673-1.551-9.9-60.462-65.722-62.377-141.924-1.088-43.126 41.479-91.912 96.5-103.123z" class="cls-3" data-name="Path 4194" transform="translate(-337.361 -106.083)"/>
                <g id="Group_3885" data-name="Group 3885" transform="translate(61.2 129.276)">
                    <g id="Group_3884" data-name="Group 3884">
                        <path id="Path_4195" d="M423.837 330.229c8.49 6.429 19.134 6.259 29.14 3.507a163.948 163.948 0 0 1 2.889 21.281c.365 4.036.712 7.849 1.211 11.2l9.11 61.166 5.844-.748-9.109-61.165c-.479-3.212-.818-6.954-1.177-10.915-.652-7.175-1.377-15.165-3.156-22.639a105.559 105.559 0 0 0 21.479-11.289l-.006-.006a58.615 58.615 0 0 0 5.619-3.546c.434.31.867.609 1.293.905 6.91 4.794 16.171 10.565 26.73 13.809q-.2 1.111-.391 2.2c-1.28 7.468-2.316 15.076-3.316 22.431l-9.531 70.032 5.854.673 9.531-70.032c.995-7.312 2.025-14.871 3.29-22.253.091-.533.184-1.063.278-1.593a49.9 49.9 0 0 0 12.5 1.018c6.336-.3 11.533-1.9 15.453-4.771 5.01-3.669 7.513-9.592 6.23-14.738-1.7-6.8-9.989-11.535-18.134-10.361-6.608.958-12.822 5.391-16.622 11.869a38.9 38.9 0 0 0-3.984 10.12c-9.506-3.048-17.981-8.358-24.35-12.772-.083-.06-.166-.117-.251-.176a58.3 58.3 0 0 0 8.141-8.747c1.919-2.548 4.528-6.458 5.027-10.99.778-7.066-4.1-14.179-11.34-16.541s-15.87.348-20.066 6.3c-3.935 5.58-3.833 13.611.261 20.461a37.538 37.538 0 0 0 8.685 9.6 54.39 54.39 0 0 1-4.65 2.825l.019.031a100.986 100.986 0 0 1-19.261 10.157c-2.1-6.374-5.23-12.073-10.088-16.145a20.181 20.181 0 0 0-19.085-3.844c-5.609 1.765-9.662 5.748-10.577 10.4-.527 2.725-.392 8.057 6.51 13.286zm96.7-2.336a33.791 33.791 0 0 1 3.5-9.026c2.925-4.988 7.541-8.381 12.342-9.072a10.736 10.736 0 0 1 1.547-.117c4.6-.029 9.024 2.678 9.93 6.313.783 3.135-.883 6.847-4.142 9.233-2.935 2.15-7 3.362-12.083 3.6a44.406 44.406 0 0 1-11.09-.931zm-43.088-26.606c-3.051-5.106-3.242-10.931-.484-14.841a12 12 0 0 1 9.593-4.671 11.269 11.269 0 0 1 3.568.539c4.67 1.522 7.938 6.287 7.436 10.847-.359 3.267-2.454 6.37-4 8.419a52.59 52.59 0 0 1-7.97 8.433 33.444 33.444 0 0 1-8.139-8.726zm-54.316 16.64c.523-2.657 3.141-5.093 6.667-6.2a13.962 13.962 0 0 1 13.226 2.723c4.016 3.363 6.67 8.306 8.494 13.945-8.451 2.366-17.284 2.663-23.946-2.385-3.429-2.61-4.966-5.399-4.437-8.083z" class="cls-4" data-name="Path 4195" transform="translate(-417.142 -276.318)"/>
                        <path id="Path_4196" d="M428.97 478.726l120.085-.757a120.09 120.09 0 0 0-.938 6.487c-2.15 18.221-1.176 39.289-9.667 53.241-8.168 13.42-23.222 36.73-39.4 36.832l-18.778.119c-15.891.1-38.489-27.428-43.458-43.216a42.26 42.26 0 0 1-1.355-6.856c-1.825-12.908-1.991-30.031-6.489-45.85z" class="cls-5" data-name="Path 4196" transform="translate(-420.35 -331.014)"/>
                        <path id="Path_4197" d="M553 594.519c-.649-.243-1.3-.483-1.954-.711.555.193.979.342 1.3.455.272.1.515.191.666.244z" class="cls-6" data-name="Path 4197" transform="translate(-453.461 -362.434)"/>
                        <path id="Path_4198" d="M465.785 478.689a9.89 9.89 0 0 0-.182.8 100.488 100.488 0 0 0-1.229 22.9c.326 6.822.537 13.7 1.129 20.5 1.2 13.838 4.553 27.757 12.138 39.58a72.952 72.952 0 0 0 9.91 12.325l-7.285.046c-15.891.1-38.489-27.428-43.458-43.216a42.26 42.26 0 0 1-1.355-6.856c-1.82-12.907-1.987-30.03-6.485-45.849z" class="cls-6" data-name="Path 4198" transform="translate(-420.35 -331.209)"/>
                    </g>
                </g>
            </g>
            <rect id="Rectangle_707" width="186.773" height="11.223" class="cls-7" data-name="Rectangle 707" rx="5.612" transform="rotate(180 111.55 121.028)"/>
            <path id="Path_4199" d="M438.609 868.966L458.978 874a111.263 111.263 0 0 0 56.226-.712l15.777-4.322 21.114-102.3H417.5z" class="cls-5" data-name="Path 4199" transform="translate(-356.038 -280.045)"/>
            <path id="Path_4200" d="M445.3 813.088c16.516 23.661 36.183 46.253 59.335 62.553A111.2 111.2 0 0 1 458.978 874l-20.37-5.034L417.5 766.668h1.331c5.517 17.057 16.694 32.421 26.469 46.42z" class="cls-6" data-name="Path 4200" transform="translate(-356.038 -280.045)"/>
            <rect id="Rectangle_708" width="107.083" height="11.441" class="cls-8" data-name="Rectangle 708" rx="5.72" transform="rotate(180 90.745 293.706)"/>
            <path id="Path_4201" d="M451.984 784.7c17.562 0 30.686-8.835 33.729-11.077 11.584 8.245 22.7 11.022 32.406 11.022 19.835 0 33.809-11.581 34.017-11.758a.786.786 0 0 0 .015-1.223 1.11 1.11 0 0 0-1.411-.013 54.944 54.944 0 0 1-19.329 9.552c-15.594 4.209-30.759 1.052-45.074-9.38a1.114 1.114 0 0 0-1.329.034 56.71 56.71 0 0 1-19.706 9.451c-15.845 4.14-31.138.95-45.458-9.485a1.1 1.1 0 0 0-1.406.1.788.788 0 0 0 .122 1.218c11.889 8.67 23.382 11.559 33.424 11.559z" class="cls-9" data-name="Path 4201" transform="translate(-356.23 -281.33)"/>
            <path id="Path_4202" d="M600.734 671.5L625.3 422.47l-1.969-.261-24.566 249.027z" class="cls-7" data-name="Path 4202" transform="translate(-405.206 -186.613)"/>
            <path id="Path_4203" d="M556.087 671.888l13.282-247.876-1.985-.143L554.1 671.745z" class="cls-7" data-name="Path 4203" transform="translate(-393.091 -187.064)"/>
            <path id="Path_4204" d="M411.015 671.5l1.969-.261-24.572-249.03-1.969.261z" class="cls-7" data-name="Path 4204" transform="translate(-347.616 -186.613)"/>
            <path id="Path_4205" d="M459.856 671.888l1.985-.143-13.281-247.876-1.985.143z" class="cls-7" data-name="Path 4205" transform="translate(-363.925 -187.064)"/>
            <path id="Rectangle_709" d="M0 0h1.992v247.733H0z" class="cls-7" data-name="Rectangle 709" transform="translate(129.131 236.445)"/>
            <g id="Group_3892" data-name="Group 3892" transform="translate(64.102 316.267)">
                <g id="Group_3891" class="cls-10" data-name="Group 3891">
                    <g id="Group_3890" data-name="Group 3890" transform="translate(28.387 32.582)">
                        <g id="Group_3889" data-name="Group 3889">
                            <path id="Path_4206" d="M478.2 896.362a12.768 12.768 0 0 1-6.452-4.486c2.27-4.4 4.371-8.149 5.379-9.646q2.117-3.146 4.165-6.337 1.022-1.6 2.024-3.208c.482-.775 1.747-2.153 1.863-3.046 5.29-8.782 10.4-17.99 13.471-27.818 1.248-4 2.319-8.421 1.756-12.638-2.268-18.265-3.016-42.391 2.814-67.482l29.236 6.551c-1.313 7.365-7.714 63.106-14.811 75.181-5.781 9.837-11.294 19.187-18.6 27.88q-6.962 8.279-14.063 16.443a109.528 109.528 0 0 0-6.782 8.606z" class="cls-11" data-name="Path 4206" transform="translate(-463.241 -627.547)"/>
                            <path id="Path_4207" d="M544.939 908.357c-.2-.038-.407-.082-.611-.116a8.306 8.306 0 0 1-2.984-.827 10.07 10.07 0 0 1-.852-.565c4.633-17.428 13.747-57.759 8.872-73.279-2.834-9.025-18.968-30.8-19.377-70.782l34.478 7.343c-3.869 30.857 11.4 61.053 8.7 74.458-2.187 10.856-16.979 46.786-24.091 63.733-1.406.052-2.78.093-4.135.035z" class="cls-12" data-name="Path 4207" transform="translate(-479.039 -627.841)"/>
                            <path id="Path_4208" d="M618.309 622.321c-1.678.088-2.295.858-4.05 1.3.471 2 .08 6.931-.219 10.294-.2 2.286-.453 4.571-.815 6.838-.5 3.125-1.243 8.187-3.245 10.756-2.175 2.79-7.114 3.611-10.393 4.557-3.911 1.129-7.869 2.105-11.834 3.034q-5.14 1.2-10.31 2.282c-.923.193-3.529.234-4.257.871 0 0-5.016 4.373-2.2 8.615s11.88 2.289 11.88 2.289a127.257 127.257 0 0 0 13.062-2.664c10.923-2.767 22.044-5.732 24.44-18.007a58.355 58.355 0 0 0 .751-15.418c-.069-.941-2.68-14.754-2.81-14.747z" class="cls-13" data-name="Path 4208" transform="translate(-489.927 -589.741)"/>
                            <path id="Path_4209" d="M585.44 626.8c-.182-.966-.348-1.572-.479-1.565a28.257 28.257 0 0 0-5.27.824c1.211 3.249.549 6.818.251 10.182-.2 2.286-.453 4.571-.815 6.837-.5 3.125-1.243 8.188-3.245 10.757-2.175 2.789-7.114 3.61-10.393 4.557-3.911 1.128-7.869 2.105-11.834 3.034q-5.14 1.2-10.31 2.282c-.923.193-3.529.235-4.257.87 0 0-5.015 4.373-2.2 8.615s11.88 2.289 11.88 2.289a126.887 126.887 0 0 0 13.062-2.664c10.923-2.766 22.045-5.732 24.44-18.006a58.392 58.392 0 0 0 .752-15.419c-.069-.942-.922-9.11-1.582-12.593z" class="cls-13" data-name="Path 4209" transform="translate(-480.678 -590.531)"/>
                            <path id="Path_4210" d="M475.039 944.819a90.275 90.275 0 0 0-6.729 11.119s7.084 8.366 7.344 10.632-1.248 2.441-6.038.7-9.539-6.64-9.539-6.64c.317-3.459 4.633-12.777 8.476-20.234a24.778 24.778 0 0 0 6.486 4.423z" class="cls-13" data-name="Path 4210" transform="translate(-460.077 -676.015)"/>
                            <g id="Group_3887" data-name="Group 3887" transform="translate(56.789 279.007)">
                                <path id="Path_4211" d="M542.666 960.467a26.879 26.879 0 0 0 8.624 1.369c-2.333 5.56-3.98 9.073-3.98 9.073l-1.264 2.543a85.527 85.527 0 0 1 15.41 4.991c7.693 3.408 13.166 7.509-3.01 4.695s-20.827-3.928-20.418-6.84a52.654 52.654 0 0 1 2.473-8.278c.413-1.22 1.033-3.902 2.165-7.553z" class="cls-13" data-name="Path 4211" transform="translate(-538.003 -960.467)"/>
                                <path id="Path_4212" d="M540.734 969.881a23.628 23.628 0 0 0 7.594 1.346c-.6 1.422-2.283 4.778-2.283 4.778A85.527 85.527 0 0 1 561.456 981c7.693 3.408 13.166 7.509-3.01 4.695s-20.827-3.928-20.418-6.84a52.651 52.651 0 0 1 2.473-8.278c.064-.195.145-.435.233-.696z" class="cls-14" data-name="Path 4212" transform="translate(-538.003 -963.02)"/>
                            </g>
                            <path id="Path_4213" d="M471.044 953.764a89.527 89.527 0 0 0-2.734 4.939s7.084 8.365 7.344 10.632-1.248 2.441-6.038.7-9.539-6.641-9.539-6.641c.216-2.36 2.294-7.446 4.812-12.806a22.968 22.968 0 0 0 6.155 3.176z" class="cls-14" data-name="Path 4213" transform="translate(-460.077 -678.78)"/>
                            <path id="Path_4214" d="M554.556 639.859c.017-.26.039-.523.064-.783a12.193 12.193 0 0 1-1.181-12.906c2.2-4.217 11.057-10.3 15.4-6.323 4.547 4.163 5.063 14.22 3.251 19.916a7.377 7.377 0 0 1-1.487 2.78 5.98 5.98 0 0 1-3.029 1.709c.017 2.487-.265 5.171-.2 7.431.079 2.712.173 5.92-1.019 7.55-.982 1.343-2.384.932-3.608.458-2.779-1.075-5.766-2.364-7.641-6.228a10.438 10.438 0 0 1-.958-3.038 19.733 19.733 0 0 1-.017-4.114q.211-3.226.425-6.452z" class="cls-13" data-name="Path 4214" transform="translate(-485.048 -588.72)"/>
                            <path id="Path_4215" d="M568.58 694.716c.437-11.526-2.767-23.133-9.944-28.875 0 0-.194-.091-.538-.245.5-.968.553-1.845-1.586-2.79A54.357 54.357 0 0 0 543 659.589c-1.268-.088-1.331.785-1.322 1.892a36.867 36.867 0 0 0-3.58 1.207c-3.478 1.184-7.906 3.088-9 5.626-3.934 9.086-3.462 21.7-9.048 47.2-4.073 10.443-6.965 18.484-6.5 19.088 1.242 1.607 35.23 11.611 43.432 11.051.241.039.482.08.721.117 3.962.6 3.1-5.61 3.209-6.571 1.623-14.859 7.101-29.543 7.668-44.483z" class="cls-2" data-name="Path 4215" transform="translate(-474.566 -599.848)"/>
                            <path id="Path_4216" d="M555.8 663.512a27.749 27.749 0 0 0 6.523 1.581 36.906 36.906 0 0 0 6.263.5c.5-.968.553-1.845-1.586-2.79a54.356 54.356 0 0 0-13.516-3.217c-1.268-.088-1.332.785-1.322 1.892a25.093 25.093 0 0 0 3.638 2.034z" class="cls-15" data-name="Path 4216" transform="translate(-485.053 -599.848)"/>
                            <path id="Path_4217" d="M583.246 697.465c.41-10.816-2.387-21.7-8.662-27.747-.01 3.568-2.549 7.169-7.018 6.772 3.043 16 3.577 32.241 4.212 48.462.281 7.177.343 14.247.076 21.424q-.038 1.031-.052 2.053c.188.031.377.063.563.091 3.962.6 3.1-5.61 3.209-6.571 1.626-14.86 7.105-29.544 7.672-44.484z" class="cls-16" data-name="Path 4217" transform="translate(-489.232 -602.597)"/>
                            <g id="Group_3888" data-name="Group 3888" transform="translate(89.723)">
                                <path id="Path_4218" d="M598.492 622.124l-13.081 6.755-2.215-4.159 13.081-6.754z" class="cls-9" data-name="Path 4218" transform="translate(-583.195 -588.56)"/>
                                <path id="Path_4219" d="M648.467 583.264c-2.322-4.292-6.607-6.522-9.57-4.979a4.2 4.2 0 0 0-.717.486l-50.692 32.621a.8.8 0 0 0-.271 1.043l2.089 3.922a.794.794 0 0 0 1 .364l56.4-22.638c.057-.02.112-.046.168-.068l.431-.174-.006-.01h.006c2.965-1.544 3.485-6.274 1.162-10.567z" class="cls-17" data-name="Path 4219" transform="translate(-584.261 -577.664)"/>
                                <path id="Path_4220" d="M667.142 583.1c-2.331-4.308-6.631-6.546-9.605-5a4.159 4.159 0 0 0-.72.487l-1.587 1.021c2.808-.4 6.224 1.759 8.211 5.431s1.894 7.626.005 9.69l1.928-.774c.057-.02.112-.046.169-.068l.433-.174-.005-.01h.006c2.974-1.544 3.495-6.291 1.165-10.603z" class="cls-9" data-name="Path 4220" transform="translate(-602.734 -577.615)"/>
                            </g>
                            <path id="Path_4221" d="M625.028 604.123a1.479 1.479 0 0 0-.891-.867 1.054 1.054 0 0 0-.251-.055.606.606 0 0 0-.288.042.625.625 0 0 0-.31.323c-.06.133-.061.279-.106.411-.111-.088-.139-.255-.235-.363a1 1 0 0 0-.445-.295.663.663 0 0 0-.54 0c-.3.181-.259.66-.267.957a5.45 5.45 0 0 0 .069 1 1.161 1.161 0 0 0-.375-.243.541.541 0 0 0-.2-.042c-.258 0-.425.265-.515.5a4.179 4.179 0 0 0 0 2.6c.258.883.412 1.794.677 2.674a8.32 8.32 0 0 0 .375 1.264 3.748 3.748 0 0 0 .992 1.111 22.878 22.878 0 0 0 4.214 3.057c.163.088.324.163.483.232l.664 2.654 4.178-.883-.748-2.754c.012-.017.031-.031.041-.048a2.507 2.507 0 0 0 .3-1.995 5.958 5.958 0 0 0-.839-1.795 4.228 4.228 0 0 0-.61-.76 11.557 11.557 0 0 0-1.644-1.314 5.691 5.691 0 0 1-.772-.543.78.78 0 0 1-.294-.59 10.833 10.833 0 0 0-.371-1.722 1.286 1.286 0 0 0-.125-.3 5.184 5.184 0 0 0-1.29-1.781 1.128 1.128 0 0 0-.518-.235c-.106-.016-.2.028-.281-.071a.61.61 0 0 1-.078-.169z" class="cls-13" data-name="Path 4221" transform="translate(-503.581 -584.554)"/>
                            <path id="Path_4222" d="M593.887 619.187a.99.99 0 0 0 .528.355.417.417 0 0 0 .5-.3.718.718 0 0 0 1.305.043c.036-.074.069-.165.15-.188s.18.059.252.126a1.035 1.035 0 0 0 1.342-.022 1.244 1.244 0 0 0 .292-1.341.755.755 0 0 0 .9-.281 1.238 1.238 0 0 0 .144-.977 4.52 4.52 0 0 0-.378-.944 3.061 3.061 0 0 0-.833-1.24.938.938 0 0 0-1.334.146 1.921 1.921 0 0 0-1-.216 1.208 1.208 0 0 1-1.667.6 1.607 1.607 0 0 0-.531.92c-.749-.109-.722.971-.59 1.416a4.8 4.8 0 0 0 .92 1.903z" class="cls-13" data-name="Path 4222" transform="translate(-496.102 -587.543)"/>
                            <path id="Path_4223" d="M559.592 679.206c.431-.9-.671-7.58 4.527-9.795 5.942-2.533 21.124-1.333 28.652-2.847 3.98 3.92 6.785 9.409 8.437 14.641-7.193 1.744-23.411 4.765-29.1 8.252-.557.342-4.71.1-6.154-.65a11.16 11.16 0 0 1-6.362-9.601z" class="cls-2" data-name="Path 4223" transform="translate(-487.07 -601.742)"/>
                            <path id="Path_4224" d="M603.25 673.021a62.429 62.429 0 0 1 3.273 7.035q.435 1.1.829 2.22c1.779-.394 3.381-.753 4.685-1.069-1.652-5.232-4.457-10.722-8.437-14.641a37.316 37.316 0 0 1-4.087.54c1.187 2.001 2.623 3.877 3.737 5.915z" class="cls-15" data-name="Path 4224" transform="translate(-497.898 -601.742)"/>
                            <path id="Path_4225" d="M603.485 683.108l1.411-.314c-.135-.382-.266-.766-.409-1.145a60.434 60.434 0 0 0-4.069-8.7c-1.076-1.883-2.425-3.617-3.5-5.5-.6.04-1.209.076-1.833.107a69.893 69.893 0 0 1 8.4 15.552z" class="cls-15" data-name="Path 4225" transform="translate(-496.697 -601.982)"/>
                        </g>
                        <path id="Path_4226" d="M571.046 619.57c.088-1.309-.788-2.358-.523-3.588s.493-2.307-.254-3.467a3.726 3.726 0 0 0-3.669-1.615 2.925 2.925 0 0 0-2.264-3.062 5.753 5.753 0 0 0-4.024.7 3.17 3.17 0 0 0-1.118.845 1.7 1.7 0 0 0-.807-1.757 3.456 3.456 0 0 0-1.988-.431 10.884 10.884 0 0 0-6.831 3.29c-.552.519-1.119 1.261-.835 1.964a5.733 5.733 0 0 0-5.976 2.513 8.219 8.219 0 0 0-.847 6.655 3.483 3.483 0 0 0-2.769 2.9 7.082 7.082 0 0 0 .745 4.161c.831 1.823 2.2 3.6 4.157 4.04-.7 1-.308 2.385.305 3.436.973 1.669 2.763 3.139 4.663 2.79a3.16 3.16 0 0 0 .947-.346 6.386 6.386 0 0 0 11.606-3.051 2.635 2.635 0 0 0-.165-1.387 6.5 6.5 0 0 0-1.3-1.42 3.488 3.488 0 0 1 .953-5.226c.864-.435 1.879-.477 2.756-.884a4.91 4.91 0 0 0 2.466-4.669c-.009-.276-.042-.538-.069-.8.051-.062.114-.113.159-.179a2.183 2.183 0 0 0 2.815 1.329 3.121 3.121 0 0 0 1.867-2.741z" class="cls-18" data-name="Path 4226" transform="translate(-481.5 -585.639)"/>
                        <path id="Path_4227" d="M585.112 628.835c.566 1.183.639 2.326.163 2.554s-1.322-.545-1.889-1.728-.639-2.326-.162-2.554 1.321.546 1.888 1.728z" class="cls-17" data-name="Path 4227" transform="translate(-493.394 -591.029)"/>
                        <path id="Path_4228" d="M589.051 626.805c.567 1.182.64 2.326.163 2.554s-1.323-.545-1.889-1.728-.639-2.326-.162-2.554 1.322.545 1.888 1.728z" class="cls-9" data-name="Path 4228" transform="translate(-494.462 -590.478)"/>
                    </g>
                </g>
            </g>
            <rect id="Rectangle_711" width="151.743" height="11.655" class="cls-8" data-name="Rectangle 711" rx="5.828" transform="rotate(180 102.252 246.333)"/>
            <path id="Path_4229" d="M583.823 775.243a16.549 16.549 0 0 1 8.3-3.7l-3.526-5.859h12.157l-3.5 5.81a16.669 16.669 0 0 1 8.7 3.752c6.3 5.649 6.752 19-11.066 19s-17.367-13.354-11.065-19.003z" class="cls-16" data-name="Path 4229" transform="translate(-400.077 -279.777)"/>
            <path id="Path_4230" d="M494.635 775.243a16.546 16.546 0 0 1 8.3-3.7l-3.526-5.859h12.157l-3.5 5.81a16.665 16.665 0 0 1 8.7 3.752c6.3 5.649 6.752 19-11.066 19s-17.367-13.354-11.065-19.003z" class="cls-16" data-name="Path 4230" transform="translate(-375.885 -279.777)"/>
            <path id="Path_4231" d="M404.421 775.243a16.549 16.549 0 0 1 8.3-3.7l-3.526-5.859h12.157l-3.5 5.81a16.67 16.67 0 0 1 8.7 3.752c6.3 5.649 6.752 19-11.067 19s-17.366-13.354-11.064-19.003z" class="cls-16" data-name="Path 4231" transform="translate(-351.415 -279.777)"/>
        </g>
        <g id="Group_3897" data-name="Group 3897" transform="translate(246.631 203.37)">
            <g id="Group_3895" data-name="Group 3895" transform="translate(0 47.16)">
                <g id="Group_3894" data-name="Group 3894">
                    <path id="Path_4232" d="M296.37 306.956l.909.9a100.3 100.3 0 0 0-7.477 8.517l-1-.786a101.526 101.526 0 0 1 7.568-8.631zm-14.187 18l1.077.684a129.567 129.567 0 0 0-5.657 9.848l-1.133-.587a131.6 131.6 0 0 1 5.713-9.943zm-10.566 20.333l1.175.493a146.72 146.72 0 0 0-3.988 10.649l-1.211-.4a148.779 148.779 0 0 1 4.024-10.74zM264.4 367.04l1.239.308a141.375 141.375 0 0 0-2.026 9.52q-.142.8-.274 1.605l-1.259-.206q.132-.811.276-1.621a141.942 141.942 0 0 1 2.044-9.606zm17.509 4.09a42.534 42.534 0 0 1 11.052-2.544l.117 1.271a41.274 41.274 0 0 0-10.721 2.468l-.192.073-.458-1.191zm-10.379 5.514l.733 1.044a52.509 52.509 0 0 0-8.446 7.441l-.939-.864a53.786 53.786 0 0 1 8.652-7.621zm32.972-7.358a47.921 47.921 0 0 1 10.912 3.765l-.555 1.149a46.611 46.611 0 0 0-10.621-3.666zM260.9 389.7l1.275.041a54.462 54.462 0 0 0 .721 11.241l-1.256.22a55.658 55.658 0 0 1-.74-11.502zm-4.962 3.765l1.087.669a61.952 61.952 0 0 0-5.01 10.112l-1.189-.46a63.245 63.245 0 0 1 5.116-10.323zm69.222-14.23a41.868 41.868 0 0 1 7.917 8.414l-1.046.732a40.6 40.6 0 0 0-7.677-8.158zm-77.456 35.642l1.256.226a67.867 67.867 0 0 0-1.058 11.246l-1.275-.015a69.071 69.071 0 0 1 1.081-11.46zm18.69-3.293a35.756 35.756 0 0 0 6.734 8.9l-.888.915a37.015 37.015 0 0 1-6.974-9.222zm70.325-13.125l1.238-.305a27.047 27.047 0 0 1 .793 6.621 27.49 27.49 0 0 1-.485 4.973l-1.253-.238a26.337 26.337 0 0 0 .463-4.742 25.9 25.9 0 0 0-.753-6.311zm-89.337 39.349l1.264-.177a85.5 85.5 0 0 0 2.328 11.08l-1.229.343a86.8 86.8 0 0 1-2.36-11.248zm34.764-10.652a47.753 47.753 0 0 0 10.4 4.278l-.345 1.229a49.072 49.072 0 0 1-10.673-4.392zm50.679-7.373l1.067.7a29.287 29.287 0 0 1-8.145 8.249l-.707-1.062a27.992 27.992 0 0 0 7.788-7.888zm-29.177 13.385a40.877 40.877 0 0 0 11.149-1.125l.305 1.239a42.173 42.173 0 0 1-11.5 1.161zm-48.973 26.255a105.038 105.038 0 0 0 4.889 10.233l-1.12.611a106.42 106.42 0 0 1-4.949-10.357zm10.831 19.9a111.245 111.245 0 0 0 3.3 4.547 134.83 134.83 0 0 0 3.584 4.473l-.978.82a134.832 134.832 0 0 1-3.618-4.516 110.857 110.857 0 0 1-3.344-4.6zm14.537 17.417a137.303 137.303 0 0 0 8.324 7.729l-.829.97c-2.9-2.473-5.723-5.1-8.4-7.8zm17.257 14.747a140.166 140.166 0 0 0 9.474 6.27l-.66 1.092a143.082 143.082 0 0 1-9.559-6.326zm19.427 11.745a137.698 137.698 0 0 0 10.367 4.642l-.473 1.185a139.638 139.638 0 0 1-10.464-4.684z" class="cls-19" data-name="Path 4232" transform="translate(-246.631 -306.956)"/>
                    <path id="Path_4233" d="M371.788 615.313c1.8.547 3.655 1.065 5.5 1.541l-.319 1.236c-1.866-.479-3.735-1-5.555-1.556z" class="cls-19" data-name="Path 4233" transform="translate(-280.478 -390.595)"/>
                </g>
            </g>
            <g id="Group_3896" data-name="Group 3896" transform="translate(44.42)">
                <path id="Path_4234" d="M324.346 287.627l70.076-45.384-57.183 29.457z" class="cls-7" data-name="Path 4234" transform="translate(-312.13 -242.243)"/>
                <path id="Path_4235" d="M307.584 249.023s66.042-4.141 82.292-6.78c0 0-36.606 42.579-45.565 57.5L332.692 271.7l-5.3-7.573z" class="cls-20" data-name="Path 4235" transform="translate(-307.584 -242.243)"/>
                <path id="Path_4236" d="M324.346 287.627l12.893-15.927 57.183-29.462-62.487 21.889z" class="cls-19" data-name="Path 4236" transform="translate(-312.13 -242.243)"/>
            </g>
        </g>
        <path id="Path_4237" d="M297.465 674.851l-18.159-.049s-4.407-.609 2.594-1.2l7.18-.61s-1.354-2.065.961-4.3c2.649-1.836 3.94 1.052 5.385-2.371 1.2-2.844 4.509-10.925 13.037-11.345 8.782-.434 13.217 4.134 13.217 4.134s-1.1-2.485-2.621-3.332a18.54 18.54 0 0 0 5.889-3.843c2.78-2.72 8.291-6.827 17.471-5.315 9.457 1.557 19.976 11.708 18.806 21.758 0 0 1.282-.183 1.295-3.819 0 0 5.136 1.327 5.145 6.125s-9.367 4.594-10.971 4.674-59.229-.507-59.229-.507z" class="cls-21" data-name="Path 4237" transform="translate(-8.491 -148.467)"/>
        <path id="Path_4238" d="M774.539 480.242h-20.148c-.576-8.369-7.6-15.221-17.93-15.221A22.525 22.525 0 0 0 718 474.6c-3.973-10.16-10.135-18.893-22.3-18.893-12.365 0-22.672 8.7-22.954 18.905a21.715 21.715 0 0 0-11.078-2.207c-9.345.461-12.97 9.316-14.286 12.433-1.584 3.749-3 .586-5.9 2.6-2.536 2.452-1.053 4.714-1.053 4.714l-7.868.668c-7.672.652-2.842 1.32-2.842 1.32l19.9.053s37.484.378 55.494.512a9.413 9.413 0 0 0 5.053 1.675h45.455a12.645 12.645 0 0 0 9.206-5.058 7.455 7.455 0 0 0 .945-1.756h4.558a8.641 8.641 0 0 0 7.07-4.466c1.3-2.619.039-4.858-2.861-4.858z" class="cls-22" data-name="Path 4238" transform="translate(-103.502 -96.774)"/>
        <path id="Path_4417" d="M631.59 480.242h20.148c.576-8.369 7.6-15.221 17.93-15.221a22.525 22.525 0 0 1 18.464 9.58c3.973-10.16 10.135-18.893 22.3-18.893 12.365 0 22.672 8.7 22.954 18.906a21.714 21.714 0 0 1 11.078-2.207c9.345.461 12.97 9.316 14.286 12.434 1.584 3.749 3 .586 5.9 2.6 2.536 2.452 1.053 4.714 1.053 4.714l7.868.668c7.672.652 2.842 1.32 2.842 1.32l-19.9.053s-37.484.378-55.494.512a9.413 9.413 0 0 1-5.053 1.675h-45.458a12.645 12.645 0 0 1-9.206-5.058 7.455 7.455 0 0 1-.945-1.756H635.8a8.641 8.641 0 0 1-7.066-4.464c-1.305-2.624-.045-4.863 2.856-4.863z" class="cls-23" data-name="Path 4417" transform="translate(-87.279 112.226)"/>
        <path id="Path_4418" d="M845.22 492.093h-29.881c-.855-12.412-11.272-22.574-26.592-22.574a33.406 33.406 0 0 0-27.383 14.208c-5.892-15.068-15.031-28.02-33.065-28.02-18.338 0-33.624 12.908-34.042 28.038a32.2 32.2 0 0 0-16.43-3.274c-13.859.684-19.235 13.816-21.187 18.44-2.349 5.561-4.445.869-8.751 3.852-3.761 3.636-1.562 6.992-1.562 6.992l-11.668.991c-11.379.966-4.215 1.957-4.215 1.957l29.511.079s55.591.561 82.3.759a13.959 13.959 0 0 0 7.494 2.484h67.413c4.579 0 10.587-3.186 13.652-7.5a11.058 11.058 0 0 0 1.4-2.6h6.76a12.815 12.815 0 0 0 10.48-6.62c1.937-3.891.068-7.212-4.234-7.212z" class="cls-22" data-name="Path 4418" transform="translate(-48.588 -292.774)"/>
        <path id="Path_4416" d="M736.72 473.9h-14.94c-.427-6.206-5.636-11.287-13.3-11.287a16.7 16.7 0 0 0-13.691 7.1c-2.946-7.534-7.515-14.01-16.532-14.01-9.169 0-16.812 6.454-17.021 14.019a16.1 16.1 0 0 0-8.215-1.637c-6.93.342-9.617 6.908-10.593 9.22-1.174 2.78-2.223.434-4.376 1.926-1.881 1.818-.781 3.5-.781 3.5l-5.834.5c-5.689.483-2.107.979-2.107.979l14.755.039s27.8.281 41.151.379a6.98 6.98 0 0 0 3.747 1.242h33.706a9.377 9.377 0 0 0 6.826-3.751 5.529 5.529 0 0 0 .7-1.3h3.38a6.408 6.408 0 0 0 5.24-3.31c.965-1.948.035-3.609-2.115-3.609z" class="cls-22" data-name="Path 4416" transform="translate(62.412 12.738)"/>
    </g>
</svg>
