<svg xmlns="http://www.w3.org/2000/svg" width="159.489" height="130.85" viewBox="0 0 159.489 130.85">
    <defs>
        <style>
            .cls-1{opacity:.628}.cls-2,.cls-4{fill:#009bdb}.cls-2{opacity:.078}.cls-3{fill:#e1efff;opacity:.413}
        </style>
    </defs>
    <g id="web" transform="translate(-880.255 -807.15)">
        <g id="Group_3122" class="cls-1" data-name="Group 3122" transform="translate(-166.517 335.284)">
            <path id="Path_970" d="M115.731 82.126c-10.687-5.074-23.133-7.441-34.454-4.008-13.791 4.182-23.669 16-32.619 27.3-6.336 8-12.738 16.22-16.107 25.851s-3.226 21.084 2.892 29.249c4.5 6 11.51 9.462 17.76 13.615 10.761 7.15 19.848 16.861 31.465 22.514a52.776 52.776 0 0 0 35.871 3.625c10.939-2.81 20.617-9.049 30.536-14.452 9.074-4.943 18.658-9.362 26.079-16.552 7.345-7.116 12.21-16.93 12.651-27.147s-3.766-20.7-11.649-27.213a40.066 40.066 0 0 0-12.111-6.788c-4.112-1.452-39.618-20.915-50.314-25.994z" class="cls-2" data-name="Path 970" transform="translate(1016.425 399.873)"/>
            <path id="Path_981" d="M103.362 89.107c-11.522-2.686-24.186-2.353-34.519 3.409-12.587 7.018-19.726 20.668-26.07 33.608-4.491 9.162-9 18.558-10.243 28.685s1.33 21.288 9.044 27.965c5.674 4.911 13.259 6.8 20.249 9.528C73.859 197 84.8 204.557 97.356 207.611a52.776 52.776 0 0 0 35.821-4.084c10.092-5.072 18.222-13.225 26.765-20.614 7.815-6.759 16.242-13.115 21.964-21.717 5.664-8.515 8.331-19.139 6.59-29.216s-8.081-19.424-17.168-24.115a40.062 40.062 0 0 0-13.277-4.058c-4.325-.542-43.158-12.007-54.689-14.7z" class="cls-3" data-name="Path 981" transform="translate(1016.9 384.381)"/>
        </g>
        <g id="web-programming" transform="translate(903 838)">
            <path id="Path_2800" d="M128.978 205.353a1.864 1.864 0 0 1-1.211-.447L115.658 194.6a1.872 1.872 0 0 1 0-2.85l12.109-10.311a1.871 1.871 0 1 1 2.426 2.849l-10.435 8.886 10.435 8.886a1.872 1.872 0 0 1-1.214 3.3zm0 0" class="cls-4" data-name="Path 2800" transform="translate(-84.258 -132.607)"/>
            <path id="Path_2801" d="M251.58 205.353a1.872 1.872 0 0 1-1.214-3.3l10.434-8.883-10.435-8.886a1.871 1.871 0 0 1 2.426-2.849l12.109 10.311a1.872 1.872 0 0 1 0 2.85l-12.109 10.311a1.864 1.864 0 0 1-1.211.446zm0 0" class="cls-4" data-name="Path 2801" transform="translate(-182.956 -132.607)"/>
            <path id="Path_2802" d="M190.828 192.6a1.9 1.9 0 0 1-.388-.041 1.872 1.872 0 0 1-1.445-2.217l7.547-35.83a1.871 1.871 0 0 1 3.662.772l-7.547 35.83a1.871 1.871 0 0 1-1.829 1.486zm0 0" class="cls-4" data-name="Path 2802" transform="translate(-138.443 -112.118)"/>
            <path id="Path_2803" d="M100.779 100H12.564A12.578 12.578 0 0 1 0 87.436V12.564A12.579 12.579 0 0 1 12.564 0h88.215a12.579 12.579 0 0 1 12.564 12.564v74.872A12.578 12.578 0 0 1 100.779 100zM12.564 3.742a8.832 8.832 0 0 0-8.822 8.822v74.872a8.832 8.832 0 0 0 8.822 8.822h88.215a8.832 8.832 0 0 0 8.822-8.822V12.564a8.832 8.832 0 0 0-8.822-8.822zm0 0" class="cls-4" data-name="Path 2803"/>
            <path id="Path_2804" d="M111.472 101.832H1.871a1.871 1.871 0 1 1 0-3.742h109.6a1.871 1.871 0 1 1 0 3.742zm0 0" class="cls-4" data-name="Path 2804" transform="translate(0 -71.869)"/>
            <path id="Path_2805" d="M103.371 46.133a5.922 5.922 0 1 1 5.922-5.922 5.93 5.93 0 0 1-5.922 5.922zm0-8.1a2.179 2.179 0 1 0 2.179 2.179 2.182 2.182 0 0 0-2.179-2.18zm0 0" class="cls-4" data-name="Path 2805" transform="translate(-71.399 -25.123)"/>
            <path id="Path_2806" d="M35.308 45.918A5.922 5.922 0 1 1 41.23 40a5.928 5.928 0 0 1-5.922 5.918zm0-8.1A2.179 2.179 0 1 0 37.488 40a2.183 2.183 0 0 0-2.18-2.183zm0 0" class="cls-4" data-name="Path 2806" transform="translate(-21.531 -24.966)"/>
            <path id="Path_2807" d="M171.436 46.346a5.921 5.921 0 1 1 5.922-5.922 5.928 5.928 0 0 1-5.922 5.922zm0-8.1a2.179 2.179 0 1 0 2.179 2.179 2.181 2.181 0 0 0-2.179-2.18zm0 0" class="cls-4" data-name="Path 2807" transform="translate(-121.27 -25.28)"/>
        </g>
    </g>
</svg>
