<svg xmlns="http://www.w3.org/2000/svg" xmlns:xlink="http://www.w3.org/1999/xlink" width="24" height="24" viewBox="0 0 24 24">
  <defs>
    <clipPath id="clip-path">
      <rect id="Rectangle_878" data-name="Rectangle 878" width="24" height="24" transform="translate(-1121 2641)" fill="#002e7f"/>
    </clipPath>
  </defs>
  <g id="wireframe-active" transform="translate(1121 -2641)" clip-path="url(#clip-path)">
    <g id="prototyping" transform="translate(-1121 2641.4)">
      <path id="Path_11859" data-name="Path 11859" d="M22,0H14.8a2,2,0,0,0-2,2V4h-8V3.2A2.4,2.4,0,1,0,0,3.2V20.8a2.4,2.4,0,0,0,2.4,2.4H20a2.4,2.4,0,0,0,2.4-2.4v-.84A2,2,0,0,0,24,18V2a2,2,0,0,0-2-2ZM14.8.8H22A1.2,1.2,0,0,1,23.2,2V3.2H13.6V2A1.2,1.2,0,0,1,14.8.8Zm8.4,14H13.6V4h9.6ZM12.8,8.6,8.425,6.8H12.8Zm-.65.6-5.3,2.184A.39.39,0,0,1,6.8,11.2v-4a.389.389,0,0,1,.05-.184Zm.65.6v1.8H8.425ZM2.4,1.6A1.6,1.6,0,0,1,4,3.2V17.416a2.386,2.386,0,0,0-3.2,0V3.2A1.6,1.6,0,0,1,2.4,1.6ZM20,22.4H2.4A1.6,1.6,0,0,1,.8,20.8V19.2a1.6,1.6,0,1,1,3.2,0,.4.4,0,0,0,.8,0V4.8h8V6H7.2a1.185,1.185,0,0,0-.606.17c-.005,0-.01.006-.015.008-.03.018-.059.037-.087.058a.369.369,0,0,0-.037.03A1.193,1.193,0,0,0,6,7.2v4a1.2,1.2,0,0,0,.465.942.4.4,0,0,0,.09.067A1.192,1.192,0,0,0,7.2,12.4h5.6v1.2H10.4a.4.4,0,1,0,0,.8h2.4v1.2H6.4a.4.4,0,1,0,0,.8h6.4V18a2,2,0,0,0,2,2h6.8v.8A1.6,1.6,0,0,1,20,22.4Zm2-3.2H14.8A1.2,1.2,0,0,1,13.6,18V15.6h9.6V18A1.2,1.2,0,0,1,22,19.2Zm0,0" fill="#002e7f"/>
      <path id="Path_11860" data-name="Path 11860" d="M17.6,2.4h1.6a.4.4,0,0,0,0-.8H17.6a.4.4,0,0,0,0,.8Zm0,0" fill="#002e7f"/>
      <path id="Path_11861" data-name="Path 11861" d="M18.8,16H18a.8.8,0,0,0-.8.8v.8a.8.8,0,0,0,.8.8h.8a.8.8,0,0,0,.8-.8v-.8A.8.8,0,0,0,18.8,16ZM18,17.6v-.8h.8v.8Zm0,0" fill="#002e7f"/>
      <path id="Path_11862" data-name="Path 11862" d="M14.67,9.794c.005.006.012.01.018.015A.791.791,0,0,0,15.2,10h6.4a.8.8,0,0,0,.514-.192l.017-.014A.8.8,0,0,0,22.4,9.2V5.6a.8.8,0,0,0-.308-.626l-.01-.009A.8.8,0,0,0,21.6,4.8H15.2a.793.793,0,0,0-.48.166l-.008.007A.8.8,0,0,0,14.4,5.6V9.2a.8.8,0,0,0,.27.594Zm6.93-.908L19.168,7.4,21.6,5.914ZM20.58,9.2H16.22L18.4,7.869ZM18.4,6.931,16.22,5.6h4.36Zm-.768.469L15.2,8.886V5.914Zm0,0" fill="#002e7f"/>
      <path id="Path_11863" data-name="Path 11863" d="M15.2,11.6h1.6a.4.4,0,1,0,0-.8H15.2a.4.4,0,0,0,0,.8Zm0,0" fill="#002e7f"/>
      <path id="Path_11864" data-name="Path 11864" d="M22,10.8H18.4a.4.4,0,1,0,0,.8H22a.4.4,0,1,0,0-.8Zm0,0" fill="#002e7f"/>
      <path id="Path_11865" data-name="Path 11865" d="M22,12.4H15.2a.4.4,0,0,0,0,.8H22a.4.4,0,1,0,0-.8Zm0,0" fill="#002e7f"/>
      <path id="Path_11866" data-name="Path 11866" d="M6.4,14.4h2a.4.4,0,1,0,0-.8h-2a.4.4,0,1,0,0,.8Zm0,0" fill="#002e7f"/>
    </g>
  </g>
</svg>
