<svg xmlns="http://www.w3.org/2000/svg" xmlns:xlink="http://www.w3.org/1999/xlink" width="24" height="24" viewBox="0 0 24 24">
  <defs>
    <clipPath id="clip-path">
      <rect id="Rectangle_426" data-name="Rectangle 426" width="24" height="24" transform="translate(-1121 2817)" fill="#bcbcbc"/>
    </clipPath>
  </defs>
  <g id="xml" transform="translate(1121 -2817)" clip-path="url(#clip-path)">
    <g id="xml-file-format-symbol" transform="translate(-1121 2817)">
      <path id="Path_3762" data-name="Path 3762" d="M21.282,8.585h-.576V5.8a.407.407,0,0,0-.005-.053.461.461,0,0,0-.112-.3L15.962.161l0,0a.463.463,0,0,0-.094-.079L15.834.061a.493.493,0,0,0-.093-.039L15.716.013A.477.477,0,0,0,15.608,0H4.235a.942.942,0,0,0-.941.941V8.584H2.718A1.345,1.345,0,0,0,1.373,9.93v7A1.346,1.346,0,0,0,2.718,18.27h.576v4.789A.942.942,0,0,0,4.235,24H19.765a.942.942,0,0,0,.941-.941V18.27h.576a1.345,1.345,0,0,0,1.345-1.345v-7A1.345,1.345,0,0,0,21.282,8.585ZM4.235.941h10.9V5.757a.471.471,0,0,0,.471.471h4.157V8.585H4.235ZM16.1,16.319H14.7L14.611,13.9c-.028-.76-.057-1.678-.057-2.6h-.028c-.2.807-.46,1.707-.7,2.447l-.769,2.466H11.938l-.675-2.447c-.206-.741-.421-1.641-.572-2.466h-.019c-.037.853-.066,1.828-.113,2.616l-.112,2.4H9.126l.4-6.32h1.9l.619,2.11c.2.731.394,1.518.534,2.259h.028c.178-.731.394-1.565.6-2.269l.675-2.1h1.866Zm-13.052,0,1.828-3.2L3.116,10H4.756l.553,1.153c.188.385.328.694.479,1.05h.018c.15-.4.271-.684.431-1.05L6.772,10H8.4L6.622,13.085,8.5,16.319H6.847l-.572-1.144c-.234-.44-.384-.769-.562-1.135H5.694c-.131.366-.291.694-.488,1.135l-.525,1.144H3.05ZM19.765,22.8H4.235V18.27H19.765V22.8Zm1.382-6.485H17.2V10h1.435v5.12h2.513v1.2Z" fill="#bcbcbc"/>
    </g>
  </g>
</svg>
